# Blender v2.75 (sub 0) OBJ File: ''
# www.blender.org
mtllib Armory Sing.mtl
o Armory_Sing_Cube.011
v -1.329470 -0.722562 0.035059
v -1.329470 -0.722562 -0.035070
v -1.373822 0.628157 -0.035067
v -1.373822 0.628157 0.035060
v 1.373820 -0.628155 -0.035067
v 1.329468 0.722564 -0.035066
v 1.373820 -0.628155 0.035060
v 1.329468 0.722564 0.035061
vt 0.333333 0.333333
vt 0.666667 0.333333
vt 0.666667 0.000000
vt 0.333333 0.000000
vt 0.000000 0.666667
vt 0.333333 0.666667
vt 0.000000 0.333333
vt 0.000000 0.000000
vt 0.666667 0.666667
vt 1.000000 0.000000
vt 1.000000 0.333333
vt 0.000000 1.000000
vt 0.333333 1.000000
vn -0.999500 -0.032800 0.000000
vn 0.000000 0.000000 -1.000000
vn 0.999500 0.032800 0.000000
vn -0.000000 -0.000000 1.000000
vn -0.034900 0.999400 0.000000
vn 0.034900 -0.999400 0.000000
usemtl None.011
s 1
f 1/1/1 4/2/1 3/3/1 2/4/1
f 2/5/2 3/6/2 6/1/2 5/7/2
f 5/7/3 6/1/3 8/4/3 7/8/3
f 7/1/4 8/6/4 4/9/4 1/2/4
f 4/10/5 8/3/5 6/2/5 3/11/5
f 7/5/6 1/12/6 2/13/6 5/6/6
