# Blender v2.75 (sub 0) OBJ File: ''
# www.blender.org
mtllib Building _Keneth_Model_2.mtl
o pCube15_Untitled.003
v 0.021798 -0.001236 -0.389970
v 0.175364 -0.001236 -0.389970
v 0.021798 0.631892 -0.389970
v 0.175364 0.631892 -0.389970
v 0.021798 0.631892 -0.584751
v 0.175364 0.631892 -0.574501
v 0.021798 0.631892 -0.748783
v 0.175364 0.631892 -0.759032
v 0.021798 0.631892 -0.943564
v 0.175364 0.631892 -0.943564
v 0.021798 -0.001236 -0.943564
v 0.175364 -0.001236 -0.943564
v 0.021798 -0.001236 -0.759033
v 0.175364 -0.001236 -0.759033
v 0.021798 -0.001236 -0.574501
v 0.175364 -0.001236 -0.574501
v 0.351246 -0.001236 -0.943564
v 0.351246 -0.001236 -0.759033
v 0.351246 0.631892 -0.943564
v 0.351246 0.631892 -0.759032
v 0.351246 -0.001236 -0.574501
v 0.351246 -0.001236 -0.389970
v 0.351246 0.631892 -0.574501
v 0.351246 0.631892 -0.389970
v 0.021798 0.631892 -0.389970
v 0.175364 0.631892 -0.389970
v 0.175364 0.631892 -0.574501
v 0.021798 0.631892 -0.584751
v 0.175364 0.631892 -0.759032
v 0.021798 0.631892 -0.748783
v 0.175364 0.631892 -0.943564
v 0.021798 0.631892 -0.943564
v 0.351246 0.631892 -0.759032
v 0.351246 0.631892 -0.943564
v 0.351246 0.631892 -0.389970
v 0.351246 0.631892 -0.574501
v 0.002602 0.645090 -0.366904
v 0.173970 0.645090 -0.366904
v 0.173970 0.645090 -0.585062
v 0.002602 0.645090 -0.584751
v 0.173970 0.645090 -0.748472
v 0.002602 0.645090 -0.748783
v 0.173970 0.645090 -0.966630
v 0.002602 0.645090 -0.966630
v 0.373232 0.645090 -0.748842
v 0.373232 0.645090 -0.966630
v 0.373232 0.645090 -0.366904
v 0.373232 0.645090 -0.584691
v 0.002602 0.659686 -0.366904
v 0.173970 0.659686 -0.366904
v 0.173970 0.659686 -0.585062
v 0.002602 0.659686 -0.584751
v 0.173970 0.659686 -0.748472
v 0.002602 0.659686 -0.748783
v 0.173970 0.659686 -0.966630
v 0.002602 0.659686 -0.966630
v 0.373232 0.659686 -0.748842
v 0.373232 0.659686 -0.966630
v 0.373232 0.659686 -0.366904
v 0.373232 0.659686 -0.584691
vt 0.375000 0.000000
vt 0.625000 0.000000
vt 0.625000 0.250000
vt 0.375000 0.250000
vt 0.625000 0.333333
vt 0.375000 0.333333
vt 0.625000 0.416667
vt 0.375000 0.416667
vt 0.625000 0.500000
vt 0.375000 0.500000
vt 0.625000 0.750000
vt 0.375000 0.750000
vt 0.625000 0.833333
vt 0.375000 0.833333
vt 0.625000 0.916667
vt 0.375000 0.916667
vt 0.625000 1.000000
vt 0.375000 1.000000
vt 0.791667 0.000000
vt 0.875000 0.000000
vt 0.875000 0.250000
vt 0.791667 0.250000
vt 0.708333 0.000000
vt 0.708333 0.250000
vt 0.125000 0.000000
vt 0.208333 0.000000
vt 0.208333 0.250000
vt 0.125000 0.250000
vt 0.291667 0.000000
vt 0.291667 0.250000
vn 0.000000 -0.000000 1.000000
vn 0.000000 1.000000 0.000000
vn 0.000000 0.000000 -1.000000
vn 0.000000 -1.000000 -0.000000
vn 1.000000 0.000000 0.000000
vn -1.000000 0.000000 0.000000
vn 0.000000 0.000000 0.000000
vn 0.000000 -0.868000 0.496600
vn -0.566600 -0.824000 -0.000000
vn 0.994500 0.105100 0.000000
vn 0.998100 0.062300 0.000000
vn 0.000000 -0.868000 -0.496600
vn 0.000800 -0.618400 0.785900
vn 0.514700 -0.857400 -0.000000
vn 0.000800 -0.618400 -0.785900
vn 0.001900 0.000000 1.000000
vn 0.001900 0.000000 -1.000000
usemtl lambert36
s 1
f 1/1/1 2/2/1 4/3/1 3/4/1
f 49/4/2 50/3/2 51/5/2 52/6/2
f 52/6/2 51/5/2 53/7/2 54/8/2
f 54/8/2 53/7/2 55/9/2 56/10/2
f 9/10/3 10/9/3 12/11/3 11/12/3
f 11/12/4 12/11/4 14/13/4 13/14/4
f 13/14/4 14/13/4 16/15/4 15/16/4
f 15/16/4 16/15/4 2/17/4 1/18/4
f 18/19/5 17/20/5 19/21/5 20/22/5
f 16/23/5 14/19/5 8/22/5 6/24/5
f 22/2/5 21/23/5 23/24/5 24/3/5
f 11/25/6 13/26/6 7/27/6 9/28/6
f 13/26/6 15/29/6 5/30/6 7/27/6
f 15/29/6 1/1/6 3/4/6 5/30/6
f 14/19/4 12/20/4 17/20/4 18/19/4
f 12/20/3 10/21/3 19/21/3 17/20/3
f 55/21/2 53/22/2 57/22/2 58/21/2
f 8/22/1 14/19/1 18/19/1 20/22/1
f 2/2/4 16/23/4 21/23/4 22/2/4
f 16/23/3 6/24/3 23/24/3 21/23/3
f 51/24/2 50/3/2 59/3/2 60/24/2
f 4/3/1 2/2/1 22/2/1 24/3/1
f 3/4/1 4/3/1 26/3/1 25/4/1
f 5/6/7 3/4/7 25/4/7 28/6/7
f 6/5/7 8/7/7 29/7/7 27/5/7
f 7/8/7 5/6/7 28/6/7 30/8/7
f 10/9/1 9/10/1 32/10/1 31/9/1
f 9/10/7 7/8/7 30/8/7 32/10/7
f 8/22/1 20/22/1 33/22/1 29/22/1
f 20/22/7 19/21/7 34/21/7 33/22/7
f 19/21/1 10/21/1 31/21/1 34/21/1
f 4/3/1 24/3/1 35/3/1 26/3/1
f 24/3/7 23/24/7 36/24/7 35/3/7
f 23/24/1 6/24/1 27/24/1 36/24/1
f 25/4/8 26/3/8 38/3/8 37/4/8
f 28/6/9 25/4/9 37/4/9 40/6/9
f 27/5/10 29/7/10 41/7/11 39/5/11
f 30/8/9 28/6/9 40/6/9 42/8/9
f 31/9/12 32/10/12 44/10/12 43/9/12
f 32/10/9 30/8/9 42/8/9 44/10/9
f 29/22/13 33/22/13 45/22/13 41/22/13
f 33/22/14 34/21/14 46/21/14 45/22/14
f 34/21/12 31/21/12 43/21/12 46/21/12
f 26/3/8 35/3/8 47/3/8 38/3/8
f 35/3/14 36/24/14 48/24/14 47/3/14
f 36/24/15 27/24/15 39/24/15 48/24/15
f 37/4/1 38/3/1 50/3/1 49/4/1
f 40/6/6 37/4/6 49/4/6 52/6/6
f 39/5/11 41/7/11 53/7/5 51/5/5
f 42/8/6 40/6/6 52/6/6 54/8/6
f 43/9/3 44/10/3 56/10/3 55/9/3
f 44/10/6 42/8/6 54/8/6 56/10/6
f 41/22/16 45/22/16 57/22/16 53/22/16
f 45/22/5 46/21/5 58/21/5 57/22/5
f 46/21/3 43/21/3 55/21/3 58/21/3
f 38/3/1 47/3/1 59/3/1 50/3/1
f 47/3/5 48/24/5 60/24/5 59/3/5
f 48/24/17 39/24/17 51/24/17 60/24/17
