# Blender v2.75 (sub 0) OBJ File: ''
# www.blender.org
mtllib Building _Keneth_Model_3.mtl
o polySurface4_Untitled.002
v -0.072346 0.003695 -1.056689
v 0.370210 0.003695 -1.056689
v -0.072346 0.262195 -1.056689
v 0.370210 0.262195 -1.056689
v -0.072346 0.262195 -1.948481
v 0.370210 0.262195 -1.948481
v -0.072346 0.003696 -1.948481
v 0.370210 0.003696 -1.948481
v -0.087287 0.262195 -1.013798
v 0.474178 0.262195 -1.013798
v 0.474178 0.262195 -1.991372
v -0.087287 0.262195 -1.991372
v -0.087287 0.285766 -1.013798
v 0.474178 0.285766 -1.013798
v 0.474178 0.285767 -1.991372
v -0.087287 0.285767 -1.991372
v -0.106972 0.293013 -0.986501
v 0.493863 0.293013 -0.986501
v 0.493863 0.293013 -2.018668
v -0.106972 0.293013 -2.018668
v -0.106972 0.318844 -0.986501
v 0.493863 0.318844 -0.986501
v 0.493863 0.318845 -2.018668
v -0.106972 0.318845 -2.018668
v -0.071252 0.318844 -1.058538
v 0.369116 0.318844 -1.058538
v 0.369116 0.318845 -1.946632
v -0.071252 0.318845 -1.946632
v -0.071252 0.480121 -1.058538
v 0.369116 0.480121 -1.058538
v 0.369116 0.480121 -1.946632
v -0.071252 0.480121 -1.946632
v -0.095839 0.480121 -1.028007
v 0.393703 0.480121 -1.028007
v 0.393703 0.480121 -1.977162
v -0.095839 0.480121 -1.977162
v -0.095839 0.504479 -1.028007
v 0.393703 0.504479 -1.028007
v 0.393703 0.504479 -1.977162
v -0.095839 0.504479 -1.977162
v -0.115829 0.523065 -0.989250
v 0.413693 0.523065 -0.989250
v 0.413693 0.523066 -2.015920
v -0.115829 0.523066 -2.015920
v -0.115829 0.553638 -0.989250
v 0.413693 0.553638 -0.989250
v 0.413693 0.553638 -2.015919
v -0.115829 0.553638 -2.015919
v 0.414815 0.320532 -1.322754
v 0.456606 0.320532 -1.322754
v 0.414815 0.722483 -1.322754
v 0.456606 0.722483 -1.322754
v 0.414815 0.722483 -1.662841
v 0.456606 0.722483 -1.662841
v 0.414815 0.320532 -1.662841
v 0.456606 0.320532 -1.662841
v 0.399546 0.722483 -1.300081
v 0.471875 0.722483 -1.300081
v 0.471875 0.722483 -1.685513
v 0.399546 0.722483 -1.685513
v 0.399546 0.739262 -1.300081
v 0.471875 0.739262 -1.300081
v 0.471875 0.739263 -1.685513
v 0.399546 0.739263 -1.685513
v 0.386031 0.739262 -1.288140
v 0.485390 0.739262 -1.288140
v 0.485390 0.739263 -1.697455
v 0.386031 0.739263 -1.697455
v 0.386031 0.758028 -1.288140
v 0.485390 0.758028 -1.288140
v 0.485390 0.758028 -1.697455
v 0.386031 0.758028 -1.697455
v 0.410871 0.757620 -1.616091
v 0.410871 0.803319 -1.607001
v 0.410871 0.842061 -1.581115
v 0.410871 0.867948 -1.542373
v 0.410871 0.877038 -1.496674
v 0.410871 0.867948 -1.450975
v 0.410871 0.842061 -1.412233
v 0.410871 0.803319 -1.386347
v 0.410871 0.757620 -1.377257
v 0.461164 0.757620 -1.616091
v 0.461164 0.803319 -1.607001
v 0.461164 0.842061 -1.581115
v 0.461164 0.867948 -1.542373
v 0.461164 0.877038 -1.496674
v 0.461164 0.867948 -1.450975
v 0.461164 0.842061 -1.412233
v 0.461164 0.803319 -1.386347
v 0.461164 0.757620 -1.377257
v 0.410871 0.757620 -1.496674
v 0.461164 0.757620 -1.496674
v 0.462202 0.320386 -1.226282
v 0.478741 0.320386 -1.226282
v 0.462202 0.354538 -1.193333
v 0.478741 0.354538 -1.193333
v 0.462202 0.388691 -1.193333
v 0.478741 0.388691 -1.193333
v 0.462202 0.422843 -1.226282
v 0.478741 0.422843 -1.226282
v 0.462202 0.422844 -1.744324
v 0.478741 0.422844 -1.744324
v 0.462202 0.388691 -1.777273
v 0.478741 0.388691 -1.777273
v 0.462202 0.354538 -1.777273
v 0.478741 0.354538 -1.777273
v 0.462202 0.320386 -1.744324
v 0.478741 0.320386 -1.744324
vt 0.375000 0.000000
vt 0.625000 0.000000
vt 0.625000 0.250000
vt 0.375000 0.250000
vt 0.625000 0.500000
vt 0.375000 0.500000
vt 0.625000 0.750000
vt 0.375000 0.750000
vt 0.625000 1.000000
vt 0.375000 1.000000
vt 0.875000 0.000000
vt 0.875000 0.250000
vt 0.125000 0.000000
vt 0.125000 0.250000
vt 0.421875 0.312500
vt 0.437500 0.312500
vt 0.437500 0.688440
vt 0.421875 0.688440
vt 0.453125 0.312500
vt 0.453125 0.688440
vt 0.468750 0.312500
vt 0.468750 0.688440
vt 0.484375 0.312500
vt 0.484375 0.688440
vt 0.500000 0.312500
vt 0.500000 0.688440
vt 0.515625 0.312500
vt 0.515625 0.688440
vt 0.531250 0.312500
vt 0.531250 0.688440
vt 0.546875 0.312500
vt 0.546875 0.688440
vt 0.440206 0.011894
vt 0.500000 0.000000
vt 0.500000 0.150000
vt 0.389515 0.045765
vt 0.355644 0.096456
vt 0.343750 0.156250
vt 0.355644 0.216044
vt 0.389515 0.266735
vt 0.440206 0.300606
vt 0.500000 1.000000
vt 0.440206 0.988106
vt 0.500000 0.837500
vt 0.389515 0.954235
vt 0.355644 0.903544
vt 0.343750 0.843750
vt 0.355644 0.783956
vt 0.389515 0.733265
vt 0.440206 0.699394
vt 0.500000 0.687500
vt 0.625000 0.083333
vt 0.375000 0.083333
vt 0.625000 0.166667
vt 0.375000 0.166667
vt 0.625000 0.583333
vt 0.375000 0.583333
vt 0.625000 0.666667
vt 0.375000 0.666667
vt 0.875000 0.083333
vt 0.875000 0.166667
vt 0.125000 0.083333
vt 0.125000 0.166667
vn 0.000000 0.000000 1.000000
vn 0.000000 1.000000 0.000000
vn 0.000000 0.000000 -1.000000
vn 0.000000 -1.000000 -0.000000
vn 1.000000 0.000000 0.000000
vn -1.000000 0.000000 0.000000
vn -0.210100 -0.971900 0.106500
vn 0.210100 -0.971900 0.106500
vn 0.165000 -0.976300 0.140200
vn -0.165100 -0.976300 0.140100
vn 0.210100 -0.971900 -0.106500
vn 0.165000 -0.976300 -0.140200
vn -0.210100 -0.971900 -0.106500
vn -0.165100 -0.976300 -0.140100
vn 0.000000 -0.901700 0.432400
vn 0.680900 -0.732300 -0.000000
vn 0.000000 -0.901700 -0.432400
vn -0.680900 -0.732300 -0.000000
vn 0.000000 0.195100 -0.980800
vn 0.000000 0.382700 -0.923900
vn 0.000000 0.707100 -0.707100
vn 0.000000 0.923900 -0.382700
vn 0.000000 0.923900 0.382700
vn 0.000000 0.707100 0.707100
vn 0.000000 0.382700 0.923900
vn 0.000000 0.195100 0.980800
vn 0.000000 -0.694300 0.719700
vn 0.000000 -0.434500 0.900700
vn 0.000000 0.434500 0.900700
vn 0.000000 0.694300 0.719700
vn 0.000000 0.694300 -0.719700
vn -0.000000 0.434500 -0.900700
vn 0.000000 -0.434500 -0.900700
vn 0.000000 -0.694300 -0.719700
usemtl lambert35
s 1
f 1/1/1 2/2/1 4/3/1 3/4/1
f 45/4/2 46/3/2 47/5/2 48/6/2
f 5/6/3 6/5/3 8/7/3 7/8/3
f 7/8/4 8/7/4 2/9/4 1/10/4
f 2/2/5 8/11/5 6/12/5 4/3/5
f 7/13/6 1/1/6 3/4/6 5/14/6
f 3/4/4 4/3/4 10/3/4 9/4/4
f 4/3/4 6/5/4 11/5/4 10/3/4
f 6/5/4 5/6/4 12/6/4 11/5/4
f 5/6/4 3/4/4 9/4/4 12/6/4
f 9/4/1 10/3/1 14/3/1 13/4/1
f 10/3/5 11/5/5 15/5/5 14/3/5
f 11/5/3 12/6/3 16/6/3 15/5/3
f 12/6/6 9/4/6 13/4/6 16/6/6
f 13/4/7 14/3/8 18/3/9 17/4/10
f 14/3/8 15/5/11 19/5/12 18/3/9
f 15/5/11 16/6/13 20/6/14 19/5/12
f 16/6/13 13/4/7 17/4/10 20/6/14
f 17/4/1 18/3/1 22/3/1 21/4/1
f 18/3/5 19/5/5 23/5/5 22/3/5
f 19/5/3 20/6/3 24/6/3 23/5/3
f 20/6/6 17/4/6 21/4/6 24/6/6
f 21/4/2 22/3/2 26/3/2 25/4/2
f 22/3/2 23/5/2 27/5/2 26/3/2
f 23/5/2 24/6/2 28/6/2 27/5/2
f 24/6/2 21/4/2 25/4/2 28/6/2
f 25/4/1 26/3/1 30/3/1 29/4/1
f 26/3/5 27/5/5 31/5/5 30/3/5
f 27/5/3 28/6/3 32/6/3 31/5/3
f 28/6/6 25/4/6 29/4/6 32/6/6
f 29/4/4 30/3/4 34/3/4 33/4/4
f 30/3/4 31/5/4 35/5/4 34/3/4
f 31/5/4 32/6/4 36/6/4 35/5/4
f 32/6/4 29/4/4 33/4/4 36/6/4
f 33/4/1 34/3/1 38/3/1 37/4/1
f 34/3/5 35/5/5 39/5/5 38/3/5
f 35/5/3 36/6/3 40/6/3 39/5/3
f 36/6/6 33/4/6 37/4/6 40/6/6
f 37/4/15 38/3/15 42/3/15 41/4/15
f 38/3/16 39/5/16 43/5/16 42/3/16
f 39/5/17 40/6/17 44/6/17 43/5/17
f 40/6/18 37/4/18 41/4/18 44/6/18
f 41/4/1 42/3/1 46/3/1 45/4/1
f 42/3/5 43/5/5 47/5/5 46/3/5
f 43/5/3 44/6/3 48/6/3 47/5/3
f 44/6/6 41/4/6 45/4/6 48/6/6
f 49/1/1 50/2/1 52/3/1 51/4/1
f 69/4/2 70/3/2 71/5/2 72/6/2
f 53/6/3 54/5/3 56/7/3 55/8/3
f 55/8/4 56/7/4 50/9/4 49/10/4
f 50/2/5 56/11/5 54/12/5 52/3/5
f 55/13/6 49/1/6 51/4/6 53/14/6
f 51/4/4 52/3/4 58/3/4 57/4/4
f 52/3/4 54/5/4 59/5/4 58/3/4
f 54/5/4 53/6/4 60/6/4 59/5/4
f 53/6/4 51/4/4 57/4/4 60/6/4
f 57/4/1 58/3/1 62/3/1 61/4/1
f 58/3/5 59/5/5 63/5/5 62/3/5
f 59/5/3 60/6/3 64/6/3 63/5/3
f 60/6/6 57/4/6 61/4/6 64/6/6
f 61/4/4 62/3/4 66/3/4 65/4/4
f 62/3/4 63/5/4 67/5/4 66/3/4
f 63/5/4 64/6/4 68/6/4 67/5/4
f 64/6/4 61/4/4 65/4/4 68/6/4
f 65/4/1 66/3/1 70/3/1 69/4/1
f 66/3/5 67/5/5 71/5/5 70/3/5
f 67/5/3 68/6/3 72/6/3 71/5/3
f 68/6/6 65/4/6 69/4/6 72/6/6
f 73/15/19 74/16/20 83/17/20 82/18/19
f 74/16/20 75/19/21 84/20/21 83/17/20
f 75/19/21 76/21/22 85/22/22 84/20/21
f 76/21/22 77/23/2 86/24/2 85/22/22
f 77/23/2 78/25/23 87/26/23 86/24/2
f 78/25/23 79/27/24 88/28/24 87/26/23
f 79/27/24 80/29/25 89/30/25 88/28/24
f 80/29/25 81/31/26 90/32/26 89/30/25
f 74/33/6 73/34/6 91/35/6
f 75/36/6 74/33/6 91/35/6
f 76/37/6 75/36/6 91/35/6
f 77/38/6 76/37/6 91/35/6
f 78/39/6 77/38/6 91/35/6
f 79/40/6 78/39/6 91/35/6
f 80/41/6 79/40/6 91/35/6
f 81/25/6 80/41/6 91/35/6
f 82/42/5 83/43/5 92/44/5
f 83/43/5 84/45/5 92/44/5
f 84/45/5 85/46/5 92/44/5
f 85/46/5 86/47/5 92/44/5
f 86/47/5 87/48/5 92/44/5
f 87/48/5 88/49/5 92/44/5
f 88/49/5 89/50/5 92/44/5
f 89/50/5 90/51/5 92/44/5
f 93/1/27 94/2/27 96/52/28 95/53/28
f 95/53/28 96/52/28 98/54/29 97/55/29
f 97/55/29 98/54/29 100/3/30 99/4/30
f 99/4/2 100/3/2 102/5/2 101/6/2
f 101/6/31 102/5/31 104/56/32 103/57/32
f 103/57/32 104/56/32 106/58/33 105/59/33
f 105/59/33 106/58/33 108/7/34 107/8/34
f 107/8/4 108/7/4 94/9/4 93/10/4
f 94/2/5 108/11/5 106/60/5 96/52/5
f 96/52/5 106/60/5 104/61/5 98/54/5
f 98/54/5 104/61/5 102/12/5 100/3/5
f 107/13/6 93/1/6 95/53/6 105/62/6
f 105/62/6 95/53/6 97/55/6 103/63/6
f 103/63/6 97/55/6 99/4/6 101/14/6
