# Blender v2.75 (sub 0) OBJ File: '_001.blend'
# www.blender.org
mtllib Friends House.mtl
o Friends_House_Cube.005
v -0.181302 0.052248 0.877081
v -0.181302 0.052248 -1.223972
v -0.181302 -0.007150 -1.223972
v -0.181302 -0.007152 0.877081
v 0.658965 0.055261 0.899269
v -0.203490 0.055261 0.899269
v 0.658965 0.052248 0.877081
v -1.624558 0.021053 1.590079
v -1.624558 0.021054 -1.185729
v -1.624558 -0.759949 -1.185729
v -1.624558 -0.759950 1.590079
v 0.658963 -0.765025 -1.246161
v 1.521420 -0.765025 -1.246161
v 1.521420 -0.765027 0.899269
v 0.658965 -0.765027 0.899269
v 0.658965 1.330209 0.899269
v 1.521420 0.828116 0.899269
v 1.521420 0.828118 -1.246160
v 0.658965 1.330211 -1.246160
v -0.203490 0.730494 -1.246160
v -0.203490 0.055261 -1.246161
v -0.203490 0.730492 0.899269
v 0.658963 -0.010164 -1.246161
v -0.203490 -0.010164 -1.246161
v 0.658963 -0.007151 -1.223973
v -0.203490 -0.765025 -1.246161
v -0.203490 -0.765027 0.899269
v -0.203490 -0.010165 0.899269
v -0.265035 -0.759949 -1.185729
v -0.265034 -0.759950 1.590079
v -0.264289 0.052083 -1.185729
v 0.149527 0.045100 -0.554977
v 0.132487 0.046138 -1.275268
v -0.297655 0.054148 -1.275268
v 0.658965 1.232585 0.899269
v 1.521420 0.055261 0.899269
v 1.521420 0.730492 0.899269
v 0.148782 -0.008870 1.590078
v 0.148782 -0.008869 -1.185729
v 0.149528 0.045100 1.590078
v 1.521420 0.055261 -1.246161
v 1.499231 0.052248 0.877081
v 1.499231 0.052248 -1.223973
v -0.264289 0.052083 1.590079
v 0.658965 -0.010165 0.899269
v 1.521420 -0.010165 0.899269
v 0.148781 -0.759949 -1.185729
v 0.148782 -0.759950 1.590078
v 1.521420 0.730494 -1.246160
v -0.265035 -0.001887 -1.185729
v 1.499231 -0.007153 0.877081
v 0.658965 -0.007153 0.877081
v 0.658963 0.055261 -1.246161
v 0.658963 0.052248 -1.223973
v 1.521420 -0.010164 -1.246161
v 1.499231 -0.007151 -1.223973
v 0.658965 1.232586 -1.246160
v -0.908973 0.491341 1.590079
v -1.623813 0.075023 1.590079
v -1.710814 0.080467 1.689411
v -0.268048 0.054148 1.689411
v -1.711671 0.018547 -1.275267
v -0.298510 -0.007771 -1.275268
v -1.711670 0.018547 1.689411
v -1.710815 0.080467 -1.275267
v 0.131632 -0.015782 -1.275268
v -0.265034 -0.001887 1.590079
v 0.153408 -0.015782 1.689411
v -0.281816 -0.007771 1.689411
v -1.623814 0.075023 -1.185729
v 0.154263 0.046137 1.689411
v -0.908973 0.491341 -1.185729
v -0.363267 -0.058709 1.590079
v -0.363267 -0.701471 1.590079
v -1.516006 -0.039259 1.590079
v -1.516006 -0.701471 1.590079
v -0.853352 -0.701471 1.590079
v -0.203490 0.828116 0.899269
v -0.203490 0.828118 -1.246160
v -0.295836 0.815423 -1.361021
v -0.295836 0.815422 1.014129
v -0.295836 0.707346 1.014129
v -0.295836 0.707347 -1.361021
v 1.613767 0.707346 1.014129
v 0.658965 1.263200 1.014129
v 1.613767 0.815423 -1.361021
v 0.658965 1.371278 -1.361021
v 1.613767 0.707347 -1.361021
v 0.658965 1.371277 1.014129
v 0.658965 1.263201 -1.361021
v 1.613767 0.815422 1.014129
vt 0.430743 0.896008
vt 0.430743 0.643015
vt 0.436475 0.643015
vt 0.436475 0.896008
vt 0.552082 0.615323
vt 0.450376 0.615323
vt 0.452993 0.612651
vt 0.552082 0.612651
vt 0.806969 0.356985
vt 0.806969 0.691228
vt 0.731599 0.691228
vt 0.731599 0.356985
vt 0.750735 0.000000
vt 0.852440 0.000000
vt 0.852440 0.258338
vt 0.750735 0.258337
vt 0.337394 0.370818
vt 0.439477 0.370845
vt 0.439477 0.629182
vt 0.337394 0.629156
vt 0.403912 0.901352
vt 0.338749 0.901352
vt 0.338749 0.643015
vt 0.403912 0.643015
vt 0.552079 0.873661
vt 0.450376 0.873661
vt 0.452991 0.870989
vt 0.552077 0.870989
vt 0.806969 0.615323
vt 0.879816 0.356985
vt 0.879816 0.615323
vt 0.649029 0.334243
vt 0.488706 0.334243
vt 0.488706 0.000000
vt 0.649029 0.000000
vt 0.170601 0.346204
vt 0.219404 0.270253
vt 0.217394 0.356985
vt 0.166665 0.356985
vt 0.225191 0.746865
vt 0.338749 0.746866
vt 0.338749 0.850717
vt 0.273620 0.850716
vt 0.726309 0.702011
vt 0.726240 0.367790
vt 0.731459 0.443737
vt 0.731513 0.702013
vt 0.653788 0.356986
vt 0.653788 0.615323
vt 0.651172 0.612651
vt 0.651172 0.359657
vt 0.170599 0.011961
vt 0.219403 0.011961
vt 0.852440 0.103851
vt 0.925250 0.103852
vt 0.925250 0.207702
vt 0.852440 0.207701
vt 0.439907 0.334243
vt 0.439907 0.000000
vt 0.113542 0.643024
vt 0.178677 0.643046
vt 0.178677 0.901367
vt 0.113542 0.901345
vt 0.656000 0.763810
vt 0.656673 0.713981
vt 0.729108 0.713979
vt 0.729108 0.763808
vt 0.651163 0.617995
vt 0.552077 0.617995
vt 0.552082 0.356986
vt 0.552082 0.359657
vt 0.653857 0.702003
vt 0.653788 0.367781
vt 0.879785 0.873668
vt 0.806969 0.873644
vt 0.452991 0.617996
vt 0.653782 0.873660
vt 0.651163 0.870988
vt 0.000000 0.746877
vt 0.113542 0.746875
vt 0.113542 0.850725
vt 0.048422 0.850727
vt 0.442205 0.643017
vt 0.442205 0.895994
vt 0.450376 0.356985
vt 0.452993 0.359657
vt 0.447935 0.744194
vt 0.447935 0.845372
vt 0.442205 0.845372
vt 0.442205 0.744194
vt 0.184406 0.744203
vt 0.184406 0.845382
vt 0.178677 0.845382
vt 0.178677 0.744203
vt 0.879785 0.719175
vt 0.952585 0.719173
vt 0.952585 0.823024
vt 0.879785 0.823025
vt 0.985074 0.531199
vt 0.943855 0.452928
vt 0.985275 0.367479
vt 0.985281 0.356996
vt 0.985258 0.530743
vt 0.269304 0.346203
vt 0.429631 0.346203
vt 0.439903 0.356985
vt 0.273251 0.356985
vt 0.424767 1.000000
vt 0.424767 0.643015
vt 0.430743 1.000000
vt 0.725629 0.356985
vt 0.269307 0.011960
vt 0.220507 0.011960
vt 0.219960 0.000000
vt 0.271286 0.000000
vt 0.010264 0.011961
vt 0.010265 0.346204
vt 0.000002 0.356985
vt 0.000000 0.000000
vt 0.429634 0.011961
vt 0.731599 0.713979
vt 0.725629 0.713977
vt 0.991254 0.356985
vt 0.991254 0.529178
vt 0.991254 0.581590
vt 0.985281 0.581601
vt 1.000000 0.615333
vt 1.000000 0.667133
vt 0.994028 0.667123
vt 0.994028 0.615323
vt 1.000000 0.837316
vt 0.994028 0.837306
vt 0.734485 0.904761
vt 0.733812 0.854932
vt 0.806930 0.854934
vt 0.806930 0.904762
vt 0.094244 0.011938
vt 0.094246 0.346181
vt 0.170154 0.000000
vt 0.653788 0.927514
vt 0.729108 0.927512
vt 0.220504 0.346203
vt 0.222525 0.356985
vt 0.739292 0.843104
vt 0.801289 0.843105
vt 0.737416 0.704299
vt 0.801289 0.704300
vt 0.801289 0.784092
vt 0.806930 0.691229
vt 0.952585 0.615323
vt 0.184406 0.643024
vt 0.447935 0.643015
vt 0.048422 0.643025
vt 0.925250 0.000001
vt 0.273620 0.643015
vt 0.236072 0.370846
vt 0.236072 0.629183
vt 0.649029 0.258337
vt 0.225191 0.643015
vt 0.225191 0.357016
vt 0.214305 0.629192
vt 0.214305 0.370854
vt 0.112681 0.370818
vt 0.010894 0.370854
vt 0.112686 0.356985
vt 0.450376 0.643014
vt 0.337363 0.642984
vt 0.010894 0.629191
vt 0.000000 0.643024
vt 0.933430 0.356985
vt 0.943855 0.356986
vt 0.890240 0.471955
vt 0.879816 0.471955
vt 0.978857 0.000000
vt 0.989280 0.000000
vt 0.935673 0.114971
vt 0.925250 0.114972
vt 0.989280 0.229941
vt 0.978857 0.229941
vt 0.414341 0.643015
vt 0.424767 0.928998
vt 0.414341 0.928995
vt 0.943855 0.586926
vt 0.933430 0.586926
vt 0.403912 0.929013
vt 0.112681 0.629155
vt 0.112686 0.642984
vt 0.337363 0.356985
vt 0.994014 0.826823
vt 0.952585 0.741382
vt 0.993785 0.663103
vn -1.000000 0.000000 0.000000
vn 0.000000 -0.990900 0.134600
vn 0.000000 -1.000000 -0.000000
vn 0.503100 0.864200 0.000000
vn 0.000000 0.990900 -0.134500
vn 0.015600 0.999900 0.002900
vn -0.000000 -0.000000 1.000000
vn 0.999900 -0.013800 -0.000000
vn 0.134600 -0.990900 -0.000000
vn 0.016900 0.999900 0.000000
vn 1.000000 0.000000 -0.000000
vn 0.000000 0.000000 -1.000000
vn 0.000000 0.990900 0.134500
vn -0.000000 -0.990900 -0.134600
vn -0.134600 0.990900 0.000000
vn 0.134500 0.990900 0.000000
vn -0.134600 -0.990900 -0.000000
vn 0.007700 0.436300 0.899800
vn -0.017700 -0.998100 0.058700
vn -0.999900 0.013800 0.000000
vn 0.974700 0.219200 -0.042700
vn -0.017600 -0.997700 -0.065300
vn 0.062500 0.998000 0.000000
vn 0.028800 -0.999600 -0.000000
vn 0.998800 -0.013800 -0.047500
vn 0.563100 0.826400 0.000000
vn 0.017900 0.999700 -0.015700
vn -0.017700 -0.996900 0.076200
vn -0.503300 0.864100 0.000000
vn -0.017600 -0.998500 -0.051400
vn -0.503100 0.864200 0.000000
vn -0.136200 0.990700 0.000000
vn 0.243100 -0.970000 -0.000000
vn -0.490300 -0.842200 0.224500
vn 0.480700 0.825700 0.295200
vn -0.243100 -0.970000 -0.000000
vn 0.136200 0.990700 0.000000
vn -0.480700 0.825700 0.295200
vn 0.490300 -0.842200 0.224500
vn -0.490300 -0.842200 -0.224500
vn 0.490300 -0.842200 -0.224500
vn -0.480700 0.825700 -0.295200
vn 0.480700 0.825700 -0.295200
vn 0.007000 0.396400 -0.918000
usemtl None.006
s 1
f 1/1/1 2/2/1 3/3/1 4/4/1
f 5/5/2 6/6/2 1/7/2 7/8/2
f 8/9/1 9/10/1 10/11/1 11/12/1
f 12/13/3 13/14/3 14/15/3 15/16/3
f 16/17/4 17/18/4 18/19/4 19/20/4
f 20/21/1 21/22/1 6/23/1 22/24/1
f 23/25/5 24/26/5 3/27/5 25/28/5
f 26/29/1 27/9/1 28/30/1 24/31/1
f 10/32/3 29/33/3 30/34/3 11/35/3
f 31/36/6 32/37/6 33/38/6 34/39/6
f 35/40/7 5/41/7 36/42/7 37/43/7
f 38/44/8 39/45/8 32/46/8 40/47/8
f 41/48/9 36/49/9 42/50/9 43/51/9
f 44/52/10 40/53/10 32/37/10 31/36/10
f 45/54/7 15/55/7 14/56/7 46/57/7
f 29/33/3 47/58/3 48/59/3 30/34/3
f 37/60/11 36/61/11 41/62/11 49/63/11
f 50/64/12 39/65/12 47/66/12 29/67/12
f 45/5/13 46/49/13 51/68/13 52/69/13
f 53/70/14 41/48/14 43/51/14 54/71/14
f 39/45/11 38/44/11 48/72/11 47/73/11
f 46/29/11 14/31/11 13/74/11 55/75/11
f 24/26/15 28/6/15 4/76/15 3/27/15
f 46/49/16 55/77/16 56/78/16 51/68/16
f 57/79/12 53/80/12 21/81/12 20/82/12
f 43/4/11 42/3/11 51/83/11 56/84/11
f 6/6/17 21/85/17 2/86/17 1/7/17
f 7/87/7 1/88/7 4/89/7 52/90/7
f 54/91/12 43/92/12 56/93/12 25/94/12
f 23/95/12 12/96/12 26/97/12 24/98/12
f 44/99/18 58/100/18 59/101/18 60/102/18 61/103/18
f 50/104/19 9/105/19 62/106/19 63/107/19
f 62/108/20 64/109/20 60/2/20 65/110/20
f 32/46/21 39/45/21 66/111/21 33/12/21
f 67/112/22 38/113/22 68/114/22 69/115/22
f 59/116/23 70/117/23 65/118/23 60/119/23
f 9/105/24 8/120/24 64/59/24 62/106/24
f 38/44/25 40/47/25 71/121/25 68/122/25
f 64/123/7 69/124/7 68/125/7 71/126/7 61/103/7 60/102/7
f 66/127/12 63/128/12 34/129/12 33/130/12
f 63/128/12 62/131/12 65/132/12 34/129/12
f 38/133/7 67/134/7 30/135/7 48/136/7
f 58/137/26 44/52/26 31/36/26 72/138/26
f 40/53/27 44/52/27 61/139/27 71/114/27
f 9/140/12 50/64/12 29/67/12 10/141/12
f 39/142/28 50/104/28 63/107/28 66/143/28
f 59/116/29 58/137/29 72/138/29 70/117/29
f 30/135/7 67/134/7 73/144/7 74/145/7
f 73/144/7 75/146/7 76/147/7 77/148/7 74/145/7
f 8/120/30 67/112/30 69/115/30 64/59/30
f 8/11/7 11/149/7 76/147/7 75/146/7
f 11/149/7 30/135/7 74/145/7 77/148/7 76/147/7
f 55/31/12 13/150/12 12/96/12 23/95/12
f 2/151/12 54/91/12 25/94/12 3/61/12
f 42/152/7 7/87/7 52/90/7 51/83/7
f 49/153/12 41/60/12 53/80/12 57/79/12
f 21/85/14 53/70/14 54/71/14 2/86/14
f 28/6/13 45/5/13 52/69/13 4/76/13
f 28/14/7 27/154/7 15/55/7 45/54/7
f 22/155/7 6/23/7 5/41/7 35/40/7
f 55/77/5 23/25/5 25/28/5 56/78/5
f 78/156/31 16/17/31 19/20/31 79/157/31
f 26/35/3 12/13/3 15/16/3 27/158/3
f 36/49/2 5/5/2 7/8/2 42/50/2
f 78/156/32 79/157/32 80/159/32 81/160/32
f 20/161/33 22/162/33 82/160/33 83/159/33
f 35/163/34 37/164/34 84/118/34 85/165/34
f 19/20/35 18/19/35 86/166/35 87/167/35
f 37/164/36 49/168/36 88/169/36 84/118/36
f 81/170/7 82/171/7 85/172/7 89/173/7
f 86/174/12 88/175/12 90/176/12 87/177/12
f 87/177/12 90/176/12 83/178/12 80/179/12
f 91/180/11 84/109/11 88/181/11 86/182/11
f 89/173/7 85/172/7 84/183/7 91/184/7
f 80/24/1 83/180/1 82/182/1 81/185/1
f 18/19/37 17/18/37 91/85/37 86/166/37
f 79/157/38 19/20/38 87/167/38 80/159/38
f 22/162/39 35/163/39 85/165/39 82/160/39
f 49/168/40 57/186/40 90/187/40 88/169/40
f 57/186/41 20/161/41 83/159/41 90/187/41
f 16/17/42 78/156/42 81/160/42 89/188/42
f 17/18/43 16/17/43 89/188/43 91/85/43
f 70/189/44 72/190/44 31/191/44 34/129/44 65/132/44
f 8/11/7 75/146/7 73/144/7 67/134/7
