# Blender v2.75 (sub 0) OBJ File: ''
# www.blender.org
mtllib Hospital .mtl
o Hospital_Cube.006
v -1.371681 0.254518 4.863499
v -2.804377 0.254518 4.863499
v -2.804377 -1.809609 4.863497
v -1.371681 -1.809609 4.863497
v -1.371681 -0.314696 4.863499
v 0.904924 -0.314695 -1.920135
v 3.183599 -0.145322 -1.920135
v 3.183599 -1.809608 -1.920136
v 0.904924 -1.809608 -1.920136
v -2.804377 0.254519 -1.920135
v -2.804377 -0.145322 -1.920135
v -2.804377 -1.809608 -1.920136
v 0.904924 -1.809609 4.863497
v 3.183599 -1.809609 4.863497
v -1.371681 0.254519 -1.920135
v -2.238665 4.822225 -1.566623
v -0.826192 4.822225 -1.566623
v 0.949005 4.822225 -1.566623
v 1.804149 4.822225 -1.566623
v 2.659292 4.822225 -1.566623
v 2.659292 0.226040 -1.566625
v 0.786079 0.226040 -1.566625
v -0.799681 0.226040 -1.566625
v -2.238665 0.226040 -1.566625
v 2.713537 0.226039 3.797367
v 2.659292 0.226039 4.532335
v 0.639303 0.226039 4.532335
v 0.639303 0.226039 3.797911
v 0.906046 -0.314696 4.863499
v 0.904924 0.254518 4.863499
v 0.046944 0.254518 5.119469
v 0.046944 -0.314696 5.119469
v -2.238665 0.226039 3.797911
v -2.238665 0.226039 4.532335
v -2.238665 4.822224 4.532335
v -2.238665 4.822225 3.646018
v -0.799681 0.226039 3.797911
v 3.183599 -0.314696 4.863499
v 3.183599 0.254519 -1.920135
v 3.183599 0.254518 4.863499
v 0.639303 4.801353 3.730274
v -0.799681 4.822225 3.703205
v -0.799681 0.226039 3.797911
v -0.799681 4.822224 4.532335
v -0.799681 0.226039 4.532335
v 2.659292 4.822224 4.532335
v 0.639303 4.822224 4.532335
v -1.371681 -1.809608 -1.920136
v 0.904924 0.254519 -1.920135
v -1.371681 -0.314695 -1.920135
v 0.904924 -1.809608 -0.608012
v 0.904924 -0.314695 -0.608012
v -1.371681 -0.314696 5.119469
v -1.371681 -1.809609 5.119467
v 0.046944 -1.809609 5.119467
v -1.371681 0.254518 5.119469
v 3.183599 0.196964 -3.653536
v 3.183599 -0.145321 -3.653536
v 3.183599 -0.145321 -3.961130
v 3.183599 0.254520 -3.961132
v -1.371681 -0.314694 -3.267323
v -2.804377 -0.145321 -3.653536
v -2.804377 -0.145321 -3.961130
v -1.371681 -0.145321 -3.961130
v 1.168131 0.562736 -3.267323
v 1.228228 0.845203 -3.961132
v -1.371681 0.845203 -3.961132
v 1.228228 -0.145321 -3.961130
v -2.804377 0.254520 -3.961132
v -2.804377 0.211353 -3.653536
v -1.371681 0.577126 -3.267323
v 1.168131 -0.314694 -3.267323
v -1.371681 -0.314695 -0.608012
v -1.371681 -1.809608 -0.608012
v 2.738094 -0.009066 -3.618935
v 2.738094 -0.009066 -3.932119
v 2.738094 -1.803570 -3.932120
v 2.738094 -1.803571 -3.618935
v 3.153694 -0.009066 -3.932119
v 3.153694 -1.803570 -3.932120
v 3.153694 -0.009066 -3.618935
v 3.153694 -1.803571 -3.618935
v -2.718342 -0.009066 -3.618935
v -2.718342 -0.009066 -3.932119
v -2.718342 -1.802431 -3.932120
v -2.718342 -1.802432 -3.618935
v -2.302742 -0.009066 -3.932119
v -2.302742 -1.802431 -3.932120
v -2.302742 -0.009066 -3.618935
v -2.302742 -1.802432 -3.618935
v 2.659292 4.822225 3.735745
vt 0.264100 0.849447
vt 0.327124 0.849447
vt 0.327124 0.937194
vt 0.264100 0.937194
vt 0.264100 0.873645
vt 0.594123 0.816594
vt 0.601593 0.913461
vt 0.528192 0.913461
vt 0.528192 0.816594
vt 0.835246 0.591321
vt 0.835246 0.136763
vt 0.852880 0.136763
vt 0.926282 0.136763
vt 0.926282 0.591321
vt 0.427694 0.454461
vt 0.427694 0.000006
vt 0.528192 0.000000
vt 0.528192 0.454455
vt 0.063199 0.017146
vt 0.063199 0.470842
vt 0.000013 0.470868
vt 0.000013 0.017172
vt 0.000000 0.817105
vt 0.000000 0.757060
vt 0.000000 0.681596
vt 0.000000 0.645244
vt 0.000000 0.608891
vt 0.127895 0.608891
vt 0.127895 0.694761
vt 0.127895 0.755933
vt 0.127895 0.817105
vt 0.744210 0.000000
vt 0.744210 0.374383
vt 0.744210 0.408587
vt 0.655121 0.408592
vt 0.655121 0.359391
vt 0.655121 0.000005
vt 0.153000 0.706700
vt 0.127895 0.706652
vt 0.127895 0.669041
vt 0.153000 0.669041
vt 0.872105 0.950788
vt 0.872105 1.000000
vt 0.744210 1.000000
vt 0.744210 0.940610
vt 0.528192 0.359398
vt 0.591656 0.000009
vt 0.591656 0.359394
vt 0.153000 0.803269
vt 0.218931 0.706652
vt 0.218931 0.803269
vt 0.810141 0.591321
vt 0.744210 0.591321
vt 0.744210 0.136763
vt 0.817611 0.136763
vt 0.000000 0.000000
vt 0.507306 0.849447
vt 0.444005 0.849447
vt 0.444005 0.726173
vt 0.507306 0.726173
vt 0.591656 0.408596
vt 0.528192 0.408599
vt 0.667525 0.816594
vt 0.718582 0.816594
vt 0.718582 0.939868
vt 0.667525 0.939868
vt 0.352959 0.849447
vt 0.264100 0.726173
vt 0.352959 0.726173
vt 0.051057 0.940379
vt 0.000000 0.940379
vt 0.051057 0.817105
vt 0.327287 0.454467
vt 0.327287 0.000012
vt 0.264100 0.454470
vt 0.264100 0.000015
vt 0.163604 0.017104
vt 0.163604 0.470800
vt 0.264100 0.017062
vt 0.264100 0.470759
vt 0.507192 0.920196
vt 0.444005 0.912996
vt 0.507192 0.849447
vt 0.352959 0.822988
vt 0.418890 0.822988
vt 0.418890 0.910910
vt 0.352959 0.910910
vt 0.153000 0.608891
vt 0.218931 0.608891
vt 0.218931 0.669041
vt 0.063199 0.000026
vt 0.125765 0.000000
vt 0.389854 0.471611
vt 0.327287 0.471615
vt 0.525101 0.750370
vt 0.525101 0.813920
vt 0.507306 0.813920
vt 0.507306 0.750370
vt 0.525101 0.726173
vt 0.832707 0.020611
vt 0.817611 0.020611
vt 0.817611 0.000000
vt 0.835246 0.000000
vt 0.448933 0.532545
vt 0.475935 0.471622
vt 0.497314 0.471623
vt 0.497314 0.532527
vt 0.127895 0.803269
vt 0.175307 0.561703
vt 0.264082 0.586540
vt 0.264100 0.607263
vt 0.178045 0.608843
vt 0.262617 0.669795
vt 0.262617 0.780318
vt 0.218931 0.780318
vt 0.218931 0.669795
vt 0.236566 0.608891
vt 0.236566 0.863442
vt 0.218931 0.863442
vt 0.000000 0.586687
vt 0.063299 0.561787
vt 0.063382 0.608891
vt 0.000013 0.607372
vt 0.475935 0.726172
vt 0.448933 0.640513
vt 0.497314 0.643050
vt 0.497314 0.726173
vt 0.852880 0.020611
vt 0.837150 0.020611
vt 0.852880 0.000000
vt 0.601593 0.913373
vt 0.601593 0.816594
vt 0.667525 0.913373
vt 0.116989 0.905028
vt 0.051057 0.905028
vt 0.116989 0.817105
vt 0.355298 0.532539
vt 0.355298 0.629318
vt 0.264100 0.629313
vt 0.264100 0.532534
vt 0.444005 0.822988
vt 0.497314 0.547900
vt 0.519087 0.547900
vt 0.519087 0.624185
vt 0.497314 0.624185
vt 0.525635 0.813920
vt 0.525635 0.890205
vt 0.507306 0.890205
vt 0.519087 0.471615
vt 0.437173 0.899273
vt 0.418890 0.899273
vt 0.437173 0.822988
vt 0.327124 0.870429
vt 0.345453 0.849447
vt 0.345453 0.870428
vt 0.237260 0.884396
vt 0.237260 0.863450
vt 0.255590 0.863442
vt 0.255590 0.884388
vt 0.191196 0.803269
vt 0.212968 0.803269
vt 0.212968 0.879506
vt 0.191196 0.879506
vt 0.736911 0.816594
vt 0.736911 0.892830
vt 0.718582 0.892830
vt 0.519087 0.700421
vt 0.497314 0.700421
vt 0.944564 0.076237
vt 0.926282 0.076237
vt 0.926282 0.000000
vt 0.944564 0.000000
vt 0.497314 0.721403
vt 0.515644 0.700421
vt 0.515644 0.721402
vt 0.218931 0.884396
vt 0.355457 0.726165
vt 0.355457 0.471615
vt 1.000000 0.946622
vt 1.000000 1.000000
vt 0.872105 0.965788
vt 0.744206 0.757224
vt 0.744205 0.816504
vt 0.680742 0.816530
vt 0.680742 0.767411
vt 0.617279 0.767438
vt 0.617279 0.816557
vt 0.528192 0.763317
vt 0.681915 0.408616
vt 0.603622 0.408653
vt 0.872105 0.591321
vt 1.000000 0.591321
vt 0.528192 0.408689
vt 0.565907 0.408671
vn -0.000000 -0.000000 1.000000
vn 0.000000 0.000000 -1.000000
vn -1.000000 0.000000 0.000000
vn 0.000000 -1.000000 -0.000000
vn 0.000000 1.000000 0.000000
vn 0.285700 0.000100 0.958300
vn 0.285700 0.000300 0.958300
vn 1.000000 0.000000 0.000000
vn -0.345800 0.136700 -0.928300
vn -0.139500 -0.373700 -0.917000
vn 0.004400 -0.994300 -0.106300
vn 0.000600 -0.972500 -0.232700
vn 0.004600 -0.008800 -1.000000
vn -0.035800 -0.985400 -0.166700
vn 0.285700 -0.000100 0.958300
vn 0.251200 0.911800 0.324700
vn -0.337700 0.898800 0.279400
vn 0.026000 -0.985900 -0.165200
vn 0.000000 -0.971500 -0.237200
vn 0.002600 0.929500 0.368900
vn 0.000800 0.989800 0.142100
vn 0.079200 -0.996800 0.006800
vn -0.117400 -0.993100 -0.000000
vn 0.999900 0.006000 0.015000
vn 0.999400 0.006100 0.035400
vn 0.999900 0.006000 0.015300
vn -0.005100 0.999900 -0.013100
vn -0.005400 1.000000 -0.005600
vn 0.003200 1.000000 0.001100
vn 0.000200 1.000000 0.002000
vn 1.000000 0.005900 -0.005100
vn -0.005600 1.000000 0.001800
usemtl None
s 1
f 1/1/1 2/2/1 3/3/1 4/4/1 5/5/1
f 6/6/2 7/7/2 8/8/2 9/9/2
f 2/10/3 10/11/3 11/12/3 12/13/3 3/14/3
f 13/15/4 9/16/4 8/17/4 14/18/4
f 1/19/5 15/20/5 10/21/5 2/22/5
f 16/23/2 17/24/2 18/25/2 19/26/2 20/27/2 21/28/2 22/29/2 23/30/2 24/31/2
f 21/32/4 25/33/4 26/34/4 27/35/4 28/36/4 22/37/4
f 29/38/6 30/39/7 31/40/7 32/41/6
f 33/42/3 34/43/3 35/44/3 36/45/3
f 33/46/4 24/17/4 23/47/4 37/48/4
f 37/48/4 23/47/4 22/37/4 28/36/4
f 38/49/1 29/38/1 13/50/1 14/51/1
f 39/11/8 40/10/8 38/52/8 14/53/8 8/54/8 7/55/8
f 37/56/9 28/56/10 41/56/11 42/56/12 43/56/13
f 42/56/12 37/56/9 43/56/13
f 44/57/1 35/58/1 34/59/1 45/60/1
f 37/48/4 45/61/4 34/62/4 33/46/4
f 42/63/8 44/64/8 45/65/8 37/66/8
f 46/67/1 47/1/1 27/68/1 26/69/1
f 28/70/3 27/71/3 47/23/3 41/72/3
f 4/73/4 48/74/4 9/16/4 13/15/4
f 3/75/4 12/76/4 48/74/4 4/73/4
f 30/77/5 49/78/5 15/20/5 1/19/5
f 40/79/5 39/80/5 49/78/5 30/77/5
f 11/81/2 50/82/2 48/58/2 12/83/2
f 6/84/3 9/85/3 51/86/3 52/87/3
f 32/41/1 53/88/1 54/89/1 55/90/1
f 30/77/5 1/19/5 56/91/5 31/92/5
f 4/73/4 13/15/4 55/93/4 54/94/4
f 5/95/3 4/96/3 54/97/3 53/98/3
f 1/99/3 5/95/3 53/98/3 56/60/3
f 31/40/1 56/28/1 53/88/1 32/41/1
f 57/100/8 58/101/8 59/102/8 60/103/8
f 61/104/14 62/105/14 63/106/14 64/107/14
f 40/108/1 30/39/1 29/38/1 38/49/1
f 13/50/15 29/38/6 32/41/6 55/90/15
f 65/109/16 57/110/16 60/111/16 66/112/16
f 67/113/2 66/114/2 68/115/2 64/116/2
f 69/117/2 67/113/2 64/116/2 63/89/2
f 66/114/2 60/118/2 59/119/2 68/115/2
f 70/120/17 71/121/17 67/122/17 69/123/17
f 58/124/18 72/125/18 68/126/18 59/127/18
f 72/125/19 61/104/19 64/107/19 68/126/19
f 62/128/3 70/129/3 69/103/3 63/130/3
f 71/121/20 65/109/20 66/112/20 67/122/20
f 73/131/2 52/132/2 51/63/2 74/133/2
f 48/134/8 50/135/8 73/72/8 74/136/8
f 50/137/4 6/138/4 52/139/4 73/140/4
f 9/84/5 48/69/5 74/59/5 51/141/5
f 75/142/3 76/143/3 77/144/3 78/145/3
f 76/97/2 79/146/2 80/147/2 77/148/2
f 79/106/8 81/149/8 82/143/8 80/142/8
f 81/150/1 75/151/1 78/85/1 82/152/1
f 78/153/4 77/2/4 80/154/4 82/155/4
f 81/156/5 79/157/5 76/158/5 75/159/5
f 83/160/3 84/161/3 85/162/3 86/163/3
f 84/64/2 87/164/2 88/165/2 85/166/2
f 87/145/8 89/144/8 90/167/8 88/168/8
f 89/169/1 83/170/1 86/171/1 90/172/1
f 86/173/4 85/168/4 88/174/4 90/175/4
f 89/176/5 87/119/5 84/157/5 83/156/5
f 49/78/21 39/80/21 57/110/21 65/109/21 71/121/21 70/120/21 10/21/21 15/20/21
f 11/12/3 10/11/3 70/129/3 62/128/3
f 6/138/4 50/137/4 61/104/4 72/125/4
f 7/177/22 6/138/22 72/125/22 58/124/22
f 50/137/23 11/178/23 62/105/23 61/104/23
f 39/11/8 7/55/8 58/101/8 57/100/8
f 91/179/24 46/180/25 26/43/25 25/181/26
f 36/182/5 35/183/5 44/184/5 42/185/12
f 41/186/11 47/187/27 46/9/27 91/188/28
f 17/189/29 42/185/12 41/186/11 18/190/30
f 24/191/3 33/42/3 36/45/3 16/53/3
f 16/34/5 36/182/5 42/185/12 17/189/29
f 20/192/31 91/179/24 25/181/26 21/191/31
f 18/190/30 41/186/11 91/188/28 20/193/32 19/194/32
