# 3ds Max Wavefront OBJ Exporter v0.97b - (c)2007 guruware
# File Created: 23.11.2015 11:43:44

#
# object Box007
#

v  1860.1997 -1184.1621 703.9465
v  1860.1997 -1184.1621 154.5249
v  1860.1997 -24.1664 154.5249
v  1860.1997 -24.1664 703.9465
v  -651.4717 -24.1666 703.9464
v  -651.4717 -1184.1624 703.9464
v  146.1512 -1184.1620 703.9465
v  146.1512 -24.1663 703.9465
v  146.1511 1184.1624 703.9465
v  146.8684 1184.1624 154.5249
v  -651.8438 1184.1624 154.5249
v  -651.4718 1184.1621 703.9464
v  146.6655 -1184.1621 154.5249
v  -651.8710 -1184.1621 154.5249
v  146.6655 -1184.1621 -703.9465
v  -651.8710 -1184.1621 -703.9465
v  -651.8438 -24.1664 -703.9465
v  146.8685 -24.1664 -703.9465
v  -651.8438 -24.1664 154.5249
v  146.8685 -24.1664 154.5249
v  146.8684 1054.5212 154.5249
v  146.1512 1054.5212 703.9465
v  -651.8438 1054.5212 -703.9465
v  146.8684 1054.5212 -703.9465
v  -651.4718 1054.5212 703.9464
v  -651.8438 1054.5212 154.5249
v  -651.8438 -24.1664 -275.5127
v  -651.8710 -1184.1621 -275.5127
v  -651.8438 1054.5212 -275.5127
v  146.8684 1184.1624 -275.5127
v  -651.8439 1184.1624 -275.5127
v  146.8684 1054.5212 -275.5127
v  146.6655 -1184.1621 -275.5127
v  146.8685 -24.1664 -275.5127
v  -1860.2000 -1184.1475 -703.9465
v  -1860.2000 -1184.1475 -275.5127
v  -1860.1726 -24.1516 -275.5127
v  -1860.1726 -24.1516 -703.9465
v  -651.8439 1184.1624 -703.9465
v  146.8684 1184.1624 -703.9465
v  -1860.1726 1054.5361 -275.5127
v  -1860.1726 1054.5361 -703.9465
# 42 vertices

vn 0.7071 0.0000 0.7071
vn 1.0000 0.0000 -0.0000
vn -0.0000 0.0000 1.0000
vn -0.0000 1.0000 0.0000
vn 0.0000 1.0000 -0.0000
vn 0.0000 -1.0000 0.0000
vn 0.0000 -1.0000 -0.0000
vn 0.0000 0.0000 -1.0000
vn -1.0000 0.0000 0.0003
vn 1.0000 0.0000 0.0006
vn -1.0000 -0.0000 0.0003
vn -0.0000 -0.0000 1.0000
vn -1.0000 0.0000 -0.0000
vn -1.0000 -0.0000 -0.0000
vn 1.0000 -0.0002 -0.0000
vn -1.0000 -0.0000 0.0000
vn 0.0000 0.0000 1.0000
vn -0.0000 -1.0000 -0.0000
vn -0.0000 -1.0000 0.0000
# 19 vertex normals

g Box007
f 1//1 2//2 3//2 4//1 
f 5//3 6//3 7//3 8//3 
f 9//4 10//5 11//4 12//4 
f 13//6 7//6 6//7 14//7 
f 15//8 16//8 17//8 18//8 
f 5//9 19//9 14//9 6//9 
f 20//10 21//10 22//10 8//10 
f 17//8 23//8 24//8 18//8 
f 5//11 25//11 26//11 19//11 
f 8//12 22//12 25//12 5//12 
f 19//13 27//13 28//13 14//13 
f 26//14 29//14 27//14 19//14 
f 10//5 30//5 31//5 11//5 
f 21//2 32//2 30//2 10//2 
f 13//15 33//15 34//15 20//15 
f 14//7 28//7 33//7 13//7 
f 35//13 36//13 37//13 38//13 
f 39//14 23//14 29//14 31//14 
f 31//5 30//5 40//5 39//5 
f 24//2 32//2 34//2 18//2 
f 34//15 33//15 15//15 18//15 
f 33//7 28//7 16//7 15//7 
f 10//10 9//10 22//10 21//10 
f 39//8 40//8 24//8 23//8 
f 12//11 11//11 26//11 25//11 
f 9//3 12//3 25//3 22//3 
f 11//16 31//16 29//16 26//16 
f 20//2 34//2 32//2 21//2 
f 37//14 41//14 42//14 38//14 
f 30//2 32//2 24//2 40//2 
f 28//17 27//17 37//17 36//17 
f 41//17 37//17 27//17 29//17 
f 38//8 42//8 23//8 17//8 
f 17//8 16//8 35//8 38//8 
f 35//18 16//18 28//18 36//18 
f 41//5 29//5 23//5 42//5 
f 7//6 13//6 2//19 1//18 
f 13//8 20//8 3//8 2//8 
f 4//5 3//5 20//5 8//5 
f 8//3 7//3 1//1 4//1 
# 40 polygons

