# Blender v2.75 (sub 0) OBJ File: '_001.blend'
# www.blender.org
mtllib Libary.mtl
o Library_building_Libary
v -3.116239 1.832822 1.725560
v -1.101949 1.841611 1.725560
v -1.070665 1.729091 1.681828
v -3.076063 1.720545 1.681828
v -1.101948 1.841612 -1.571472
v -3.116238 1.832823 -1.571473
v -3.076063 1.720546 -1.524259
v -1.070664 1.729093 -1.524259
v 3.158505 1.832824 -1.571472
v 1.214784 1.832824 -1.571472
v 1.182163 1.720547 -1.524259
v 3.090830 1.720547 -1.524258
v 3.090813 -2.010712 1.681828
v 1.182145 -2.010712 1.681828
v 1.182146 -2.010711 -1.524261
v 3.090813 -2.010711 -1.524259
v -1.070682 -2.002167 1.681827
v -1.070681 -2.002166 -1.524261
v -3.076080 -2.010713 1.681827
v -3.076080 -2.010712 -1.524261
v -1.070681 -2.002166 -1.800887
v 1.182146 -2.010711 -1.800886
v 3.158504 1.832823 1.725561
v 3.243213 1.839590 1.834011
v 3.243213 1.839591 -1.676439
v -3.076080 1.687315 -1.524259
v -3.076081 1.687314 1.681828
v -3.191756 1.680201 1.834009
v -3.191755 1.680203 -1.676441
v 3.090812 1.687315 1.681829
v 3.090813 1.687316 -1.524258
v 3.243213 1.680204 -1.676439
v 3.243213 1.680202 1.834011
v -1.070682 1.695861 -1.524259
v -1.175319 1.689560 -1.676440
v 1.182145 1.687316 -1.524259
v 1.291375 1.680204 -1.676440
v -3.191756 1.839589 1.834009
v -1.175320 1.848946 1.834010
v -3.191755 1.839590 -1.676441
v -1.175320 1.689559 1.834010
v 1.291374 1.839590 1.834010
v 1.291374 1.680202 1.834010
v 1.291375 1.839591 -1.676440
v -1.175319 1.848948 -1.676440
v 1.291375 1.839591 -1.953067
v -1.175319 1.848948 -1.953067
v -1.070682 1.695860 1.681828
v 1.182145 1.687315 1.681829
v 1.214784 1.832823 1.725561
v 1.291375 1.680204 -1.953067
v -1.175319 1.689560 -1.953067
v 1.182145 1.687316 -1.800885
v -1.070682 1.695861 -1.800886
v -1.070681 -1.308787 -1.524260
v -1.070681 -1.160031 -1.524260
v -1.070681 -1.160031 -1.800887
v 1.182146 -1.086206 -1.800886
v 1.182146 -1.086206 -1.524260
v 1.238568 -1.081238 -1.507141
v 1.238568 -1.081238 -1.869810
v -1.070681 -1.077659 -1.800887
v -1.070681 -1.077659 -1.524260
v -1.070681 -0.153152 -1.524260
v -1.070681 -0.037589 -1.524260
v -1.070682 0.886917 -1.524259
v -1.070682 1.002481 -1.524259
v 1.182146 0.993936 -1.524259
v 1.182146 0.878371 -1.524259
v 1.182146 -0.046135 -1.524260
v 1.182146 -0.161698 -1.524260
v -1.127103 -1.071900 -1.869811
v 1.182146 -1.317331 -1.524260
v 1.182146 -1.168576 -1.800886
v 1.182146 -1.168576 -1.524260
v -3.076080 -0.161701 1.681827
v -3.076080 -1.201771 1.681827
v -1.070682 -1.193225 1.681827
v -1.070682 -0.153154 1.681827
v -1.127103 -1.071900 -1.507141
v -1.127103 -1.155424 -1.507141
v -3.076081 0.993933 1.681828
v -1.070682 1.002479 1.681828
v 3.090813 0.993936 -1.524258
v 3.162650 1.004122 -1.668877
v 1.226532 1.004122 -1.668877
v -3.076081 0.878370 1.681828
v -3.076080 -0.046137 1.681827
v -1.070682 -0.037590 1.681827
v -1.070682 0.886916 1.681828
v 3.090812 0.878371 1.681829
v 3.090813 0.878371 -1.524258
v 3.162650 0.867519 -1.668877
v 3.162649 0.867518 1.803779
v 1.182145 -1.201770 1.681828
v 1.182145 -0.161700 1.681828
v -3.195472 -1.191583 1.803777
v -1.112943 -1.181482 1.803777
v -3.076080 -1.317333 1.681827
v -1.070682 -1.308788 1.681827
v 1.182145 0.993934 1.681829
v 1.182145 -1.317333 1.681828
v 3.090813 -1.317333 1.681828
v 3.245741 -1.328187 1.782691
v 1.226532 -1.328187 1.803778
v 1.182145 -0.046136 1.681828
v 1.182145 0.878371 1.681829
v 3.090812 0.993935 1.681829
v 3.162649 1.004122 1.803779
v 3.090813 -1.201770 1.681828
v 3.090813 -0.161699 1.681828
v -1.112943 -0.162452 1.803777
v -3.195472 -0.172554 1.803777
v 1.226532 -1.191582 1.803778
v 3.245741 -1.191582 1.782691
v 3.090813 -0.046135 1.681828
v 1.226533 -0.035947 -1.668878
v 1.226533 -0.172552 -1.668878
v 3.090813 -0.161698 -1.524259
v 3.090813 -1.201769 -1.524259
v -3.076080 -1.317332 -1.524260
v -3.195472 -1.328187 -1.703011
v -1.112942 -1.318083 -1.703010
v -3.195472 -0.035950 1.803777
v -1.112943 -0.025848 1.803777
v 3.090813 -0.046135 -1.524259
v 3.162650 -0.172552 1.803778
v 1.226532 -0.172553 1.803778
v -3.076080 -1.201770 -1.524260
v -3.076080 -0.161699 -1.524260
v -1.112942 -1.181481 -1.703010
v -3.195472 -1.191582 -1.703011
v 3.090813 -1.317331 -1.524259
v -3.076080 0.993935 -1.524259
v -1.112943 0.877618 1.803778
v -3.195473 0.867516 1.803778
v -3.076080 -0.046136 -1.524260
v -3.076080 0.878371 -1.524259
v -3.195472 -1.328188 1.803777
v 1.226532 -0.035949 1.803778
v 3.162650 -0.035947 1.803778
v 1.226532 0.867519 -1.668877
v -3.195472 -0.172553 -1.703011
v -1.112942 -0.162450 -1.703010
v -3.195473 1.004120 1.803778
v -1.112943 1.014222 1.803778
v 1.226532 0.867517 1.803779
v -1.112942 -0.025846 -1.703010
v -3.195472 -0.035948 -1.703011
v -1.112943 -1.318084 1.803777
v 1.226532 1.004121 1.803779
v 3.162650 -0.035947 -1.668878
v 3.162650 -0.172551 -1.668878
v 1.180282 -1.191581 -1.668878
v 3.247110 -1.191581 -1.762193
v 3.247110 -1.328186 -1.762193
v 1.180282 -1.328186 -1.668878
v -3.195472 1.004121 -1.703010
v -1.112942 1.014223 -1.703009
v -1.112942 0.877620 -1.703009
v -3.195472 0.867518 -1.703010
v -1.127103 -1.155424 -1.869811
v 1.238568 -1.164763 -1.507141
v 1.238568 -1.164763 -1.869810
v 1.182163 1.720546 1.681829
v 3.090830 1.720546 1.681829
vt 0.494684 0.828653
vt 0.494117 0.697563
vt 0.501452 0.695525
vt 0.502004 0.826036
vt 0.970962 0.713374
vt 0.971530 0.582285
vt 0.978845 0.584899
vt 0.978293 0.715410
vt 0.971530 0.990644
vt 0.971530 0.864147
vt 0.978845 0.862023
vt 0.978845 0.986239
vt 0.493393 0.420301
vt 0.493393 0.544516
vt 0.350332 0.544510
vt 0.350332 0.420294
vt 0.493383 0.691130
vt 0.350323 0.691124
vt 0.493393 0.821639
vt 0.350332 0.821633
vt 0.337979 0.691123
vt 0.337989 0.544509
vt 0.186019 0.413284
vt 0.333131 0.413272
vt 0.337979 0.418785
vt 0.181344 0.418798
vt 0.019137 0.411258
vt 0.162197 0.411264
vt 0.168996 0.418791
vt 0.012354 0.418785
vt 0.162197 0.009926
vt 0.019137 0.009920
vt 0.012354 0.000000
vt 0.168996 0.000007
vt 0.019127 0.280749
vt 0.012344 0.287557
vt 0.019137 0.134135
vt 0.012354 0.127025
vt 0.333131 0.136004
vt 0.333114 0.004914
vt 0.337962 0.000000
vt 0.337979 0.131230
vt 0.186002 0.004926
vt 0.181327 0.000013
vt 0.156472 0.550020
vt 0.157076 0.418791
vt 0.167374 0.418791
vt 0.166770 0.550020
vt 0.157076 0.710552
vt 0.167374 0.710552
vt 0.157076 0.837577
vt 0.167374 0.837577
vt 0.901740 0.999999
vt 0.901740 0.872975
vt 0.912036 0.872975
vt 0.912036 1.000000
vt 0.181344 0.131243
vt 0.181339 0.291773
vt 0.168996 0.291774
vt 0.169001 0.131244
vt 0.978845 0.893991
vt 0.978845 0.762760
vt 0.989142 0.762809
vt 0.989142 0.894039
vt 0.491704 0.986094
vt 0.491704 0.828653
vt 0.502004 0.828666
vt 0.502004 0.986108
vt 0.791754 0.985136
vt 0.791754 0.827597
vt 0.802051 0.827580
vt 0.802051 0.985118
vt 0.162187 0.280755
vt 0.168985 0.287564
vt 0.186019 0.136017
vt 0.162197 0.134141
vt 0.168996 0.127031
vt 0.186014 0.286787
vt 0.333126 0.286775
vt 0.337974 0.291760
vt 0.781458 0.988152
vt 0.781458 0.827619
vt 0.791754 0.988113
vt 0.638395 0.968253
vt 0.638395 0.821641
vt 0.650738 0.821639
vt 0.650738 0.968251
vt 0.939982 0.940186
vt 0.929685 0.940203
vt 0.929685 0.927789
vt 0.939982 0.927772
vt 0.939985 0.952623
vt 0.929685 0.952609
vt 0.000000 0.287557
vt 0.000011 0.127024
vt 0.942015 0.872995
vt 0.942015 0.918096
vt 0.942015 0.927772
vt 0.929685 0.872975
vt 0.969766 0.405013
vt 0.957423 0.405015
vt 0.956653 0.401342
vt 0.972835 0.401340
vt 0.985165 0.401361
vt 0.985165 0.581763
vt 0.972835 0.581743
vt 0.972835 0.521609
vt 0.972835 0.514092
vt 0.972835 0.453958
vt 0.972835 0.446441
vt 0.978845 0.717645
vt 0.978845 0.710126
vt 0.978845 0.649973
vt 0.978845 0.642454
vt 0.978845 0.582301
vt 0.991167 0.582285
vt 0.991167 0.762744
vt 0.969767 0.551625
vt 0.972835 0.555296
vt 0.954337 0.882653
vt 0.954337 0.927768
vt 0.954337 0.872975
vt 0.811038 0.581736
vt 0.811038 0.401340
vt 0.956653 0.401889
vt 0.956653 0.582285
vt 0.811590 0.000000
vt 0.878788 0.000000
vt 0.878236 0.130511
vt 0.811038 0.130511
vt 0.492211 0.821639
vt 0.492211 0.826998
vt 0.488564 0.827350
vt 0.488564 0.821917
vt 0.901740 0.726360
vt 0.956141 0.726155
vt 0.956141 0.872769
vt 0.811590 0.582285
vt 0.856389 0.582285
vt 0.855837 0.712796
vt 0.811038 0.712796
vt 0.148536 0.547692
vt 0.148548 0.423476
vt 0.154988 0.418800
vt 0.154976 0.544802
vt 0.879340 0.000000
vt 0.939073 0.000000
vt 0.938520 0.130511
vt 0.878788 0.130511
vt 0.805584 0.418473
vt 0.662523 0.418467
vt 0.656082 0.413790
vt 0.811038 0.413797
vt 0.878788 0.277125
vt 0.811590 0.277124
vt 0.502652 0.281982
vt 0.503485 0.412491
vt 0.498079 0.420294
vt 0.497213 0.284766
vt 0.856941 0.582285
vt 0.901740 0.582285
vt 0.901188 0.712796
vt 0.856389 0.712796
vt 0.856389 0.859410
vt 0.811590 0.859409
vt 0.343451 0.284921
vt 0.342669 0.409133
vt 0.338092 0.419189
vt 0.337979 0.287776
vt 0.939073 0.277125
vt 0.879340 0.277124
vt 0.005494 0.423468
vt 0.000040 0.418791
vt 0.878788 0.401340
vt 0.811590 0.401340
vt 0.805584 0.406022
vt 0.805574 0.275513
vt 0.811026 0.278262
vt 0.901740 0.859409
vt 0.856941 0.859409
vt 0.856389 0.983625
vt 0.811590 0.983625
vt 0.500957 0.011160
vt 0.501739 0.135373
vt 0.496267 0.132518
vt 0.496380 0.001105
vt 0.939072 0.401340
vt 0.879340 0.401340
vt 0.654548 0.960059
vt 0.654548 0.952542
vt 0.661139 0.951796
vt 0.661139 0.960681
vt 0.654548 0.827580
vt 0.721736 0.827580
vt 0.719597 0.951796
vt 0.714276 0.951796
vt 0.654554 0.951796
vt 0.487442 0.139229
vt 0.488254 0.008723
vt 0.496267 0.001006
vt 0.495425 0.136532
vt 0.901740 0.983625
vt 0.856941 0.983625
vt 0.983865 0.254923
vt 0.939073 0.254921
vt 0.939073 0.130706
vt 0.983865 0.130708
vt 0.320011 0.557087
vt 0.320012 0.426575
vt 0.325467 0.418807
vt 0.325467 0.554338
vt 0.000000 0.832584
vt 0.059723 0.832587
vt 0.059723 0.956802
vt 0.000000 0.956800
vt 0.805584 0.128898
vt 0.805584 0.004683
vt 0.811038 0.000007
vt 0.811038 0.126008
vt 0.578670 0.952442
vt 0.518948 0.952183
vt 0.513626 0.952160
vt 0.511482 0.821639
vt 0.578670 0.821930
vt 0.646536 0.411572
vt 0.645661 0.281059
vt 0.653681 0.283760
vt 0.654548 0.419289
vt 0.983864 0.379141
vt 0.939073 0.379139
vt 0.258611 0.832591
vt 0.303403 0.832785
vt 0.303403 0.963297
vt 0.258611 0.963103
vt 0.805584 0.819812
vt 0.805574 0.689303
vt 0.811026 0.692052
vt 0.811038 0.827580
vt 0.781458 0.827839
vt 0.781458 0.958351
vt 0.721736 0.958092
vt 0.345197 0.007803
vt 0.339792 0.000000
vt 0.472381 0.821728
vt 0.472381 0.965519
vt 0.405170 0.965430
vt 0.405170 0.821639
vt 0.319974 0.827914
vt 0.319986 0.703699
vt 0.325440 0.706589
vt 0.325428 0.832591
vt 0.983864 0.000194
vt 0.939073 0.130512
vt 0.213804 0.832591
vt 0.258611 0.832650
vt 0.258611 0.976441
vt 0.213804 0.976382
vt 0.661139 0.960059
vt 0.661139 0.952542
vt 0.667729 0.951796
vt 0.667729 0.960681
vt 0.961484 0.582364
vt 0.961484 0.726155
vt 0.901740 0.726076
vt 0.662513 0.275506
vt 0.662523 0.406015
vt 0.654559 0.413783
vt 0.654548 0.278255
vt 0.405170 0.965518
vt 0.337979 0.965631
vt 0.337979 0.821752
vt 0.005457 0.694295
vt 0.005455 0.824807
vt 0.000000 0.697044
vt 0.213804 0.832650
vt 0.168996 0.976382
vt 0.168996 0.832591
vt 0.059723 0.832659
vt 0.104516 0.832584
vt 0.104516 0.976464
vt 0.059723 0.976539
vt 0.578670 0.821739
vt 0.638395 0.965518
vt 0.578670 0.965618
vt 0.805584 0.542688
vt 0.811038 0.539798
vt 0.176958 0.426567
vt 0.176956 0.557079
vt 0.168996 0.554330
vt 0.104516 0.832659
vt 0.149310 0.832584
vt 0.149310 0.976464
vt 0.961484 0.717815
vt 0.962136 0.582285
vt 0.970962 0.582285
vt 0.970310 0.717816
vt 0.502004 0.555825
vt 0.502656 0.420294
vt 0.511482 0.420295
vt 0.510830 0.555825
vt 0.326120 0.418798
vt 0.334946 0.418798
vt 0.334293 0.554329
vt 0.962136 0.870068
vt 0.970962 0.870068
vt 0.502656 0.708077
vt 0.511482 0.708077
vt 0.326120 0.706581
vt 0.334946 0.706581
vt 0.962136 0.996070
vt 0.970962 0.996070
vt 0.502656 0.834079
vt 0.511482 0.834079
vt 0.326093 0.837991
vt 0.334919 0.837991
vt 0.920861 0.998976
vt 0.920861 0.872975
vt 0.929685 0.998977
vt 0.912036 0.998976
vt 0.992689 0.266281
vt 0.992689 0.400796
vt 0.983865 0.400805
vt 0.983865 0.266290
vt 0.985165 0.536872
vt 0.985165 0.401340
vt 0.993989 0.401384
vt 0.993989 0.536916
vt 0.983865 0.266238
vt 0.992689 0.130749
vt 0.989142 0.898292
vt 0.997966 0.762804
vt 0.997966 0.898336
vt 0.156472 0.993324
vt 0.156472 0.837577
vt 0.165299 0.837589
vt 0.165299 0.993336
vt 0.334295 0.838002
vt 0.334295 0.993749
vt 0.325467 0.993737
vt 0.325467 0.837991
vt 0.802051 0.986561
vt 0.810879 0.827592
vt 0.810879 0.986573
vt 0.303403 0.989980
vt 0.303403 0.832606
vt 0.312228 0.832591
vt 0.312228 0.989965
vt 0.502004 0.991468
vt 0.502004 0.834094
vt 0.510829 0.834079
vt 0.510829 0.991453
vt 0.321053 0.832591
vt 0.321053 0.989965
vt 0.344384 0.138310
vt 0.338950 0.135526
vt 0.176919 0.827906
vt 0.170479 0.832582
vt 0.947413 0.937460
vt 0.947413 0.927784
vt 0.953852 0.929295
vt 0.953852 0.938181
vt 0.662523 0.542682
vt 0.656082 0.539792
vt 0.944468 0.396105
vt 0.944468 0.388586
vt 0.952598 0.388029
vt 0.952598 0.396917
vt 0.005482 0.547683
vt 0.000028 0.544793
vt 0.662523 0.004677
vt 0.656082 0.000000
vt 0.176931 0.703691
vt 0.170491 0.706580
vt 0.644009 0.010241
vt 0.654548 0.000000
vt 0.662523 0.128892
vt 0.656082 0.126002
vt 0.952598 0.379953
vt 0.952598 0.387472
vt 0.944468 0.388029
vt 0.944468 0.379141
vt 0.485726 0.410053
vt 0.496267 0.420294
vt 0.644748 0.134450
vt 0.651231 0.134532
vt 0.148510 0.824815
vt 0.156472 0.832584
vt 0.486509 0.285840
vt 0.492950 0.285762
vt 0.662523 0.819806
vt 0.654559 0.827573
vt 0.148511 0.694303
vt 0.156472 0.697053
vt 0.950145 0.944057
vt 0.950145 0.953736
vt 0.942015 0.954293
vt 0.942015 0.945404
vt 0.662513 0.689297
vt 0.654548 0.692045
vt 0.944468 0.395416
vt 0.939073 0.395425
vt 0.939073 0.379150
vt 0.947413 0.944057
vt 0.942015 0.944050
vt 0.149310 0.986564
vt 0.154706 0.832584
vt 0.154706 0.986543
vt 0.475462 0.971925
vt 0.487805 0.971925
vt 0.488564 0.975597
vt 0.472381 0.975598
vt 0.475461 0.825311
vt 0.472381 0.821640
vt 0.487805 0.825310
vt 0.488564 0.821639
vt 0.650738 0.826998
vt 0.654384 0.821865
vt 0.654384 0.827298
vt 0.957424 0.551627
vt 0.956653 0.555298
vt 0.654548 0.420294
vt 0.654548 0.544510
vt 0.511493 0.544516
vt 0.654537 0.691122
vt 0.511482 0.691128
vt 0.654548 0.821633
vt 0.494684 0.546791
vt 0.494684 0.420294
vt 0.502004 0.424696
vt 0.502004 0.548912
vt 0.998565 0.582285
vt 0.998565 0.730246
vt 0.991167 0.727917
vt 0.991167 0.584037
vt 1.000000 0.118411
vt 1.000000 0.266281
vt 0.992689 0.264471
vt 0.992689 0.120680
vn -0.001600 0.362200 -0.932100
vn -0.001700 0.386800 0.922200
vn -0.000000 0.387600 0.921800
vn 0.000600 0.387500 0.921900
vn 0.000900 0.387400 0.921900
vn 0.000000 -1.000000 -0.000000
vn -0.003800 -1.000000 -0.000000
vn 0.004300 -1.000000 -0.000000
vn -0.079600 0.996800 0.000000
vn 0.061400 -0.998100 -0.000000
vn -0.046600 -0.998900 -0.000000
vn 0.004400 -0.999200 0.040800
vn -0.003800 -0.999000 0.044000
vn -0.004500 0.997700 -0.068000
vn -0.000000 -0.998900 0.046700
vn 0.089300 0.996000 0.000000
vn -0.000000 -0.000000 1.000000
vn 0.000000 0.000000 -1.000000
vn 0.003800 1.000000 0.000000
vn 1.000000 0.000000 0.000000
vn -1.000000 0.000000 -0.000000
vn 0.004400 -0.999200 -0.040800
vn -0.004500 0.997500 0.070200
vn -0.003800 -0.999000 -0.044000
vn 0.003800 0.997700 0.067100
vn 0.000000 0.998100 -0.062300
vn 0.000000 -0.998900 -0.046700
vn -0.000000 0.997900 0.064300
vn 0.003800 0.997900 -0.064900
vn -0.087700 0.996100 0.000000
vn 0.003900 0.997000 0.077600
vn 0.290300 -0.000000 0.956900
vn -0.000000 0.997500 0.070300
vn -0.149400 -0.988800 -0.000000
vn -0.004500 0.995700 -0.092500
vn -0.000500 -0.995300 -0.096500
vn -0.140400 0.990100 0.000000
vn 0.004500 -0.996800 -0.079300
vn -0.000500 0.995900 -0.090600
vn -0.956000 0.000000 -0.293400
vn 0.004600 -0.998500 0.054200
vn 0.000000 -0.996100 -0.088700
vn -0.012700 0.999600 -0.025800
vn 0.090500 -0.995900 -0.000000
vn -0.000000 0.996500 -0.083200
vn 0.085000 0.996400 0.000000
vn 0.000000 -0.996100 -0.088600
vn -0.004600 0.998000 0.063300
vn 0.010400 0.000000 0.999900
vn -0.045100 0.000000 -0.999000
vn 1.000000 0.000000 0.000400
vn -0.999900 0.000000 0.012900
vn -0.000000 -0.997200 0.074800
vn 0.973200 0.000000 -0.230100
vn 0.004000 0.996000 -0.089600
vn -0.004000 -0.996600 -0.082300
vn -0.065300 0.997900 -0.000000
vn -0.069600 -0.997600 -0.000000
vn 0.007600 0.999500 -0.030400
vn 0.001300 -0.998400 0.057200
vn -0.081400 -0.996700 0.000000
vn -0.003900 -0.998100 -0.061000
vn 0.067400 -0.997700 0.000000
vn -0.290300 -0.000000 0.956900
vn 0.101500 0.994800 0.000000
vn -0.000000 1.000000 0.000000
vn -0.004300 1.000000 0.000000
vn 0.000600 0.362800 -0.931900
vn 0.000000 0.362900 -0.931800
vn 0.000800 0.362700 -0.931900
vn -0.856500 0.516200 0.000000
vn 0.001500 0.387300 0.922000
vn 0.941500 0.336900 0.000000
vn 0.001400 0.362600 -0.931900
usemtl None.014
s 1
f 1/1/1 2/2/1 3/3/1 4/4/1
f 5/5/2 6/6/2 7/7/2 8/8/2
f 9/9/3 10/10/4 11/11/5 12/12/3
f 13/13/6 14/14/6 15/15/6 16/16/6
f 17/17/7 18/18/7 15/15/7 14/14/7
f 19/19/8 20/20/8 18/18/8 17/17/8
f 15/15/7 18/18/7 21/21/7 22/22/7
f 9/23/9 23/24/9 24/25/9 25/26/9
f 26/27/10 27/28/10 28/29/10 29/30/10
f 30/31/11 31/32/11 32/33/11 33/34/11
f 34/35/12 26/27/12 29/30/12 35/36/12
f 36/37/13 34/35/13 35/36/13 37/38/13
f 2/39/14 1/40/14 38/41/14 39/42/14
f 31/32/15 36/37/15 37/38/15 32/33/15
f 1/40/16 6/43/16 40/44/16 38/41/16
f 39/45/17 38/46/17 28/47/17 41/48/17
f 42/49/17 39/45/17 41/48/17 43/50/17
f 24/51/17 42/49/17 43/50/17 33/52/17
f 44/53/18 25/54/18 32/55/18 37/56/18
f 45/57/19 44/58/19 46/59/19 47/60/19
f 40/61/18 45/62/18 35/63/18 29/64/18
f 25/65/20 24/66/20 33/67/20 32/68/20
f 38/69/21 40/70/21 29/71/21 28/72/21
f 27/28/22 48/73/22 41/74/22 28/29/22
f 6/43/23 5/75/23 45/57/23 40/44/23
f 48/73/24 49/76/24 43/77/24 41/74/24
f 5/75/25 10/78/25 44/58/25 45/57/25
f 23/24/26 50/79/26 42/80/26 24/25/26
f 49/76/27 30/31/27 33/34/27 43/77/27
f 10/78/28 9/23/28 25/26/28 44/58/28
f 50/79/29 2/39/29 39/42/29 42/80/29
f 47/81/18 46/82/18 51/70/18 52/83/18
f 34/84/19 36/85/19 53/86/19 54/87/19
f 35/88/21 45/89/21 47/90/21 52/91/21
f 44/89/20 37/88/20 51/92/20 46/93/20
f 37/38/7 35/36/7 52/94/7 51/95/7
f 18/96/21 55/97/21 56/98/21 57/90/21 21/99/21
f 58/100/30 59/101/30 60/102/30 61/103/30
f 54/104/21 62/105/21 63/106/21 64/107/21 65/108/21 66/109/21 67/110/21 34/103/21
f 36/62/20 68/111/20 69/112/20 70/113/20 71/114/20 59/115/20 58/116/20 53/117/20
f 62/118/31 58/100/31 61/103/31 72/119/31
f 73/120/20 15/121/20 22/98/20 74/96/20 75/122/20
f 53/123/18 58/124/18 62/125/18 54/126/18
f 76/127/17 77/128/17 78/129/17 79/130/17
f 56/131/32 63/132/32 80/133/32 81/134/32
f 74/135/18 22/136/18 21/137/18 57/54/18
f 27/138/17 82/139/17 83/140/17 48/141/17
f 68/142/33 84/143/33 85/144/33 86/145/33
f 87/146/17 88/147/17 89/148/17 90/149/17
f 91/150/34 92/151/34 93/152/34 94/153/34
f 79/130/17 78/129/17 95/154/17 96/155/17
f 78/156/35 77/157/35 97/158/35 98/159/35
f 99/160/17 19/161/17 17/162/17 100/163/17
f 48/141/17 83/140/17 101/164/17 49/165/17
f 102/166/36 103/167/36 104/168/36 105/169/36
f 90/149/17 89/148/17 106/170/17 107/171/17
f 84/143/37 108/172/37 109/173/37 85/144/37
f 96/155/17 95/154/17 110/174/17 111/175/17
f 76/176/38 79/177/38 112/178/38 113/153/38
f 100/163/17 17/162/17 14/179/17 102/180/17
f 49/165/17 101/164/17 108/181/17 30/182/17
f 110/183/39 95/184/39 114/185/39 115/186/39
f 107/171/17 106/170/17 116/187/17 91/188/17
f 71/189/40 70/190/40 117/191/40 118/192/40
f 119/193/18 120/194/18 75/195/18 59/196/18 71/197/18
f 55/198/41 121/199/41 122/200/41 123/201/41
f 102/180/17 14/179/17 13/202/17 103/203/17
f 31/204/18 84/205/18 68/206/18 36/207/18
f 89/208/35 88/209/35 124/210/35 125/211/35
f 92/212/18 126/213/18 70/214/18 69/215/18
f 96/216/42 111/217/42 127/218/42 128/219/42
f 64/220/18 63/221/18 56/222/18 129/223/18 130/224/18
f 129/225/43 56/226/43 131/227/43 132/228/43
f 133/205/18 16/204/18 15/229/18 73/230/18
f 34/231/18 67/232/18 134/233/18 26/234/18
f 87/235/38 90/236/38 135/237/38 136/238/38
f 66/194/18 65/239/18 137/240/18 138/241/18
f 121/199/44 99/242/44 139/243/44 122/200/44
f 119/244/20 111/245/20 110/246/20 120/247/20
f 116/248/45 106/249/45 140/250/45 141/251/45
f 55/147/18 18/252/18 20/207/18 121/253/18
f 30/254/20 108/255/20 84/256/20 31/257/20
f 69/258/40 68/259/40 86/260/40 142/261/40
f 116/262/20 126/263/20 92/264/20 91/161/20
f 64/265/41 130/266/41 143/267/41 144/268/41
f 130/269/21 129/270/21 77/271/21 76/247/21
f 83/272/35 82/273/35 145/212/35 146/274/35
f 13/275/20 16/257/20 133/276/20 103/277/20
f 26/278/21 134/279/21 82/280/21 27/281/21
f 77/157/46 129/225/46 132/228/46 97/158/46
f 138/282/21 137/85/21 88/283/21 87/284/21
f 107/285/47 91/150/47 94/153/47 147/286/47
f 137/287/48 65/288/48 148/289/48 149/29/48
f 121/290/21 20/291/21 19/292/21 99/280/21
f 146/293/17 145/294/17 136/295/17 135/296/17
f 125/297/17 124/298/17 113/299/17 112/300/17
f 98/211/17 97/301/17 139/302/17 150/303/17
f 151/304/17 146/293/17 135/296/17 147/305/17
f 140/306/17 125/297/17 112/300/17 128/307/17
f 114/308/17 98/211/17 150/303/17 105/309/17
f 109/310/17 151/304/17 147/305/17 94/311/17
f 141/312/17 140/306/17 128/307/17 127/313/17
f 115/314/49 114/308/49 105/309/49 104/315/49
f 86/316/18 85/317/18 93/99/18 142/318/18
f 117/319/18 152/55/18 153/317/18 118/316/18
f 154/320/50 155/321/50 156/322/50 157/323/50
f 158/324/18 159/325/18 160/326/18 161/327/18
f 149/328/18 148/207/18 144/329/18 143/320/18
f 132/330/18 131/63/18 123/331/18 122/332/18
f 85/333/20 109/334/20 94/335/20 93/336/20
f 152/337/20 141/338/20 127/339/20 153/340/20
f 155/341/51 115/71/51 104/342/51 156/343/51
f 145/344/21 158/345/21 161/346/21 136/347/21
f 124/348/21 149/349/21 143/350/21 113/351/21
f 97/347/21 132/346/21 122/352/21 139/353/21
f 99/242/38 100/354/38 150/355/38 139/243/38
f 126/356/37 116/248/37 141/251/37 152/357/37
f 73/358/52 75/359/52 154/360/52 157/361/52
f 92/151/53 69/362/53 142/363/53 93/152/53
f 67/364/54 66/365/54 160/366/54 159/367/54
f 101/368/55 83/272/55 146/274/55 151/369/55
f 111/217/34 119/370/34 153/371/34 127/218/34
f 70/372/33 126/356/33 152/357/33 117/373/33
f 90/236/56 107/285/56 147/286/56 135/237/56
f 120/374/57 110/183/57 115/186/57 155/375/57
f 119/370/53 71/376/53 118/377/53 153/371/53
f 65/378/54 64/379/54 144/380/54 148/381/54
f 106/249/55 89/208/55 125/211/55 140/250/55
f 103/167/58 133/382/58 156/383/58 104/168/58
f 75/384/59 120/374/59 155/375/59 154/385/59
f 79/177/56 96/216/56 128/219/56 112/178/56
f 82/273/46 134/386/46 158/387/46 145/212/46
f 133/382/60 73/388/60 157/389/60 156/383/60
f 95/184/55 78/156/55 98/159/55 114/185/55
f 138/390/44 87/235/44 136/238/44 161/391/44
f 134/386/48 67/392/48 159/393/48 158/387/48
f 56/394/54 55/395/54 123/396/54 131/397/54
f 100/354/56 102/166/56 105/169/56 150/355/56
f 88/209/46 137/287/46 149/29/46 124/210/46
f 66/398/41 138/390/41 161/391/41 160/399/41
f 108/172/45 101/368/45 151/369/45 109/173/45
f 130/266/44 76/176/44 113/153/44 143/267/44
f 81/400/21 80/401/21 72/402/21 162/381/21
f 60/98/20 163/359/20 164/403/20 61/404/20
f 72/405/18 61/291/18 164/406/18 162/407/18
f 57/408/61 56/409/61 81/410/61 162/411/61
f 74/412/62 57/408/62 162/411/62 164/413/62
f 75/414/63 74/412/63 164/413/63 163/415/63
f 59/416/64 75/86/64 163/417/64 60/418/64
f 63/419/65 62/118/65 72/119/65 80/420/65
f 12/421/66 11/422/66 165/423/66 166/299/66
f 8/424/19 3/425/19 165/423/19 11/422/19
f 7/426/67 4/223/67 3/425/67 8/424/67
f 50/427/68 23/428/69 166/429/69 165/430/70
f 23/431/71 9/432/71 12/433/71 166/434/71
f 10/10/4 5/5/72 8/8/72 11/11/5
f 6/435/73 1/436/73 4/437/73 7/438/73
f 2/2/74 50/427/68 165/430/70 3/3/74
