# Blender v2.75 (sub 0) OBJ File: 'HouseModel3.blend'
# www.blender.org
mtllib Mall2.mtl
o Mall_P2.001_Cube.008
v -69.823349 29.783916 -444.916321
v -69.823349 42.902431 -444.916321
v 122.539810 29.783916 -444.916321
v 122.539810 42.902431 -444.916321
v -69.823349 29.783916 -480.979950
v -69.823349 42.902431 -458.614990
v 122.539810 29.783916 -480.979950
v 122.539810 42.902431 -458.614990
v -69.823349 32.779144 -444.916321
v 122.539810 32.779144 -444.916321
v 122.539810 32.779144 -480.979950
v -69.823349 32.779144 -480.979950
v 122.666702 29.814049 -445.046326
v 122.666702 42.932564 -445.046326
v 122.666702 29.814049 -220.280075
v 122.666702 42.932564 -220.280075
v 158.730301 29.814049 -445.046326
v 136.365356 42.932564 -445.046326
v 158.730301 29.814049 -220.280075
v 136.365356 42.932564 -220.280075
v 122.666702 32.809277 -445.046326
v 122.666702 32.809277 -220.280075
v 158.730301 32.809277 -220.280075
v 158.730301 32.809277 -445.046326
v -70.381226 -20.498989 -444.878662
v -70.381226 59.213448 -444.878662
v -70.381226 -20.498989 -368.956146
v -70.381226 59.213448 -368.956146
v 122.565582 -20.498989 -444.878662
v 122.565582 59.213448 -444.878662
v 122.565582 -20.498989 -368.956146
v 122.565582 59.213448 -368.956146
v 5.173439 -20.494324 -369.045807
v 88.561890 48.927891 -266.279327
v 5.173439 -20.494324 -283.759674
v 88.561890 48.927891 -283.759674
v 122.673203 -20.494324 -369.045807
v 122.673203 49.217361 -369.045807
v 122.673203 -20.494324 -283.759674
v 122.673203 49.217361 -283.759674
v 5.173439 48.638420 -283.759674
v 5.173439 -20.494324 -266.279327
v 122.673203 49.217361 -266.279327
v 122.673203 -20.494324 -266.279327
v 5.173439 48.638420 -266.279327
v 5.173439 -20.494324 -220.691284
v 122.673203 49.217361 -220.691284
v 122.673203 -20.494324 -220.691284
v 88.561890 -20.494324 -283.759674
v 88.561890 49.871513 -369.045807
v 88.561890 -20.494324 -369.045807
v 88.561890 -20.494324 -266.279327
v 88.561890 49.871513 -220.691284
v 88.561890 -20.494324 -220.691284
v 5.173439 41.814754 -369.045807
v 5.173439 41.814754 -283.759674
v 88.561890 41.814754 -369.045807
v 5.173439 41.814754 -266.279327
v 5.173439 41.814754 -220.691284
v 88.561890 41.814754 -283.759674
v 88.561890 41.814754 -266.279327
v 88.561890 41.814754 -220.691284
v 5.173439 52.307228 -266.279327
v 88.561890 52.596699 -266.279327
v 5.173439 52.307228 -283.759674
v 88.561890 52.596699 -283.759674
v 122.673203 52.886169 -283.759674
v 122.673203 52.886169 -266.279327
v 3.077423 54.626244 -265.329102
v 90.347672 54.947182 -265.329102
v 3.077423 54.626244 -284.709900
v 90.347672 54.947182 -284.709900
v 125.091843 55.268124 -284.709900
v 125.091843 55.268124 -265.329102
v 126.174835 54.054672 -283.759674
v 126.174835 54.054672 -369.045807
v 85.060257 54.708817 -220.580826
v 126.174835 54.054672 -220.580826
v 126.174835 54.054672 -266.279327
v 85.060257 54.708817 -369.045807
v 85.060257 53.765198 -283.759674
v 85.060257 53.765198 -266.279327
v -75.330124 63.681061 -449.591003
v -75.330124 63.681061 -364.243835
v 127.514481 63.681061 -364.243835
v 127.514481 63.681061 -449.591003
v -69.823334 29.783918 8.341812
v -69.823334 42.902431 8.341812
v 122.539810 29.783915 8.342102
v 122.539810 42.902431 8.342102
v -69.823334 29.783918 44.405426
v -69.823334 42.902431 22.040466
v 122.539810 29.783915 44.405701
v 122.539810 42.902431 22.040771
v -69.823334 32.779144 8.341812
v 122.539810 32.779144 8.342102
v 122.539810 32.779144 44.405701
v -69.823334 32.779144 44.405426
v 122.666687 29.814047 8.472092
v 122.666687 42.932564 8.472092
v 122.666687 29.814047 -221.391373
v 122.666687 42.932564 -221.391373
v 158.730286 29.814047 8.472137
v 136.365356 42.932564 8.472122
v 158.730286 29.814047 -221.391327
v 136.365356 42.932560 -221.391357
v 122.666687 32.809273 8.472092
v 122.666687 32.809273 -221.391373
v 158.730286 32.809273 -221.391327
v 158.730286 32.809273 8.472137
v -70.381210 -20.498985 8.304123
v -70.381210 59.213448 8.304123
v -70.381210 -20.498985 -67.618393
v -70.381210 59.213448 -67.618393
v 122.565582 -20.498989 8.304428
v 122.565582 59.213448 8.304428
v 122.565582 -20.498989 -67.618088
v 122.565582 59.213448 -67.618088
v 5.173447 -20.494324 -67.528595
v 88.561890 48.927891 -170.294952
v 5.173447 -20.494324 -152.814728
v 88.561890 48.927891 -152.814606
v 122.673203 -20.494328 -67.528397
v 122.673203 49.217361 -67.528397
v 122.673203 -20.494328 -152.814545
v 122.673203 49.217361 -152.814545
v 5.173447 48.638420 -152.814728
v 5.173447 -20.494324 -170.295074
v 122.673203 49.217361 -170.294907
v 122.673203 -20.494328 -170.294907
v 5.173447 48.638420 -170.295074
v 5.173447 -20.494324 -220.980347
v 122.673203 49.217361 -220.980164
v 122.673203 -20.494328 -220.980164
v 88.561890 -20.494328 -152.814606
v 88.561890 49.871513 -67.528458
v 88.561890 -20.494328 -67.528458
v 88.561890 -20.494328 -170.294952
v 88.561890 49.871513 -220.980225
v 88.561890 -20.494328 -220.980225
v 5.173447 41.814754 -67.528595
v 5.173447 41.814754 -152.814728
v 88.561890 41.814754 -67.528458
v 5.173447 41.814754 -170.295074
v 5.173447 41.814754 -220.980347
v 88.561890 41.814754 -152.814606
v 88.561890 41.814754 -170.294952
v 88.561890 41.814754 -220.980225
v 5.173447 52.307228 -170.295074
v 88.561890 52.596699 -170.294952
v 5.173447 52.307228 -152.814728
v 88.561890 52.596699 -152.814606
v 122.673203 52.886169 -152.814545
v 122.673203 52.886169 -170.294907
v 3.077427 54.626244 -171.245331
v 90.347672 54.947182 -171.245163
v 3.077427 54.626244 -151.864502
v 90.347672 54.947182 -151.864380
v 125.091843 55.268124 -151.864319
v 125.091843 55.268124 -171.245102
v 126.174835 54.054672 -152.814514
v 126.174835 54.054672 -67.528397
v 85.060257 54.708817 -221.218567
v 126.174835 54.054665 -221.218506
v 126.174835 54.054672 -170.294876
v 85.060257 54.708817 -67.528473
v 85.060257 53.765198 -152.814606
v 85.060257 53.765198 -170.294952
v -75.330109 63.681061 13.016434
v -75.330109 63.681061 -72.330719
v 127.514465 63.681061 -72.330399
v 127.514465 63.681061 13.016754
vn 0.000000 0.000000 -1.000000
vn -1.000000 0.000000 0.000000
vn 0.000000 0.000000 1.000000
vn 1.000000 0.000000 0.000000
vn 0.000000 1.000000 0.000000
vn 0.000000 -1.000000 0.000000
vn 0.000000 -0.911000 0.412400
vn -0.412400 -0.911000 0.000000
vn -0.670100 0.742300 0.000000
vn -0.810000 0.586400 0.000000
vn 0.000400 0.022800 -0.999700
vn -0.003300 0.375200 0.926900
vn 0.005300 -1.000000 0.000000
vn -0.701700 0.712500 0.000000
vn -0.001300 0.376900 -0.926300
vn -0.003300 0.375200 -0.926900
vn 0.741900 0.670500 0.000000
vn -0.001300 0.376900 0.926300
vn -0.004400 -1.000000 -0.005500
vn -0.004400 -0.999900 0.010300
vn 0.809900 0.586400 -0.012100
vn 0.810000 0.586400 0.006500
vn 0.670100 0.742300 0.000000
vn 0.000000 0.725700 0.688000
vn 0.000000 0.725700 -0.688000
vn 0.000000 -0.911000 -0.412400
vn 0.000900 0.049200 0.998800
vn -0.004400 -1.000000 0.005500
vn -0.004400 -0.999900 -0.009300
vn 0.809900 0.586500 0.010900
vn 0.810000 0.586400 -0.006500
usemtl None
s off
f 9//1 10//1 3//1 1//1
f 10//2 11//2 7//2 3//2
f 11//3 12//3 5//3 7//3
f 12//4 9//4 1//4 5//4
f 1//5 3//5 7//5 5//5
f 6//6 8//6 4//6 2//6
f 6//4 2//4 9//4 12//4
f 8//7 6//7 12//7 11//7
f 4//2 8//2 11//2 10//2
f 2//1 4//1 10//1 9//1
f 21//4 22//4 15//4 13//4
f 22//1 23//1 19//1 15//1
f 23//2 24//2 17//2 19//2
f 24//3 21//3 13//3 17//3
f 13//5 15//5 19//5 17//5
f 18//6 20//6 16//6 14//6
f 18//3 14//3 21//3 24//3
f 20//8 18//8 24//8 23//8
f 16//1 20//1 23//1 22//1
f 14//4 16//4 22//4 21//4
f 26//4 28//4 27//4 25//4
f 28//1 32//1 31//1 27//1
f 32//2 30//2 29//2 31//2
f 30//3 26//3 25//3 29//3
f 25//5 27//5 31//5 29//5
f 30//9 32//9 85//9 86//9
f 50//3 57//3 55//3 33//3 51//3
f 49//5 35//5 42//5 52//5
f 40//2 38//2 37//2 39//2
f 35//4 56//4 58//4 42//4
f 51//5 49//5 39//5 37//5
f 46//1 59//1 62//1 53//1 54//1
f 52//5 42//5 46//5 54//5
f 42//4 58//4 59//4 46//4
f 40//2 39//2 44//2 43//2
f 53//1 47//1 48//1 54//1
f 43//2 44//2 48//2 47//2
f 56//3 60//3 36//3 41//3
f 38//10 40//10 75//10 76//10
f 44//5 52//5 54//5 48//5
f 33//5 35//5 49//5 51//5
f 38//3 50//3 51//3 37//3
f 39//5 49//5 52//5 44//5
f 57//6 60//6 56//6 55//6
f 58//6 61//6 62//6 59//6
f 61//1 58//1 45//1 34//1
f 50//4 36//4 60//4 57//4
f 58//4 56//4 41//4 45//4
f 33//4 55//4 56//4 35//4
f 47//11 53//11 77//11 78//11
f 34//4 53//4 62//4 61//4
f 34//1 45//1 63//1 64//1
f 66//12 67//12 73//12 72//12
f 43//1 34//1 64//1 68//1
f 41//3 36//3 66//3 65//3
f 45//4 41//4 65//4 63//4
f 36//3 40//3 67//3 66//3
f 40//2 43//2 68//2 67//2
f 70//13 69//13 71//13 72//13 73//13 74//13
f 67//14 68//14 74//14 73//14
f 64//15 63//15 69//15 70//15
f 68//16 64//16 70//16 74//16
f 63//17 65//17 71//17 69//17
f 65//18 66//18 72//18 71//18
f 76//19 75//19 81//19 80//19
f 82//20 79//20 78//20 77//20
f 50//3 38//3 76//3 80//3
f 43//10 47//10 78//10 79//10
f 34//3 43//3 79//3 82//3
f 40//1 36//1 81//1 75//1
f 53//21 34//21 82//21 77//21
f 36//22 50//22 80//22 81//22
f 86//6 85//6 84//6 83//6
f 28//23 26//23 83//23 84//23
f 26//24 30//24 86//24 83//24
f 32//25 28//25 84//25 85//25
f 95//3 87//3 89//3 96//3
f 96//2 89//2 93//2 97//2
f 97//1 93//1 91//1 98//1
f 98//4 91//4 87//4 95//4
f 87//5 91//5 93//5 89//5
f 92//6 88//6 90//6 94//6
f 92//4 98//4 95//4 88//4
f 94//26 97//26 98//26 92//26
f 90//2 96//2 97//2 94//2
f 88//3 95//3 96//3 90//3
f 107//4 99//4 101//4 108//4
f 108//3 101//3 105//3 109//3
f 109//2 105//2 103//2 110//2
f 110//1 103//1 99//1 107//1
f 99//5 103//5 105//5 101//5
f 104//6 100//6 102//6 106//6
f 104//1 110//1 107//1 100//1
f 106//8 109//8 110//8 104//8
f 102//3 108//3 109//3 106//3
f 100//4 107//4 108//4 102//4
f 112//4 111//4 113//4 114//4
f 114//3 113//3 117//3 118//3
f 118//2 117//2 115//2 116//2
f 116//1 115//1 111//1 112//1
f 111//5 115//5 117//5 113//5
f 116//9 172//9 171//9 118//9
f 136//1 137//1 119//1 141//1 143//1
f 135//5 138//5 128//5 121//5
f 126//2 125//2 123//2 124//2
f 121//4 128//4 144//4 142//4
f 137//5 123//5 125//5 135//5
f 132//3 140//3 139//3 148//3 145//3
f 138//5 140//5 132//5 128//5
f 128//4 132//4 145//4 144//4
f 126//2 129//2 130//2 125//2
f 139//3 140//3 134//3 133//3
f 129//2 133//2 134//2 130//2
f 142//1 127//1 122//1 146//1
f 124//10 162//10 161//10 126//10
f 130//5 134//5 140//5 138//5
f 119//5 137//5 135//5 121//5
f 124//1 123//1 137//1 136//1
f 125//5 130//5 138//5 135//5
f 143//6 141//6 142//6 146//6
f 144//6 145//6 148//6 147//6
f 147//3 120//3 131//3 144//3
f 136//4 143//4 146//4 122//4
f 144//4 131//4 127//4 142//4
f 119//4 121//4 142//4 141//4
f 133//27 164//27 163//27 139//27
f 120//4 147//4 148//4 139//4
f 120//3 150//3 149//3 131//3
f 152//16 158//16 159//16 153//16
f 129//3 154//3 150//3 120//3
f 127//1 151//1 152//1 122//1
f 131//4 149//4 151//4 127//4
f 122//1 152//1 153//1 126//1
f 126//2 153//2 154//2 129//2
f 156//13 160//13 159//13 158//13 157//13 155//13
f 153//14 159//14 160//14 154//14
f 150//18 156//18 155//18 149//18
f 154//12 160//12 156//12 150//12
f 149//17 155//17 157//17 151//17
f 151//15 157//15 158//15 152//15
f 162//28 166//28 167//28 161//28
f 168//29 163//29 164//29 165//29
f 136//1 166//1 162//1 124//1
f 129//10 165//10 164//10 133//10
f 120//1 168//1 165//1 129//1
f 126//3 161//3 167//3 122//3
f 139//30 163//30 168//30 120//30
f 122//31 167//31 166//31 136//31
f 172//6 169//6 170//6 171//6
f 114//23 170//23 169//23 112//23
f 112//25 169//25 172//25 116//25
f 118//24 171//24 170//24 114//24
l 60 61
l 146 147
