# Blender v2.75 (sub 0) OBJ File: 'HouseModel3.blend'
# www.blender.org
mtllib Mall1.mtl
o Mall_P1_Cube.002
v 6.218622 2.943562 30.005095
v 6.218622 3.202116 30.005095
v 6.218622 2.943562 10.884729
v 6.218622 3.202116 10.884729
v 6.643254 2.943562 30.005095
v 6.643254 3.202116 30.005095
v 6.643254 2.943562 10.884729
v 6.643254 3.202116 10.884729
v 6.297891 0.318458 28.644611
v 6.297891 3.053177 28.644611
v 6.297891 0.318458 28.520578
v 6.297891 3.053177 28.520578
v 6.613206 0.318458 28.644611
v 6.613206 3.053177 28.644611
v 6.613206 0.318458 28.520578
v 6.613206 3.053177 28.520578
v 6.297891 0.318458 27.416338
v 6.297891 3.053177 27.416338
v 6.297891 0.318458 27.292305
v 6.297891 3.053177 27.292305
v 6.613206 0.318458 27.416338
v 6.613206 3.053177 27.416338
v 6.613206 0.318458 27.292305
v 6.613206 3.053177 27.292305
v 6.297891 0.318458 26.361416
v 6.297891 3.053177 26.361416
v 6.297891 0.318458 26.237383
v 6.297891 3.053177 26.237383
v 6.613206 0.318458 26.361416
v 6.613206 3.053177 26.361416
v 6.613206 0.318458 26.237383
v 6.613206 3.053177 26.237383
v 6.297891 0.318458 25.233974
v 6.297891 3.053177 25.233974
v 6.297891 0.318458 25.109940
v 6.297891 3.053177 25.109940
v 6.613206 0.318458 25.233974
v 6.613206 3.053177 25.233974
v 6.613206 0.318458 25.109940
v 6.613206 3.053177 25.109940
v 6.297891 0.318458 24.005701
v 6.297891 3.053177 24.005701
v 6.297891 0.318458 23.881668
v 6.297891 3.053177 23.881668
v 6.613206 0.318458 24.005701
v 6.613206 3.053177 24.005701
v 6.613206 0.318458 23.881668
v 6.613206 3.053177 23.881668
v 6.297891 0.318458 22.950779
v 6.297891 3.053177 22.950779
v 6.297891 0.318458 22.826746
v 6.297891 3.053177 22.826746
v 6.613206 0.318458 22.950779
v 6.613206 3.053177 22.950779
v 6.613206 0.318458 22.826746
v 6.613206 3.053177 22.826746
v 6.297891 0.318458 21.817232
v 6.297891 3.053177 21.817232
v 6.297891 0.318458 21.693199
v 6.297891 3.053177 21.693199
v 6.613206 0.318458 21.817232
v 6.613206 3.053177 21.817232
v 6.613206 0.318458 21.693199
v 6.613206 3.053177 21.693199
v 6.297891 0.318458 20.666384
v 6.297891 3.053177 20.666384
v 6.297891 0.318458 20.542351
v 6.297891 3.053177 20.542351
v 6.613206 0.318458 20.666384
v 6.613206 3.053177 20.666384
v 6.613206 0.318458 20.542351
v 6.613206 3.053177 20.542351
v 6.297891 0.318458 19.438110
v 6.297891 3.053177 19.438110
v 6.297891 0.318458 19.314075
v 6.297891 3.053177 19.314075
v 6.613206 0.318458 19.438110
v 6.613206 3.053177 19.438110
v 6.613206 0.318458 19.314075
v 6.613206 3.053177 19.314075
v 6.297891 0.318458 18.383190
v 6.297891 3.053177 18.383190
v 6.297891 0.318458 18.259155
v 6.297891 3.053177 18.259155
v 6.613206 0.318458 18.383190
v 6.613206 3.053177 18.383190
v 6.613206 0.318458 18.259155
v 6.613206 3.053177 18.259155
v 6.297891 0.318458 17.255747
v 6.297891 3.053177 17.255747
v 6.297891 0.318458 17.131714
v 6.297891 3.053177 17.131714
v 6.613206 0.318458 17.255747
v 6.613206 3.053177 17.255747
v 6.613206 0.318458 17.131714
v 6.613206 3.053177 17.131714
v 6.297891 0.318458 16.027473
v 6.297891 3.053177 16.027473
v 6.297891 0.318458 15.903440
v 6.297891 3.053177 15.903440
v 6.613206 0.318458 16.027473
v 6.613206 3.053177 16.027473
v 6.613206 0.318458 15.903440
v 6.613206 3.053177 15.903440
v 6.297891 0.318458 14.972551
v 6.297891 3.053177 14.972551
v 6.297891 0.318458 14.848517
v 6.297891 3.053177 14.848517
v 6.613206 0.318458 14.972551
v 6.613206 3.053177 14.972551
v 6.613206 0.318458 14.848517
v 6.613206 3.053177 14.848517
v 6.297891 0.267022 13.763219
v 6.297891 3.001742 13.763219
v 6.297891 0.267022 13.639185
v 6.297891 3.001742 13.639185
v 6.613206 0.267022 13.763219
v 6.613206 3.001742 13.763219
v 6.613206 0.267022 13.639185
v 6.613206 3.001742 13.639185
v 6.297891 0.318458 12.700063
v 6.297891 3.053177 12.700063
v 6.297891 0.318458 12.576029
v 6.297891 3.053177 12.576029
v 6.613206 0.318458 12.700063
v 6.613206 3.053177 12.700063
v 6.613206 0.318458 12.576029
v 6.613206 3.053177 12.576029
v -8.856038 -7.814324 38.520668
v -8.856038 6.155027 38.520668
v -8.856038 -7.814324 30.120626
v -8.856038 6.155027 30.120626
v 7.699375 -7.814324 38.520668
v 7.699375 6.155027 38.520668
v 7.699375 -7.814324 29.940468
v 7.699375 6.155027 29.940468
v -2.022481 0.073002 30.359341
v -2.022481 0.459598 30.359341
v -2.022481 0.073002 11.812056
v -2.022481 0.459598 11.812056
v 6.939398 0.073002 30.630306
v 6.939398 0.459598 30.630306
v 6.939398 0.073002 11.812056
v 6.939398 0.459598 11.812056
v -2.186971 -7.829874 30.167019
v -2.186971 0.154165 30.167019
v -2.186971 -7.829874 12.867026
v -2.186971 0.154165 12.867026
v 3.715207 -7.829874 30.167019
v 3.715207 0.154165 30.167019
v 3.715207 -7.829874 12.867026
v 3.715207 0.154165 12.867026
v -2.006218 -7.821881 31.767895
v -2.006218 6.164177 31.767895
v -2.006218 6.164177 12.608661
v -2.006218 -7.821881 12.608661
v -8.780811 -7.821881 31.767895
v -8.780811 6.164177 31.767895
v -8.780811 6.164177 12.608661
v -8.780811 -7.821881 12.608661
v -4.110293 5.864266 30.591602
v -4.110293 6.161417 30.591602
v -4.110293 5.864266 11.168901
v -4.110293 6.161417 11.168901
v 9.182219 5.864266 30.591602
v 9.182219 6.161417 30.591602
v 9.182219 5.864266 11.168901
v 9.182219 6.161417 11.168901
v 9.231401 6.602894 5.592215
v 9.231401 -7.782453 5.592215
v 9.231401 6.602894 11.634862
v 9.231401 -7.782453 11.634862
v -8.885443 6.602894 1.772062
v -8.885443 -7.782453 1.772062
v -8.885443 6.602894 14.622408
v -8.885443 -7.782453 14.622408
v -8.885314 -7.843841 5.036306
v -8.885314 5.610610 5.036306
v -8.885314 -7.843841 -12.111826
v -8.885314 5.610610 -12.111826
v 4.775726 -7.843841 5.036306
v 4.775726 5.610610 5.036306
v 4.775726 -7.843841 -12.111826
v 4.775726 5.610610 -12.111826
v -4.053416 7.863704 -38.520668
v -4.374203 -7.863704 -37.252602
v -4.053416 7.863704 -11.252794
v -4.374203 -7.863704 -12.038683
v -9.338683 7.863704 -38.520668
v -8.910616 -7.863704 -37.252602
v -9.338683 7.863704 -11.252794
v -8.910616 -7.863704 -12.038683
v -4.369228 6.875124 -37.280251
v -4.369228 6.875124 -12.011034
v -8.915589 6.875124 -12.011034
v -8.915589 6.875124 -37.280251
v -4.287843 7.534177 -11.842100
v -9.104257 7.534177 -11.842100
v -9.104257 7.534177 -37.415215
v -4.287843 7.534177 -37.415215
v 9.231401 -3.075321 5.592215
v 9.231401 -3.075321 11.634862
v -8.885443 -3.075321 14.622408
v -8.885443 -3.075321 1.772062
v 8.270792 -7.782453 11.879954
v 8.270792 6.602894 11.879954
v 8.652707 -7.782453 5.141642
v 8.270792 6.602894 5.141642
v 8.652707 -3.075321 5.141642
v 8.270792 -3.075321 11.879954
v 9.231401 -3.075321 -28.460783
v 9.231401 -7.782453 -28.460783
v 8.652707 -7.782453 -28.405237
v 8.652707 -3.075321 -28.405237
vn -1.000000 0.000000 0.000000
vn 0.000000 0.000000 -1.000000
vn 1.000000 0.000000 0.000000
vn 0.000000 0.000000 1.000000
vn 0.000000 -1.000000 0.000000
vn 0.000000 1.000000 0.000000
vn -0.010900 0.000000 -0.999900
vn -0.030200 0.000000 0.999500
vn 0.999800 0.000000 0.017700
vn 0.993700 0.000000 -0.112200
vn 0.157800 0.000000 0.987500
vn 0.505200 0.010000 -0.862900
vn 0.814800 -0.579700 0.000000
vn 0.000000 -0.872800 0.488100
vn -0.814800 -0.579700 0.000000
vn 0.000000 -0.958300 -0.285700
vn 0.000000 -0.001900 -1.000000
vn -1.000000 -0.000300 0.000000
vn 0.000000 -0.001900 1.000000
vn 1.000000 -0.000300 0.000000
vn 0.000000 -0.200600 -0.979700
vn -0.961400 -0.275200 0.000000
vn 0.000000 -0.248300 0.968700
vn 0.992500 -0.122600 0.000000
vn 0.247200 0.000000 0.969000
vn 0.188700 0.000000 -0.982000
vn 0.190700 0.003800 -0.981600
vn -0.095500 0.000000 -0.995400
usemtl None
s off
f 2//1 4//1 3//1 1//1
f 4//2 8//2 7//2 3//2
f 8//3 6//3 5//3 7//3
f 6//4 2//4 1//4 5//4
f 1//5 3//5 7//5 5//5
f 6//6 8//6 4//6 2//6
f 10//1 12//1 11//1 9//1
f 12//2 16//2 15//2 11//2
f 16//3 14//3 13//3 15//3
f 14//4 10//4 9//4 13//4
f 9//5 11//5 15//5 13//5
f 14//6 16//6 12//6 10//6
f 18//1 20//1 19//1 17//1
f 20//2 24//2 23//2 19//2
f 24//3 22//3 21//3 23//3
f 22//4 18//4 17//4 21//4
f 17//5 19//5 23//5 21//5
f 22//6 24//6 20//6 18//6
f 26//1 28//1 27//1 25//1
f 28//2 32//2 31//2 27//2
f 32//3 30//3 29//3 31//3
f 30//4 26//4 25//4 29//4
f 25//5 27//5 31//5 29//5
f 30//6 32//6 28//6 26//6
f 34//1 36//1 35//1 33//1
f 36//2 40//2 39//2 35//2
f 40//3 38//3 37//3 39//3
f 38//4 34//4 33//4 37//4
f 33//5 35//5 39//5 37//5
f 38//6 40//6 36//6 34//6
f 42//1 44//1 43//1 41//1
f 44//2 48//2 47//2 43//2
f 48//3 46//3 45//3 47//3
f 46//4 42//4 41//4 45//4
f 41//5 43//5 47//5 45//5
f 46//6 48//6 44//6 42//6
f 50//1 52//1 51//1 49//1
f 52//2 56//2 55//2 51//2
f 56//3 54//3 53//3 55//3
f 54//4 50//4 49//4 53//4
f 49//5 51//5 55//5 53//5
f 54//6 56//6 52//6 50//6
f 58//1 60//1 59//1 57//1
f 60//2 64//2 63//2 59//2
f 64//3 62//3 61//3 63//3
f 62//4 58//4 57//4 61//4
f 57//5 59//5 63//5 61//5
f 62//6 64//6 60//6 58//6
f 66//1 68//1 67//1 65//1
f 68//2 72//2 71//2 67//2
f 72//3 70//3 69//3 71//3
f 70//4 66//4 65//4 69//4
f 65//5 67//5 71//5 69//5
f 70//6 72//6 68//6 66//6
f 74//1 76//1 75//1 73//1
f 76//2 80//2 79//2 75//2
f 80//3 78//3 77//3 79//3
f 78//4 74//4 73//4 77//4
f 73//5 75//5 79//5 77//5
f 78//6 80//6 76//6 74//6
f 82//1 84//1 83//1 81//1
f 84//2 88//2 87//2 83//2
f 88//3 86//3 85//3 87//3
f 86//4 82//4 81//4 85//4
f 81//5 83//5 87//5 85//5
f 86//6 88//6 84//6 82//6
f 90//1 92//1 91//1 89//1
f 92//2 96//2 95//2 91//2
f 96//3 94//3 93//3 95//3
f 94//4 90//4 89//4 93//4
f 89//5 91//5 95//5 93//5
f 94//6 96//6 92//6 90//6
f 98//1 100//1 99//1 97//1
f 100//2 104//2 103//2 99//2
f 104//3 102//3 101//3 103//3
f 102//4 98//4 97//4 101//4
f 97//5 99//5 103//5 101//5
f 102//6 104//6 100//6 98//6
f 106//1 108//1 107//1 105//1
f 108//2 112//2 111//2 107//2
f 112//3 110//3 109//3 111//3
f 110//4 106//4 105//4 109//4
f 105//5 107//5 111//5 109//5
f 110//6 112//6 108//6 106//6
f 114//1 116//1 115//1 113//1
f 116//2 120//2 119//2 115//2
f 120//3 118//3 117//3 119//3
f 118//4 114//4 113//4 117//4
f 113//5 115//5 119//5 117//5
f 118//6 120//6 116//6 114//6
f 122//1 124//1 123//1 121//1
f 124//2 128//2 127//2 123//2
f 128//3 126//3 125//3 127//3
f 126//4 122//4 121//4 125//4
f 121//5 123//5 127//5 125//5
f 126//6 128//6 124//6 122//6
f 130//1 132//1 131//1 129//1
f 132//7 136//7 135//7 131//7
f 136//3 134//3 133//3 135//3
f 134//4 130//4 129//4 133//4
f 129//5 131//5 135//5 133//5
f 134//6 136//6 132//6 130//6
f 138//1 140//1 139//1 137//1
f 140//2 144//2 143//2 139//2
f 144//3 142//3 141//3 143//3
f 142//8 138//8 137//8 141//8
f 137//5 139//5 143//5 141//5
f 142//6 144//6 140//6 138//6
f 148//2 152//2 151//2 147//2
f 152//3 150//3 149//3 151//3
f 150//4 146//4 145//4 149//4
f 145//5 147//5 151//5 149//5
f 150//6 152//6 148//6 146//6
f 148//9 147//9 145//9 153//9 156//9 155//9 154//9 146//9
f 157//1 158//1 159//1 160//1
f 156//5 153//5 157//5 160//5
f 154//6 155//6 159//6 158//6
f 155//2 156//2 160//2 159//2
f 153//4 154//4 158//4 157//4
f 145//10 146//10 154//10 153//10
f 162//1 164//1 163//1 161//1
f 164//2 168//2 167//2 163//2
f 168//3 166//3 165//3 167//3
f 166//4 162//4 161//4 165//4
f 161//5 163//5 167//5 165//5
f 166//6 168//6 164//6 162//6
f 201//3 169//3 171//3 202//3
f 210//11 206//11 175//11 203//11
f 203//1 175//1 173//1 204//1
f 209//12 208//12 169//12 201//12
f 208//6 173//6 175//6 206//6
f 207//5 170//5 172//5 205//5
f 178//1 180//1 179//1 177//1
f 180//2 184//2 183//2 179//2
f 184//3 182//3 181//3 183//3
f 182//4 178//4 177//4 181//4
f 177//5 179//5 183//5 181//5
f 182//6 184//6 180//6 178//6
f 200//13 185//13 187//13 197//13
f 197//14 187//14 191//14 198//14
f 198//15 191//15 189//15 199//15
f 199//16 189//16 185//16 200//16
f 185//6 189//6 191//6 187//6
f 190//5 186//5 188//5 192//5
f 190//17 196//17 193//17 186//17
f 192//18 195//18 196//18 190//18
f 188//19 194//19 195//19 192//19
f 186//20 193//20 194//20 188//20
f 196//21 199//21 200//21 193//21
f 195//22 198//22 199//22 196//22
f 194//23 197//23 198//23 195//23
f 193//24 200//24 197//24 194//24
f 201//3 170//3 212//3 211//3
f 176//1 203//1 204//1 174//1
f 205//11 210//11 203//11 176//11
f 170//3 201//3 202//3 172//3
f 172//25 202//25 210//25 205//25
f 174//26 204//26 209//26 207//26
f 174//5 207//5 205//5 176//5
f 169//6 208//6 206//6 171//6
f 204//27 173//27 208//27 209//27
f 202//25 171//25 206//25 210//25
f 213//28 214//28 211//28 212//28
f 209//6 201//6 211//6 214//6
f 207//1 209//1 214//1 213//1
f 170//5 207//5 213//5 212//5
