# 3ds Max Wavefront OBJ Exporter v0.97b - (c)2007 guruware
# File Created: 23.11.2015 11:49:50

#
# object Box008
#

v  -191.3777 -288.0000 -345.0634
v  -191.1795 -288.0001 230.9365
v  -576.0000 -288.0000 230.9366
v  -576.0000 -288.0000 -345.0634
v  576.0000 -288.0000 -345.0634
v  576.0000 -288.0000 230.9366
v  204.8830 -287.9999 230.9366
v  205.1384 -288.0000 -345.0634
v  -191.1795 287.9999 230.9365
v  -191.3642 288.0000 -345.0634
v  -576.0000 288.0000 -345.0634
v  -576.0000 288.0000 230.9366
v  576.0000 288.0000 230.9366
v  576.0000 288.0000 -345.0634
v  205.2392 288.0000 -345.0634
v  204.8830 288.0001 230.9366
v  204.8829 888.0000 230.9366
v  205.2391 888.0000 -345.0634
v  -191.3643 888.0000 -345.0634
v  -191.1796 887.9999 230.9365
# 20 vertices

vn -0.0000 -1.0000 -0.0000
vn 0.0000 -1.0000 -0.0000
vn -0.0000 -1.0000 0.0000
vn 0.0000 -1.0000 0.0000
vn 0.0000 1.0000 0.0000
vn 0.0000 1.0000 -0.0000
vn -0.0000 1.0000 0.0000
vn 0.0000 0.0000 1.0000
vn -0.0000 0.0000 1.0000
vn 0.0000 0.0000 -1.0000
vn -1.0000 0.0000 -0.0000
vn 1.0000 0.0000 -0.0000
vn -0.0000 -0.0000 1.0000
vn 1.0000 0.0000 0.0006
vn -1.0000 -0.0000 0.0003
# 15 vertex normals

g Box008
f 1//1 2//1 3//1 4//2 
f 5//3 6//1 7//3 8//4 
f 9//5 10//5 11//5 12//6 
f 13//6 14//6 15//6 16//6 
f 17//7 18//6 19//7 20//7 
f 2//2 1//2 8//2 7//2 
f 12//8 3//8 2//8 9//8 
f 9//8 2//8 7//9 16//9 
f 16//9 7//9 6//8 13//8 
f 14//10 5//10 8//10 15//10 
f 15//10 8//10 1//10 10//10 
f 10//10 1//10 4//10 11//10 
f 12//11 11//11 4//11 3//11 
f 14//12 13//12 6//12 5//12 
f 9//13 16//13 17//13 20//13 
f 16//14 15//14 18//14 17//14 
f 15//10 10//10 19//10 18//10 
f 10//15 9//15 20//15 19//15 
# 18 polygons

