# 3ds Max Wavefront OBJ Exporter v0.97b - (c)2007 guruware
# File Created: 23.11.2015 11:35:35

#
# object Box001
#

v  -311.0657 -288.0000 -345.0634
v  -311.1795 -288.0001 230.9364
v  -431.1795 -288.0001 230.9364
v  -430.7536 -288.0000 -345.0634
v  325.1583 -288.0000 -345.0634
v  324.8830 -287.9999 230.9366
v  204.8830 -287.9999 230.9366
v  205.1384 -288.0000 -345.0634
v  -311.1795 287.9999 230.9364
v  -311.2981 288.0000 -345.0634
v  -431.2321 288.0000 -345.0634
v  -431.1795 287.9999 230.9364
v  324.8830 288.0001 230.9366
v  324.9097 288.0000 -345.0634
v  205.2392 288.0000 -345.0634
v  204.8830 288.0001 230.9366
v  576.0000 -288.0000 230.9366
v  576.0000 -288.0000 -345.0634
v  576.0000 288.0000 -345.0634
v  576.0000 288.0000 230.9366
v  444.5802 288.0000 -345.0634
v  445.1783 -288.0000 -345.0634
v  -191.3642 288.0000 -345.0634
v  -191.3777 -288.0000 -345.0634
v  -576.0000 -288.0000 -345.0634
v  -576.0000 -288.0000 230.9366
v  -576.0000 288.0000 230.9366
v  -576.0000 288.0000 -345.0634
v  -408.2615 -288.0001 301.4706
v  -408.2615 287.9999 301.4706
v  -310.9845 287.9999 345.0632
v  -311.3744 -288.0001 345.0632
v  -214.0974 -288.0001 301.4706
v  -214.0974 287.9999 301.4706
v  -191.1795 -288.0001 230.9365
v  -191.1795 287.9999 230.9365
v  227.8010 288.0001 301.4708
v  227.8010 -287.9999 301.4708
v  324.8883 288.0001 345.0634
v  324.8778 -287.9999 345.0634
v  421.9651 -287.9999 301.4708
v  421.9651 288.0001 301.4708
v  444.8830 -287.9999 230.9366
v  444.8830 288.0001 230.9366
# 44 vertices

vn 0.0000 -1.0000 -0.0000
vn -0.0000 -1.0000 -0.0000
vn -0.0000 -1.0000 0.0000
vn 0.0000 -1.0000 0.0000
vn -0.0000 1.0000 0.0000
vn 0.0000 1.0000 0.0000
vn 0.0000 1.0000 -0.0000
vn -0.0000 1.0000 -0.0000
vn 0.7071 0.0000 0.7071
vn 1.0000 0.0000 -0.0000
vn 0.0000 0.0000 -1.0000
vn -1.0000 0.0000 -0.0000
vn -0.9511 0.0000 0.3090
vn -0.7444 0.0001 0.6677
vn -0.7440 0.0000 0.6682
vn 0.0008 -0.0001 1.0000
vn -0.0008 0.0001 1.0000
vn 0.7440 0.0000 0.6682
vn 0.7444 -0.0001 0.6677
vn 0.5878 0.0000 0.8090
vn 0.0000 0.0000 1.0000
vn -0.7442 0.0000 0.6680
vn -0.5878 0.0000 0.8090
vn -0.7442 0.0000 0.6679
vn 0.0000 -0.0000 1.0000
vn -0.0000 0.0000 1.0000
vn 0.7442 0.0000 0.6680
vn 0.7442 -0.0000 0.6679
vn 0.9511 0.0000 0.3090
# 29 vertex normals

g Box001
f 1//1 2//1 3//2 4//1 
f 5//3 6//3 7//4 8//4 
f 9//5 10//5 11//6 12//6 
f 13//7 14//7 15//7 16//8 
f 17//9 18//10 19//10 20//9 
f 5//11 14//11 21//11 22//11 
f 1//11 10//11 23//11 24//11 
f 25//12 26//12 27//12 28//12 
f 12//13 3//13 29//14 30//15 
f 31//16 30//15 29//14 32//17 
f 32//17 33//18 34//19 31//16 
f 33//18 35//20 36//20 34//19 
f 33//1 32//1 2//1 35//1 
f 31//7 9//7 12//7 30//7 
f 26//21 3//21 12//21 27//21 
f 37//22 16//23 7//23 38//24 
f 39//25 37//22 38//24 40//26 
f 40//26 41//27 42//28 39//25 
f 41//27 43//29 44//29 42//28 
f 41//1 40//1 6//1 43//1 
f 39//7 13//7 16//7 37//7 
f 44//21 43//21 17//9 20//9 
f 16//8 15//7 23//5 36//5 
f 11//6 28//7 27//6 12//6 
f 4//11 25//11 28//11 11//11 
f 3//2 26//2 25//2 4//1 
f 8//4 7//4 35//1 24//1 
f 44//7 20//7 19//7 21//7 
f 8//11 24//11 23//11 15//11 
f 21//11 19//11 18//11 22//11 
f 22//3 18//1 17//3 43//3 
f 36//20 35//20 7//23 16//23 
f 24//1 35//1 2//1 1//1 
f 36//5 23//5 10//5 9//5 
f 4//11 11//11 10//11 1//11 
f 31//7 34//7 36//7 9//7 
f 29//1 3//1 2//1 32//1 
f 22//3 43//3 6//3 5//3 
f 44//7 21//7 14//7 13//7 
f 8//11 15//11 14//11 5//11 
f 39//7 42//7 44//7 13//7 
f 38//1 7//1 6//1 40//1 
# 42 polygons

