# 3ds Max Wavefront OBJ Exporter v0.97b - (c)2007 guruware
# File Created: 23.11.2015 11:39:31

#
# object Box005
#

v  444.8589 -288.0000 38.9366
v  444.8830 -287.9999 230.9366
v  -431.1795 -288.0001 230.9364
v  -430.8940 -288.0000 38.9366
v  444.8589 -288.0000 -153.0634
v  -430.8940 -288.0000 -153.0634
v  445.1783 -288.0000 -345.0634
v  -430.7536 -288.0000 -345.0634
v  444.8830 288.0001 230.9366
v  444.5802 288.0000 38.9366
v  -431.1540 288.0000 38.9366
v  -431.1795 287.9999 230.9364
v  -431.3136 288.0000 -153.0634
v  -576.0000 288.0000 -153.0634
v  -576.0000 288.0000 38.9366
v  -576.0000 288.0000 -298.3478
v  576.0000 -288.0000 184.2210
v  576.0000 -288.0000 38.9366
v  576.0000 288.0000 38.9366
v  576.0000 288.0000 184.2210
v  576.0000 -288.0000 -153.0634
v  576.0000 288.0000 -153.0634
v  576.0000 -288.0000 -298.3478
v  576.0000 288.0000 -298.3478
v  -431.2321 288.0000 -345.0634
v  444.5802 288.0000 -345.0634
v  -576.0000 -288.0000 -153.0634
v  -576.0000 -288.0000 -298.3478
v  -576.0000 -288.0000 38.9366
v  -576.0000 -288.0000 184.2210
v  -576.0000 288.0000 184.2210
v  -529.2844 -288.0000 230.9365
v  -529.2844 288.0000 230.9365
v  529.2844 -287.9999 230.9366
v  529.2844 288.0000 230.9366
v  444.5802 288.0000 -153.0634
v  -529.2844 -288.0000 -345.0634
v  -529.2844 288.0000 -345.0634
v  529.2844 288.0000 -345.0634
v  529.2844 -288.0000 -345.0634
# 40 vertices

vn 0.0000 -1.0000 0.0000
vn -0.0000 -1.0000 0.0000
vn -0.0000 -1.0000 -0.0000
vn 0.0000 -1.0000 -0.0000
vn 0.0000 1.0000 -0.0000
vn 0.0000 1.0000 0.0000
vn 0.9239 0.0000 0.3827
vn 1.0000 0.0000 -0.0000
vn 0.9239 0.0000 -0.3827
vn 0.0000 0.0000 -1.0000
vn -1.0000 0.0000 -0.0000
vn 0.0000 0.0000 1.0000
vn 0.3827 0.0000 0.9239
vn -0.7071 0.0000 -0.7071
vn -0.7071 0.0000 0.7071
vn 0.7071 0.0000 -0.7071
# 16 vertex normals

g Box005
f 1//1 2//2 3//3 4//3 
f 5//4 1//1 4//3 6//4 
f 7//4 5//4 6//4 8//4 
f 9//5 10//5 11//6 12//6 
f 11//6 13//5 14//5 15//5 
f 14//5 13//5 16//5 
f 17//7 18//8 19//8 20//7 
f 18//8 21//8 22//8 19//8 
f 21//8 23//9 24//9 22//8 
f 8//10 25//10 26//10 7//10 
f 27//11 14//11 16//11 28//11 
f 27//11 29//11 15//11 14//11 
f 29//11 30//11 31//11 15//11 
f 32//12 3//12 12//12 33//12 
f 9//12 2//12 34//13 35//13 
f 11//6 33//6 12//6 
f 10//5 36//5 13//5 11//6 
f 36//5 26//5 25//5 13//5 
f 8//10 37//10 38//10 25//10 
f 3//3 32//3 4//3 
f 4//3 29//4 27//4 6//4 
f 6//4 37//4 8//4 
f 9//5 35//5 10//5 
f 10//5 19//5 22//5 36//5 
f 36//5 39//5 26//5 
f 26//10 39//10 40//10 7//10 
f 7//4 40//4 5//4 
f 5//4 21//4 18//4 1//1 
f 1//1 34//2 2//2 
f 12//12 3//12 2//12 9//12 
f 37//14 28//14 16//14 38//14 
f 33//15 31//15 30//15 32//15 
f 34//13 17//7 20//7 35//13 
f 20//5 19//5 10//5 
f 35//5 20//5 10//5 
f 36//5 24//5 39//5 
f 36//5 22//5 24//5 
f 11//6 15//5 31//6 
f 11//6 31//6 33//6 
f 13//5 25//5 38//5 
f 13//5 38//5 16//5 
f 40//4 23//4 5//4 
f 23//4 21//4 5//4 
f 1//1 17//2 34//2 
f 1//1 18//4 17//2 
f 6//4 28//4 37//4 
f 6//4 27//4 28//4 
f 30//3 29//4 4//3 
f 32//3 30//3 4//3 
f 23//9 40//16 39//16 24//9 
# 26 polygons - 24 triangles

