# 3ds Max Wavefront OBJ Exporter v0.97b - (c)2007 guruware
# File Created: 26.10.2015 14:44:22

mtllib Not-So-Simple Building 2.mtl

#
# object Box001
#

v  -311.2655 -288.0000 38.9366
v  -311.1795 -288.0001 230.9364
v  -431.1795 -288.0001 230.9364
v  -430.8940 -288.0000 38.9366
v  -59.8569 -288.0000 230.9366
v  -59.8569 -288.0000 38.9366
v  60.1431 -288.0000 38.9366
v  60.1431 -288.0000 230.9366
v  325.4872 -288.0000 38.9366
v  324.8830 -287.9999 230.9366
v  204.8830 -287.9999 230.9366
v  206.1154 -288.0000 38.9366
v  -311.2655 -288.0000 -153.0634
v  -430.8940 -288.0000 -153.0634
v  -59.8569 -288.0000 -153.0634
v  60.1431 -288.0000 -153.0634
v  325.4872 -288.0000 -153.0634
v  206.1154 -288.0000 -153.0634
v  -311.0657 -288.0000 -345.0634
v  -430.7536 -288.0000 -345.0634
v  -59.8569 -288.0000 -345.0634
v  60.1431 -288.0000 -345.0634
v  325.1583 -288.0000 -345.0634
v  205.1384 -288.0000 -345.0634
v  -311.1795 287.9999 230.9364
v  -311.4761 288.0000 38.9366
v  -431.1540 288.0000 38.9366
v  -431.1795 287.9999 230.9364
v  -59.8569 288.0000 230.9366
v  60.1431 288.0000 230.9366
v  60.1431 288.0000 38.9366
v  -59.8569 288.0000 38.9366
v  324.8830 288.0001 230.9366
v  324.9097 288.0000 38.9366
v  205.2392 288.0000 38.9366
v  204.8830 288.0001 230.9366
v  -431.3136 288.0000 -153.0634
v  -576.0000 288.0000 -153.0634
v  -576.0000 288.0000 38.9366
v  60.1431 288.0000 -153.0634
v  -59.8569 288.0000 -153.0634
v  324.9097 288.0000 -153.0634
v  205.2392 288.0000 -153.0634
v  -431.2321 288.0000 -345.0634
v  -576.0000 288.0000 -345.0634
v  60.1431 288.0000 -345.0634
v  -59.8569 288.0000 -345.0634
v  324.9097 288.0000 -345.0634
v  205.2392 288.0000 -345.0634
v  -59.8569 -288.0000 218.9366
v  60.1431 -288.0000 218.9366
v  60.1434 -177.2935 218.9366
v  -59.8567 -177.2937 218.9365
v  60.1431 96.0000 230.9366
v  -59.8569 96.0000 230.9366
v  -59.8567 -177.2937 230.9365
v  60.1434 -177.2935 230.9366
v  576.0000 -288.0000 230.9366
v  576.0000 -288.0000 38.9366
v  576.0000 -177.2936 38.9366
v  576.0000 -177.2936 230.9366
v  576.0000 -288.0000 -153.0634
v  576.0000 -177.2936 -153.0634
v  576.0000 -288.0000 -345.0634
v  576.0000 -177.2936 -345.0634
v  576.0000 96.0000 38.9366
v  576.0000 96.0000 230.9366
v  576.0000 96.0000 -153.0634
v  576.0000 96.0000 -345.0634
v  576.0000 288.0000 38.9366
v  576.0000 288.0000 230.9366
v  576.0000 288.0000 -153.0634
v  576.0000 288.0000 -345.0634
v  325.1583 -177.2936 -345.0634
v  445.1783 -177.2936 -345.0634
v  445.1783 -288.0000 -345.0634
v  -59.8569 -177.2936 -345.0634
v  60.1431 -177.2936 -345.0634
v  -311.0657 -177.2936 -345.0634
v  -191.3777 -177.2936 -345.0634
v  -191.3777 -288.0000 -345.0634
v  325.1583 96.0000 -345.0634
v  445.1783 96.0000 -345.0634
v  -59.8569 96.0000 -345.0634
v  60.1431 96.0000 -345.0634
v  -311.0657 96.0000 -345.0634
v  -191.3777 96.0000 -345.0634
v  444.5802 288.0000 -345.0634
v  -311.2981 288.0000 -345.0634
v  -191.3642 288.0000 -345.0634
v  -576.0000 -288.0000 -345.0634
v  -576.0000 -288.0000 -153.0634
v  -576.0000 -177.2936 -153.0634
v  -576.0000 -177.2936 -345.0634
v  -576.0000 -288.0000 38.9366
v  -576.0000 -177.2936 38.9366
v  -576.0000 -288.0000 230.9366
v  -576.0000 -177.2936 230.9366
v  -576.0000 96.0000 -153.0634
v  -576.0000 96.0000 -345.0634
v  -576.0000 96.0000 38.9366
v  -575.9191 96.0000 230.9365
v  -576.0000 288.0000 230.9366
v  -408.2615 95.9999 301.4706
v  -431.1795 95.9999 230.9364
v  -431.1795 -177.2938 230.9364
v  -408.2615 -177.2938 301.4706
v  -311.1145 95.9999 345.0632
v  -311.2444 -177.2938 345.0632
v  -214.0974 -177.2938 301.4706
v  -214.0974 95.9999 301.4706
v  -191.1795 -177.2938 230.9365
v  -191.1795 95.9999 230.9365
v  -214.0974 -288.0001 301.4706
v  -311.3744 -288.0001 345.0632
v  -191.1795 -288.0001 230.9365
v  -310.9845 287.9999 345.0632
v  -408.2615 287.9999 301.4706
v  227.8010 96.0001 301.4708
v  204.8830 96.0001 230.9366
v  204.8830 -177.2936 230.9366
v  227.8010 -177.2936 301.4708
v  324.8848 96.0001 345.0634
v  324.8813 -177.2936 345.0634
v  421.9651 -177.2936 301.4708
v  421.9651 96.0001 301.4708
v  444.8830 -177.2936 230.9366
v  444.8830 96.0001 230.9366
v  421.9651 -287.9999 301.4708
v  324.8778 -287.9999 345.0634
v  444.8830 -287.9999 230.9366
v  324.8883 288.0001 345.0634
v  227.8010 288.0001 301.4708
v  -191.7982 288.0000 38.9366
v  -191.1795 287.9999 230.9365
v  -191.3298 288.0000 -153.0634
v  -311.3217 288.0000 -153.0634
v  -430.7536 -177.2936 -345.0634
v  -430.7536 96.0000 -345.0634
v  -191.6370 -288.0000 38.9366
v  -191.6370 -288.0000 -153.0634
v  444.5802 288.0000 38.9366
v  444.8830 288.0001 230.9366
v  444.5802 288.0000 -153.0634
v  205.1384 96.0000 -345.0634
v  205.1384 -177.2936 -345.0634
v  444.8589 -288.0000 -153.0634
v  444.8589 -288.0000 38.9366
v  227.8010 -287.9999 301.4708
v  421.9651 288.0001 301.4708
v  -408.2615 -288.0001 301.4706
v  -214.0974 287.9999 301.4706
# 152 vertices

vn 0.0000 -1.0000 -0.0000
vn -0.0000 -1.0000 -0.0000
vn 0.0000 -1.0000 0.0000
vn -0.0000 -1.0000 0.0000
vn -0.0000 1.0000 0.0000
vn 0.0000 1.0000 0.0000
vn -0.0000 1.0000 -0.0000
vn 0.0000 1.0000 -0.0000
vn -0.0000 0.0000 1.0000
vn 0.0000 -0.0000 1.0000
vn -0.0000 -0.0000 1.0000
vn 0.0000 0.0000 1.0000
vn 0.7071 0.0000 0.7071
vn 1.0000 0.0000 -0.0000
vn 0.0000 0.0000 -1.0000
vn 0.0000 -0.0000 -1.0000
vn -0.0000 -0.0000 -1.0000
vn -0.0000 0.0000 -1.0000
vn -1.0000 0.0000 -0.0000
vn -1.0000 0.0000 0.0000
vn -1.0000 0.0001 -0.0000
vn -1.0000 -0.0001 0.0002
vn -1.0000 -0.0002 0.0003
vn -1.0000 -0.0002 0.0002
vn -0.7441 0.0001 0.6681
vn -0.9511 0.0000 0.3090
vn -0.7443 0.0000 0.6679
vn 0.0002 0.0000 1.0000
vn -0.0002 -0.0000 1.0000
vn 0.7441 -0.0001 0.6681
vn 0.7443 -0.0000 0.6679
vn 0.9511 0.0000 0.3090
vn -0.7442 0.0000 0.6680
vn 0.7442 -0.0000 0.6680
vn 1.0000 -0.0000 0.0000
vn -0.7442 0.0000 0.6679
vn 0.7442 0.0000 0.6680
vn 0.7442 -0.0000 0.6679
vn -0.7440 0.0000 0.6682
vn -0.7444 0.0001 0.6678
vn 0.0008 -0.0001 1.0000
vn -0.0009 0.0001 1.0000
vn 0.7440 0.0000 0.6682
vn 0.7444 -0.0001 0.6677
# 44 vertex normals

vt 0.8519 0.3333 0.0000
vt 0.8333 0.0000 0.0000
vt 0.8889 0.0000 0.0000
vt 0.8889 0.3333 0.0000
vt 0.6667 0.0000 0.0000
vt 0.6667 0.3333 0.0000
vt 0.3333 0.3333 0.0000
vt 0.3333 0.0000 0.0000
vt 0.1852 0.3333 0.0000
vt 0.1667 0.0000 0.0000
vt 0.2222 0.0000 0.0000
vt 0.2222 0.3333 0.0000
vt 0.8519 0.6667 0.0000
vt 0.8889 0.6667 0.0000
vt 0.6667 0.6667 0.0000
vt 0.3333 0.6667 0.0000
vt 0.1852 0.6667 0.0000
vt 0.2222 0.6667 0.0000
vt 0.8519 1.0000 0.0000
vt 0.8889 1.0000 0.0000
vt 0.6667 1.0000 0.0000
vt 0.3333 1.0000 0.0000
vt 0.1852 1.0000 0.0000
vt 0.2222 1.0000 0.0000
vt 0.1944 0.3333 0.0000
vt 0.1111 0.3333 0.0000
vt 0.1111 0.0000 0.0000
vt 0.8148 0.3333 0.0000
vt 0.7778 0.0000 0.0000
vt 0.1250 0.6667 0.0000
vt 0.0000 0.6667 0.0000
vt 0.0000 0.3333 0.0000
vt 0.8148 0.6667 0.0000
vt 0.1944 1.0000 0.0000
vt 0.0000 1.0000 0.0000
vt 0.8148 1.0000 0.0000
vt 0.6667 0.5556 0.0000
vt 0.3333 0.4444 0.0000
vt 0.0000 0.0000 0.0000
vt 1.0000 0.0000 0.0000
vt 1.0000 0.3333 0.0000
vt 0.0000 0.5556 0.0000
vt 1.0000 0.6667 0.0000
vt 1.0000 1.0000 0.0000
vt 0.1852 0.0000 0.0000
vt 0.1481 0.3333 0.0000
vt 0.1481 0.0000 0.0000
vt 0.8519 0.0000 0.0000
vt 0.8148 0.0000 0.0000
vt 0.1481 0.6667 0.0000
vt 0.1481 1.0000 0.0000
vt 0.1111 1.0000 0.0000
vt 0.7778 1.0000 0.0000
vt 0.7500 1.0000 0.0000
vt 1.0000 0.4444 0.0000
vt 0.3500 0.6667 1.0000
vt 0.2500 0.6667 1.0000
vt 0.2500 0.3333 1.0000
vt 0.3500 0.3333 1.0000
vt 0.5167 0.6667 1.0000
vt 0.4833 0.3333 1.0000
vt 0.6500 0.3333 1.0000
vt 0.6500 0.6667 1.0000
vt 0.7500 0.3333 1.0000
vt 0.7500 0.6667 1.0000
vt 0.7939 0.9045 -0.2500
vt 0.9755 0.3455 -0.2500
vt 0.5000 0.5000 -0.2500
vt 0.5000 1.0000 -0.2500
vt 0.9755 0.6545 0.2500
vt 0.5000 0.5000 0.2500
vt 0.5000 0.0000 0.2500
vt 0.7939 0.0955 0.2500
vt 0.0000 0.4444 0.0000
vt 1.0000 0.5556 0.0000
vt 0.2778 0.3333 0.0000
vt 0.2500 0.6667 0.0000
vt 0.1875 0.6667 0.0000
vt 0.2500 1.0000 0.0000
vt 0.8056 1.0000 0.0000
vt -0.0000 1.0000 0.0000
vt -0.0000 0.6667 0.0000
vt -0.0000 0.3333 0.0000
vt -0.0000 0.0000 0.0000
vt 0.3500 1.0000 1.0000
vt 0.2500 1.0000 1.0000
vt 0.2500 0.0000 1.0000
vt 0.3500 0.0000 1.0000
vt 0.5500 1.0000 1.0000
vt 0.4500 0.0000 1.0000
vt 0.6500 0.0000 1.0000
vt 0.6500 1.0000 1.0000
vt 0.7500 0.0000 1.0000
vt 0.7500 1.0000 1.0000
vt 0.7939 0.9045 0.2500
vt 0.5000 1.0000 0.2500
vt 0.7939 0.0955 -0.2500
vt 0.5000 0.0000 -0.2500
# 98 texture coords

g Box001
usemtl wire_176026026
s 2
f 1/1/1 2/2/1 3/3/2 4/4/2 
f 5/5/1 6/6/1 7/7/3 8/8/1 
f 9/9/4 10/10/4 11/11/3 12/12/3 
f 13/13/1 1/1/1 4/4/2 14/14/1 
f 6/6/1 15/15/1 16/16/1 7/7/3 
f 17/17/1 9/9/4 12/12/3 18/18/1 
f 19/19/1 13/13/1 14/14/1 20/20/1 
f 15/15/1 21/21/1 22/22/1 16/16/1 
f 23/23/1 17/17/1 18/18/1 24/24/1 
s 4
f 25/10/5 26/25/5 27/26/5 28/27/6 
f 29/8/5 30/5/7 31/6/7 32/7/8 
f 33/2/8 34/1/8 35/28/8 36/29/7 
f 27/26/5 37/30/8 38/31/8 39/32/6 
f 32/7/8 31/6/7 40/15/8 41/16/8 
f 34/1/8 42/13/8 43/33/8 35/28/8 
f 38/31/8 37/30/8 44/34/8 45/35/8 
f 41/16/8 40/15/8 46/21/8 47/22/8 
f 42/13/8 48/19/8 49/36/8 43/33/8 
s 8
f 50/8/9 51/5/10 52/6/11 53/7/9 
f 54/37/11 55/16/10 56/38/9 57/6/9 
f 55/16/10 54/37/11 30/21/12 29/22/12 
s 16
f 58/39/13 59/8/14 60/7/14 61/32/13 
f 59/8/14 62/5/14 63/6/14 60/7/14 
f 62/5/14 64/40/14 65/41/14 63/6/14 
f 61/32/13 60/7/14 66/16/14 67/42/13 
f 60/7/14 63/6/14 68/15/14 66/16/14 
f 63/6/14 65/41/14 69/43/14 68/15/14 
f 67/42/13 66/16/14 70/22/14 71/35/13 
f 66/16/14 68/15/14 72/21/14 70/22/14 
f 68/15/14 69/43/14 73/44/14 72/21/14 
s 32
f 23/45/15 74/9/15 75/46/15 76/47/15 
f 22/8/15 21/5/15 77/6/15 78/7/15 
f 19/48/15 79/1/15 80/28/15 81/49/15 
f 74/9/15 82/17/16 83/50/15 75/46/15 
f 78/7/15 77/6/15 84/15/15 85/16/17 
f 79/1/15 86/13/15 87/33/15 80/28/15 
f 82/17/16 48/51/15 88/52/15 83/50/15 
f 85/16/17 84/15/15 47/21/15 46/22/18 
f 86/13/15 89/53/15 90/54/15 87/33/15 
s 64
f 91/39/19 92/8/19 93/7/19 94/32/19 
f 92/8/19 95/5/19 96/6/20 93/7/19 
f 95/5/19 97/40/19 98/55/21 96/6/20 
f 94/32/19 93/7/19 99/16/19 100/31/19 
f 93/7/19 96/6/20 101/15/22 99/16/19 
f 96/6/20 98/55/21 102/43/23 101/15/22 
f 100/31/19 99/16/19 38/22/19 45/35/19 
f 99/16/19 101/15/22 39/21/19 38/22/19 
f 101/15/22 102/43/23 103/44/24 39/21/19 
s 8
f 104/56/25 105/57/26 106/58/26 107/59/27 
f 108/60/28 104/56/25 107/59/27 109/61/29 
f 109/61/29 110/62/30 111/63/31 108/60/28 
f 110/62/30 112/64/32 113/65/32 111/63/31 
s 1
f 114/66/1 115/67/1 2/68/1 116/69/1 
f 117/70/8 25/71/8 28/72/8 118/73/8 
s 16
f 55/43/11 113/15/9 112/6/11 56/55/9 
f 98/74/12 106/7/12 105/16/10 102/31/10 
s 8
f 119/56/33 120/57/26 121/58/26 122/59/33 
f 123/60/12 119/56/33 122/59/33 124/61/11 
f 124/61/11 125/62/34 126/63/34 123/60/12 
f 125/62/34 127/64/32 128/65/32 126/63/34 
s 1
f 129/66/1 130/67/1 10/68/1 131/69/1 
f 132/70/8 33/71/8 36/72/8 133/73/8 
s 16
f 67/75/13 128/15/12 127/6/12 61/41/13 
f 57/32/10 121/7/12 120/16/12 54/42/9 
s off
f 5/5/8 8/8/8 51/5/8 50/8/8 
f 8/39/19 57/32/19 52/6/19 51/5/19 
f 57/6/3 56/38/3 53/7/3 52/6/3 
f 56/55/35 5/40/35 50/8/35 53/7/35 
s 4
f 29/8/5 32/7/8 134/76/5 135/11/5 
f 39/32/6 103/39/8 28/27/6 27/26/5 
f 134/76/5 32/7/8 41/16/8 136/77/8 
f 26/25/5 137/78/8 37/30/8 27/26/5 
f 137/78/8 89/24/8 44/34/8 37/30/8 
f 136/77/8 41/16/8 47/22/8 90/79/8 
s 32
f 91/40/15 94/41/15 138/4/15 20/3/15 
f 77/6/15 21/5/15 81/49/15 80/28/15 
f 139/14/15 100/43/15 45/44/15 44/80/15 
f 90/54/15 47/21/15 84/15/15 87/33/15 
f 138/4/15 94/41/15 100/43/15 139/14/15 
f 87/33/15 84/15/15 77/6/15 80/28/15 
s 2
f 6/6/1 5/5/1 116/29/1 140/28/1 
f 97/40/2 95/41/1 4/4/2 3/3/2 
f 141/33/1 15/15/1 6/6/1 140/28/1 
f 4/4/2 95/41/1 92/43/1 14/14/1 
f 81/36/1 21/21/1 15/15/1 141/33/1 
f 14/14/1 92/43/1 91/44/1 20/20/1 
s 4
f 71/40/8 70/41/8 142/4/8 143/3/8 
f 31/6/7 30/5/7 36/29/7 35/28/8 
f 142/4/8 70/41/8 72/43/8 144/14/8 
f 43/33/8 40/15/8 31/6/7 35/28/8 
f 144/14/8 72/43/8 73/44/8 88/20/8 
f 49/36/8 46/21/8 40/15/8 43/33/8 
s 32
f 145/18/16 85/16/17 46/22/18 49/23/15 
f 88/52/15 73/35/15 69/31/15 83/50/15 
f 146/12/16 78/7/15 85/16/17 145/18/16 
f 83/50/15 69/31/15 65/32/15 75/46/15 
f 24/11/15 22/8/15 78/7/15 146/12/16 
f 75/46/15 65/32/15 64/39/15 76/47/15 
s 2
f 76/51/1 64/81/1 62/82/1 147/50/1 
f 18/18/1 16/16/1 22/22/1 24/24/1 
f 147/50/1 62/82/1 59/83/1 148/46/4 
f 12/12/3 7/7/3 16/16/1 18/18/1 
f 148/46/4 59/83/1 58/84/4 131/27/4 
f 11/11/3 8/8/1 7/7/3 12/12/3 
s 8
f 133/85/33 36/86/26 120/57/26 119/56/33 
f 11/87/26 149/88/36 122/59/33 121/58/26 
f 132/89/10 133/85/33 119/56/33 123/60/12 
f 149/88/36 130/90/9 124/61/11 122/59/33 
f 130/90/9 129/91/37 125/62/34 124/61/11 
f 150/92/38 132/89/10 123/60/12 126/63/34 
f 129/91/37 131/93/32 127/64/32 125/62/34 
f 143/94/32 150/92/38 126/63/34 128/65/32 
s 16
f 67/75/13 71/44/13 143/21/12 128/15/12 
f 127/6/12 131/5/12 58/40/13 61/41/13 
f 57/32/10 8/39/10 11/8/10 121/7/12 
f 36/22/12 30/35/12 54/42/9 120/16/12 
s 8
f 118/85/39 28/86/26 105/57/26 104/56/25 
f 3/87/26 151/88/40 107/59/27 106/58/26 
f 117/89/41 118/85/39 104/56/25 108/60/28 
f 151/88/40 115/90/42 109/61/29 107/59/27 
f 115/90/42 114/91/43 110/62/30 109/61/29 
f 152/92/44 117/89/41 108/60/28 111/63/31 
f 114/91/43 116/93/32 112/64/32 110/62/30 
f 135/94/32 152/92/44 111/63/31 113/65/32 
s 16
f 55/43/11 29/44/9 135/21/9 113/15/9 
f 116/5/9 5/40/9 56/55/9 112/6/11 
f 97/39/12 3/8/12 106/7/12 98/74/12 
f 105/16/10 28/22/12 103/35/10 102/31/10 
s 2
f 140/28/1 116/29/1 2/2/1 1/1/1 
f 141/33/1 140/28/1 1/1/1 13/13/1 
f 81/36/1 141/33/1 13/13/1 19/19/1 
s 4
f 135/11/5 134/76/5 26/25/5 25/10/5 
s 32
f 20/3/15 138/4/15 79/1/15 19/48/15 
f 138/4/15 139/14/15 86/13/15 79/1/15 
f 139/14/15 44/80/15 89/53/15 86/13/15 
s 4
f 134/76/5 136/77/8 137/78/8 26/25/5 
f 136/77/8 90/79/8 89/24/8 137/78/8 
s 1
f 117/70/8 152/95/8 135/96/8 25/71/8 
f 151/97/1 3/98/1 2/68/1 115/67/1 
s 2
f 148/46/4 131/27/4 10/10/4 9/9/4 
f 147/50/1 148/46/4 9/9/4 17/17/1 
f 76/51/1 147/50/1 17/17/1 23/23/1 
s 4
f 143/3/8 142/4/8 34/1/8 33/2/8 
f 142/4/8 144/14/8 42/13/8 34/1/8 
f 144/14/8 88/20/8 48/19/8 42/13/8 
s 32
f 24/11/15 146/12/16 74/9/15 23/45/15 
f 146/12/16 145/18/16 82/17/16 74/9/15 
f 145/18/16 49/23/15 48/51/15 82/17/16 
s 1
f 132/70/8 150/95/8 143/96/8 33/71/8 
f 149/97/1 11/98/1 10/68/1 130/67/1 
# 150 polygons

