# Blender v2.75 (sub 0) OBJ File: '_001.blend'
# www.blender.org
mtllib Pharmacy Building.mtl
o Pharmacy_Cube.001
v 1.642866 0.224931 -0.946457
v 1.642868 0.224932 1.230487
v 1.642868 -1.347886 1.230487
v 1.642866 -1.347886 -0.946457
v -1.642867 0.224932 1.230490
v -1.642867 -1.347886 1.230490
v -1.642869 0.224931 -0.946453
v -1.642869 -1.347886 -0.946453
v -1.730602 1.190902 1.288620
v 1.730604 1.190902 1.288616
v 1.576013 1.184785 1.186193
v -1.576011 1.184785 1.186196
v 1.576010 1.184785 -0.902160
v -1.576013 1.184785 -0.902158
v -1.505204 1.031319 -0.855243
v 1.505201 1.031319 -0.855246
v -1.730604 1.190902 -1.004580
v 1.730601 1.190902 -1.004584
v -1.505202 1.031319 1.139281
v 1.505203 1.031319 1.139278
v 1.730601 0.949582 -1.004584
v -1.730604 0.949582 -1.004580
v -1.730602 0.949582 1.288620
v 1.730604 0.949582 1.288616
v 1.642866 0.885700 -0.946456
v -1.642869 0.885700 -0.946452
v -1.642867 0.885701 1.230491
v 1.642868 0.885701 1.230488
v 1.642866 0.224932 -1.232756
v -1.642869 0.224932 -1.232752
v -1.642870 0.224932 -1.643192
v 1.642865 0.224932 -1.643196
v -1.642870 0.396039 -1.643192
v 1.642865 0.396039 -1.643196
v -1.642869 0.755675 -1.232751
v 1.642866 0.755675 -1.232755
vt 0.634653 0.270745
vt 0.634653 0.000000
vt 0.816538 0.000000
vt 0.816538 0.270745
vt 0.181845 0.010912
vt 0.181846 0.419556
vt 0.000000 0.419556
vt 0.000000 0.010912
vt 0.740125 0.357398
vt 0.740125 0.628143
vt 0.558240 0.628143
vt 0.558240 0.357398
vt 0.998383 0.000000
vt 0.998383 0.408645
vt 0.816538 0.408645
vt 0.252379 0.839113
vt 0.000000 0.839113
vt 0.000000 0.430468
vt 0.252379 0.430468
vt 0.558240 0.000000
vt 0.558240 0.430468
vt 0.546345 0.411242
vt 0.546345 0.019226
vt 0.289647 0.822483
vt 0.289647 0.430468
vt 0.307791 0.439275
vt 0.307791 0.813677
vt 0.293032 0.000000
vt 0.304828 0.019226
vt 0.293032 0.430468
vt 0.304828 0.411242
vt 0.327574 0.430468
vt 0.558240 0.804870
vt 0.327574 0.804870
vt 0.981856 0.800660
vt 0.981856 0.408645
vt 1.000000 0.417451
vt 1.000000 0.791853
vt 0.650710 0.714796
vt 0.650710 0.974523
vt 0.632382 0.968689
vt 0.632382 0.720631
vt 0.632382 0.714796
vt 0.632382 0.974523
vt 0.614054 0.968688
vt 0.614054 0.720631
vt 0.252379 0.860936
vt 0.280280 0.430468
vt 0.280280 0.860936
vt 0.586147 1.000000
vt 0.586147 0.714796
vt 0.614054 0.714796
vt 0.614054 1.000000
vt 0.265131 0.430468
vt 0.265131 0.000000
vt 0.558240 1.000000
vt 0.558240 0.714796
vt 0.287169 0.441380
vt 0.287169 0.850024
vt 0.660881 0.714796
vt 0.660881 1.000000
vt 0.650710 0.992771
vt 0.650710 0.722026
vt 0.258242 0.419556
vt 0.258242 0.010912
vt 0.671052 0.714796
vt 0.671052 1.000000
vt 0.660881 0.992771
vt 0.660881 0.722026
vt 0.934272 0.817289
vt 0.934272 0.408645
vt 0.981856 0.817289
vt 0.816538 0.357398
vt 0.816538 0.628143
vt 0.558240 0.270745
vt 0.327574 0.839113
vt 0.307791 0.839113
vt 0.307791 0.430468
vt 0.740125 0.663750
vt 0.801501 0.663750
vt 0.759912 0.714796
vt 0.740125 0.714796
vt 0.866917 0.408645
vt 0.866917 0.817289
vt 0.816538 0.817289
vt 0.573277 0.306352
vt 0.634653 0.306352
vt 0.634653 0.357398
vt 0.614866 0.357398
vt 0.901081 0.408645
vt 0.901081 0.817289
vn 1.000000 -0.000000 -0.000000
vn 0.000000 -0.000000 1.000000
vn -1.000000 0.000000 0.000000
vn -0.000000 0.000000 -1.000000
vn -0.000000 -1.000000 -0.000000
vn -0.000000 0.998200 -0.059600
vn 0.000000 0.292300 0.956300
vn 0.039500 0.999200 0.000000
vn -0.039500 0.999200 0.000000
vn 0.000000 0.998200 0.059600
vn -0.000000 1.000000 -0.000000
vn -0.000000 0.292300 -0.956300
vn 0.908000 0.419000 -0.000000
vn -0.908000 0.419000 0.000000
vn -0.000000 -0.673000 -0.739600
vn -0.588600 -0.808400 0.000000
vn 0.000000 -0.673000 0.739600
vn 0.588600 -0.808400 -0.000000
vn -0.000000 0.752100 -0.659000
vn -0.000000 0.910500 -0.413500
usemtl None.015
s 1
f 1/1/1 2/2/1 3/3/1 4/4/1
f 2/5/2 5/6/2 6/7/2 3/8/2
f 5/9/3 7/10/3 8/11/3 6/12/3
f 7/13/4 1/14/4 4/15/4 8/3/4
f 4/16/5 3/17/5 6/18/5 8/19/5
f 9/20/6 10/21/6 11/22/6 12/23/6
f 13/24/7 14/25/7 15/26/7 16/27/7
f 17/28/8 9/20/8 12/23/8 14/29/8
f 10/21/9 18/30/9 13/31/9 11/22/9
f 18/30/10 17/28/10 14/29/10 13/31/10
f 15/32/11 19/21/11 20/33/11 16/34/11
f 12/35/12 11/36/12 20/37/12 19/38/12
f 14/39/13 12/40/13 19/41/13 15/42/13
f 11/43/14 13/44/14 16/45/14 20/46/14
f 17/47/4 18/19/4 21/48/4 22/49/4
f 9/50/3 17/51/3 22/52/3 23/53/3
f 10/28/2 9/30/2 23/54/2 24/55/2
f 18/56/1 10/57/1 24/51/1 21/50/1
f 22/49/15 21/48/15 25/58/15 26/59/15
f 23/60/16 22/61/16 26/62/16 27/63/16
f 24/55/17 23/54/17 27/64/17 28/65/17
f 21/66/18 24/67/18 28/68/18 25/69/18
f 29/70/5 30/71/5 31/36/5 32/72/5
f 27/73/3 26/74/3 7/10/3 5/9/3
f 28/65/2 27/64/2 5/6/2 2/5/2
f 25/75/1 28/20/1 2/2/1 1/1/1
f 33/32/4 34/76/4 32/77/4 31/78/4
f 30/79/3 35/80/3 33/81/3 31/82/3
f 35/83/19 36/84/19 34/85/19 33/15/19
f 36/86/1 29/87/1 32/88/1 34/89/1
f 25/75/1 1/1/1 29/87/1 36/86/1
f 26/90/20 25/91/20 36/84/20 35/83/20
f 7/10/3 26/74/3 35/80/3 30/79/3
f 1/91/5 7/90/5 30/71/5 29/70/5
