# Blender v2.75 (sub 0) OBJ File: 'Complete Map.blend'
# www.blender.org
mtllib Radiostation Building.mtl
o Radio_Station_Cube.004
v -1.135352 1.252833 -2.626246
v -1.000753 -0.865727 -2.358743
v 1.635735 1.252833 -2.626245
v 1.501135 -0.865727 -2.358742
v -1.135353 1.252833 2.881023
v -1.000754 -0.865727 2.613520
v 1.635734 1.252833 2.881024
v 1.501134 -0.865727 2.613521
v -1.000753 0.891773 -2.358743
v 1.501135 0.891773 -2.358742
v 1.501134 0.891773 2.613521
v -1.000754 0.891773 2.613520
v 1.687351 1.013434 -2.728827
v 1.687351 1.279706 -2.728827
v -1.186968 1.279706 -2.728828
v 1.687350 1.013434 2.983605
v 1.687350 1.279706 2.983605
v -1.186969 1.013434 2.983605
v -1.186969 1.279706 2.983605
v -1.186968 1.013434 -2.728828
v 1.635735 1.141181 -2.626245
v -1.135352 1.141181 -2.626246
v 1.635734 1.141181 2.881024
v -1.135353 1.141181 2.881023
vt 0.608064 0.424384
vt 0.627019 0.453783
vt 0.627018 0.000000
vt 0.608064 0.029399
vt 0.004763 0.461931
vt 0.000000 0.453783
vt 0.000000 0.907565
vt 0.004763 0.899416
vt 0.780766 0.748659
vt 0.751755 0.731248
vt 0.751755 1.000000
vt 0.780766 0.982589
vt 0.809778 1.000000
vt 0.809778 0.731248
vt 0.999717 0.000000
vt 0.982322 0.000000
vt 0.982322 0.437485
vt 0.999717 0.437485
vt 0.751755 0.453783
vt 0.520904 0.453783
vt 0.520904 0.848768
vt 0.751755 0.848768
vt 0.982605 0.731248
vt 0.982605 0.453783
vt 0.000000 0.424384
vt 0.273813 0.424384
vt 0.273813 0.029399
vt 0.000000 0.029399
vt 0.668503 0.000000
vt 0.668503 0.277465
vt 0.899353 0.277465
vt 0.899353 0.000000
vt 0.334252 0.424384
vt 0.334251 0.029399
vt 0.668503 0.453783
vt 0.940838 0.268752
vt 0.982322 0.268752
vt 0.940838 0.000000
vt 0.292767 0.453783
vt 0.334251 0.453783
vt 0.334251 0.000000
vt 0.292767 0.000000
vt 0.899353 0.268752
vt 0.260452 0.461931
vt 0.265215 0.453783
vt 0.265215 0.907565
vt 0.260452 0.899416
vt 0.265215 0.891267
vt 0.520904 0.891267
vt 0.827173 0.990348
vt 0.844568 0.990348
vt 0.844568 0.731248
vt 0.827173 0.731248
vt 0.809778 0.990348
vt 1.000000 0.453783
vt 0.982605 0.891267
vt 1.000000 0.891267
vn -0.000000 -0.950000 -0.312300
vn 0.000000 0.967400 0.253400
vn -0.547000 -0.837200 -0.000000
vn 0.547000 -0.837200 0.000000
vn -0.000000 0.000000 1.000000
vn -0.000000 -1.000000 -0.000000
vn -1.000000 0.000000 -0.000000
vn 1.000000 -0.000000 0.000000
vn 0.000000 -0.000000 -1.000000
vn -0.000000 -0.950000 0.312300
vn -0.461800 0.887000 -0.000000
vn 0.461800 0.887000 0.000000
vn 0.000000 0.967400 -0.253400
vn 0.000000 1.000000 -0.000000
usemtl None
s 1
f 9/1/1 20/2/1 13/3/1 10/4/1
f 3/5/2 14/6/2 15/7/2 1/8/2
f 12/9/3 18/10/3 20/11/3 9/12/3
f 10/12/4 13/13/4 16/14/4 11/9/4
f 1/15/5 22/16/5 21/17/5 3/18/5
f 6/19/6 2/20/6 4/21/6 8/22/6
f 6/19/7 12/10/7 9/23/7 2/24/7
f 8/25/5 11/26/5 12/27/5 6/28/5
f 4/29/8 10/30/8 11/31/8 8/32/8
f 2/33/9 9/1/9 10/4/9 4/34/9
f 20/2/9 15/35/9 14/29/9 13/3/9
f 13/36/8 14/37/8 17/16/8 16/38/8
f 16/39/5 17/40/5 19/41/5 18/42/5
f 18/38/7 19/32/7 15/43/7 20/36/7
f 11/26/10 16/39/10 18/42/10 12/27/10
f 7/44/11 17/45/11 14/6/11 3/5/11
f 1/8/12 15/7/12 19/46/12 5/47/12
f 5/47/13 19/46/13 17/45/13 7/44/13
f 22/48/14 24/49/14 23/20/14 21/45/14
f 3/50/7 21/51/7 23/52/7 7/53/7
f 5/54/8 24/50/8 22/53/8 1/14/8
f 7/55/9 23/24/9 24/56/9 5/57/9
