# 3ds Max Wavefront OBJ Exporter v0.97b - (c)2007 guruware
# File Created: 26.10.2015 14:43:01

mtllib Simple Building 1.mtl

#
# object Box002
#

v  -120.0000 -152.5000 115.0000
v  -79.5549 -152.5000 80.3029
v  -115.0000 -152.5000 120.0000
v  40.0000 -152.5000 40.0000
v  40.0000 -152.5000 80.4000
v  -40.0000 -152.5000 80.4000
v  -40.0000 -152.5000 40.0000
v  80.4000 -152.5000 40.0000
v  80.3267 -152.5000 80.3437
v  -79.6000 -152.5000 -40.0000
v  -79.6000 -152.5000 40.0000
v  -120.0000 -152.5000 40.0000
v  -120.0000 -152.5000 -40.0000
v  -40.0000 -152.5000 -40.0000
v  40.0000 -152.5000 -40.0000
v  80.4000 -152.5000 -40.0000
v  -79.3131 -152.5000 -79.4254
v  -120.0000 -152.5000 -115.0000
v  40.0000 -152.5000 -120.0000
v  40.0000 -152.5000 -79.6000
v  -40.0000 -152.5000 -79.6000
v  -40.0000 -152.5000 -120.0000
v  115.0000 -152.5000 -120.0000
v  80.3414 -152.5000 -79.6492
v  -115.0000 -56.5000 120.0000
v  -40.0000 -152.5000 120.0000
v  -40.0000 -56.5000 120.0000
v  -40.0000 -56.5000 108.0000
v  -40.0000 -152.5000 108.0000
v  40.0000 -152.5000 108.0000
v  40.0000 -56.5000 108.0000
v  40.0000 -56.5000 120.0000
v  40.0000 -152.5000 120.0000
v  115.0000 -152.5000 120.0000
v  115.0000 -56.5000 120.0000
v  -115.0000 39.5000 120.0000
v  -40.0000 39.5000 120.0000
v  40.0000 39.5000 120.0000
v  115.0000 39.5000 120.0000
v  -115.0000 130.5000 120.0000
v  -40.0000 130.5000 120.0000
v  40.0000 130.5000 120.0000
v  115.0000 130.5000 120.0000
v  120.0000 -56.5000 115.0000
v  120.0000 -152.5000 115.0000
v  120.0000 -152.5000 40.0000
v  120.0000 -56.5000 40.0000
v  120.0000 -152.5000 -40.0000
v  120.0000 -56.5000 -40.0000
v  120.0000 -152.5000 -115.0000
v  120.0000 -56.5000 -115.0000
v  120.0000 39.5000 115.0000
v  120.0000 39.5000 40.0000
v  120.0000 39.5000 -40.0000
v  120.0000 39.5000 -115.0000
v  120.0000 130.5000 115.0000
v  120.0000 130.5000 40.0000
v  120.0000 130.5000 -40.0000
v  120.0000 130.5000 -115.0000
v  115.0000 -56.5000 -120.0000
v  40.0000 -56.5000 -120.0000
v  -40.0000 -56.5000 -120.0000
v  -120.0000 -56.5000 -115.0000
v  -115.0000 -56.5000 -120.0000
v  -115.0000 -152.5000 -120.0000
v  115.0000 39.5000 -120.0000
v  40.0000 39.5000 -120.0000
v  -40.0000 39.5000 -120.0000
v  -115.0000 39.5000 -120.0000
v  115.0000 130.5000 -120.0000
v  40.0000 130.5000 -120.0000
v  -40.0000 130.5000 -120.0000
v  -115.0000 130.5000 -120.0000
v  -120.0000 -56.5000 -40.0000
v  -120.0000 -56.5000 40.0000
v  -120.0000 -56.5000 115.0000
v  -120.0000 39.5000 -115.0000
v  -120.0000 39.5000 -40.0000
v  -120.0000 39.5000 40.0000
v  -120.0000 39.5000 115.0000
v  -120.0000 130.5000 -115.0000
v  -120.0000 130.5000 -40.0000
v  -120.0000 130.5000 40.0000
v  -120.0000 130.5000 115.0000
v  -40.0000 135.5000 115.0000
v  -40.0000 135.5000 39.8850
v  -115.0000 135.5000 39.9928
v  -115.0000 135.5000 115.0000
v  40.0000 135.5000 115.0000
v  40.0000 135.5000 39.6047
v  115.0000 135.5000 115.0000
v  115.0000 135.5000 39.9753
v  115.0000 135.5000 -39.9947
v  40.0000 135.5000 -39.9146
v  115.0000 135.5000 -115.0000
v  40.0000 135.5000 -115.0000
v  -40.0000 135.5000 -115.0000
v  -40.0000 135.5000 -39.9820
v  -115.0000 135.5000 -39.9989
v  -115.0000 135.5000 -115.0000
v  -115.0000 152.5000 115.0000
v  -120.0000 147.5000 115.0000
v  -115.0000 147.5000 120.0000
v  115.0000 147.5000 120.0000
v  120.0000 147.5000 115.0000
v  115.0000 152.5000 115.0000
v  -115.0000 152.5000 -115.0000
v  -115.0000 147.5000 -120.0000
v  -120.0000 147.5000 -115.0000
v  120.0000 147.5000 -115.0000
v  115.0000 147.5000 -120.0000
v  115.0000 152.5000 -115.0000
v  -40.0000 147.5000 120.0000
v  -40.0000 152.5000 115.0000
v  -120.0000 147.5000 40.0000
v  -115.0000 152.5000 39.9928
v  40.0000 147.5000 120.0000
v  40.0000 152.5000 115.0000
v  120.0000 147.5000 40.0000
v  115.0000 152.5000 39.9753
v  -120.0000 147.5000 -40.0000
v  -115.0000 152.5000 -39.9989
v  120.0000 147.5000 -40.0000
v  115.0000 152.5000 -39.9947
v  -40.0000 147.5000 -120.0000
v  -40.0000 152.5000 -115.0000
v  40.0000 147.5000 -120.0000
v  40.0000 152.5000 -115.0000
v  -116.9132 147.5000 124.6195
v  -116.9132 130.5000 124.6195
v  -40.0000 130.5000 125.0000
v  -40.0000 147.5000 125.0000
v  40.0000 130.5000 125.0000
v  40.0000 147.5000 125.0000
v  116.9132 130.5000 124.6195
v  116.9132 147.5000 124.6195
v  124.6195 130.5000 116.9132
v  124.6195 147.5000 116.9132
v  125.0000 130.5000 40.0000
v  125.0000 147.5000 40.0000
v  125.0000 130.5000 -40.0000
v  125.0000 147.5000 -40.0000
v  124.6195 130.5000 -116.9132
v  124.6195 147.5000 -116.9132
v  116.9132 130.5000 -124.6195
v  116.9132 147.5000 -124.6195
v  40.0000 130.5000 -125.0000
v  40.0000 147.5000 -125.0000
v  -40.0000 130.5000 -125.0000
v  -40.0000 147.5000 -125.0000
v  -116.9132 130.5000 -124.6195
v  -116.9132 147.5000 -124.6195
v  -124.6195 130.5000 -116.9132
v  -124.6195 147.5000 -116.9132
v  -125.0000 130.5000 -40.0000
v  -125.0000 147.5000 -40.0000
v  -125.0000 130.5000 40.0000
v  -125.0000 147.5000 40.0000
v  -124.6195 130.5000 116.9132
v  -124.6195 147.5000 116.9132
# 160 vertices

vn 0.0000 -1.0000 -0.0000
vn -0.0000 -1.0000 -0.0000
vn 0.0000 -1.0000 0.0000
vn -0.0000 -1.0000 0.0000
vn 0.0000 0.0000 1.0000
vn 1.0000 0.0000 -0.0000
vn 0.0000 0.0000 -1.0000
vn -0.7071 0.0000 -0.7071
vn -0.0624 0.0000 -0.9981
vn -1.0000 0.0000 -0.0000
vn 0.0000 1.0000 -0.0000
vn -0.5774 0.5774 0.5774
vn 0.5774 0.5774 0.5774
vn -0.5774 0.5774 -0.5774
vn 0.5774 0.5774 -0.5774
vn 0.0000 0.7071 0.7071
vn -0.7071 0.7071 -0.0000
vn 0.7071 0.7071 -0.0000
vn 0.0000 0.7071 -0.7071
vn -0.7071 0.0000 0.7071
vn 0.7071 0.0000 0.7071
vn 0.7071 0.0000 -0.7071
vn -0.0049 0.0000 1.0000
vn 0.0049 0.0000 1.0000
vn 1.0000 0.0000 0.0049
vn 1.0000 0.0000 -0.0049
vn 0.0049 0.0000 -1.0000
vn -0.0049 0.0000 -1.0000
vn -1.0000 0.0000 -0.0049
vn -1.0000 0.0000 0.0049
# 30 vertex normals

vt 1.0000 0.0208 0.0000
vt 0.7465 0.2464 0.0000
vt 0.9792 0.0000 0.0000
vt 0.3333 0.3333 0.0000
vt 0.3333 0.1650 0.0000
vt 0.6667 0.1650 0.0000
vt 0.6667 0.3333 0.0000
vt 0.1650 0.3333 0.0000
vt 0.2313 0.2670 0.0000
vt 0.8317 0.6667 0.0000
vt 0.8317 0.3333 0.0000
vt 1.0000 0.3333 0.0000
vt 1.0000 0.6667 0.0000
vt 0.6667 0.6667 0.0000
vt 0.3333 0.6667 0.0000
vt 0.1650 0.6667 0.0000
vt 0.7445 0.7538 0.0000
vt 1.0000 0.9792 0.0000
vt 0.3333 1.0000 0.0000
vt 0.3333 0.8317 0.0000
vt 0.6667 0.8317 0.0000
vt 0.6667 1.0000 0.0000
vt 0.0208 1.0000 0.0000
vt 0.2705 0.7701 0.0000
vt 0.0208 0.3333 0.0000
vt 0.0208 0.0000 0.0000
vt 0.3333 0.0000 0.0000
vt 0.6667 0.0000 0.0000
vt 0.9792 0.3333 0.0000
vt 0.0208 0.6667 0.0000
vt 0.9792 0.6667 0.0000
vt 0.0208 0.9826 0.0000
vt 0.3333 0.9826 0.0000
vt 0.6667 0.9826 0.0000
vt 0.9792 0.9826 0.0000
vt 1.0000 0.0000 0.0000
vt 0.3385 1.0000 0.0000
vt 0.4168 1.0000 0.0000
vt 0.6511 1.0000 0.0000
vt 0.9635 1.0000 0.0000
vt 0.6606 1.0000 0.0000
vt 0.5698 1.0000 0.0000
vt 0.9731 1.0000 0.0000
vt 0.3481 1.0000 0.0000
vt 0.6512 1.0000 0.0000
vt 0.4186 1.0000 0.0000
vt 0.9637 1.0000 0.0000
vt 0.3387 1.0000 0.0000
vt 0.6616 1.0000 0.0000
vt 0.5863 1.0000 0.0000
vt 0.3491 1.0000 0.0000
vt 0.9741 1.0000 0.0000
vt 0.9864 1.0048 0.0000
vt 0.9912 0.9965 0.0000
vt 0.9917 0.9957 0.0000
vt 0.9864 1.0047 0.0000
vt 0.9821 1.0314 0.0000
vt 0.3529 1.0300 0.0000
vt 0.9866 1.0232 0.0000
vt 0.3568 1.0221 0.0000
vt 0.9873 1.0224 0.0000
vt 0.3573 1.0213 0.0000
vt 0.3530 1.0299 0.0000
vt 1.0037 0.0000 0.0000
vt 1.0037 0.3333 0.0000
vt -0.0037 0.3333 0.0000
vt -0.0037 -0.0000 0.0000
vt 1.0037 0.6667 0.0000
vt -0.0037 0.6667 0.0000
vt 1.0043 0.6603 0.0000
vt 1.0043 0.9762 0.0000
vt -0.0043 0.9762 0.0000
vt -0.0043 0.6603 0.0000
vt -0.0000 0.3333 0.0000
vt -0.0000 0.0208 0.0000
vt -0.0000 0.6667 0.0000
vt -0.0000 0.9792 0.0000
vt 0.9792 1.0000 0.0000
# 78 texture coords

g Box002
usemtl wire_113135006
s 2
f 1/1/1 2/2/1 3/3/1 
f 4/4/1 5/5/1 6/6/1 7/7/1 
f 4/4/1 8/8/1 9/9/1 5/5/1 
f 10/10/1 11/11/1 12/12/1 13/13/1 
f 4/4/1 7/7/1 14/14/1 15/15/1 
f 16/16/2 8/8/1 4/4/1 15/15/1 
f 17/17/2 10/10/1 13/13/1 18/18/3 
f 19/19/1 20/20/3 21/21/4 22/22/1 
f 23/23/4 24/24/2 20/20/3 19/19/3 
s 8
f 25/25/5 3/26/5 26/27/5 27/4/5 
f 28/4/5 29/27/5 30/28/5 31/7/5 
f 32/7/5 33/28/5 34/3/5 35/29/5 
f 36/30/5 25/25/5 27/4/5 37/15/5 
f 37/15/5 27/4/5 32/7/5 38/14/5 
f 38/14/5 32/7/5 35/29/5 39/31/5 
f 40/32/5 36/30/5 37/15/5 41/33/5 
f 41/33/5 37/15/5 38/14/5 42/34/5 
f 42/34/5 38/14/5 39/31/5 43/35/5 
s 16
f 44/25/6 45/26/6 46/27/6 47/4/6 
f 47/4/6 46/27/6 48/28/6 49/7/6 
f 49/7/6 48/28/6 50/3/6 51/29/6 
f 52/30/6 44/25/6 47/4/6 53/15/6 
f 53/15/6 47/4/6 49/7/6 54/14/6 
f 54/14/6 49/7/6 51/29/6 55/31/6 
f 56/32/6 52/30/6 53/15/6 57/33/6 
f 57/33/6 53/15/6 54/14/6 58/34/6 
f 58/34/6 54/14/6 55/31/6 59/35/6 
s 32
f 60/25/7 23/26/7 19/27/7 61/4/7 
f 61/4/7 19/27/7 22/28/7 62/7/7 
f 18/36/8 63/12/8 64/29/9 65/3/7 
f 65/3/7 64/29/9 62/7/7 22/28/7 
f 66/30/7 60/25/7 61/4/7 67/15/7 
f 67/15/7 61/4/7 62/7/7 68/14/7 
f 68/14/7 62/7/7 64/29/7 69/31/7 
f 70/32/7 66/30/7 67/15/7 71/33/7 
f 71/33/7 67/15/7 68/14/7 72/34/7 
f 72/34/7 68/14/7 69/31/7 73/35/7 
s 64
f 63/25/10 18/26/10 13/27/10 74/4/10 
f 74/4/10 13/27/10 12/28/10 75/7/10 
f 75/7/10 12/28/10 1/3/10 76/29/10 
f 77/30/10 63/25/10 74/4/10 78/15/10 
f 78/15/10 74/4/10 75/7/10 79/14/10 
f 79/14/10 75/7/10 76/29/10 80/31/10 
f 81/32/10 77/30/10 78/15/10 82/33/10 
f 82/33/10 78/15/10 79/14/10 83/34/10 
f 83/34/10 79/14/10 80/31/10 84/35/10 
s off
f 85/37/11 86/38/11 87/39/11 88/40/11 
f 85/37/11 89/41/11 90/42/11 86/38/11 
f 89/41/11 91/43/11 92/44/11 90/42/11 
f 92/44/11 93/45/11 94/46/11 90/42/11 
f 93/45/11 95/47/11 96/48/11 94/46/11 
f 94/46/11 96/48/11 97/49/11 98/50/11 
f 86/38/11 90/42/11 94/46/11 98/50/11 
f 99/51/11 98/50/11 97/49/11 100/52/11 
f 87/39/11 86/38/11 98/50/11 99/51/11 
f 101/40/12 102/35/12 103/53/12 
f 104/35/13 105/54/13 106/43/13 
f 107/52/14 108/35/14 109/55/14 
f 110/35/15 111/56/15 112/47/15 
f 103/57/16 113/58/16 114/37/16 101/40/16 
f 115/34/17 102/35/17 101/40/17 116/39/17 
f 113/33/16 117/34/16 118/41/16 114/37/16 
f 117/34/16 104/35/16 106/43/16 118/41/16 
f 105/59/18 119/60/18 120/44/18 106/43/18 
f 121/33/17 115/34/17 116/39/17 122/51/17 
f 119/33/18 123/34/18 124/45/18 120/44/18 
f 125/34/19 108/35/19 107/52/19 126/49/19 
f 109/61/17 121/62/17 122/51/17 107/52/17 
f 127/33/19 125/34/19 126/49/19 128/48/19 
f 123/34/18 110/35/18 112/47/18 124/45/18 
f 111/57/19 127/63/19 128/48/19 112/47/19 
f 3/64/20 25/65/20 76/29/20 1/3/20 
f 35/66/21 34/67/21 45/26/21 44/25/21 
f 25/65/20 36/68/20 80/31/20 76/29/20 
f 39/69/21 35/66/21 44/25/21 52/30/21 
f 36/70/20 40/71/20 84/35/20 80/31/20 
f 43/72/21 39/73/21 52/30/21 56/32/21 
f 51/66/22 50/67/22 23/26/22 60/25/22 
f 55/69/22 51/66/22 60/25/22 66/30/22 
f 59/72/22 55/73/22 66/30/22 70/32/22 
f 69/69/8 64/66/8 63/25/8 77/30/8 
f 73/72/8 69/73/8 77/30/8 81/32/8 
f 129/57/23 130/32/23 131/33/23 132/58/23 
f 132/33/5 131/33/5 133/34/5 134/34/5 
f 134/34/24 133/34/24 135/35/24 136/35/24 
f 136/35/21 135/72/21 137/32/21 138/54/21 
f 138/59/25 137/32/25 139/33/25 140/60/25 
f 140/33/6 139/33/6 141/34/6 142/34/6 
f 142/34/26 141/34/26 143/35/26 144/35/26 
f 144/35/22 143/72/22 145/32/22 146/56/22 
f 146/57/27 145/32/27 147/33/27 148/63/27 
f 148/33/7 147/33/7 149/34/7 150/34/7 
f 150/34/28 149/34/28 151/35/28 152/35/28 
f 152/35/8 151/72/8 153/32/8 154/55/8 
f 154/61/29 153/32/29 155/33/29 156/62/29 
f 156/33/10 155/33/10 157/34/10 158/34/10 
f 158/34/30 157/34/30 159/35/30 160/35/30 
f 160/35/20 159/35/20 130/71/20 129/53/20 
f 114/37/7 85/37/7 88/40/7 101/40/7 
f 101/40/6 88/40/6 87/39/6 116/39/6 
f 116/39/6 87/39/6 99/51/6 122/51/6 
f 122/51/6 99/51/6 100/52/6 107/52/6 
f 107/52/5 100/52/5 97/49/5 126/49/5 
f 126/49/5 97/49/5 96/48/5 128/48/5 
f 128/48/5 96/48/5 95/47/5 112/47/5 
f 112/47/10 95/47/10 93/45/10 124/45/10 
f 124/45/10 93/45/10 92/44/10 120/44/10 
f 120/44/10 92/44/10 91/43/10 106/43/10 
f 106/43/7 91/43/7 89/41/7 118/41/7 
f 118/41/7 89/41/7 85/37/7 114/37/7 
f 131/33/1 130/32/1 40/32/1 41/33/1 
f 131/33/1 41/33/1 42/34/1 133/34/1 
f 133/34/1 42/34/1 43/35/1 135/35/1 
f 135/72/1 43/72/1 56/32/1 137/32/1 
f 139/33/1 137/32/1 56/32/1 57/33/1 
f 139/33/1 57/33/1 58/34/1 141/34/1 
f 141/34/1 58/34/1 59/35/1 143/35/1 
f 143/72/1 59/72/1 70/32/1 145/32/1 
f 147/33/1 145/32/1 70/32/1 71/33/1 
f 147/33/1 71/33/1 72/34/1 149/34/1 
f 149/34/1 72/34/1 73/35/1 151/35/1 
f 151/72/1 73/72/1 81/32/1 153/32/1 
f 155/33/1 153/32/1 81/32/1 82/33/1 
f 155/33/1 82/33/1 83/34/1 157/34/1 
f 157/34/1 83/34/1 84/35/1 159/35/1 
f 159/35/1 84/35/1 40/71/1 130/71/1 
f 132/58/11 113/58/11 103/57/11 129/57/11 
f 129/53/11 103/53/11 102/35/11 160/35/11 
f 158/34/11 160/35/11 102/35/11 115/34/11 
f 158/34/11 115/34/11 121/33/11 156/33/11 
f 156/62/11 121/62/11 109/61/11 154/61/11 
f 154/55/11 109/55/11 108/35/11 152/35/11 
f 150/34/11 152/35/11 108/35/11 125/34/11 
f 150/34/11 125/34/11 127/33/11 148/33/11 
f 148/63/11 127/63/11 111/57/11 146/57/11 
f 146/56/11 111/56/11 110/35/11 144/35/11 
f 142/34/11 144/35/11 110/35/11 123/34/11 
f 142/34/11 123/34/11 119/33/11 140/33/11 
f 140/60/11 119/60/11 105/59/11 138/59/11 
f 138/54/11 105/54/11 104/35/11 136/35/11 
f 134/34/11 136/35/11 104/35/11 117/34/11 
f 134/34/11 117/34/11 113/33/11 132/33/11 
f 29/27/11 26/28/11 33/27/11 30/28/11 
f 30/28/10 33/28/10 32/7/10 31/7/10 
f 31/7/1 32/7/1 27/4/1 28/4/1 
f 28/4/6 27/4/6 26/27/6 29/27/6 
s 2
f 2/2/1 11/11/1 7/7/1 6/6/1 
f 33/27/1 26/28/1 6/6/1 5/5/1 
f 46/74/1 45/75/1 9/9/1 8/8/1 
f 14/14/2 7/7/1 11/11/1 10/10/1 
f 48/76/2 46/74/1 8/8/1 16/16/2 
f 17/17/2 21/21/4 14/14/2 10/10/1 
f 15/15/1 14/14/2 21/21/4 20/20/3 
f 24/24/2 16/16/2 15/15/1 20/20/3 
f 2/2/1 6/6/1 26/28/1 3/3/1 
f 12/12/1 11/11/1 2/2/1 1/1/1 
f 45/75/1 34/26/1 9/9/1 
f 33/27/1 5/5/1 9/9/1 34/26/1 
f 48/76/2 16/16/2 24/24/2 50/77/4 
f 23/23/4 50/77/4 24/24/2 
f 22/22/4 21/21/4 17/17/2 65/78/3 
f 18/18/3 65/78/3 17/17/2 
# 154 polygons - 8 triangles

