# 3ds Max Wavefront OBJ Exporter v0.97b - (c)2007 guruware
# File Created: 23.11.2015 11:14:36

#
# object Box003
#

v  -265.2085 -280.8631 -265.2084
v  265.2085 -280.8631 -265.2084
v  265.2085 -280.8631 265.2084
v  -265.2085 -280.8631 265.2084
v  254.2498 249.5537 254.2498
v  254.2498 249.5537 -254.2498
v  -254.2498 249.5537 -254.2498
v  -254.2498 249.5537 254.2498
v  265.2085 238.5951 265.2084
v  265.2085 269.9044 265.2084
v  -265.2085 269.9044 265.2084
v  -265.2085 238.5951 265.2084
v  265.2085 238.5951 -265.2084
v  265.2085 269.9044 -265.2084
v  -265.2085 238.5951 -265.2084
v  -265.2085 269.9044 -265.2084
v  -254.2498 280.8631 254.2498
v  254.2498 280.8631 254.2498
v  -254.2498 280.8631 -254.2498
v  254.2498 280.8631 -254.2498
# 20 vertices

vn 0.0000 -1.0000 -0.0000
vn 0.0000 1.0000 -0.0000
vn 0.0000 0.0000 1.0000
vn 1.0000 0.0000 -0.0000
vn 0.0000 0.0000 -1.0000
vn -1.0000 0.0000 -0.0000
vn 0.0000 0.7071 0.7071
vn -0.7071 0.7071 -0.0000
vn 0.7071 0.7071 -0.0000
vn 0.0000 0.7071 -0.7071
# 10 vertex normals

g Box003
f 1//1 2//1 3//1 4//1 
f 5//2 6//2 7//2 8//2 
f 9//3 10//3 11//3 12//3 
f 3//3 9//3 12//3 4//3 
f 13//4 14//4 10//4 9//4 
f 2//4 13//4 9//4 3//4 
f 15//5 16//5 14//5 13//5 
f 15//5 13//5 2//5 1//5 
f 12//6 11//6 16//6 15//6 
f 12//6 15//6 1//6 4//6 
f 17//7 11//7 10//7 18//7 
f 17//8 19//8 16//8 11//8 
f 18//9 10//9 14//9 20//9 
f 19//10 20//10 14//10 16//10 
f 7//4 19//4 17//4 8//4 
f 6//3 20//3 19//3 7//3 
f 5//6 18//6 20//6 6//6 
f 8//5 17//5 18//5 5//5 
# 18 polygons

