# Blender v2.75 (sub 0) OBJ File: 'Complete Map.blend'
# www.blender.org
mtllib Supermarket.mtl
o Supermarket_Cube.002
v -3.730594 -2.224416 -4.427207
v -3.730593 1.712071 -4.427207
v 3.642325 -2.224417 -4.427208
v 3.642326 1.712070 -4.427208
v -3.730592 -2.162028 5.429605
v -3.730591 1.712071 5.429605
v 3.642327 -2.162029 5.429603
v 3.642328 1.712070 5.429603
v -3.730593 3.472976 -4.427207
v 3.642326 3.472975 -4.427208
v 3.642328 3.472975 5.429603
v -3.730591 3.472976 5.429605
v -3.730593 1.447100 -4.427207
v 3.642326 1.447098 -4.427208
v 3.642328 1.509487 5.429603
v -3.730591 1.509488 5.429605
v 0.276051 -2.217754 5.440969
v 0.276052 3.613111 5.440969
v 3.096715 -2.217754 5.440968
v 3.096716 3.613110 5.440968
v 0.276052 -2.135263 8.798021
v 0.276053 3.695601 8.798021
v 3.096716 -2.135264 8.798020
v 3.096717 3.695601 8.798020
v 0.276052 3.251342 5.440969
v 3.096716 3.251341 5.440968
v 3.096717 3.333832 8.798020
v 0.276053 3.333832 8.798021
v 1.685896 4.334125 5.440968
v 1.685896 4.416616 8.798021
v 1.678489 3.333832 8.798021
v 1.753194 3.251341 5.440968
v 3.096716 0.932696 5.440968
v 3.096716 0.732521 5.440968
v 3.096716 1.015187 8.798020
v 3.096716 0.815012 8.798020
v 0.276052 1.015187 8.798021
v 0.276052 0.815012 8.798021
v 0.276052 0.732522 5.440969
v 0.276052 0.932696 5.440969
v 1.753193 0.932696 5.440968
v 1.753193 0.732522 5.440968
v -2.463989 4.580976 -3.745135
v 2.375724 4.580975 -3.745136
v 2.375725 4.580975 4.747530
v -2.463988 4.580976 4.747531
v 3.201524 0.941402 5.008897
v 3.201523 0.702582 5.008897
v 3.201524 1.039818 8.950410
v 3.201524 0.800998 8.950410
v 0.172259 1.039818 8.950411
v 0.172259 0.800998 8.950411
v 0.172258 0.702582 5.008897
v 0.172258 0.941402 5.008897
v 1.668567 3.161669 8.798021
v 2.837398 2.645023 8.798020
v 0.556206 2.694475 8.792493
v 2.837398 1.273432 8.798020
v 0.540332 1.273432 8.798021
v 0.276052 2.788908 5.694547
v 0.276053 2.855821 8.417653
v 3.096717 2.900088 8.459107
v 3.096716 2.834253 5.779880
v 3.096716 1.240938 8.459107
v 3.096716 1.175103 5.779880
v 0.276052 1.187510 5.694547
v 0.276052 1.254423 8.417653
v 3.096716 3.202310 7.119494
v 0.276052 3.219398 7.056100
v 0.902961 -2.100120 8.803955
v 2.469806 -2.100121 8.803954
v 2.469806 0.265673 8.803954
v 0.902962 0.265674 8.803955
v 0.902961 -2.100120 7.241758
v 2.469806 -2.100121 7.241758
v 2.469806 0.265673 7.241758
v 0.902962 0.265674 7.241758
vt 0.130154 0.714304
vt 0.130154 0.408642
vt 0.280891 0.408642
vt 0.280892 0.714304
vt 0.454080 0.408396
vt 0.456646 0.816956
vt 0.305695 0.816956
vt 0.303130 0.408396
vt 0.757175 0.000002
vt 0.757175 0.305664
vt 0.606260 0.305662
vt 0.606260 0.000000
vt 0.690888 0.408396
vt 0.688323 0.816955
vt 0.537372 0.816955
vt 0.539937 0.408396
vt 0.303130 0.408642
vt 0.000000 0.408641
vt 0.000000 0.000000
vt 0.303130 0.000000
vt 0.765503 0.305664
vt 0.765502 0.000002
vt 0.837883 0.000003
vt 0.837883 0.305665
vt 0.355197 0.026678
vt 0.355197 0.378553
vt 0.119276 0.408642
vt 0.119276 0.714304
vt 0.046980 0.714304
vt 0.046980 0.408642
vt 0.699217 0.816955
vt 0.699217 0.408396
vt 0.771615 0.408396
vt 0.771615 0.816955
vt 0.464975 0.816956
vt 0.464974 0.408396
vt 0.537372 0.408396
vt 0.771615 0.634810
vt 0.771615 0.538821
vt 0.826852 0.538821
vt 0.887583 0.538821
vt 0.887583 0.634810
vt 0.826852 0.634810
vt 0.598319 0.816956
vt 0.656328 0.817986
vt 0.656328 0.957196
vt 0.598319 0.956166
vt 0.884031 0.281101
vt 0.884031 0.141912
vt 0.898901 0.141543
vt 0.898901 0.280733
vt 0.482395 0.816956
vt 0.540360 0.846840
vt 0.540360 0.861834
vt 0.482700 0.861835
vt 0.656328 0.956146
vt 0.656328 0.816956
vt 0.671198 0.817324
vt 0.671198 0.956514
vt 0.829619 0.679636
vt 0.771615 0.649787
vt 0.887583 0.649787
vt 0.424391 0.846841
vt 0.424391 0.861836
vt 0.540359 0.817986
vt 0.540360 0.957196
vt 0.483108 0.868971
vt 0.435052 0.890385
vt 0.291939 0.572313
vt 0.300169 0.572313
vt 0.300527 0.590308
vt 0.290708 0.590308
vt 0.124545 1.000000
vt 0.124545 0.877718
vt 0.150320 0.879169
vt 0.150320 0.977226
vt 0.826852 0.530534
vt 0.887583 0.530534
vt 0.540360 0.957937
vt 0.529494 0.947233
vt 0.528841 0.888329
vt 0.128813 0.871399
vt 0.244781 0.871400
vt 0.249090 0.877716
vt 0.424391 0.816956
vt 0.424391 0.956145
vt 0.303130 0.959151
vt 0.303130 0.819961
vt 0.128813 0.732218
vt 0.124545 0.714304
vt 0.771615 0.679636
vt 0.892876 0.682641
vt 0.892876 0.821831
vt 0.771615 0.818826
vt 0.994201 0.139181
vt 0.983983 0.149948
vt 0.918163 0.151579
vt 0.771615 0.530534
vt 0.554177 0.026677
vt 0.554177 0.378551
vt 0.606260 0.408395
vt 0.884031 0.052496
vt 0.884031 0.253138
vt 0.000000 0.661794
vt 0.000000 0.461152
vt 0.280892 0.697899
vt 0.280892 0.572313
vt 0.290708 0.572314
vt 0.290708 0.697899
vt 0.290707 0.408889
vt 0.300523 0.408642
vt 0.300523 0.572066
vt 0.280892 0.572066
vt 0.004309 0.732193
vt 0.004309 0.871403
vt 0.000000 0.877752
vt 0.000000 0.714304
vt 0.291066 0.590308
vt 0.299296 0.590308
vt 0.300527 0.608301
vt 0.290708 0.608301
vt 0.120278 0.871403
vt 0.120278 0.732193
vt 0.124545 0.877752
vt 0.244781 0.732219
vt 0.249090 0.714304
vt 0.424391 0.957938
vt 0.435053 0.947234
vt 0.826852 0.821831
vt 0.771615 0.821832
vt 0.771615 0.961041
vt 0.829924 0.961041
vt 0.887583 0.961041
vt 0.887583 0.821831
vt 0.994201 0.278371
vt 0.983983 0.262853
vt 0.901845 0.208436
vt 0.918163 0.264484
vt 0.766497 0.819686
vt 0.756876 0.833500
vt 0.688683 0.831810
vt 0.887583 0.408396
vt 0.674908 0.887011
vt 0.688683 0.942896
vt 0.766497 0.958876
vt 0.756876 0.944586
vt 0.884031 0.000000
vt 1.000000 0.000001
vt 1.000000 0.139181
vt 0.884031 0.139180
vt 0.734895 0.305665
vt 0.734895 0.403744
vt 0.670679 0.403744
vt 0.670679 0.305665
vt 0.240514 0.999998
vt 0.214739 0.977225
vt 0.240514 0.877716
vt 0.214739 0.879168
vt 0.606260 0.403722
vt 0.863339 0.370622
vt 0.863339 0.305665
vt 0.927529 0.305665
vt 0.927529 0.370622
vt 0.799111 0.370622
vt 0.799111 0.305665
vt 0.799111 0.403744
vn -0.000000 0.000000 -1.000000
vn 1.000000 -0.000000 -0.000000
vn 0.000000 -0.000000 1.000000
vn -1.000000 0.000000 0.000000
vn -0.000000 -1.000000 0.006300
vn -0.658400 0.752700 0.000000
vn 0.455000 0.890200 -0.021900
vn -0.455200 0.890100 -0.021900
vn -0.971800 0.000000 -0.235700
vn -0.009500 0.000000 1.000000
vn 0.011200 0.001400 0.999900
vn -0.000000 -0.995800 -0.091600
vn 0.175500 -0.984200 0.024400
vn 0.000000 1.000000 0.000000
vn 0.658400 0.752700 -0.000000
vn 0.000000 0.524200 0.851600
vn -0.000000 0.524200 -0.851600
vn -0.188600 0.981800 -0.024300
vn 0.972300 -0.000000 -0.233600
vn 0.190400 0.981400 -0.024300
vn 0.000000 0.987200 -0.159600
vn -0.173900 -0.984500 0.024400
vn -0.000000 -0.999700 0.024600
vn -0.000900 -0.007100 1.000000
vn 0.000000 0.999700 -0.024600
vn -0.000000 0.010800 0.999900
vn 0.000000 -0.166500 0.986000
vn 0.009500 0.000000 1.000000
vn -0.000000 -1.000000 0.000000
usemtl None
s 1
f 13/1/1 14/2/1 3/3/1 1/4/1
f 14/5/2 15/6/2 7/7/2 3/8/2
f 15/9/3 16/10/3 5/11/3 7/12/3
f 16/13/4 13/14/4 1/15/4 5/16/4
f 1/17/5 3/18/5 7/19/5 5/20/5
f 6/21/3 8/22/3 11/23/3 12/24/3
f 9/8/6 12/20/6 46/25/6 43/26/6
f 4/27/1 2/28/1 9/29/1 10/30/1
f 2/31/4 6/32/4 12/33/4 9/34/4
f 8/35/2 4/36/2 10/37/2 11/15/2
f 6/32/4 2/31/4 13/14/4 16/13/4
f 8/22/3 6/21/3 16/10/3 15/9/3
f 4/36/2 8/35/2 15/6/2 14/5/2
f 2/28/1 4/27/1 14/2/1 13/1/1
f 26/38/1 33/39/1 41/40/1 40/41/1 25/42/1 32/43/1
f 30/44/7 24/45/7 20/46/7 29/47/7
f 22/48/4 18/49/4 25/50/4 28/51/4
f 30/52/3 22/53/3 28/54/3 31/55/3
f 20/56/2 24/57/2 27/58/2 26/59/2
f 29/60/1 20/61/1 26/38/1 32/43/1
f 18/62/1 29/60/1 32/43/1 25/42/1
f 24/63/3 30/52/3 31/55/3 27/64/3
f 22/65/8 30/44/8 29/47/8 18/66/8
f 27/64/3 31/55/3 55/67/3 56/68/3
f 34/69/9 33/70/9 47/71/9 48/72/9
f 38/73/10 21/74/10 70/75/10 73/76/10
f 40/41/1 41/40/1 42/77/1 39/78/1
f 28/54/11 37/79/11 59/80/11 57/81/11
f 38/82/12 36/83/12 50/84/12 52/74/12
f 17/85/4 21/86/4 38/87/4 39/88/4
f 39/89/13 38/82/13 52/74/13 53/90/13
f 36/91/2 23/92/2 19/93/2 34/94/2
f 25/50/4 40/95/4 66/96/4 60/97/4
f 41/40/1 33/39/1 34/98/1 42/77/1
f 46/25/14 45/99/14 44/100/14 43/26/14
f 11/12/15 10/101/15 44/100/15 45/99/15
f 12/24/16 11/23/16 45/102/16 46/103/16
f 10/30/17 9/29/17 43/104/17 44/105/17
f 49/106/3 51/107/3 52/108/3 50/109/3
f 51/108/4 54/110/4 53/111/4 52/112/4
f 47/110/2 49/108/2 50/113/2 48/3/2
f 33/114/18 35/115/18 49/116/18 47/117/18
f 40/118/19 39/119/19 53/120/19 54/121/19
f 37/122/20 40/123/20 54/90/20 51/124/20
f 35/115/21 37/122/21 51/124/21 49/116/21
f 36/83/22 34/125/22 48/126/22 50/84/22
f 34/125/23 36/83/23 38/82/23 39/89/23
f 31/55/24 28/54/24 57/81/24 55/67/24
f 37/79/3 35/127/3 58/128/3 59/80/3
f 35/115/25 33/114/25 40/123/25 37/122/25
f 32/129/23 26/130/23 27/131/23 31/132/23 28/133/23 25/134/23
f 40/95/4 37/135/4 67/136/4 66/96/4
f 35/127/3 27/64/3 56/68/3 58/128/3
f 28/51/4 25/50/4 60/97/4 69/137/4 61/138/4
f 27/58/2 35/139/2 64/140/2 62/141/2
f 34/98/1 19/33/1 17/142/1 39/78/1 42/77/1
f 26/59/2 27/58/2 62/141/2 68/143/2 63/144/2
f 35/139/2 33/145/2 65/146/2 64/140/2
f 33/145/2 26/59/2 63/144/2 65/146/2
f 37/135/4 28/51/4 61/138/4 67/136/4
f 17/147/23 19/148/23 23/149/23 21/150/23
f 73/151/2 70/152/2 74/153/2 77/154/2
f 36/155/26 38/73/26 73/76/26 72/156/26
f 21/74/27 23/157/27 71/158/27 70/75/27
f 23/157/28 36/155/28 72/156/28 71/158/28
f 77/154/3 74/153/3 75/159/3 76/11/3
f 70/160/14 71/161/14 75/162/14 74/163/14
f 72/164/29 73/165/29 77/161/29 76/160/29
f 71/152/4 72/151/4 76/165/4 75/166/4
