# Blender v2.75 (sub 0) OBJ File: ''
# www.blender.org
mtllib Armory bulding.mtl
o Armory_Cube.012
v -1.593094 -0.657070 1.249694
v -1.593094 -0.657070 -0.866862
v -1.593094 -1.283063 -0.866863
v -1.593094 -1.283063 1.249694
v -0.522352 -0.657070 -0.866862
v 1.561881 -0.657070 -0.866862
v 1.561881 -1.283063 -0.866863
v -0.522352 -1.283063 -0.866863
v 1.561881 -0.657070 1.249694
v 1.561881 -1.283063 1.249694
v -0.522352 -0.657070 1.249694
v -0.522352 -1.283063 1.249694
v -0.489924 0.942559 1.164246
v -1.514398 0.910102 1.168007
v -1.514598 1.094780 1.168207
v -0.491490 1.115455 1.165811
v -0.494030 0.907138 -0.787840
v -1.514741 0.907138 -0.787840
v -0.517673 0.947515 1.245015
v 1.561881 0.907137 1.249695
v 1.561881 1.093539 1.249695
v -0.519269 1.120136 1.246612
v -1.593094 0.907138 -0.866862
v -1.593017 0.907808 1.249618
v -1.593074 1.093710 1.249675
v -1.593094 1.093539 -0.866862
v -1.514741 1.093539 -0.787840
v 1.492814 1.093557 1.168348
v -0.522352 1.093539 -0.866862
v -0.494030 1.093539 -0.787840
v 1.561881 1.093539 -0.866862
v 1.492816 1.093539 -0.787840
v 1.561881 0.907138 -0.866862
v 1.492816 0.907138 -0.787840
v 1.492796 0.907308 1.168331
v -1.593094 0.423145 -0.866862
v -1.593092 0.423160 1.249692
v 1.561881 0.423145 -0.866862
v 1.561881 0.423145 1.249694
v -0.520616 0.438124 1.247957
v 1.585255 0.436515 -1.567000
v -1.685676 0.436515 -1.567000
v -1.667238 0.600715 -1.548924
v 1.580438 0.603980 -1.541211
v -1.593094 0.008532 -0.866862
v -1.593094 0.008532 1.249694
v 1.561881 0.008532 -0.866862
v -0.522352 0.008532 -0.866862
v -0.522352 0.008532 -0.583293
v -0.522352 -0.657070 -0.583292
v 1.561881 0.008532 1.249694
v -0.522352 0.008532 1.249694
v 1.561881 0.008532 -0.583293
v 1.561881 -0.657070 -0.583292
vt 0.621511 0.498686
vt 0.408368 0.498686
vt 0.408368 0.418223
vt 0.621511 0.418222
vt 0.392202 0.141937
vt 0.392203 0.418222
vt 0.311150 0.418222
vt 0.311150 0.141937
vt 0.621511 0.643239
vt 0.834618 0.643252
vt 0.834618 0.723715
vt 0.621511 0.723702
vt 0.081050 0.276285
vt 0.081050 0.418222
vt 0.000000 0.418222
vt 0.000000 0.276285
vt 0.000000 0.560159
vt 0.211382 0.560159
vt 0.211382 0.836444
vt 0.000000 0.836444
vt 0.940572 0.262833
vt 0.944897 0.398632
vt 0.920985 0.398680
vt 0.918186 0.263060
vt 0.211753 0.681046
vt 0.408368 0.681597
vt 0.408368 0.816902
vt 0.211412 0.816859
vt 0.288799 0.275665
vt 0.283575 0.000000
vt 0.307709 0.000000
vt 0.311150 0.275876
vt 0.408368 0.699745
vt 0.621503 0.699830
vt 0.408368 0.723705
vt 0.674189 0.919211
vt 0.673966 0.723715
vt 0.698101 0.723733
vt 0.698101 0.919248
vt 0.618870 0.000001
vt 0.832005 0.000000
vt 0.823802 0.010403
vt 0.626827 0.010387
vt 0.831726 0.142351
vt 0.832005 0.418218
vt 0.823813 0.409063
vt 0.823584 0.146032
vt 0.618869 0.141937
vt 0.626827 0.145692
vt 0.618868 0.418222
vt 0.626826 0.409066
vt 0.594733 0.418222
vt 0.594733 0.000000
vt 0.969032 0.135305
vt 0.969031 0.398680
vt 0.944897 0.398681
vt 0.944897 0.135305
vt 0.834618 0.442194
vt 0.621511 0.442182
vt 0.834618 0.418235
vt 0.649831 0.919277
vt 0.649851 0.723717
vt 0.673966 0.919276
vt 0.408368 0.637534
vt 0.621511 0.637535
vt 0.532067 0.418222
vt 0.532067 0.000000
vt 0.834618 0.504405
vt 0.621511 0.504392
vt 0.283661 0.418212
vt 0.220912 0.418222
vt 0.222848 0.276055
vt 0.907809 0.839547
vt 0.978297 0.851814
vt 0.978297 0.418222
vt 0.907809 0.421326
vt 0.835419 0.846410
vt 0.907809 0.848733
vt 0.907809 0.418222
vt 0.834618 0.428189
vt 0.698101 0.725207
vt 0.760749 0.723715
vt 0.760749 0.793949
vt 0.739443 0.792603
vt 0.471016 0.793755
vt 0.471016 0.723726
vt 0.449275 0.725779
vt 0.408368 0.792230
vt 0.408368 0.584241
vt 0.621511 0.584240
vt 0.478383 0.418222
vt 0.478383 0.141937
vt 0.478383 0.000000
vt 0.471016 0.809280
vt 0.499567 0.723728
vt 0.499567 0.809282
vt 0.834618 0.557698
vt 0.621511 0.557685
vt 0.167228 0.418222
vt 0.167228 0.276285
vt 0.392202 0.000000
vt 0.311150 0.000000
vt 0.081050 0.000000
vt 0.000000 0.000000
vt 0.211382 0.418222
vt 0.944897 0.000000
vt 0.920782 0.000019
vt 0.307731 0.418219
vt 0.969032 0.000000
vt 0.220910 0.000000
vt 0.167229 0.000000
vt 0.832005 0.276285
vt 0.918186 0.000000
vt 0.918186 0.276285
vt 0.969032 0.276285
vt 0.997587 0.000000
vt 0.997587 0.276284
vt 0.649831 0.723715
vt 0.649831 1.000000
vt 0.621511 1.000000
vt 0.789305 0.723715
vt 0.789305 0.809270
vt 0.760749 0.809270
vt 0.978297 0.851176
vt 1.000000 0.851815
vt 1.000000 0.418222
vt 0.978726 0.420666
vn -1.000000 0.000000 0.000000
vn 0.000000 0.000000 -1.000000
vn 1.000000 0.000000 0.000000
vn 0.000000 -0.000000 1.000000
vn 0.000000 -1.000000 -0.000000
vn -0.003100 0.004900 -1.000000
vn -0.015900 0.999800 -0.009800
vn -0.001900 -0.004500 1.000000
vn -1.000000 -0.000200 0.000000
vn 1.000000 0.000500 -0.000100
vn -0.006800 1.000000 -0.000300
vn 0.012000 0.999400 -0.031800
vn 0.000000 1.000000 0.000000
vn 0.000100 1.000000 -0.000000
vn 0.002900 0.003000 1.000000
vn 0.000000 -0.999800 -0.019100
vn 0.000000 0.912100 -0.409900
vn 0.993100 -0.025100 -0.114500
vn 0.999600 0.006200 0.029200
vn 0.000800 0.002100 1.000000
vn 0.001700 0.004400 -1.000000
vn 0.008900 0.999900 -0.009100
vn 0.003700 -0.004600 1.000000
vn -0.022500 0.999100 -0.037000
vn -0.001500 0.003000 1.000000
vn -0.001000 0.002500 1.000000
vn -0.000400 0.002100 1.000000
vn 0.001100 0.131100 -0.991400
usemtl None.012
s 1
f 1/1/1 2/2/1 3/3/1 4/4/1
f 5/5/2 6/6/2 7/7/2 8/8/2
f 6/9/3 9/10/3 10/11/3 7/12/3
f 11/13/4 1/14/4 4/15/4 12/16/4
f 12/17/5 8/18/5 7/19/5 10/20/5
f 13/21/6 14/22/6 15/23/6 16/24/6
f 13/25/7 17/26/7 18/27/7 14/28/7
f 19/29/8 20/30/8 21/31/8 22/32/8
f 23/33/1 24/34/1 25/12/9 26/35/9
f 14/36/10 18/37/10 27/38/10 15/39/10
f 26/40/11 25/41/11 15/42/11 27/43/11
f 22/44/12 21/45/12 28/46/12 16/47/12
f 29/48/13 26/40/13 27/43/13 30/49/13
f 21/45/14 31/50/14 32/51/14 28/46/14
f 33/52/2 23/53/2 26/40/2 29/48/2 31/50/2
f 17/54/4 34/55/4 32/56/4 30/57/4
f 20/58/3 33/59/3 31/4/3 21/60/3
f 34/61/1 35/62/1 28/37/1 32/63/1
f 24/34/1 23/33/1 36/64/1 37/65/1
f 23/53/2 33/52/2 38/66/2 36/67/2
f 33/59/3 20/58/3 39/68/3 38/69/3
f 19/29/15 24/70/15 37/71/15 40/72/15
f 36/73/16 42/74/16 41/75/16 38/76/16
f 33/77/17 44/78/17 43/79/17 23/80/17
f 23/81/18 36/82/18 42/83/18 43/84/18
f 38/85/19 41/86/19 44/87/19 33/88/19
f 37/65/1 36/64/1 45/89/1 46/90/1
f 46/90/1 45/89/1 2/2/1 1/1/1
f 36/67/2 38/66/2 47/91/2 48/92/2 45/93/2
f 5/94/3 48/86/3 49/95/3 50/96/3
f 38/69/3 39/68/3 51/97/3 47/98/3
f 47/98/3 51/97/3 9/10/3 6/9/3
f 40/72/20 37/71/20 46/99/20 52/100/20
f 52/100/4 46/99/4 1/14/4 11/13/4
f 2/101/2 5/5/2 8/8/2 3/102/2
f 9/103/4 11/13/4 12/16/4 10/104/4
f 4/15/5 3/105/5 8/18/5 12/17/5
f 35/106/21 13/21/21 16/24/21 28/107/21
f 35/105/22 34/3/22 17/26/22 13/25/22
f 24/70/23 19/29/23 22/32/23 25/108/23
f 25/41/24 22/44/24 16/47/24 15/42/24
f 31/50/14 29/48/13 30/49/13 32/51/14
f 18/109/4 17/54/4 30/57/4 27/106/4
f 20/30/25 19/29/25 40/72/26 39/110/26
f 45/93/2 48/92/2 5/5/2 2/101/2
f 39/110/26 40/72/26 52/100/27 51/111/27
f 51/111/4 52/100/4 11/13/4 9/103/4
f 49/112/2 53/41/2 54/113/2 50/114/2
f 6/115/13 5/109/13 50/116/13 54/117/13
f 48/118/5 47/119/5 53/120/5 49/12/5
f 47/121/1 6/122/1 54/123/1 53/82/1
f 44/124/28 41/125/28 42/126/28 43/127/28
