# Blender v2.75 (sub 0) OBJ File: ''
# www.blender.org
mtllib Cafe Store Building.mtl
o Cafe_store_Cube.010
v -1.722711 -0.348044 0.443229
v -1.722711 -0.348044 -0.501647
v -1.722711 -1.453037 -0.501647
v -1.722711 -1.453037 0.443228
v 0.096345 -0.348044 -0.501647
v 1.210181 -0.348044 -0.501647
v 1.210181 -1.453037 -0.501647
v 0.096345 -1.453037 -0.501647
v 1.210181 -0.348044 0.443229
v 1.210181 -1.453037 0.443228
v 0.096345 -0.348044 0.443229
v 0.096345 -1.453037 0.443228
v 0.096345 0.289020 0.443229
v 0.096345 0.289021 -0.501647
v -1.722711 0.289021 -0.501647
v -1.722711 0.289020 0.443229
v 0.146911 -1.448377 -0.406183
v 0.146911 -1.448377 -0.599289
v 0.146911 0.176467 -0.599290
v 0.146911 0.176467 -0.406183
v 0.245934 0.176467 -0.406183
v 0.245934 0.176467 -0.599290
v 0.270043 -1.439507 -0.599289
v 0.272367 -1.460703 -0.406183
v 1.182627 -1.444957 -0.599289
v 1.182627 -1.444957 -0.406183
v 1.182627 0.176467 -0.406183
v 1.182627 0.176467 -0.599290
v 1.061419 0.176467 -0.406183
v 1.061419 0.176467 -0.599290
v 1.210181 0.289020 0.443229
v 1.210181 0.289021 -0.501647
v 0.096345 -0.284018 -1.220024
v 0.096345 -0.175260 -1.224639
v 0.096345 0.289021 -0.580848
v 0.096345 -0.348044 -0.501647
v -1.768334 -0.348044 -0.501647
v -1.768334 -0.182771 -1.221278
v -1.768334 -0.284018 -1.220024
v -1.768334 0.289021 -0.580848
v 1.059494 -1.439507 -0.599289
v 1.057170 -1.460703 -0.406183
v 0.245934 0.086724 -0.406183
v 1.061419 0.086724 -0.406183
v 1.208893 2.030347 0.420234
v 1.208893 2.030348 1.783701
v 1.401132 2.230396 1.873449
v 1.401132 2.230396 0.330485
v -1.711601 2.030348 1.783701
v -1.903840 2.230396 1.873449
v -1.711601 2.030347 0.420234
v -1.903840 2.230396 0.330485
v 1.139058 2.185208 1.751097
v 1.139058 2.185208 0.452837
v -1.711601 -1.459669 0.420233
v -1.711601 -1.459670 1.783699
v 1.208893 -1.459670 1.783699
v 1.208893 -1.459669 0.420233
v -1.641767 2.185208 1.751097
v -1.641767 2.185208 0.452837
v 0.245934 0.086724 -0.599290
v 1.061419 0.086724 -0.599290
vt 0.269803 0.404679
vt 0.920857 0.348710
vt 0.269532 0.584176
vt 0.277554 0.582824
vt 0.803217 0.740909
vt 0.803217 0.549914
vt 0.923866 0.549946
vt 0.923866 0.740941
vt 0.382225 0.930153
vt 0.311004 0.930153
vt 0.311004 0.809004
vt 0.382225 0.809004
vt 0.803131 0.931939
vt 0.803131 0.740941
vt 0.923631 0.740941
vt 0.923631 0.931939
vt 0.593553 0.878781
vt 0.709868 0.878781
vt 0.709868 0.999932
vt 0.593553 0.999932
vt 0.928779 0.190995
vt 0.928779 0.000002
vt 1.000000 0.000002
vt 1.000000 0.190996
vt 0.741243 0.000010
vt 0.741243 0.190781
vt 0.624929 0.190797
vt 0.624929 0.000026
vt 0.923866 0.404428
vt 0.923866 0.582124
vt 0.962790 0.582123
vt 0.962789 0.404428
vt 0.923631 0.740952
vt 0.923631 0.918867
vt 0.962554 0.918857
vt 0.962554 0.740941
vt 0.647599 0.339234
vt 0.639848 0.339234
vt 0.639848 0.378267
vt 0.647599 0.378267
vt 0.631978 0.339282
vt 0.631823 0.378157
vt 0.639848 0.378222
vt 0.812464 0.000000
vt 0.812464 0.190771
vt 0.812464 0.190994
vt 0.522332 0.878781
vt 0.522332 0.999932
vt 0.498540 0.930153
vt 0.498540 0.809004
vt 0.881936 0.337143
vt 0.812464 0.337143
vt 0.819446 0.191928
vt 0.831306 0.190996
vt 0.881936 0.321132
vt 0.522332 0.808934
vt 0.593553 0.808934
vt 0.709868 0.808934
vt 0.733659 0.931939
vt 0.733659 0.740941
vt 0.382225 1.000000
vt 0.311004 1.000000
vt 0.733659 0.549895
vt 0.000000 0.000000
vt 0.278377 0.524252
vt 0.277554 0.404679
vt 0.289447 0.404679
vt 0.289447 0.524252
vt 0.741243 0.206772
vt 0.622011 0.206788
vt 0.733808 0.533870
vt 0.785321 0.404428
vt 0.796375 0.404684
vt 0.186755 0.716571
vt 0.303070 0.716571
vt 0.305975 0.861829
vt 0.186743 0.861829
vt 0.920859 0.370275
vt 0.881936 0.370285
vt 0.881937 0.193334
vt 0.920867 0.191008
vt 0.287365 0.524252
vt 0.287365 0.576545
vt 0.277554 0.576545
vt 0.277554 0.524252
vt 0.920859 0.212473
vt 0.920866 0.370187
vt 0.959790 0.367862
vt 0.959789 0.190996
vt 0.018031 0.382147
vt 0.000000 0.404679
vt 0.311004 0.404679
vt 0.292855 0.382147
vt 0.721371 0.426294
vt 0.733659 0.404428
vt 0.522332 0.404428
vt 0.534627 0.426294
vt 0.329094 0.381674
vt 0.311004 0.404428
vt 0.622011 0.404428
vt 0.603921 0.381674
vt 0.510039 0.426361
vt 0.323296 0.426361
vt 0.000000 0.716569
vt 0.016767 0.691804
vt 0.016767 0.429379
vt 0.000000 0.991882
vt 0.186743 0.991857
vt 0.186743 0.716571
vt 0.510039 0.809004
vt 0.323296 0.809004
vt 0.329094 0.000000
vt 0.603921 0.000000
vt 0.721371 0.808934
vt 0.534627 0.808934
vt 0.018133 0.000000
vt 0.292957 0.000000
vt 0.194580 0.691807
vt 0.194580 0.429381
vt 0.211328 0.404679
vt 0.211328 0.716571
vt 0.741386 0.339234
vt 0.622156 0.338612
vt 0.653930 0.339234
vt 0.653930 0.378267
vt 0.297321 0.582826
vt 0.297321 0.404679
vt 0.289447 0.405652
vt 0.289570 0.582826
vt 0.298862 0.404679
vt 0.297321 0.581853
vt 0.305194 0.582826
vt 0.305194 0.404679
vt 0.250250 0.636469
vt 0.211328 0.636469
vt 0.211328 0.584176
vt 0.250250 0.584176
vt 0.622011 0.391527
vt 0.622011 0.339234
vt 0.631823 0.339234
vt 0.631823 0.391527
vt 0.959790 0.200823
vt 0.920867 0.200835
vt 0.289447 0.621860
vt 0.289447 0.582826
vt 0.299234 0.582826
vt 0.299234 0.621860
vt 0.289127 0.584181
vt 0.289127 0.636474
vt 0.307258 0.582832
vt 0.307258 0.621866
vt 0.299387 0.582826
vt 0.211328 0.582824
vt 0.219350 0.584176
vt 0.219350 0.426258
vn -0.000000 -0.000000 1.000000
vn -1.000000 0.000000 0.000000
vn 0.000000 0.000000 -1.000000
vn 1.000000 0.000000 0.000000
vn 0.000000 -1.000000 -0.000000
vn 0.000000 1.000000 0.000000
vn 0.588300 -0.563600 -0.579800
vn 0.721600 -0.691300 -0.037800
vn -0.013900 -0.998400 -0.054700
vn -0.000800 -0.027900 -0.999600
vn -0.994000 -0.051000 0.096500
vn 0.000000 -0.996100 -0.088800
vn -1.000000 0.001900 -0.005900
vn -0.704700 0.001300 -0.709500
vn -0.571000 -0.555500 -0.604500
vn 0.000000 0.707100 0.707100
vn 0.705200 0.011000 0.708900
vn 0.710000 0.011000 0.704200
vn 0.999900 0.015500 -0.005200
vn 0.721000 -0.692900 0.000000
vn 0.000000 -0.409300 0.912400
vn -0.721000 -0.692900 0.000000
vn 0.000000 -0.409300 -0.912400
vn -0.169900 0.985500 0.000000
vn 0.000000 0.938100 -0.346500
vn 0.000000 0.938100 0.346500
vn 0.169900 0.985500 0.000000
vn -0.002200 0.808100 -0.589000
vn 0.041300 -0.997700 -0.054500
usemtl None.010
s off
f 27/1/1 29/2/1 42/3/1 26/4/1
s 1
f 1/5/2 2/6/2 3/7/2 4/8/2
f 5/9/3 6/10/3 7/11/3 8/12/3
f 6/13/4 9/14/4 10/15/4 7/16/4
f 11/17/1 1/18/1 4/19/1 12/20/1
f 12/21/5 8/22/5 7/23/5 10/24/5
f 13/25/6 14/26/6 15/27/6 16/28/6
f 17/29/2 20/30/2 19/31/2 18/32/2
f 25/33/7 28/34/4 27/35/4 26/36/8
f 29/37/6 27/38/6 28/39/6 30/40/6
f 18/38/9 23/41/9 24/42/9 17/43/9
f 31/44/6 32/45/6 14/26/6 13/25/6
f 4/46/5 3/44/5 8/22/5 12/21/5
f 9/47/1 11/17/1 12/20/1 10/48/1
f 2/49/3 5/9/3 8/12/3 3/50/3
f 14/51/4 5/52/4 33/53/4 34/54/4 35/55/4
f 31/56/1 13/57/1 11/17/1 9/47/1
f 13/57/1 16/58/1 1/18/1 11/17/1
f 32/59/4 31/60/4 9/14/4 6/13/4
f 14/61/3 32/62/3 6/10/3 5/9/3
f 16/60/2 15/63/2 2/6/2 1/5/2
f 2/64/1 5/64/1 36/64/1 37/64/1
f 38/65/10 34/66/10 33/67/10 39/68/10
f 15/27/6 14/26/6 35/69/6 40/70/6
f 2/6/11 15/63/11 40/71/11 38/72/11 39/73/11
f 5/74/12 2/75/12 39/76/12 33/77/12
f 29/78/13 30/79/14 41/80/15 42/81/13
f 29/82/16 21/83/16 43/84/1 44/85/1
f 21/86/17 24/87/18 23/88/19 22/89/19
f 45/90/20 48/91/20 47/92/20 46/93/20
f 46/94/21 47/95/21 50/96/21 49/97/21
f 49/98/22 50/99/22 52/100/22 51/101/22
f 51/102/23 52/96/23 48/99/23 45/103/23
f 48/104/24 54/105/24 53/106/24 47/91/24
f 55/107/5 58/108/5 57/109/5 56/104/5
f 55/110/3 51/102/3 45/103/3 58/111/3
f 56/112/2 49/98/2 51/101/2 55/113/2
f 57/114/1 46/94/1 49/97/1 56/115/1
f 58/116/4 45/90/4 46/93/4 57/117/4
f 54/105/6 60/118/6 59/119/6 53/106/6
f 47/91/25 53/106/25 59/119/25 50/120/25
f 52/121/26 60/118/26 54/105/26 48/104/26
f 50/120/27 59/119/27 60/118/27 52/121/27
f 40/70/28 35/69/28 34/122/28 38/123/28
f 20/124/6 21/37/6 22/40/6 19/125/6
f 28/126/3 25/127/7 41/128/15 30/129/14
f 22/130/3 23/131/3 18/132/3 19/133/3
f 43/134/5 61/135/5 62/136/5 44/137/5
f 22/138/3 30/139/3 62/140/3 61/141/3
f 21/81/2 22/89/2 61/142/2 43/143/2
f 30/144/4 29/145/4 44/146/4 62/147/4
f 30/148/6 22/149/6 21/134/16 29/137/16
f 25/150/7 26/151/8 42/147/29 41/152/15
f 17/153/1 24/154/18 21/155/17 20/120/1
