# Blender v2.75 (sub 0) OBJ File: '_001.blend'
# www.blender.org
mtllib Factory.mtl
o Factory_Cube.006
v -2.524302 -1.349601 3.460721
v -2.524240 -2.669923 3.460720
v -2.522552 -2.669924 5.348789
v -2.522614 -1.349602 5.348790
v -2.529926 -1.349599 -3.956825
v -2.529865 -2.669920 -3.956826
v -0.166784 -1.349490 -3.959496
v 2.610693 -1.349362 -3.960724
v 2.610754 -2.669683 -3.960724
v -0.166723 -2.669812 -3.959496
v 2.616320 -1.349364 3.456821
v 2.616379 -2.669686 3.456820
v -0.161098 -2.669814 3.458048
v -2.530098 2.366215 -3.956824
v -2.524473 2.366213 3.460721
v -2.797544 2.931690 3.855347
v -2.803768 2.931694 -4.351034
v 2.851763 2.573353 3.073862
v 2.596090 2.573342 3.074056
v 2.596333 -2.669084 3.074054
v 2.852005 -2.669073 3.073860
v 2.595879 2.573342 2.795006
v 2.596121 -2.669084 2.795004
v 2.851551 2.573353 2.794812
v 2.851793 -2.669073 2.794810
v 2.851072 2.573354 2.163963
v 2.595400 2.573342 2.164157
v 2.595642 -2.669084 2.164155
v 2.851315 -2.669073 2.163961
v 2.595188 2.573342 1.885107
v 2.595430 -2.669084 1.885105
v 2.850861 2.573354 1.884913
v 2.851103 -2.669073 1.884911
v 2.851551 2.573353 2.794812
v 2.595879 2.573342 2.795006
v 2.596090 2.573342 3.074056
v 2.851763 2.573353 3.073862
v 2.852005 -2.669073 3.073860
v 2.596333 -2.669084 3.074054
v 2.596121 -2.669084 2.795004
v 2.851793 -2.669073 2.794810
v 2.850422 2.573354 1.307047
v 2.594749 2.573343 1.307241
v 2.594992 -2.669084 1.307239
v 2.850664 -2.669073 1.307045
v 2.594540 2.573343 1.028192
v 2.594780 -2.669084 1.028190
v 2.850210 2.573354 1.027998
v 2.850452 -2.669073 1.027996
v 2.849710 2.573355 0.369613
v 2.594040 2.573343 0.369807
v 2.594282 -2.669084 0.369805
v 2.849953 -2.669073 0.369611
v 2.593828 2.573343 0.090758
v 2.594070 -2.669084 0.090756
v 2.849499 2.573355 0.090564
v 2.849741 -2.669072 0.090563
v 2.848331 2.573355 -1.450502
v 2.592659 2.573344 -1.450308
v 2.592901 -2.669083 -1.450310
v 2.848572 -2.669071 -1.450504
v 2.592447 2.573344 -1.729357
v 2.592690 -2.669083 -1.729359
v 2.848120 2.573355 -1.729551
v 2.848362 -2.669071 -1.729553
v 2.848766 2.573355 -0.875683
v 2.593094 2.573344 -0.875489
v 2.593307 2.573343 -0.596439
v 2.848978 2.573355 -0.596633
v 2.849220 -2.669072 -0.596635
v 2.593548 -2.669084 -0.596440
v 2.593336 -2.669083 -0.875490
v 2.849009 -2.669071 -0.875684
v 2.847639 2.573355 -2.363447
v 2.591967 2.573344 -2.363253
v 2.592209 -2.669083 -2.363255
v 2.847881 -2.669071 -2.363449
v 2.591755 2.573344 -2.642302
v 2.591997 -2.669083 -2.642303
v 2.847427 2.573355 -2.642497
v 2.847668 -2.669071 -2.642498
v 2.846928 2.573355 -3.300880
v 2.591255 2.573344 -3.300687
v 2.591497 -2.669083 -3.300689
v 2.847170 -2.669071 -3.300882
v 2.591043 2.573344 -3.579737
v 2.591286 -2.669083 -3.579739
v 2.846716 2.573355 -3.579931
v 2.846958 -2.669071 -3.579933
v -2.497639 2.573107 2.168020
v -2.753311 2.573095 2.168213
v -2.753069 -2.669331 2.168211
v -2.497398 -2.669320 2.168018
v -2.753523 2.573095 1.889164
v -2.753281 -2.669331 1.889162
v -2.497852 2.573107 1.888970
v -2.497610 -2.669320 1.888968
v -2.497162 2.573106 2.798870
v -2.752832 2.573095 2.799063
v -2.752621 2.573095 3.078113
v -2.496950 2.573106 3.077919
v -2.496708 -2.669320 3.077917
v -2.752380 -2.669331 3.078111
v -2.752590 -2.669331 2.799060
v -2.496920 -2.669320 2.798868
v -2.498289 2.573107 1.311104
v -2.753962 2.573096 1.311298
v -2.753719 -2.669331 1.311296
v -2.498047 -2.669320 1.311103
v -2.754173 2.573096 1.032249
v -2.753931 -2.669331 1.032246
v -2.498501 2.573107 1.032054
v -2.498259 -2.669320 1.032052
v -2.499001 2.573108 0.373670
v -2.754673 2.573096 0.373864
v -2.754431 -2.669331 0.373862
v -2.498758 -2.669320 0.373668
v -2.754885 2.573096 0.094815
v -2.754642 -2.669331 0.094812
v -2.499212 2.573108 0.094621
v -2.498970 -2.669319 0.094619
v -2.500381 2.573108 -1.446445
v -2.756054 2.573097 -1.446251
v -2.755812 -2.669330 -1.446253
v -2.500139 -2.669318 -1.446447
v -2.756264 2.573097 -1.725300
v -2.756023 -2.669330 -1.725303
v -2.500593 2.573108 -1.725494
v -2.500351 -2.669318 -1.725497
v -2.499945 2.573108 -0.871626
v -2.755617 2.573097 -0.871432
v -2.755405 2.573096 -0.592382
v -2.499733 2.573108 -0.592576
v -2.499491 -2.669319 -0.592578
v -2.755163 -2.669331 -0.592384
v -2.755375 -2.669330 -0.871433
v -2.499702 -2.669318 -0.871628
v -2.501074 2.573108 -2.359390
v -2.756744 2.573097 -2.359196
v -2.756504 -2.669330 -2.359198
v -2.500832 -2.669318 -2.359392
v -2.756958 2.573097 -2.638246
v -2.756716 -2.669330 -2.638247
v -2.501286 2.573108 -2.638440
v -2.501043 -2.669318 -2.638442
v -2.501785 2.573108 -3.296824
v -2.757456 2.573097 -3.296630
v -2.757214 -2.669330 -3.296633
v -2.501543 -2.669318 -3.296825
v -2.757668 2.573097 -3.575680
v -2.757425 -2.669330 -3.575682
v -2.501995 2.573108 -3.575873
v -2.501755 -2.669318 -3.575876
v -0.083021 2.931820 -4.353977
v -2.663960 2.931700 -4.149625
v -0.125917 2.931817 -4.152429
v -0.166956 2.366324 -3.959495
v -0.161331 2.366322 3.458051
v 2.616148 2.366451 3.456822
v 2.889765 2.931953 3.851033
v -0.076797 2.931816 3.852404
v 2.610521 2.366453 -3.960722
v 2.883541 2.931956 -4.355348
v -2.663948 2.697975 -4.149625
v -0.125908 2.698092 -4.152429
v 2.749956 2.931946 3.649624
v -0.119999 2.931814 3.650921
v 2.744038 2.931949 -4.153727
v -2.658041 2.931697 3.653726
v -2.658030 2.697972 3.653726
v -0.119989 2.698089 3.650921
v 2.749966 2.698222 3.649623
v 2.744049 2.698225 -4.153727
v -0.161160 -1.349493 3.458049
v -0.161934 -1.349492 2.436542
v -2.525076 -1.349601 2.439214
v -0.159472 -1.349493 5.346117
v -0.159410 -2.669815 5.346116
v -2.525255 2.536564 2.439215
v -0.162113 2.536674 2.436543
v -2.599096 -1.575519 0.391568
v 1.227976 -1.575343 0.391568
v 1.227779 2.687419 0.391569
v -2.599293 2.687243 0.391569
vt 0.213545 0.070932
vt 0.213545 0.000000
vt 0.265157 0.000000
vt 0.265157 0.070931
vt 0.010782 0.070932
vt 0.010782 0.000000
vt 0.386021 0.230275
vt 0.513348 0.230276
vt 0.513348 0.301190
vt 0.386021 0.301189
vt 0.275938 0.531430
vt 0.478702 0.531430
vt 0.478702 0.602362
vt 0.275938 0.602362
vt 0.616811 0.356475
vt 0.725144 0.356449
vt 0.725144 0.573542
vt 0.616811 0.573568
vt 0.010782 0.270556
vt 0.213545 0.270556
vt 0.224327 0.301172
vt 0.000000 0.301172
vt 0.773671 0.563134
vt 0.761951 0.563134
vt 0.761951 0.281567
vt 0.773671 0.281567
vt 0.900836 0.573568
vt 0.908464 0.573568
vt 0.908464 0.855206
vt 0.900836 0.855206
vt 0.881484 0.855135
vt 0.869763 0.855135
vt 0.869763 0.573568
vt 0.881484 0.573568
vt 0.921391 0.265463
vt 0.929019 0.265463
vt 0.929019 0.547101
vt 0.921391 0.547101
vt 0.663182 0.291724
vt 0.663182 0.279174
vt 0.670810 0.279174
vt 0.670810 0.291724
vt 0.564019 0.291724
vt 0.564019 0.279174
vt 0.571647 0.279174
vt 0.571647 0.291724
vt 0.808834 0.563134
vt 0.797113 0.563134
vt 0.797113 0.281567
vt 0.808834 0.281567
vt 0.938976 0.573568
vt 0.946604 0.573568
vt 0.946604 0.855206
vt 0.938976 0.855206
vt 0.471975 0.883928
vt 0.460254 0.883928
vt 0.460254 0.602362
vt 0.471975 0.602362
vt 0.961860 0.573568
vt 0.969488 0.573568
vt 0.969488 0.855206
vt 0.961860 0.855206
vt 0.725144 0.535066
vt 0.725144 0.522516
vt 0.732771 0.522516
vt 0.732771 0.535066
vt 0.609787 0.291724
vt 0.609787 0.279174
vt 0.617415 0.279174
vt 0.617415 0.291724
vt 0.548763 0.291724
vt 0.548763 0.279174
vt 0.556391 0.279174
vt 0.556391 0.291724
vt 0.655555 0.291724
vt 0.655555 0.279174
vt 0.333852 0.718362
vt 0.341480 0.718362
vt 0.341480 1.000000
vt 0.333852 1.000000
vt 0.879158 0.563134
vt 0.867437 0.563134
vt 0.867437 0.281567
vt 0.879158 0.281567
vt 0.898507 0.265463
vt 0.906135 0.265463
vt 0.906135 0.547101
vt 0.898507 0.547101
vt 0.785392 0.281567
vt 0.785392 0.000000
vt 0.797113 0.000000
vt 0.785392 0.563134
vt 0.944275 0.265463
vt 0.951903 0.265463
vt 0.951903 0.547101
vt 0.944275 0.547101
vt 0.855717 0.563134
vt 0.843996 0.563134
vt 0.843996 0.281567
vt 0.855717 0.281567
vt 0.913763 0.265463
vt 0.913763 0.547101
vt 0.693692 0.279174
vt 0.693692 0.291724
vt 0.686064 0.291724
vt 0.686064 0.279174
vt 0.602159 0.291724
vt 0.602159 0.279174
vt 0.761951 0.000000
vt 0.773671 0.000000
vt 0.936647 0.265463
vt 0.936647 0.547101
vt 0.448533 0.883928
vt 0.448533 0.602362
vt 0.893208 0.573568
vt 0.893208 0.855206
vt 0.732771 0.547616
vt 0.725144 0.547616
vt 0.625043 0.279174
vt 0.625043 0.291724
vt 0.954232 0.573568
vt 0.954232 0.855206
vt 0.846322 0.855135
vt 0.834601 0.855135
vt 0.834601 0.573568
vt 0.846322 0.573568
vt 0.992372 0.855206
vt 0.984744 0.855206
vt 0.984744 0.573568
vt 0.992372 0.573568
vt 0.701319 0.279174
vt 0.701319 0.291724
vt 0.594531 0.291724
vt 0.594531 0.279174
vt 0.541135 0.291724
vt 0.541135 0.279174
vt 0.678437 0.279174
vt 0.678437 0.291724
vt 0.977116 0.855206
vt 0.977116 0.573568
vt 0.489483 0.883928
vt 0.477763 0.883928
vt 0.477763 0.602362
vt 0.489483 0.602362
vt 0.982415 0.547101
vt 0.974787 0.547101
vt 0.974787 0.265463
vt 0.982415 0.265463
vt 0.820554 0.281567
vt 0.808834 0.000000
vt 0.820554 0.000000
vt 0.822880 0.855135
vt 0.811160 0.855135
vt 0.811160 0.573568
vt 0.822880 0.573568
vt 0.959531 0.265463
vt 0.959531 0.547101
vt 0.832275 0.281567
vt 0.832275 0.000000
vt 0.356736 0.718362
vt 0.364364 0.718362
vt 0.364364 1.000000
vt 0.356736 1.000000
vt 0.724201 0.279174
vt 0.724201 0.291724
vt 0.716574 0.291724
vt 0.716574 0.279174
vt 0.632671 0.279174
vt 0.632671 0.291724
vt 0.832275 0.563134
vt 0.867437 0.000000
vt 0.879158 0.000000
vt 0.732771 0.560166
vt 0.725144 0.560166
vt 0.640299 0.291724
vt 0.640299 0.279174
vt 0.647927 0.279174
vt 0.647927 0.291724
vt 0.820554 0.563134
vt 1.000000 0.855206
vt 1.000000 0.573568
vt 0.855717 0.000000
vt 0.349108 0.718362
vt 0.349108 1.000000
vt 0.579275 0.291724
vt 0.579275 0.279174
vt 0.586903 0.279174
vt 0.586903 0.291724
vt 0.525879 0.291724
vt 0.525879 0.279174
vt 0.533507 0.279174
vt 0.533507 0.291724
vt 0.731829 0.291724
vt 0.731829 0.279174
vt 0.739456 0.279174
vt 0.739456 0.291724
vt 0.326224 0.718362
vt 0.326224 1.000000
vt 0.408642 0.954860
vt 0.396922 0.954860
vt 0.396922 0.673293
vt 0.408642 0.673293
vt 0.990043 0.547101
vt 0.990043 0.265463
vt 0.997671 0.547101
vt 0.997671 0.265463
vt 0.858043 0.855135
vt 0.858043 0.573568
vt 0.890879 0.265463
vt 0.890879 0.547101
vt 0.708947 0.291724
vt 0.708947 0.279174
vt 0.843996 0.000000
vt 0.923720 0.573568
vt 0.931348 0.573568
vt 0.931348 0.855206
vt 0.923720 0.855206
vt 0.916092 0.573568
vt 0.916092 0.855206
vt 0.732772 0.509966
vt 0.740399 0.509966
vt 0.740399 0.522516
vt 0.890879 0.281567
vt 0.890879 0.000000
vt 0.725144 0.509966
vt 0.754323 0.281567
vt 0.761951 0.563205
vt 0.754323 0.563205
vt 0.750230 0.000000
vt 0.750230 0.281567
vt 0.725144 0.572717
vt 0.732771 0.572717
vt 0.420363 0.673293
vt 0.420363 0.954860
vt 0.967159 0.547101
vt 0.967159 0.265463
vt 0.890879 0.563134
vt 0.525879 0.133554
vt 0.525903 0.000000
vt 0.531412 0.006855
vt 0.531388 0.131441
vt 0.386021 0.030702
vt 0.277688 0.030702
vt 0.389884 0.000000
vt 0.120864 0.571659
vt 0.248191 0.571660
vt 0.260722 0.602362
vt 0.124727 0.602361
vt 0.478702 0.331806
vt 0.275938 0.331806
vt 0.265157 0.301190
vt 0.489483 0.301190
vt 0.902602 0.140878
vt 0.902603 0.265463
vt 0.890879 0.140878
vt 0.750206 0.133554
vt 0.750230 0.279174
vt 0.744721 0.272318
vt 0.744697 0.131441
vt 0.531412 0.272318
vt 0.744721 0.006855
vt 0.489483 0.698153
vt 0.489507 0.573568
vt 0.702817 0.573568
vt 0.702793 0.698153
vt 0.881484 0.714446
vt 0.893208 0.714446
vt 0.314498 0.946767
vt 0.314498 0.718362
vt 0.326224 0.946767
vt 0.302771 0.946767
vt 0.302771 0.718362
vt 0.120864 0.372085
vt 0.248191 0.372086
vt 0.277688 0.230276
vt 0.702817 0.628832
vt 0.811150 0.628853
vt 0.811152 0.658752
vt 0.702818 0.658732
vt 0.513348 0.030702
vt 0.881485 0.839031
vt 0.893208 0.839031
vt 0.489507 0.839031
vt 0.702817 0.839031
vt 0.902603 0.000000
vt 0.012531 0.571660
vt 0.000000 0.602362
vt 0.489483 0.356449
vt 0.489483 0.573542
vt 0.277688 0.301190
vt 0.120864 0.301172
vt 0.248191 0.301173
vt 0.302771 0.602362
vt 0.368998 0.602362
vt 0.368998 0.718362
vt 0.616799 0.301215
vt 0.725132 0.301190
vt 0.448533 0.673293
vt 0.396922 0.602362
vt 0.302771 0.819481
vt 0.175444 0.819455
vt 0.175444 0.602362
vt 0.420363 0.789293
vt 0.448398 0.673300
vt 0.448398 0.789300
vt 0.753068 0.310341
vt 0.753068 0.509966
vt 0.368998 0.811137
vt 0.368998 0.611513
vt 0.396922 0.811137
vt 0.811160 0.845966
vt 0.702826 0.845945
vt 0.175444 0.831314
vt 0.000000 0.831311
vn -1.000000 -0.000000 0.000800
vn -1.000000 -0.000000 0.000900
vn -0.000800 0.000000 -1.000000
vn -0.000400 0.000000 -1.000000
vn 1.000000 0.000000 -0.000800
vn 0.000000 -1.000000 -0.000000
vn -0.900300 -0.435200 0.000700
vn 0.000800 -0.000000 1.000000
vn -0.000000 1.000000 0.000000
vn -0.000600 -0.572100 -0.820200
vn -0.000900 -0.572100 -0.820200
vn 0.000700 -0.572000 0.820200
vn 0.000400 -0.572000 0.820200
vn 0.000600 -0.572000 0.820200
vn 0.900400 -0.435200 -0.000700
vn 0.001100 0.000000 1.000000
vn -0.000500 0.000000 -1.000000
vn 0.000400 -0.000000 1.000000
vn -0.001100 0.000000 -1.000000
vn 0.000500 0.000000 1.000000
vn 0.000900 -0.572000 0.820200
vn -0.000300 -0.572100 -0.820200
vn 1.000000 0.000000 -0.000900
vn -0.000100 -0.986400 -0.164500
vn -0.000000 -0.000000 1.000000
usemtl None.007
s 1
f 1/1/1 2/2/1 3/3/2 4/4/2
f 1/1/1 5/5/1 6/6/1 2/2/1
f 7/7/3 8/8/4 9/9/4 10/10/3
f 8/11/5 11/12/5 12/13/5 9/14/5
f 13/15/6 2/16/6 6/17/6 10/18/6
f 14/19/7 15/20/7 16/21/7 17/22/7
f 18/23/8 19/24/8 20/25/8 21/26/8
f 19/27/1 22/28/1 23/29/1 20/30/1
f 22/31/3 24/32/3 25/33/3 23/34/3
f 24/35/5 18/36/5 21/37/5 25/38/5
f 21/39/6 20/40/6 23/41/6 25/42/6
f 24/43/9 22/44/9 19/45/9 18/46/9
f 26/47/8 27/48/8 28/49/8 29/50/8
f 27/51/1 30/52/1 31/53/1 28/54/1
f 30/55/3 32/56/3 33/57/3 31/58/3
f 32/59/5 26/60/5 29/61/5 33/62/5
f 29/63/6 28/64/6 31/65/6 33/66/6
f 32/67/9 30/68/9 27/69/9 26/70/9
f 34/71/9 35/72/9 36/73/9 37/74/9
f 38/75/6 39/76/6 40/40/6 41/39/6
f 34/77/5 37/78/5 38/79/5 41/80/5
f 35/81/3 34/82/3 41/83/3 40/84/3
f 36/85/1 35/86/1 40/87/1 39/88/1
f 37/49/8 36/89/8 39/90/8 38/91/8
f 42/92/8 43/23/8 44/26/8 45/89/8
f 43/93/1 46/94/1 47/95/1 44/96/1
f 46/97/3 48/98/3 49/99/3 47/100/3
f 48/101/5 42/35/5 45/38/5 49/102/5
f 45/103/6 44/104/6 47/105/6 49/106/6
f 48/107/9 46/108/9 43/68/9 42/67/9
f 50/109/8 51/110/8 52/26/8 53/25/8
f 51/111/1 54/93/1 55/96/1 52/112/1
f 54/56/3 56/113/3 57/114/3 55/57/3
f 56/115/5 50/27/5 53/30/5 57/116/5
f 53/66/6 52/117/6 55/118/6 57/63/6
f 56/70/9 54/69/9 51/119/9 50/120/9
f 58/89/8 59/26/8 60/110/8 61/90/8
f 59/52/1 62/121/1 63/122/1 60/53/1
f 62/123/3 64/124/3 65/125/3 63/126/3
f 64/127/5 58/128/5 61/129/5 65/130/5
f 61/104/6 60/103/6 63/131/6 65/132/6
f 64/133/9 62/134/9 59/108/9 58/107/9
f 66/135/9 67/136/9 68/72/9 69/71/9
f 70/42/6 71/41/6 72/137/6 73/138/6
f 66/128/5 69/139/5 70/140/5 73/129/5
f 67/141/3 66/142/3 73/143/3 72/144/3
f 68/145/1 67/146/1 72/147/1 71/148/1
f 69/149/8 68/50/8 71/150/8 70/151/8
f 74/152/8 75/153/8 76/154/8 77/155/8
f 75/94/1 78/156/1 79/157/1 76/95/1
f 78/158/3 80/149/3 81/151/3 79/159/3
f 80/160/5 74/161/5 77/162/5 81/163/5
f 77/164/6 76/165/6 79/166/6 81/167/6
f 80/120/9 78/119/9 75/168/9 74/169/9
f 82/98/8 83/170/8 84/158/8 85/99/8
f 83/86/1 86/101/1 87/102/1 84/87/1
f 86/84/3 88/83/3 89/171/3 87/172/3
f 88/36/5 82/111/5 85/112/5 89/37/5
f 85/117/6 84/173/6 87/174/6 89/118/6
f 88/175/9 86/176/9 83/177/9 82/178/9
f 90/170/8 91/179/8 92/149/8 93/158/8
f 91/180/1 94/127/1 95/130/1 92/181/1
f 94/83/3 96/100/3 97/182/3 95/171/3
f 96/183/5 90/160/5 93/163/5 97/184/5
f 93/138/6 92/137/6 95/106/6 97/105/6
f 96/185/9 94/186/9 91/187/9 90/188/9
f 98/189/9 99/190/9 100/191/9 101/192/9
f 102/193/6 103/194/6 104/195/6 105/196/6
f 98/197/5 101/77/5 102/80/5 105/198/5
f 99/199/3 98/200/3 105/201/3 104/202/3
f 100/203/1 99/145/1 104/148/1 103/204/1
f 101/179/8 100/47/8 103/50/8 102/149/8
f 106/124/8 107/152/8 108/155/8 109/125/8
f 107/205/1 110/203/1 111/204/1 108/206/1
f 110/207/3 112/123/3 113/126/3 111/208/3
f 112/209/5 106/85/5 109/88/5 113/210/5
f 109/167/6 108/166/6 111/211/6 113/212/6
f 112/178/9 110/177/9 107/76/9 106/75/9
f 114/99/8 115/158/8 116/159/8 117/213/8
f 115/214/1 118/215/1 119/216/1 116/217/1
f 118/82/3 120/97/3 121/100/3 119/83/3
f 120/28/5 114/218/5 117/219/5 121/29/5
f 117/65/6 116/220/6 119/221/6 121/222/6
f 120/169/9 118/168/9 115/176/9 114/175/9
f 122/50/8 123/49/8 124/91/8 125/150/8
f 123/218/1 126/214/1 127/217/1 124/219/1
f 126/223/3 128/84/3 129/172/3 127/224/3
f 128/215/5 122/51/5 125/54/5 129/216/5
f 125/220/6 124/65/6 127/64/6 129/225/6
f 128/46/9 126/45/9 123/186/9 122/185/9
f 130/74/9 131/73/9 132/44/9 133/43/9
f 134/132/6 135/131/6 136/212/6 137/211/6
f 130/226/5 133/25/5 134/227/5 137/228/5
f 131/32/3 130/207/3 137/208/3 136/33/3
f 132/139/1 131/61/1 136/60/1 135/140/1
f 133/229/8 132/109/8 135/25/8 134/230/8
f 138/48/8 139/92/8 140/89/8 141/49/8
f 139/121/1 142/59/1 143/62/1 140/122/1
f 142/213/3 144/182/3 145/100/3 143/99/3
f 144/78/5 138/183/5 141/184/5 145/79/5
f 141/231/6 140/174/6 143/173/6 145/232/6
f 144/192/9 142/191/9 139/136/9 138/135/9
f 146/202/8 147/233/8 148/234/8 149/199/8
f 147/146/1 150/235/1 151/236/1 148/147/1
f 150/237/3 152/81/3 153/84/3 151/223/3
f 152/156/5 146/236/5 149/235/5 153/157/5
f 149/165/6 148/164/6 151/194/6 153/193/6
f 152/188/9 150/187/9 147/134/9 146/133/9
f 154/238/9 17/239/9 155/240/9 156/241/9
f 157/242/10 14/243/11 17/3/11 154/244/10
f 158/245/12 159/246/13 160/247/13 161/248/14
f 159/249/15 162/250/15 163/251/15 160/252/15
f 156/253/8 155/254/16 164/209/16 165/255/8
f 161/256/9 160/257/9 166/258/9 167/259/9
f 160/257/9 163/190/9 168/260/9 166/258/9
f 17/239/9 16/229/9 169/261/9 155/240/9
f 165/262/9 164/263/9 170/264/9 171/265/9
f 167/266/3 166/34/17 172/115/17 171/267/3
f 166/268/1 168/269/1 173/197/1 172/270/1
f 155/271/5 169/272/5 170/269/5 164/268/5
f 159/246/18 158/245/18 174/273/18 11/274/18
f 14/243/19 157/242/3 7/7/3 5/275/19
f 1/276/9 174/277/9 175/278/9 176/279/9
f 15/20/1 14/19/1 5/5/1 1/1/1
f 157/242/3 162/280/4 8/8/4 7/7/3
f 162/250/5 159/249/5 11/12/5 8/11/5
f 169/281/19 167/266/3 171/267/3 170/282/19
f 173/283/9 165/262/9 171/265/9 172/284/9
f 16/229/9 161/256/9 167/259/9 169/261/9
f 168/285/20 156/253/8 165/255/8 173/224/20
f 15/286/21 158/245/12 161/248/14 16/287/21
f 162/280/22 157/242/10 154/244/10 163/239/22
f 163/190/9 154/238/9 156/241/9 168/260/9
f 12/288/6 13/15/6 10/18/6 9/289/6
f 5/275/19 7/7/3 10/10/3 6/290/19
f 11/274/18 174/273/18 13/291/18 12/292/18
f 177/272/16 4/293/16 3/294/16 178/295/16
f 2/16/6 13/15/6 178/296/6 3/297/6
f 13/114/23 174/298/23 177/201/23 178/299/23
f 174/277/9 1/276/9 4/264/9 177/154/9
f 11/300/6 174/301/6 7/302/6 8/293/6
f 158/303/24 15/233/24 179/304/24 180/305/24
f 15/306/1 179/297/1 176/225/1 1/307/1
f 174/308/1 158/309/1 180/299/1 175/310/1
f 176/279/9 175/278/9 7/311/9 5/312/9
f 181/287/25 182/302/25 183/313/25 184/314/25
