# Blender v2.75 (sub 0) OBJ File: '_001.blend'
# www.blender.org
mtllib Hospital small Sing.mtl
o Hospital_Ambulance_Cube.024
v -1.779911 0.604914 -0.023498
v 1.779907 0.604914 -0.023498
v 1.779907 -0.604913 -0.023499
v -1.779911 -0.604913 -0.023499
v 1.779907 0.604914 0.023495
v 1.779907 -0.604913 0.023495
v -1.779911 0.604914 0.023495
v -1.779911 -0.604913 0.023495
vt 0.715038 0.370532
vt 0.715038 0.000000
vt 1.000000 0.000000
vt 1.000000 0.370532
vt 0.284962 1.000000
vt 0.284962 0.500000
vt 0.569924 0.500000
vt 0.569924 1.000000
vt 0.569924 0.870532
vt 0.854886 0.500000
vt 0.854886 0.870532
vt 0.000000 1.000000
vt 0.000000 0.500000
vt 0.357519 0.000000
vt 0.715038 0.500000
vt 0.357519 0.500000
vt 0.000000 0.000000
vn 0.000000 0.000000 -1.000000
vn 1.000000 0.000000 0.000000
vn 0.000000 -0.000000 1.000000
vn -1.000000 0.000000 0.000000
vn 0.000000 -1.000000 0.000000
vn 0.000000 1.000000 0.000000
usemtl None.002
s 1
f 1/1/1 2/2/1 3/3/1 4/4/1
f 2/5/2 5/6/2 6/7/2 3/8/2
f 5/9/3 7/7/3 8/10/3 6/11/3
f 7/6/4 1/5/4 4/12/4 8/13/4
f 4/14/5 3/2/5 6/15/5 8/16/5
f 7/17/6 5/14/6 2/16/6 1/13/6
