# Blender v2.76 (sub 0) OBJ File: ''
# www.blender.org
mtllib Not-So-Simple Building 1.mtl
o Cylinder004
v 31.053421 9.600000 9.037371
v 31.053421 -16.975561 9.037370
v 24.000000 -16.975561 11.329169
v 24.000000 9.599989 11.329170
v 35.412670 9.600000 -0.652870
v 35.412670 -16.975561 -0.652871
v 31.053421 9.600000 -10.379040
v 31.053421 -16.975561 -10.379041
v 24.000000 9.600001 -12.670830
v 24.000000 -16.975561 -12.670831
v 31.053421 -28.800001 -10.379041
v 24.000000 -28.800001 -12.670831
v 24.000000 -28.800001 -0.670831
v 35.412670 -28.800001 -0.652871
v 35.412670 28.799992 -0.652869
v 31.053421 28.799992 9.037372
v 24.000000 28.799992 11.329171
v 24.000000 28.799992 -0.670829
v -31.053421 9.600010 -10.379030
v -31.053421 -16.975550 -10.379031
v -24.000000 -16.975550 -12.670831
v -24.000000 9.600011 -12.670830
v -35.412670 9.600010 -0.688760
v -35.412670 -16.975550 -0.688761
v -31.053421 9.600010 9.037391
v -31.053421 -16.975550 9.037390
v -24.000000 9.600009 11.329181
v -24.000000 -16.975550 11.329180
v -24.000000 -28.799992 -12.670831
v -31.053421 -28.799992 -10.379031
v -35.412670 -28.799992 -0.688761
v -24.000000 -28.799992 -0.670831
v -24.000000 28.800009 11.329182
v -31.053421 28.800009 9.037392
v -35.412670 28.800009 -0.688759
v -24.000000 28.800009 -0.670829
v -8.000000 -28.799992 11.289939
v -24.000000 -28.799992 11.329180
v -24.000000 -28.799994 25.803118
v -8.000000 -28.799994 25.803118
v 8.000000 -28.799994 25.803129
v 8.000000 -28.799992 11.289939
v 24.000000 -28.799994 25.803129
v 24.000000 -28.800001 11.329169
v -8.000000 -28.799992 -0.690441
v 8.000000 -28.799992 -12.670831
v -8.000000 -28.799992 -12.670831
v 8.000000 -28.799992 -0.690441
v -8.000000 -28.799990 -25.803133
v -24.000000 -28.799990 -25.803133
v 8.000000 -28.799990 -25.803112
v 24.000000 -28.799990 -25.803112
v -8.000000 28.800009 11.362631
v -8.000000 28.800007 25.803122
v -24.000000 28.800007 25.803122
v 8.000000 28.800009 11.362631
v 8.000000 28.800007 25.803133
v 24.000000 28.800007 25.803133
v -8.000000 28.800009 -0.654099
v 8.000000 28.800009 -0.654099
v -24.000000 28.800011 -25.803129
v -8.000000 28.800011 -25.803129
v -8.000000 28.800009 -12.670829
v -24.000000 28.800009 -12.670829
v 8.000000 28.800011 -25.803108
v 8.000000 28.800009 -12.670829
v 24.000000 28.800011 -25.803108
v 24.000000 28.799992 -12.670829
v -24.000000 -16.975552 25.803120
v -8.000000 -16.975552 25.803120
v -8.000000 -16.975552 24.603121
v 8.000000 -16.975552 24.603130
v 8.000000 -28.799994 24.603128
v -8.000000 -28.799994 24.603119
v 8.000000 -16.975552 25.803131
v 24.000000 -16.975552 25.803131
v -24.000000 9.600009 25.803120
v -8.000000 9.600009 25.803120
v 8.000000 9.600009 25.803131
v 24.000000 9.600009 25.803131
v 24.000000 9.600011 -25.803110
v 24.000000 -16.975548 -25.803110
v 8.000000 -16.975548 -25.803110
v -8.000000 -16.975548 -25.803131
v -24.000000 -16.975548 -25.803131
v 8.000000 9.600011 -25.803110
v -8.000000 9.600011 -25.803131
v -24.000000 9.600011 -25.803131
v 31.053421 -28.800001 9.037370
v 31.053421 28.799992 -10.379039
v -31.053421 28.800009 -10.379029
v -31.053421 -28.799992 9.037390
vt 0.333300 0.000000
vt 0.666700 0.000000
vt 0.666700 0.333300
vt 0.333300 0.333300
vt 0.350000 0.666700
vt 0.250000 0.666700
vt 0.250000 0.333300
vt 0.350000 0.333300
vt 0.550000 0.666700
vt 0.450000 0.333300
vt 0.650000 0.333300
vt 0.650000 0.666700
vt 0.750000 0.333300
vt 0.750000 0.666700
vt 0.793900 0.904500
vt 0.975500 0.345500
vt 0.500000 0.500000
vt 0.500000 1.000000
vt 0.975500 0.654500
vt 0.500000 0.000000
vt 0.793900 0.095500
vt 1.000000 0.000000
vt 1.000000 0.333300
vt -0.000000 0.000000
vt -0.000000 0.333300
vt 1.000000 0.500000
vt 0.666700 0.500000
vt 0.333300 0.666700
vt 0.333300 0.500000
vt 0.666700 0.666700
vt -0.000000 0.666700
vt 0.000000 0.500000
vt 1.000000 0.666700
vt 1.000000 1.000000
vt 0.666700 1.000000
vt 0.333300 1.000000
vt -0.000000 1.000000
vt 0.000000 0.444400
vt 1.000000 0.555600
vt 0.000000 0.555600
vt 1.000000 0.444400
vt 0.350000 1.000000
vt 0.250000 1.000000
vt 0.250000 0.000000
vt 0.350000 0.000000
vt 0.550000 1.000000
vt 0.450000 0.000000
vt 0.650000 0.000000
vt 0.650000 1.000000
vt 0.750000 0.000000
vt 0.750000 1.000000
vn 0.000000 1.000000 0.000000
vn -1.000000 0.000000 0.000000
vn 0.000000 -1.000000 0.000000
vn 1.000000 0.000000 0.000000
vn 0.667700 -0.000000 0.744400
vn 0.309000 -0.000000 0.951100
vn 1.000000 -0.000000 0.000700
vn 0.668200 0.000000 -0.744000
vn 0.309000 0.000000 -0.951100
vn -0.667700 0.000000 -0.744400
vn -0.309000 0.000000 -0.951100
vn -1.000000 0.000000 -0.000700
vn -0.668200 -0.000000 0.744000
vn -0.309000 -0.000000 0.951100
vn 0.000000 -0.000000 1.000000
vn 0.000000 0.000000 -1.000000
usemtl wire_028028177
s off
f 74/1/1 40/2/1 41/1/1 73/2/1
f 73/2/2 41/2/2 75/3/2 72/3/2
f 72/3/3 75/3/3 70/4/3 71/4/3
f 71/4/4 70/4/4 40/1/4 74/1/4
s 1
f 1/5/5 4/6/6 3/7/6 2/8/5
f 5/9/7 1/5/5 2/8/5 6/10/7
f 6/10/7 8/11/8 7/12/8 5/9/7
f 8/11/8 10/13/9 9/14/9 7/12/8
f 11/15/3 14/16/3 13/17/3 12/18/3
f 15/19/1 18/17/1 17/20/1 16/21/1
f 19/5/10 22/6/11 21/7/11 20/8/10
f 23/9/12 19/5/10 20/8/10 24/10/12
f 24/10/12 26/11/13 25/12/13 23/9/12
f 26/11/13 28/13/14 27/14/14 25/12/13
f 29/20/3 32/17/3 31/16/3 30/21/3
f 33/18/1 36/17/1 35/19/1 34/15/1
f 37/3/3 40/2/3 39/22/3 38/23/3
f 41/1/3 40/2/3 37/3/3 42/4/3
f 43/24/3 41/1/3 42/4/3 44/25/3
f 32/26/3 45/27/3 37/3/3 38/23/3
f 46/28/3 48/29/3 45/27/3 47/30/3
f 12/31/3 13/32/3 48/29/3 46/28/3
f 47/30/3 29/33/3 50/34/3 49/35/3
f 46/28/3 47/30/3 49/35/3 51/36/3
f 12/31/3 46/28/3 51/36/3 52/37/3
f 33/25/1 55/24/1 54/1/1 53/4/1
f 53/4/1 54/1/1 57/2/1 56/3/1
f 56/3/1 57/2/1 58/22/1 17/23/1
f 59/29/1 36/32/1 33/25/1 53/4/1
f 60/27/1 59/29/1 53/4/1 56/3/1
f 18/26/1 60/27/1 56/3/1 17/23/1
f 61/37/1 64/31/1 63/28/1 62/36/1
f 62/36/1 63/28/1 66/30/1 65/35/1
f 65/35/1 66/30/1 68/33/1 67/34/1
f 69/38/15 39/24/15 40/1/15 70/4/15
f 71/4/15 74/1/15 73/2/15 72/3/15
f 75/3/15 41/2/15 43/22/15 76/23/15
f 70/4/15 78/28/15 77/31/15 69/38/15
f 78/28/15 70/4/15 75/3/15 79/30/15
f 76/23/15 80/39/15 79/30/15 75/3/15
f 55/37/15 77/31/15 78/28/15 54/36/15
f 54/36/15 78/28/15 79/30/15 57/35/15
f 57/35/15 79/30/15 80/39/15 58/34/15
f 81/39/4 9/30/4 10/3/4 82/23/4
f 76/25/4 3/4/4 4/28/4 80/40/4
f 82/25/16 52/24/16 51/1/16 83/4/16
f 83/4/16 51/1/16 49/2/16 84/3/16
f 84/3/16 49/2/16 50/22/16 85/23/16
f 83/4/16 86/28/16 81/40/16 82/25/16
f 86/28/16 83/4/16 84/3/16 87/30/16
f 85/23/16 88/39/16 87/30/16 84/3/16
f 67/37/16 81/40/16 86/28/16 65/36/16
f 65/36/16 86/28/16 87/30/16 62/35/16
f 62/35/16 87/30/16 88/39/16 61/34/16
f 77/33/2 27/30/2 28/3/2 69/41/2
f 85/25/2 21/4/2 22/28/2 88/40/2
f 16/42/5 17/43/6 4/6/6 1/5/5
f 44/44/6 89/45/5 2/8/5 3/7/6
f 15/46/7 16/42/5 1/5/5 5/9/7
f 89/45/5 14/47/7 6/10/7 2/8/5
f 14/47/7 11/48/8 8/11/8 6/10/7
f 90/49/8 15/46/7 5/9/7 7/12/8
f 11/48/8 12/50/9 10/13/9 8/11/8
f 68/51/9 90/49/8 7/12/8 9/14/9
f 81/39/4 67/34/4 68/35/4 9/30/4
f 10/3/4 12/2/4 52/22/4 82/23/4
f 76/25/4 43/24/4 44/1/4 3/4/4
f 4/28/4 17/36/4 58/37/4 80/40/4
f 91/42/10 64/43/11 22/6/11 19/5/10
f 29/44/11 30/45/10 20/8/10 21/7/11
f 35/46/12 91/42/10 19/5/10 23/9/12
f 30/45/10 31/47/12 24/10/12 20/8/10
f 31/47/12 92/48/13 26/11/13 24/10/12
f 34/49/13 35/46/12 23/9/12 25/12/13
f 92/48/13 38/50/14 28/13/14 26/11/13
f 33/51/14 34/49/13 25/12/13 27/14/14
f 77/33/2 55/34/2 33/35/2 27/30/2
f 28/3/2 38/2/2 39/22/2 69/41/2
f 85/25/2 50/24/2 29/1/2 21/4/2
f 22/28/2 64/36/2 61/37/2 88/40/2
f 63/28/1 64/31/1 36/32/1 59/29/1
f 66/30/1 63/28/1 59/29/1 60/27/1
f 68/33/1 66/30/1 60/27/1 18/26/1
f 64/20/1 91/21/1 35/19/1 36/17/1
f 15/19/1 90/15/1 68/18/1 18/17/1
f 29/33/3 47/30/3 45/27/3 32/26/3
f 42/4/3 37/3/3 45/27/3 48/29/3
f 44/25/3 42/4/3 48/29/3 13/32/3
f 38/18/3 92/15/3 31/16/3 32/17/3
f 89/21/3 44/20/3 13/17/3 14/16/3
