# Blender v2.75 (sub 0) OBJ File: '_001.blend'
# www.blender.org
mtllib Players house.mtl
o Players_House_Cube.000
v 1.026085 0.695465 -1.184384
v -1.025869 0.695479 -1.177398
v -1.025882 -1.111844 -1.177398
v 1.026073 -1.111859 -1.184385
v -1.017343 0.695477 1.327080
v -1.017354 -1.111845 1.327079
v 1.034612 0.695464 1.320094
v 1.034600 -1.111860 1.320093
v 0.978175 0.695465 -1.125500
v -0.977558 0.695479 -1.118841
v -0.977557 0.845190 -1.118841
v 0.978175 0.845177 -1.125500
v 0.216754 1.657047 -0.405679
v 0.220747 1.349120 -1.030824
v -0.306386 1.349124 -1.039782
v -0.310378 1.657050 -0.414637
v -0.356398 0.692667 -0.321401
v -0.351176 0.692668 -1.093988
v 0.275054 0.692664 -1.083270
v 0.269833 0.692663 -0.310681
v 0.986301 0.695464 1.261537
v -0.969431 0.695476 1.268196
v 0.986302 0.845176 1.261537
v -0.969430 0.845189 1.268196
v -1.025868 0.845190 -1.177398
v -1.017342 0.845189 1.327080
v 1.034613 0.845176 1.320094
v 1.026086 0.845177 -1.184384
v -0.343115 1.307674 -1.068977
v -0.347998 1.641284 -0.346110
v 0.266665 1.307671 -1.058557
v 0.261781 1.641280 -0.335693
vt 0.140330 0.851162
vt 0.140330 0.512561
vt 0.000000 0.512545
vt 0.000000 0.851147
vt 0.691808 0.000927
vt 0.359817 0.000000
vt 0.359817 0.511712
vt 0.691808 0.512639
vt 0.280661 0.851158
vt 0.280661 0.512569
vt 0.140330 0.512545
vt 0.140330 0.851135
vt 0.027526 0.512485
vt 0.359817 0.511755
vt 0.027526 0.000730
vt 1.000000 0.510698
vt 1.000000 0.000000
vt 0.859655 0.000044
vt 0.859655 0.510742
vt 0.351113 0.648516
vt 0.323524 0.648521
vt 0.323524 0.784489
vt 0.351113 0.784485
vt 0.673765 0.806078
vt 0.676035 0.674506
vt 0.712126 0.673133
vt 0.709856 0.804705
vt 0.670377 0.670657
vt 0.670377 0.512716
vt 0.713214 0.515193
vt 0.713214 0.673133
vt 0.719309 0.512005
vt 0.719309 1.000000
vt 0.853074 1.000000
vt 0.853074 0.512005
vt 0.351114 0.512545
vt 0.323524 0.512548
vt 0.719309 0.512716
vt 0.719309 0.001004
vt 0.000000 0.000791
vt 0.722599 0.500000
vt 0.722599 0.012005
vt 0.719309 0.000000
vt 0.856364 0.012005
vt 0.856364 0.500000
vt 0.859655 0.512005
vt 0.140330 0.879182
vt 0.280661 0.879206
vt 0.887181 0.998458
vt 0.914682 0.998535
vt 0.914682 0.510819
vt 0.887181 0.510742
vt 0.859655 0.510802
vt 0.859655 0.998559
vt 0.000000 0.879195
vt 0.378285 0.512716
vt 0.504058 0.570272
vt 0.509888 0.578196
vt 0.364461 0.515842
vt 0.281110 0.805578
vt 0.280661 0.690305
vt 0.323524 0.690305
vt 0.322847 0.805578
vt 0.320249 0.813407
vt 0.284169 0.813407
vt 0.665854 0.515917
vt 0.670377 0.693106
vt 0.515121 0.693106
vt 0.520404 0.578215
vt 0.525864 0.570217
vt 0.651662 0.512716
vt 0.281110 0.690305
vt 0.280661 0.512545
vt 0.322847 0.690305
vt 0.712126 0.818497
vt 0.670377 0.820097
vt 0.515121 0.693185
vt 0.359817 0.693185
vn -0.003400 0.000000 -1.000000
vn -1.000000 0.000000 0.003400
vn 0.003400 -0.000000 1.000000
vn 1.000000 -0.000000 -0.003400
vn -0.000000 -1.000000 -0.000000
vn 0.007500 0.897100 -0.441800
vn 0.000000 1.000000 0.000000
vn -0.678300 0.661800 -0.319400
vn 0.017100 0.040400 -0.999000
vn 0.014000 0.567100 -0.823500
vn 0.999900 0.010500 0.004400
vn 0.608600 0.718000 -0.337700
vn -0.017100 0.026200 0.999500
vn -0.003800 0.975000 0.222200
vn -0.999900 0.010500 -0.009100
usemtl (null).002
s 1
f 1/1/1 4/2/1 3/3/1 2/4/1
f 2/5/2 3/6/2 6/7/2 5/8/2
f 5/9/3 6/10/3 8/11/3 7/12/3
f 7/13/4 8/14/4 4/6/4 1/15/4
f 4/16/5 8/17/5 6/18/5 3/19/5
f 9/20/3 12/21/3 11/22/3 10/23/3
f 13/24/6 14/25/6 15/26/6 16/27/6
f 17/28/5 18/29/5 19/30/5 20/31/5
f 21/32/7 9/33/7 10/34/7 22/35/7
f 22/36/1 24/37/1 23/21/1 21/20/1
f 5/8/2 26/38/2 25/39/2 2/5/2
f 1/15/4 28/40/4 27/3/4 7/13/4
f 28/32/7 12/41/7 23/42/7 27/43/7
f 26/18/7 24/44/7 11/45/7 25/46/7
f 27/43/7 23/42/7 24/44/7 26/18/7
f 25/46/7 11/45/7 12/41/7 28/32/7
f 7/12/3 27/47/3 26/48/3 5/9/3
f 21/49/2 23/50/2 12/51/2 9/52/2
f 10/52/4 11/53/4 24/54/4 22/49/4
f 2/4/1 25/55/1 28/47/1 1/1/1
f 16/56/8 15/57/8 29/58/8 30/59/8
f 31/60/9 19/61/9 18/62/9 29/63/9
f 15/64/10 14/65/10 31/60/10 29/63/10
f 32/66/11 20/67/11 19/68/11 31/69/11
f 14/70/12 13/71/12 32/66/12 31/69/12
f 30/72/13 17/73/13 20/37/13 32/74/13
f 13/24/14 16/27/14 30/75/14 32/76/14
f 29/58/15 18/77/15 17/78/15 30/59/15
