# Blender v2.76 (sub 0) OBJ File: ''
# www.blender.org
o Players_House_Cube.016
v 7.055837 10.200453 -5.277992
v -7.034451 10.200453 -5.230019
v -7.034451 -0.042831 -5.230019
v 7.055837 -0.042831 -5.277993
v -6.996504 10.200453 5.915499
v -6.996504 -0.042832 5.915498
v 7.093784 10.200453 5.867525
v 7.093784 -0.042832 5.867525
v 6.726361 10.200453 -5.015545
v -6.703196 10.200453 -4.969822
v -6.703196 11.048967 -4.969822
v 6.726361 11.048967 -5.015545
v 1.491925 15.650346 -1.805896
v 1.524495 13.905117 -4.587991
v -2.095114 13.905117 -4.623518
v -2.127684 15.650346 -1.841423
v -2.444408 10.184549 -1.426111
v -2.402199 10.184549 -4.864378
v 1.897869 10.184549 -4.821831
v 1.855660 10.184549 -1.383562
v 6.762529 10.200453 5.607328
v -6.667028 10.200453 5.653053
v 6.762529 11.048967 5.607328
v -6.667028 11.048967 5.653053
v -7.034451 11.048967 -5.230019
v -6.996504 11.048967 5.915499
v 7.093784 11.048967 5.867525
v 7.055837 11.048967 -5.277992
v -2.347075 13.670192 -4.753137
v -2.386567 15.560987 -1.536152
v 1.840030 13.670193 -4.711788
v 1.800537 15.560987 -1.494802
vn -0.003400 0.000000 -1.000000
vn -1.000000 0.000000 0.003400
vn 0.003400 -0.000000 1.000000
vn 1.000000 -0.000000 -0.003400
vn 0.000000 1.000000 0.000000
vn 0.005200 0.847100 -0.531400
vn 0.000000 -1.000000 -0.000000
vn -0.584700 0.690600 -0.425600
vn 0.009900 0.031700 -0.999400
vn 0.008700 0.475600 -0.879600
vn 0.999900 0.012700 0.008700
vn 0.514500 0.736100 -0.439900
vn -0.009900 0.020600 0.999700
vn -0.002700 0.960400 0.278700
vn -0.999800 0.012700 -0.015900
s 1
f 1//1 4//1 3//1 2//1
f 2//2 3//2 6//2 5//2
f 5//3 6//3 8//3 7//3
f 7//4 8//4 4//4 1//4
f 4//5 3//5 6//5 8//5
f 9//3 12//3 11//3 10//3
f 13//6 14//6 15//6 16//6
f 17//7 18//7 19//7 20//7
f 21//5 9//5 10//5 22//5
f 22//1 24//1 23//1 21//1
f 5//2 26//2 25//2 2//2
f 1//4 28//4 27//4 7//4
f 28//5 12//5 23//5 27//5
f 26//5 24//5 11//5 25//5
f 27//5 23//5 24//5 26//5
f 25//5 11//5 12//5 28//5
f 7//3 27//3 26//3 5//3
f 21//2 23//2 12//2 9//2
f 10//4 11//4 24//4 22//4
f 2//1 25//1 28//1 1//1
f 16//8 15//8 29//8 30//8
f 31//9 19//9 18//9 29//9
f 15//10 14//10 31//10 29//10
f 32//11 20//11 19//11 31//11
f 14//12 13//12 32//12 31//12
f 30//13 17//13 20//13 32//13
f 13//14 16//14 30//14 32//14
f 29//15 18//15 17//15 30//15
