# Blender v2.75 (sub 0) OBJ File: 'Complete Map.blend'
# www.blender.org
mtllib Radiostation Sing.mtl
o Bildboard_Cube.007
v -1.246249 1.170745 2.023536
v -1.246249 2.600986 2.023536
v -1.246250 1.170745 -0.496465
v -1.246250 2.600986 -0.496465
v -1.194524 1.170745 2.023536
v -1.194524 2.600986 2.023536
v -1.194524 1.170745 -0.496465
v -1.194524 2.600986 -0.496465
v -1.095503 1.142210 0.846724
v -1.095503 2.203319 0.846724
v -1.095503 1.142210 0.775037
v -1.095503 2.203319 0.775037
v -1.146893 1.142210 0.846724
v -1.146892 2.203319 0.846724
v -1.146893 1.142210 0.775037
v -1.146892 2.203319 0.775037
v -1.095503 1.188345 0.846724
v -1.095503 1.234480 0.846724
v -1.095503 1.280616 0.846724
v -1.095503 1.326751 0.846724
v -1.095503 1.372886 0.846724
v -1.095503 1.419021 0.846724
v -1.095503 1.465156 0.846724
v -1.095503 1.511291 0.846724
v -1.095503 1.557426 0.846724
v -1.095503 1.603562 0.846724
v -1.095503 1.649697 0.846724
v -1.095503 1.695832 0.846724
v -1.095503 1.741967 0.846724
v -1.095503 1.788102 0.846724
v -1.095503 1.834237 0.846724
v -1.095503 1.880373 0.846724
v -1.095503 1.926508 0.846724
v -1.095503 1.972643 0.846724
v -1.095503 2.018778 0.846724
v -1.095503 2.064913 0.846724
v -1.095503 2.111048 0.846724
v -1.095503 2.157184 0.846724
v -1.095503 2.157184 0.775037
v -1.095503 2.111048 0.775037
v -1.095503 2.064913 0.775037
v -1.095503 2.018778 0.775037
v -1.095503 1.972643 0.775037
v -1.095503 1.926508 0.775037
v -1.095503 1.880373 0.775037
v -1.095503 1.834237 0.775037
v -1.095503 1.788102 0.775037
v -1.095503 1.741967 0.775037
v -1.095503 1.695832 0.775037
v -1.095503 1.649697 0.775037
v -1.095503 1.603562 0.775037
v -1.095503 1.557426 0.775037
v -1.095503 1.511291 0.775037
v -1.095503 1.465156 0.775037
v -1.095503 1.419021 0.775037
v -1.095503 1.372886 0.775037
v -1.095503 1.326751 0.775037
v -1.095503 1.280616 0.775037
v -1.095503 1.234480 0.775037
v -1.095503 1.188345 0.775037
v -1.146892 2.157184 0.775037
v -1.146892 2.111048 0.775037
v -1.146892 2.064913 0.775037
v -1.146892 2.018778 0.775037
v -1.146892 1.972643 0.775037
v -1.146892 1.926508 0.775037
v -1.146892 1.880373 0.775037
v -1.146892 1.834237 0.775037
v -1.146892 1.788102 0.775037
v -1.146892 1.741967 0.775037
v -1.146892 1.695832 0.775037
v -1.146892 1.649697 0.775037
v -1.146893 1.603562 0.775037
v -1.146893 1.557426 0.775037
v -1.146893 1.511291 0.775037
v -1.146893 1.465156 0.775037
v -1.146893 1.419021 0.775037
v -1.146893 1.372886 0.775037
v -1.146893 1.326751 0.775037
v -1.146893 1.280616 0.775037
v -1.146893 1.234480 0.775037
v -1.146893 1.188345 0.775037
v -1.146892 2.157184 0.846724
v -1.146892 2.111048 0.846724
v -1.146892 2.064913 0.846724
v -1.146892 2.018778 0.846724
v -1.146892 1.972643 0.846724
v -1.146892 1.926508 0.846724
v -1.146892 1.880373 0.846724
v -1.146892 1.834237 0.846724
v -1.146892 1.788102 0.846724
v -1.146892 1.741967 0.846724
v -1.146892 1.695832 0.846724
v -1.146892 1.649697 0.846724
v -1.146892 1.603562 0.846724
v -1.146892 1.557426 0.846724
v -1.146892 1.511291 0.846724
v -1.146892 1.465156 0.846724
v -1.146892 1.419021 0.846724
v -1.146893 1.372886 0.846724
v -1.146893 1.326751 0.846724
v -1.146893 1.280616 0.846724
v -1.146893 1.234480 0.846724
v -1.146893 1.188345 0.846724
v 0.054996 1.188345 0.775037
v 0.054996 1.142210 0.775037
v 0.054996 1.142210 0.846724
v 0.054996 1.188345 0.846724
v 0.052628 1.138983 0.846724
v 0.052628 1.185119 0.846724
v 0.052628 1.185119 0.775037
v 0.052628 1.138983 0.775037
v -1.157878 1.145998 -0.330872
v -1.157878 2.207107 -0.330871
v -1.157878 1.145998 -0.402559
v -1.157878 2.207107 -0.402559
v -1.209267 1.145998 -0.330872
v -1.209267 2.207107 -0.330871
v -1.209267 1.145998 -0.402559
v -1.209267 2.207107 -0.402559
v -1.157878 1.192134 -0.330872
v -1.157878 1.238269 -0.330872
v -1.157878 1.284404 -0.330872
v -1.157878 1.330539 -0.330872
v -1.157878 1.376674 -0.330872
v -1.157878 1.422809 -0.330871
v -1.157878 1.468945 -0.330871
v -1.157878 1.515080 -0.330871
v -1.157878 1.561215 -0.330871
v -1.157878 1.607350 -0.330871
v -1.157878 1.653485 -0.330871
v -1.157878 1.699620 -0.330871
v -1.157878 1.745755 -0.330871
v -1.157878 1.791891 -0.330871
v -1.157878 1.838026 -0.330871
v -1.157878 1.884161 -0.330871
v -1.157878 1.930296 -0.330871
v -1.157878 1.976431 -0.330871
v -1.157878 2.022566 -0.330871
v -1.157878 2.068702 -0.330871
v -1.157878 2.114837 -0.330871
v -1.157878 2.160972 -0.330871
v -1.157878 2.160972 -0.402559
v -1.157878 2.114837 -0.402559
v -1.157878 2.068702 -0.402559
v -1.157878 2.022567 -0.402559
v -1.157878 1.976431 -0.402559
v -1.157878 1.930296 -0.402559
v -1.157878 1.884161 -0.402559
v -1.157878 1.838026 -0.402559
v -1.157878 1.791891 -0.402559
v -1.157878 1.745756 -0.402559
v -1.157878 1.699620 -0.402559
v -1.157878 1.653485 -0.402559
v -1.157878 1.607350 -0.402559
v -1.157878 1.561215 -0.402559
v -1.157878 1.515080 -0.402559
v -1.157878 1.468945 -0.402559
v -1.157878 1.422809 -0.402559
v -1.157878 1.376674 -0.402559
v -1.157878 1.330539 -0.402559
v -1.157878 1.284404 -0.402559
v -1.157878 1.238269 -0.402559
v -1.157878 1.192134 -0.402559
v -1.209267 2.160972 -0.402559
v -1.209267 2.114837 -0.402559
v -1.209267 2.068702 -0.402559
v -1.209267 2.022567 -0.402559
v -1.209267 1.976431 -0.402559
v -1.209267 1.930296 -0.402559
v -1.209267 1.884161 -0.402559
v -1.209267 1.838026 -0.402559
v -1.209267 1.791891 -0.402559
v -1.209267 1.745756 -0.402559
v -1.209267 1.699620 -0.402559
v -1.209267 1.653485 -0.402559
v -1.209267 1.607350 -0.402559
v -1.209267 1.561215 -0.402559
v -1.209267 1.515080 -0.402559
v -1.209267 1.468945 -0.402559
v -1.209267 1.422809 -0.402559
v -1.209267 1.376674 -0.402559
v -1.209267 1.330539 -0.402559
v -1.209267 1.284404 -0.402559
v -1.209267 1.238269 -0.402559
v -1.209267 1.192134 -0.402559
v -1.209267 2.160972 -0.330871
v -1.209267 2.114837 -0.330871
v -1.209267 2.068702 -0.330871
v -1.209267 2.022567 -0.330871
v -1.209267 1.976431 -0.330871
v -1.209267 1.930296 -0.330871
v -1.209267 1.884161 -0.330871
v -1.209267 1.838026 -0.330871
v -1.209267 1.791891 -0.330871
v -1.209267 1.745756 -0.330871
v -1.209267 1.699620 -0.330871
v -1.209267 1.653485 -0.330871
v -1.209267 1.607350 -0.330871
v -1.209267 1.561215 -0.330871
v -1.209267 1.515080 -0.330871
v -1.209267 1.468945 -0.330871
v -1.209267 1.422809 -0.330871
v -1.209267 1.376674 -0.330872
v -1.209267 1.330539 -0.330872
v -1.209267 1.284404 -0.330872
v -1.209267 1.238269 -0.330872
v -1.209267 1.192134 -0.330872
v -0.007379 1.192133 -0.402559
v -0.007379 1.145998 -0.402559
v -0.007379 1.145998 -0.330872
v -0.007379 1.192133 -0.330872
v -0.009747 1.142772 -0.330872
v -0.009747 1.188907 -0.330872
v -0.009747 1.188907 -0.402559
v -0.009747 1.142772 -0.402559
v -1.157878 1.145998 1.879394
v -1.157877 2.207107 1.879395
v -1.157878 1.145998 1.807707
v -1.157877 2.207107 1.807707
v -1.209267 1.145998 1.879394
v -1.209267 2.207107 1.879395
v -1.209267 1.145998 1.807707
v -1.209267 2.207107 1.807707
v -1.157878 1.192133 1.879394
v -1.157878 1.238269 1.879394
v -1.157878 1.284404 1.879394
v -1.157878 1.330539 1.879394
v -1.157878 1.376674 1.879394
v -1.157878 1.422809 1.879394
v -1.157878 1.468944 1.879394
v -1.157877 1.515079 1.879394
v -1.157877 1.561215 1.879394
v -1.157877 1.607350 1.879394
v -1.157877 1.653485 1.879394
v -1.157877 1.699620 1.879394
v -1.157877 1.745755 1.879394
v -1.157877 1.791891 1.879394
v -1.157877 1.838026 1.879394
v -1.157877 1.884161 1.879394
v -1.157877 1.930296 1.879395
v -1.157877 1.976431 1.879395
v -1.157877 2.022566 1.879395
v -1.157877 2.068702 1.879395
v -1.157877 2.114837 1.879395
v -1.157877 2.160972 1.879395
v -1.157877 2.160972 1.807707
v -1.157877 2.114837 1.807707
v -1.157877 2.068702 1.807707
v -1.157877 2.022566 1.807707
v -1.157877 1.976431 1.807707
v -1.157877 1.930296 1.807707
v -1.157877 1.884161 1.807707
v -1.157877 1.838026 1.807707
v -1.157877 1.791891 1.807707
v -1.157877 1.745755 1.807707
v -1.157877 1.699620 1.807707
v -1.157877 1.653485 1.807707
v -1.157878 1.607350 1.807707
v -1.157878 1.561215 1.807707
v -1.157878 1.515080 1.807707
v -1.157878 1.468944 1.807707
v -1.157878 1.422809 1.807707
v -1.157878 1.376674 1.807707
v -1.157878 1.330539 1.807707
v -1.157878 1.284404 1.807707
v -1.157878 1.238269 1.807707
v -1.157878 1.192133 1.807707
v -1.209267 2.160972 1.807707
v -1.209267 2.114837 1.807707
v -1.209267 2.068702 1.807707
v -1.209267 2.022566 1.807707
v -1.209267 1.976431 1.807707
v -1.209267 1.930296 1.807707
v -1.209267 1.884161 1.807707
v -1.209267 1.838026 1.807707
v -1.209267 1.791891 1.807707
v -1.209267 1.745755 1.807707
v -1.209267 1.699620 1.807707
v -1.209267 1.653485 1.807707
v -1.209267 1.607350 1.807707
v -1.209267 1.561215 1.807707
v -1.209267 1.515080 1.807707
v -1.209267 1.468944 1.807707
v -1.209267 1.422809 1.807707
v -1.209267 1.376674 1.807707
v -1.209267 1.330539 1.807707
v -1.209267 1.284404 1.807707
v -1.209267 1.238269 1.807707
v -1.209267 1.192133 1.807707
v -1.209267 2.160972 1.879395
v -1.209267 2.114837 1.879395
v -1.209267 2.068702 1.879395
v -1.209267 2.022566 1.879395
v -1.209267 1.976431 1.879395
v -1.209267 1.930296 1.879395
v -1.209267 1.884161 1.879394
v -1.209267 1.838026 1.879394
v -1.209267 1.791891 1.879394
v -1.209267 1.745755 1.879394
v -1.209267 1.699620 1.879394
v -1.209267 1.653485 1.879394
v -1.209267 1.607350 1.879394
v -1.209267 1.561215 1.879394
v -1.209267 1.515080 1.879394
v -1.209267 1.468944 1.879394
v -1.209267 1.422809 1.879394
v -1.209267 1.376674 1.879394
v -1.209267 1.330539 1.879394
v -1.209267 1.284404 1.879394
v -1.209267 1.238269 1.879394
v -1.209267 1.192133 1.879394
v -0.007378 1.192133 1.807707
v -0.007378 1.145998 1.807707
v -0.007378 1.145998 1.879394
v -0.007378 1.192133 1.879394
v -0.009746 1.142772 1.879394
v -0.009746 1.188907 1.879394
v -0.009746 1.188907 1.807707
v -0.009746 1.142772 1.807707
vt 0.333333 0.333333
vt 0.333333 0.000000
vt 0.666667 0.000000
vt 0.666667 0.333333
vt 0.000000 0.666667
vt 0.000000 0.333333
vt 0.333333 0.666667
vt 0.000000 0.000000
vt 0.666667 0.666667
vt 1.000000 0.000000
vt 1.000000 0.333333
vt 0.333333 1.000000
vt 0.000000 1.000000
vn -1.000000 0.000000 0.000000
vn 0.000000 0.000000 -1.000000
vn 1.000000 0.000000 -0.000000
vn 0.000000 0.000000 1.000000
vn 0.000000 -1.000000 -0.000000
vn 0.000000 1.000000 -0.000000
vn -0.663500 -0.748200 0.000000
vn 0.663500 0.748200 0.000000
usemtl None
s 1
f 2/1/1 4/2/1 3/3/1 1/4/1
f 4/5/2 8/6/2 7/1/2 3/7/2
f 8/6/3 6/8/3 5/2/3 7/1/3
f 6/1/4 2/4/4 1/9/4 5/7/4
f 1/10/5 3/11/5 7/4/5 5/3/5
f 6/5/6 8/7/6 4/12/6 2/13/6
f 11/8/6 9/8/6 107/8/6 106/8/6
f 60/8/4 82/8/4 15/8/4 11/8/4
f 82/8/3 104/8/3 13/8/3 15/8/3
f 104/8/2 17/8/2 9/8/2 13/8/2
f 9/8/6 11/8/6 15/8/6 13/8/6
f 14/8/5 16/8/5 12/8/5 10/8/5
f 14/8/2 10/8/2 38/8/2 83/8/2
f 83/8/2 38/8/2 37/8/2 84/8/2
f 84/8/2 37/8/2 36/8/2 85/8/2
f 85/8/2 36/8/2 35/8/2 86/8/2
f 86/8/2 35/8/2 34/8/2 87/8/2
f 87/8/2 34/8/2 33/8/2 88/8/2
f 88/8/2 33/8/2 32/8/2 89/8/2
f 89/8/2 32/8/2 31/8/2 90/8/2
f 90/8/2 31/8/2 30/8/2 91/8/2
f 91/8/2 30/8/2 29/8/2 92/8/2
f 92/8/2 29/8/2 28/8/2 93/8/2
f 93/8/2 28/8/2 27/8/2 94/8/2
f 94/8/2 27/8/2 26/8/2 95/8/2
f 95/8/2 26/8/2 25/8/2 96/8/2
f 96/8/2 25/8/2 24/8/2 97/8/2
f 97/8/2 24/8/2 23/8/2 98/8/2
f 98/8/2 23/8/2 22/8/2 99/8/2
f 99/8/2 22/8/2 21/8/2 100/8/2
f 100/8/2 21/8/2 20/8/2 101/8/2
f 101/8/2 20/8/2 19/8/2 102/8/2
f 102/8/2 19/8/2 18/8/2 103/8/2
f 103/8/2 18/8/2 17/8/2 104/8/2
f 16/8/3 14/8/3 83/8/3 61/8/3
f 61/8/3 83/8/3 84/8/3 62/8/3
f 62/8/3 84/8/3 85/8/3 63/8/3
f 63/8/3 85/8/3 86/8/3 64/8/3
f 64/8/3 86/8/3 87/8/3 65/8/3
f 65/8/3 87/8/3 88/8/3 66/8/3
f 66/8/3 88/8/3 89/8/3 67/8/3
f 67/8/3 89/8/3 90/8/3 68/8/3
f 68/8/3 90/8/3 91/8/3 69/8/3
f 69/8/3 91/8/3 92/8/3 70/8/3
f 70/8/3 92/8/3 93/8/3 71/8/3
f 71/8/3 93/8/3 94/8/3 72/8/3
f 72/8/3 94/8/3 95/8/3 73/8/3
f 73/8/3 95/8/3 96/8/3 74/8/3
f 74/8/3 96/8/3 97/8/3 75/8/3
f 75/8/3 97/8/3 98/8/3 76/8/3
f 76/8/3 98/8/3 99/8/3 77/8/3
f 77/8/3 99/8/3 100/8/3 78/8/3
f 78/8/3 100/8/3 101/8/3 79/8/3
f 79/8/3 101/8/3 102/8/3 80/8/3
f 80/8/3 102/8/3 103/8/3 81/8/3
f 81/8/3 103/8/3 104/8/3 82/8/3
f 12/8/4 16/8/4 61/8/4 39/8/4
f 39/8/4 61/8/4 62/8/4 40/8/4
f 40/8/4 62/8/4 63/8/4 41/8/4
f 41/8/4 63/8/4 64/8/4 42/8/4
f 42/8/4 64/8/4 65/8/4 43/8/4
f 43/8/4 65/8/4 66/8/4 44/8/4
f 44/8/4 66/8/4 67/8/4 45/8/4
f 45/8/4 67/8/4 68/8/4 46/8/4
f 46/8/4 68/8/4 69/8/4 47/8/4
f 47/8/4 69/8/4 70/8/4 48/8/4
f 48/8/4 70/8/4 71/8/4 49/8/4
f 49/8/4 71/8/4 72/8/4 50/8/4
f 50/8/4 72/8/4 73/8/4 51/8/4
f 51/8/4 73/8/4 74/8/4 52/8/4
f 52/8/4 74/8/4 75/8/4 53/8/4
f 53/8/4 75/8/4 76/8/4 54/8/4
f 54/8/4 76/8/4 77/8/4 55/8/4
f 55/8/4 77/8/4 78/8/4 56/8/4
f 56/8/4 78/8/4 79/8/4 57/8/4
f 57/8/4 79/8/4 80/8/4 58/8/4
f 58/8/4 80/8/4 81/8/4 59/8/4
f 59/8/4 81/8/4 82/8/4 60/8/4
f 10/8/7 12/8/7 111/8/7 110/8/7
f 38/8/1 39/8/1 40/8/1 37/8/1
f 37/8/1 40/8/1 41/8/1 36/8/1
f 36/8/1 41/8/1 42/8/1 35/8/1
f 35/8/1 42/8/1 43/8/1 34/8/1
f 34/8/1 43/8/1 44/8/1 33/8/1
f 33/8/1 44/8/1 45/8/1 32/8/1
f 32/8/1 45/8/1 46/8/1 31/8/1
f 31/8/1 46/8/1 47/8/1 30/8/1
f 30/8/1 47/8/1 48/8/1 29/8/1
f 29/8/1 48/8/1 49/8/1 28/8/1
f 28/8/1 49/8/1 50/8/1 27/8/1
f 27/8/1 50/8/1 51/8/1 26/8/1
f 26/8/1 51/8/1 52/8/1 25/8/1
f 25/8/1 52/8/1 53/8/1 24/8/1
f 24/8/1 53/8/1 54/8/1 23/8/1
f 23/8/1 54/8/1 55/8/1 22/8/1
f 22/8/1 55/8/1 56/8/1 21/8/1
f 21/8/1 56/8/1 57/8/1 20/8/1
f 20/8/1 57/8/1 58/8/1 19/8/1
f 19/8/1 58/8/1 59/8/1 18/8/1
f 18/8/1 59/8/1 60/8/1 17/8/1
f 108/8/1 105/8/1 106/8/1 107/8/1
f 9/8/2 17/8/2 108/8/2 107/8/2
f 60/8/4 11/8/4 106/8/4 105/8/4
f 17/8/5 60/8/5 105/8/5 108/8/5
f 110/8/1 111/8/1 112/8/1 109/8/1
f 12/8/4 39/8/4 112/8/4 111/8/4
f 39/8/8 38/8/8 109/8/8 112/8/8
f 38/8/2 10/8/2 110/8/2 109/8/2
f 115/8/6 113/8/6 211/8/6 210/8/6
f 164/8/4 186/8/4 119/8/4 115/8/4
f 186/8/3 208/8/3 117/8/3 119/8/3
f 208/8/2 121/8/2 113/8/2 117/8/2
f 113/8/6 115/8/6 119/8/6 117/8/6
f 118/8/5 120/8/5 116/8/5 114/8/5
f 118/8/2 114/8/2 142/8/2 187/8/2
f 187/8/2 142/8/2 141/8/2 188/8/2
f 188/8/2 141/8/2 140/8/2 189/8/2
f 189/8/2 140/8/2 139/8/2 190/8/2
f 190/8/2 139/8/2 138/8/2 191/8/2
f 191/8/2 138/8/2 137/8/2 192/8/2
f 192/8/2 137/8/2 136/8/2 193/8/2
f 193/8/2 136/8/2 135/8/2 194/8/2
f 194/8/2 135/8/2 134/8/2 195/8/2
f 195/8/2 134/8/2 133/8/2 196/8/2
f 196/8/2 133/8/2 132/8/2 197/8/2
f 197/8/2 132/8/2 131/8/2 198/8/2
f 198/8/2 131/8/2 130/8/2 199/8/2
f 199/8/2 130/8/2 129/8/2 200/8/2
f 200/8/2 129/8/2 128/8/2 201/8/2
f 201/8/2 128/8/2 127/8/2 202/8/2
f 202/8/2 127/8/2 126/8/2 203/8/2
f 203/8/2 126/8/2 125/8/2 204/8/2
f 204/8/2 125/8/2 124/8/2 205/8/2
f 205/8/2 124/8/2 123/8/2 206/8/2
f 206/8/2 123/8/2 122/8/2 207/8/2
f 207/8/2 122/8/2 121/8/2 208/8/2
f 120/8/3 118/8/3 187/8/3 165/8/3
f 165/8/3 187/8/3 188/8/3 166/8/3
f 166/8/3 188/8/3 189/8/3 167/8/3
f 167/8/3 189/8/3 190/8/3 168/8/3
f 168/8/3 190/8/3 191/8/3 169/8/3
f 169/8/3 191/8/3 192/8/3 170/8/3
f 170/8/3 192/8/3 193/8/3 171/8/3
f 171/8/3 193/8/3 194/8/3 172/8/3
f 172/8/3 194/8/3 195/8/3 173/8/3
f 173/8/3 195/8/3 196/8/3 174/8/3
f 174/8/3 196/8/3 197/8/3 175/8/3
f 175/8/3 197/8/3 198/8/3 176/8/3
f 176/8/3 198/8/3 199/8/3 177/8/3
f 177/8/3 199/8/3 200/8/3 178/8/3
f 178/8/3 200/8/3 201/8/3 179/8/3
f 179/8/3 201/8/3 202/8/3 180/8/3
f 180/8/3 202/8/3 203/8/3 181/8/3
f 181/8/3 203/8/3 204/8/3 182/8/3
f 182/8/3 204/8/3 205/8/3 183/8/3
f 183/8/3 205/8/3 206/8/3 184/8/3
f 184/8/3 206/8/3 207/8/3 185/8/3
f 185/8/3 207/8/3 208/8/3 186/8/3
f 116/8/4 120/8/4 165/8/4 143/8/4
f 143/8/4 165/8/4 166/8/4 144/8/4
f 144/8/4 166/8/4 167/8/4 145/8/4
f 145/8/4 167/8/4 168/8/4 146/8/4
f 146/8/4 168/8/4 169/8/4 147/8/4
f 147/8/4 169/8/4 170/8/4 148/8/4
f 148/8/4 170/8/4 171/8/4 149/8/4
f 149/8/4 171/8/4 172/8/4 150/8/4
f 150/8/4 172/8/4 173/8/4 151/8/4
f 151/8/4 173/8/4 174/8/4 152/8/4
f 152/8/4 174/8/4 175/8/4 153/8/4
f 153/8/4 175/8/4 176/8/4 154/8/4
f 154/8/4 176/8/4 177/8/4 155/8/4
f 155/8/4 177/8/4 178/8/4 156/8/4
f 156/8/4 178/8/4 179/8/4 157/8/4
f 157/8/4 179/8/4 180/8/4 158/8/4
f 158/8/4 180/8/4 181/8/4 159/8/4
f 159/8/4 181/8/4 182/8/4 160/8/4
f 160/8/4 182/8/4 183/8/4 161/8/4
f 161/8/4 183/8/4 184/8/4 162/8/4
f 162/8/4 184/8/4 185/8/4 163/8/4
f 163/8/4 185/8/4 186/8/4 164/8/4
f 114/8/7 116/8/7 215/8/7 214/8/7
f 142/8/1 143/8/1 144/8/1 141/8/1
f 141/8/1 144/8/1 145/8/1 140/8/1
f 140/8/1 145/8/1 146/8/1 139/8/1
f 139/8/1 146/8/1 147/8/1 138/8/1
f 138/8/1 147/8/1 148/8/1 137/8/1
f 137/8/1 148/8/1 149/8/1 136/8/1
f 136/8/1 149/8/1 150/8/1 135/8/1
f 135/8/1 150/8/1 151/8/1 134/8/1
f 134/8/1 151/8/1 152/8/1 133/8/1
f 133/8/1 152/8/1 153/8/1 132/8/1
f 132/8/1 153/8/1 154/8/1 131/8/1
f 131/8/1 154/8/1 155/8/1 130/8/1
f 130/8/1 155/8/1 156/8/1 129/8/1
f 129/8/1 156/8/1 157/8/1 128/8/1
f 128/8/1 157/8/1 158/8/1 127/8/1
f 127/8/1 158/8/1 159/8/1 126/8/1
f 126/8/1 159/8/1 160/8/1 125/8/1
f 125/8/1 160/8/1 161/8/1 124/8/1
f 124/8/1 161/8/1 162/8/1 123/8/1
f 123/8/1 162/8/1 163/8/1 122/8/1
f 122/8/1 163/8/1 164/8/1 121/8/1
f 212/8/1 209/8/1 210/8/1 211/8/1
f 113/8/2 121/8/2 212/8/2 211/8/2
f 164/8/4 115/8/4 210/8/4 209/8/4
f 121/8/5 164/8/5 209/8/5 212/8/5
f 214/8/1 215/8/1 216/8/1 213/8/1
f 116/8/4 143/8/4 216/8/4 215/8/4
f 143/8/8 142/8/8 213/8/8 216/8/8
f 142/8/2 114/8/2 214/8/2 213/8/2
f 219/8/6 217/8/6 315/8/6 314/8/6
f 268/8/4 290/8/4 223/8/4 219/8/4
f 290/8/3 312/8/3 221/8/3 223/8/3
f 312/8/2 225/8/2 217/8/2 221/8/2
f 217/8/6 219/8/6 223/8/6 221/8/6
f 222/8/5 224/8/5 220/8/5 218/8/5
f 222/8/2 218/8/2 246/8/2 291/8/2
f 291/8/2 246/8/2 245/8/2 292/8/2
f 292/8/2 245/8/2 244/8/2 293/8/2
f 293/8/2 244/8/2 243/8/2 294/8/2
f 294/8/2 243/8/2 242/8/2 295/8/2
f 295/8/2 242/8/2 241/8/2 296/8/2
f 296/8/2 241/8/2 240/8/2 297/8/2
f 297/8/2 240/8/2 239/8/2 298/8/2
f 298/8/2 239/8/2 238/8/2 299/8/2
f 299/8/2 238/8/2 237/8/2 300/8/2
f 300/8/2 237/8/2 236/8/2 301/8/2
f 301/8/2 236/8/2 235/8/2 302/8/2
f 302/8/2 235/8/2 234/8/2 303/8/2
f 303/8/2 234/8/2 233/8/2 304/8/2
f 304/8/2 233/8/2 232/8/2 305/8/2
f 305/8/2 232/8/2 231/8/2 306/8/2
f 306/8/2 231/8/2 230/8/2 307/8/2
f 307/8/2 230/8/2 229/8/2 308/8/2
f 308/8/2 229/8/2 228/8/2 309/8/2
f 309/8/2 228/8/2 227/8/2 310/8/2
f 310/8/2 227/8/2 226/8/2 311/8/2
f 311/8/2 226/8/2 225/8/2 312/8/2
f 224/8/3 222/8/3 291/8/3 269/8/3
f 269/8/3 291/8/3 292/8/3 270/8/3
f 270/8/3 292/8/3 293/8/3 271/8/3
f 271/8/3 293/8/3 294/8/3 272/8/3
f 272/8/3 294/8/3 295/8/3 273/8/3
f 273/8/3 295/8/3 296/8/3 274/8/3
f 274/8/3 296/8/3 297/8/3 275/8/3
f 275/8/3 297/8/3 298/8/3 276/8/3
f 276/8/3 298/8/3 299/8/3 277/8/3
f 277/8/3 299/8/3 300/8/3 278/8/3
f 278/8/3 300/8/3 301/8/3 279/8/3
f 279/8/3 301/8/3 302/8/3 280/8/3
f 280/8/3 302/8/3 303/8/3 281/8/3
f 281/8/3 303/8/3 304/8/3 282/8/3
f 282/8/3 304/8/3 305/8/3 283/8/3
f 283/8/3 305/8/3 306/8/3 284/8/3
f 284/8/3 306/8/3 307/8/3 285/8/3
f 285/8/3 307/8/3 308/8/3 286/8/3
f 286/8/3 308/8/3 309/8/3 287/8/3
f 287/8/3 309/8/3 310/8/3 288/8/3
f 288/8/3 310/8/3 311/8/3 289/8/3
f 289/8/3 311/8/3 312/8/3 290/8/3
f 220/8/4 224/8/4 269/8/4 247/8/4
f 247/8/4 269/8/4 270/8/4 248/8/4
f 248/8/4 270/8/4 271/8/4 249/8/4
f 249/8/4 271/8/4 272/8/4 250/8/4
f 250/8/4 272/8/4 273/8/4 251/8/4
f 251/8/4 273/8/4 274/8/4 252/8/4
f 252/8/4 274/8/4 275/8/4 253/8/4
f 253/8/4 275/8/4 276/8/4 254/8/4
f 254/8/4 276/8/4 277/8/4 255/8/4
f 255/8/4 277/8/4 278/8/4 256/8/4
f 256/8/4 278/8/4 279/8/4 257/8/4
f 257/8/4 279/8/4 280/8/4 258/8/4
f 258/8/4 280/8/4 281/8/4 259/8/4
f 259/8/4 281/8/4 282/8/4 260/8/4
f 260/8/4 282/8/4 283/8/4 261/8/4
f 261/8/4 283/8/4 284/8/4 262/8/4
f 262/8/4 284/8/4 285/8/4 263/8/4
f 263/8/4 285/8/4 286/8/4 264/8/4
f 264/8/4 286/8/4 287/8/4 265/8/4
f 265/8/4 287/8/4 288/8/4 266/8/4
f 266/8/4 288/8/4 289/8/4 267/8/4
f 267/8/4 289/8/4 290/8/4 268/8/4
f 218/8/7 220/8/7 319/8/7 318/8/7
f 246/8/1 247/8/1 248/8/1 245/8/1
f 245/8/1 248/8/1 249/8/1 244/8/1
f 244/8/1 249/8/1 250/8/1 243/8/1
f 243/8/1 250/8/1 251/8/1 242/8/1
f 242/8/1 251/8/1 252/8/1 241/8/1
f 241/8/1 252/8/1 253/8/1 240/8/1
f 240/8/1 253/8/1 254/8/1 239/8/1
f 239/8/1 254/8/1 255/8/1 238/8/1
f 238/8/1 255/8/1 256/8/1 237/8/1
f 237/8/1 256/8/1 257/8/1 236/8/1
f 236/8/1 257/8/1 258/8/1 235/8/1
f 235/8/1 258/8/1 259/8/1 234/8/1
f 234/8/1 259/8/1 260/8/1 233/8/1
f 233/8/1 260/8/1 261/8/1 232/8/1
f 232/8/1 261/8/1 262/8/1 231/8/1
f 231/8/1 262/8/1 263/8/1 230/8/1
f 230/8/1 263/8/1 264/8/1 229/8/1
f 229/8/1 264/8/1 265/8/1 228/8/1
f 228/8/1 265/8/1 266/8/1 227/8/1
f 227/8/1 266/8/1 267/8/1 226/8/1
f 226/8/1 267/8/1 268/8/1 225/8/1
f 316/8/1 313/8/1 314/8/1 315/8/1
f 217/8/2 225/8/2 316/8/2 315/8/2
f 268/8/4 219/8/4 314/8/4 313/8/4
f 225/8/5 268/8/5 313/8/5 316/8/5
f 318/8/1 319/8/1 320/8/1 317/8/1
f 220/8/4 247/8/4 320/8/4 319/8/4
f 247/8/8 246/8/8 317/8/8 320/8/8
f 246/8/2 218/8/2 318/8/2 317/8/2
