# This file uses centimeters as units for non-parametric coordinates.

mtllib building1.mtl
g default
v -15.025700 0.071272 15.025700
v -15.025700 10.694274 15.025700
v -15.025700 10.694274 -15.025700
v 15.025700 10.694274 -15.025700
v -15.025700 0.071272 -15.025700
v 15.025700 0.071272 -15.025700
v 15.025700 0.071272 9.851804
v 9.851804 0.071272 15.025700
v 15.025700 10.694274 9.851804
v 9.851804 10.694274 15.025700
v -15.025700 14.586327 15.025700
v 9.851804 14.586327 15.025700
v 15.025700 14.586327 9.851804
v 15.025700 14.586327 -15.025700
v -15.025700 14.586327 -15.025700
v -15.025700 25.280584 15.025700
v 9.851804 25.280584 15.025700
v 15.025700 25.280584 9.851804
v 15.025700 25.280584 -15.025700
v -15.025700 25.280584 -15.025700
v -15.025700 28.089537 15.025700
v 9.851804 28.089537 15.025700
v 15.025700 28.089537 9.851804
v 15.025700 28.089537 -15.025700
v -15.025700 28.089537 -15.025700
v -16.108380 25.279775 16.108380
v 10.561677 25.279775 16.108380
v 10.561677 28.090362 16.108380
v -16.108380 28.090362 16.108380
v 16.108380 25.279775 10.561677
v 16.108380 28.090362 10.561677
v 16.108380 25.279775 -16.108380
v 16.108380 28.090362 -16.108380
v -16.108380 25.279775 -16.108380
v -16.108380 28.090362 -16.108380
v -15.025700 10.694274 18.430189
v 11.055474 10.694274 17.931614
v 17.931614 10.694274 11.055474
v 18.430189 10.694274 -15.025700
v 10.644805 14.586327 16.966370
v 11.055474 13.613415 17.931614
v -15.025700 13.613415 18.430189
v -15.025700 14.586327 17.457095
v 16.966370 14.586327 10.644805
v 17.931614 13.613415 11.055474
v 18.430189 13.613415 -15.025700
v 17.457095 14.586327 -15.025700
v 13.655149 0.250129 11.222357
v 11.222354 0.250129 13.655153
v 13.655149 5.644925 11.222357
v 11.222354 5.644925 13.655153
v 13.386771 0.250129 10.953976
v 10.953976 0.250129 13.386774
v 13.386771 5.644925 10.953976
v 10.953976 5.644925 13.386774
vt 0.375000 0.250000
vt 0.581958 0.250000
vt 0.625000 0.293042
vt 0.625000 0.500000
vt 0.375000 0.500000
vt 0.375000 0.500000
vt 0.625000 0.500000
vt 0.625000 0.750000
vt 0.375000 0.750000
vt 0.625000 0.956958
vt 0.581958 1.000000
vt 0.375000 1.000000
vt 0.125000 0.000000
vt 0.375000 0.000000
vt 0.375000 0.250000
vt 0.125000 0.250000
vt 0.581958 0.000000
vt 0.668042 0.000000
vt 0.668042 0.250000
vt 0.581958 0.250000
vt 0.375000 0.500000
vt 0.625000 0.500000
vt 0.375000 0.250000
vt 0.581958 0.250000
vt 0.581958 0.250000
vt 0.375000 0.250000
vt 0.625000 0.293042
vt 0.625000 0.293042
vt 0.625000 0.500000
vt 0.375000 0.500000
vt 0.375000 0.250000
vt 0.581958 0.250000
vt 0.581958 0.250000
vt 0.375000 0.250000
vt 0.625000 0.293042
vt 0.625000 0.293042
vt 0.625000 0.500000
vt 0.625000 0.500000
vt 0.375000 0.500000
vt 0.375000 0.500000
vt 0.581958 0.250000
vt 0.581958 0.250000
vt 0.375000 0.250000
vt 0.375000 0.250000
vt 0.375000 0.250000
vt 0.625000 0.293042
vt 0.625000 0.293042
vt 0.625000 0.500000
vt 0.625000 0.500000
vt 0.625000 0.500000
vt 0.581873 0.250000
vt 0.581958 0.250000
vt 0.625000 0.293042
vt 0.625000 0.293127
vt 0.581958 0.000000
vt 0.668042 0.000000
vt 0.668042 0.000000
vt 0.581958 0.000000
vt 0.668042 0.250000
vt 0.668042 0.250000
vt 0.581958 0.250000
vt 0.000000 0.000000
vt 0.804840 0.000000
vt 0.804840 1.000000
vt 0.000000 1.000000
vt 0.000000 0.000000
vt 0.804840 0.000000
vt 0.804840 1.000000
vt 0.000000 1.000000
vn 0.000000 1.000000 0.000000
vn 0.000000 1.000000 0.000000
vn 0.000000 1.000000 0.000000
vn 0.000000 1.000000 0.000000
vn 0.000000 1.000000 0.000000
vn 0.000000 0.000000 -1.000000
vn 0.000000 0.000000 -1.000000
vn 0.000000 0.000000 -1.000000
vn 0.000000 0.000000 -1.000000
vn 0.000000 -1.000000 0.000000
vn 0.000000 -1.000000 0.000000
vn 0.000000 -1.000000 0.000000
vn 0.000000 -1.000000 0.000000
vn 0.000000 -1.000000 0.000000
vn -1.000000 0.000000 0.000000
vn -1.000000 0.000000 0.000000
vn -1.000000 0.000000 0.000000
vn -1.000000 0.000000 0.000000
vn 0.707107 0.000000 0.707107
vn 0.707107 0.000000 0.707107
vn 0.707107 0.000000 0.707107
vn 0.707107 0.000000 0.707107
vn 0.000000 0.000000 -1.000000
vn 0.000000 0.000000 -1.000000
vn 0.000000 0.000000 -1.000000
vn 0.000000 0.000000 -1.000000
vn -1.000000 0.000000 0.000000
vn -1.000000 0.000000 0.000000
vn -1.000000 0.000000 0.000000
vn -1.000000 0.000000 0.000000
vn 0.000000 0.000000 1.000000
vn 0.000000 0.000000 1.000000
vn 0.000000 0.000000 1.000000
vn 0.000000 0.000000 1.000000
vn 0.707107 0.000000 0.707107
vn 0.707107 0.000000 0.707107
vn 0.707107 0.000000 0.707107
vn 0.707107 0.000000 0.707107
vn 1.000000 0.000000 0.000000
vn 1.000000 0.000000 0.000000
vn 1.000000 0.000000 0.000000
vn 1.000000 0.000000 0.000000
vn 0.000000 0.000000 -1.000000
vn 0.000000 0.000000 -1.000000
vn 0.000000 0.000000 -1.000000
vn 0.000000 0.000000 -1.000000
vn -1.000000 0.000000 0.000000
vn -1.000000 0.000000 0.000000
vn -1.000000 0.000000 0.000000
vn -1.000000 0.000000 0.000000
vn 0.000000 0.000000 1.000000
vn 0.000000 0.000000 1.000000
vn 0.000000 0.000000 1.000000
vn 0.000000 0.000000 1.000000
vn 0.707107 0.000000 0.707107
vn 0.707107 0.000000 0.707107
vn 0.707107 0.000000 0.707107
vn 0.707107 0.000000 0.707107
vn 1.000000 0.000000 0.000000
vn 1.000000 0.000000 0.000000
vn 1.000000 0.000000 0.000000
vn 1.000000 0.000000 0.000000
vn 0.000000 0.000000 -1.000000
vn 0.000000 0.000000 -1.000000
vn 0.000000 0.000000 -1.000000
vn 0.000000 0.000000 -1.000000
vn -1.000000 0.000000 0.000000
vn -1.000000 0.000000 0.000000
vn -1.000000 0.000000 0.000000
vn -1.000000 0.000000 0.000000
vn 0.000000 -1.000000 -0.000746
vn 0.000000 -1.000000 -0.000746
vn 0.000000 -1.000000 -0.000746
vn 0.000000 -1.000000 -0.000746
vn 0.000000 1.000000 -0.000764
vn 0.000000 1.000000 -0.000764
vn 0.000000 1.000000 -0.000764
vn 0.000000 1.000000 -0.000764
vn -0.000451 -1.000000 -0.000451
vn -0.000451 -1.000000 -0.000451
vn -0.000451 -1.000000 -0.000451
vn -0.000451 -1.000000 -0.000451
vn -0.000460 1.000000 -0.000459
vn -0.000460 1.000000 -0.000459
vn -0.000460 1.000000 -0.000459
vn -0.000460 1.000000 -0.000459
vn -0.000747 -1.000000 0.000000
vn -0.000747 -1.000000 0.000000
vn -0.000747 -1.000000 0.000000
vn -0.000747 -1.000000 0.000000
vn -0.000762 1.000000 0.000000
vn -0.000762 1.000000 0.000000
vn -0.000762 1.000000 0.000000
vn -0.000762 1.000000 0.000000
vn 0.000000 -1.000000 0.000746
vn 0.000000 -1.000000 0.000746
vn 0.000000 -1.000000 0.000746
vn 0.000000 -1.000000 0.000746
vn 0.000000 1.000000 0.000763
vn 0.000000 1.000000 0.000763
vn 0.000000 1.000000 0.000763
vn 0.000000 1.000000 0.000763
vn 0.000747 -1.000000 0.000000
vn 0.000747 -1.000000 0.000000
vn 0.000747 -1.000000 0.000000
vn 0.000747 -1.000000 0.000000
vn 0.000762 1.000000 0.000000
vn 0.000762 1.000000 0.000000
vn 0.000762 1.000000 0.000000
vn 0.000762 1.000000 0.000000
vn 0.000000 -1.000000 0.000000
vn 0.000000 -1.000000 0.000000
vn 0.000000 -1.000000 0.000000
vn 0.000000 -1.000000 0.000000
vn -1.000000 0.000000 0.000000
vn -1.000000 0.000000 0.000000
vn -1.000000 0.000000 0.000000
vn -1.000000 0.000000 0.000000
vn -1.000000 0.000000 0.000000
vn 0.000000 -1.000000 0.000000
vn 0.000000 -1.000000 0.000000
vn 0.000000 -1.000000 0.000000
vn 0.000000 -1.000000 0.000000
vn 0.000000 -1.000000 0.000000
vn 0.000000 -1.000000 0.000000
vn 0.000000 -1.000000 0.000000
vn 0.000000 -1.000000 0.000000
vn 0.000000 0.000000 -1.000000
vn 0.000000 0.000000 -1.000000
vn 0.000000 0.000000 -1.000000
vn 0.000000 0.000000 -1.000000
vn 0.000000 0.000000 -1.000000
vn 0.499998 0.707109 0.499999
vn 0.499998 0.707109 0.499999
vn 0.499998 0.707109 0.499999
vn 0.499998 0.707109 0.499999
vn 0.013515 0.707109 0.706976
vn 0.013515 0.707109 0.706976
vn 0.013515 0.707109 0.706976
vn 0.013515 0.707109 0.706976
vn 0.706976 0.707109 0.013515
vn 0.706976 0.707109 0.013515
vn 0.706976 0.707109 0.013515
vn 0.706976 0.707109 0.013515
vn 0.019113 0.000000 0.999817
vn 0.019113 0.000000 0.999817
vn 0.019113 0.000000 0.999817
vn 0.019113 0.000000 0.999817
vn 0.707107 0.000000 0.707107
vn 0.707107 0.000000 0.707107
vn 0.707107 0.000000 0.707107
vn 0.707107 0.000000 0.707107
vn 0.999817 0.000000 0.019113
vn 0.999817 0.000000 0.019113
vn 0.999817 0.000000 0.019113
vn 0.999817 0.000000 0.019113
vn 0.000000 1.000000 0.000000
vn 0.000000 1.000000 -0.000001
vn 0.000000 1.000000 -0.000001
vn 0.000000 1.000000 0.000000
vn 0.000000 1.000000 0.000000
vn 0.000000 1.000000 0.000000
vn 0.000000 1.000000 0.000000
vn 0.000000 1.000000 0.000000
vn 0.000000 1.000000 0.000000
vn 0.000000 1.000000 0.000000
vn 0.000000 1.000000 0.000000
vn 0.000000 1.000000 0.000000
vn 0.707107 0.000000 0.707107
vn 0.707106 0.000000 0.707107
vn 0.707106 0.000000 0.707107
vn 0.707107 0.000000 0.707107
vn 0.707106 0.000000 0.707107
vn 0.707107 0.000000 0.707107
vn 0.707107 0.000000 0.707107
vn 0.707106 0.000000 0.707107
vn 0.707107 0.000000 0.707107
vn 0.707107 0.000000 0.707107
vn 0.707107 0.000000 0.707107
vn 0.707107 0.000000 0.707107
vn 0.707107 0.000000 0.707107
vn 0.707107 0.000000 0.707107
vn 0.707107 0.000000 0.707107
vn 0.707107 0.000000 0.707107
vn 0.000000 1.000000 0.000000
vn 0.000000 1.000000 0.000000
vn 0.000000 1.000000 0.000000
vn 0.000000 1.000000 0.000000
vn -0.707107 0.000000 0.707107
vn -0.707107 0.000000 0.707107
vn -0.707107 0.000000 0.707107
vn -0.707107 0.000000 0.707107
vn 0.000000 -1.000000 0.000000
vn 0.000000 -1.000000 0.000000
vn 0.000000 -1.000000 0.000000
vn 0.000000 -1.000000 0.000000
vn 0.707107 0.000000 -0.707107
vn 0.707107 0.000000 -0.707107
vn 0.707107 0.000000 -0.707107
vn 0.707107 0.000000 -0.707107
vn 1.000000 0.000000 0.000000
vn 1.000000 0.000000 0.000000
vn 1.000000 0.000000 0.000000
vn 1.000000 0.000000 0.000000
vn 0.000000 0.000000 1.000000
vn 0.000000 0.000000 1.000000
vn 0.000000 0.000000 1.000000
vn 0.000000 0.000000 1.000000
s off
g polySurface5 building1:polySurface2
usemtl building1:initialShadingGroup
f 21/1/1 22/2/2 23/3/3 24/4/4 25/5/5
f 3/6/6 4/7/7 6/8/8 5/9/9
f 5/9/10 6/8/11 7/10/12 8/11/13 1/12/14
f 5/13/15 1/14/16 2/15/17 3/16/18
f 53/17/19 52/18/20 54/19/21 55/20/22
f 4/7/23 3/6/24 15/21/25 14/22/26
f 3/6/27 2/15/28 11/23/29 15/21/30
f 11/23/31 12/24/32 17/25/33 16/26/34
f 12/24/35 13/27/36 18/28/37 17/25/38
f 13/27/39 14/22/40 19/29/41 18/28/42
f 14/22/43 15/21/44 20/30/45 19/29/46
f 15/21/47 11/23/48 16/26/49 20/30/50
f 26/31/51 27/32/52 28/33/53 29/34/54
f 27/32/55 30/35/56 31/36/57 28/33/58
f 30/35/59 32/37/60 33/38/61 31/36/62
f 32/37/63 34/39/64 35/40/65 33/38/66
f 34/39/67 26/31/68 29/34/69 35/40/70
f 16/26/71 17/25/72 27/32/73 26/31/74
f 22/2/75 21/1/76 29/34/77 28/33/78
f 17/25/79 18/28/80 30/35/81 27/32/82
f 23/3/83 22/2/84 28/33/85 31/36/86
f 18/28/87 19/29/88 32/37/89 30/35/90
f 24/4/91 23/3/92 31/36/93 33/38/94
f 19/29/95 20/30/96 34/39/97 32/37/98
f 25/5/99 24/4/100 33/38/101 35/40/102
f 20/30/103 16/26/104 26/31/105 34/39/106
f 21/1/107 25/5/108 35/40/109 29/34/110
f 2/15/111 10/41/112 37/42/113 36/43/114
f 11/23/115 2/15/116 36/43/117 42/44/118 43/45/119
f 10/41/120 9/46/121 38/47/122 37/42/123
f 9/46/124 4/7/125 39/48/126 38/47/127
f 4/7/128 14/22/129 47/49/130 46/50/131 39/48/132
f 40/51/133 41/52/134 45/53/135 44/54/136
f 41/52/137 40/51/138 43/45/139 42/44/140
f 44/54/141 45/53/142 46/50/143 47/49/144
f 36/43/145 37/42/146 41/52/147 42/44/148
f 37/42/149 38/47/150 45/53/151 41/52/152
f 38/47/153 39/48/154 46/50/155 45/53/156
f 12/24/157 11/23/158 43/45/159 40/51/160
f 13/27/161 12/24/162 40/51/163 44/54/164
f 14/22/165 13/27/166 44/54/167 47/49/168
f 8/55/169 7/56/170 48/57/171 49/58/172
f 7/56/173 9/59/174 50/60/175 48/57/176
f 9/59/177 10/41/178 51/61/179 50/60/180
f 10/41/181 8/55/182 49/58/183 51/61/184
f 49/58/185 48/57/186 52/18/187 53/17/188
f 48/57/189 50/60/190 54/19/191 52/18/192
f 50/60/193 51/61/194 55/20/195 54/19/196
f 51/61/197 49/58/198 53/17/199 55/20/200
f 9/62/201 7/63/202 6/64/203 4/65/204
f 2/66/205 1/67/206 8/68/207 10/69/208
