# This file uses centimeters as units for non-parametric coordinates.

mtllib deco_trshCan.mtl
g default
v 0.655455 0.007280 -0.476216
v 0.250361 0.007280 -0.770534
v -0.250362 0.007280 -0.770534
v -0.655455 0.007280 -0.476216
v -0.810187 0.007280 0.000000
v -0.655455 0.007280 0.476216
v -0.250361 0.007280 0.770533
v 0.250362 0.007280 0.770533
v 0.655455 0.007280 0.476216
v 0.810187 0.007280 0.000000
v 0.707955 2.136646 -0.514359
v 0.270415 2.136646 -0.832251
v -0.270415 2.136646 -0.832251
v -0.707955 2.136646 -0.514359
v -0.875080 2.136646 0.000000
v -0.707955 2.136646 0.514359
v -0.270415 2.136646 0.832251
v 0.270415 2.136646 0.832251
v 0.707955 2.136646 0.514359
v 0.875080 2.136646 0.000000
v 0.000000 0.007280 0.000000
v 0.826589 2.136646 -0.600552
v 0.315729 2.136646 -0.971714
v -0.315729 2.136646 -0.971714
v -0.826590 2.136646 -0.600552
v -1.021721 2.136646 0.000000
v -0.826589 2.136646 0.600552
v -0.315729 2.136646 0.971714
v 0.315729 2.136646 0.971714
v 0.826589 2.136646 0.600552
v 1.021721 2.136646 0.000000
v 0.787564 2.459851 -0.571520
v 0.300822 2.477063 -0.924739
v -0.300823 2.477063 -0.924739
v -0.787564 2.459851 -0.571520
v -0.973482 2.432001 0.000000
v -0.787564 2.404151 0.571520
v -0.300822 2.386939 0.924739
v 0.300823 2.386939 0.924739
v 0.787564 2.404151 0.571520
v 0.973482 2.432001 0.000000
v 0.405538 2.472446 -0.294208
v 0.134352 2.481308 -0.476200
v -0.134352 2.481308 -0.476200
v -0.405539 2.472446 -0.294208
v -0.501087 2.458115 0.000083
v -0.405238 2.443795 0.294157
v -0.134352 2.434950 0.475796
v 0.134352 2.434951 0.475796
v 0.405238 2.443796 0.294157
v 0.501087 2.458115 0.000083
v 0.298219 2.476909 -0.216347
v 0.134352 2.483425 -0.350202
v -0.000000 2.494134 0.000000
v -0.134352 2.483425 -0.350201
v -0.298219 2.476910 -0.216346
v -0.368441 2.466375 0.000065
v -0.297932 2.455851 0.216269
v -0.134352 2.449351 0.349787
v 0.134352 2.449351 0.349786
v 0.297932 2.455851 0.216269
v 0.368441 2.466375 0.000065
v 0.134352 2.636188 -0.478803
v -0.134352 2.636188 -0.478802
v -0.134352 2.638305 -0.352804
v 0.134352 2.638305 -0.352804
v -0.134352 2.588850 0.493384
v 0.134352 2.588852 0.493384
v 0.134352 2.603252 0.367375
v -0.134352 2.603252 0.367375
v 0.134352 2.783462 -0.481277
v -0.134352 2.783462 -0.481277
v -0.134352 2.785579 -0.355278
v 0.134352 2.785579 -0.355279
v -0.134352 2.735193 0.510109
v 0.134352 2.735194 0.510109
v 0.134352 2.749594 0.384099
v -0.134352 2.749594 0.384100
vt 0.626409 0.064409
vt 0.548284 0.007647
vt 0.451716 0.007647
vt 0.373591 0.064409
vt 0.343750 0.156250
vt 0.373591 0.248091
vt 0.451716 0.304853
vt 0.548284 0.304853
vt 0.626409 0.248091
vt 0.656250 0.156250
vt 0.375000 0.312500
vt 0.400000 0.312500
vt 0.425000 0.312500
vt 0.450000 0.312500
vt 0.475000 0.312500
vt 0.500000 0.312500
vt 0.525000 0.312500
vt 0.550000 0.312500
vt 0.575000 0.312500
vt 0.600000 0.312500
vt 0.625000 0.312500
vt 0.375000 0.688440
vt 0.400000 0.688440
vt 0.425000 0.688440
vt 0.450000 0.688440
vt 0.475000 0.688440
vt 0.500000 0.688440
vt 0.525000 0.688440
vt 0.550000 0.688440
vt 0.575000 0.688440
vt 0.600000 0.688440
vt 0.625000 0.688440
vt 0.626409 0.751909
vt 0.548284 0.695147
vt 0.451716 0.695147
vt 0.373591 0.751909
vt 0.343750 0.843750
vt 0.373591 0.935591
vt 0.451716 0.992353
vt 0.548284 0.992353
vt 0.626409 0.935591
vt 0.656250 0.843750
vt 0.500000 0.150000
vt 0.500000 0.837500
vt 0.626409 0.935591
vt 0.548284 0.992353
vt 0.451716 0.992353
vt 0.373591 0.935591
vt 0.343750 0.843750
vt 0.373591 0.751909
vt 0.451716 0.695147
vt 0.548284 0.695147
vt 0.626409 0.751909
vt 0.656250 0.843750
vt 0.626409 0.935591
vt 0.548284 0.992353
vt 0.451716 0.992353
vt 0.373591 0.935591
vt 0.343750 0.843750
vt 0.373591 0.751909
vt 0.451716 0.695147
vt 0.548284 0.695147
vt 0.626409 0.751909
vt 0.656250 0.843750
vt 0.626409 0.935591
vt 0.548284 0.992353
vt 0.451716 0.992353
vt 0.373591 0.935591
vt 0.343750 0.843750
vt 0.373591 0.751909
vt 0.451716 0.695147
vt 0.548284 0.695147
vt 0.626409 0.751909
vt 0.656250 0.843750
vt 0.626409 0.935591
vt 0.548284 0.992353
vt 0.451716 0.992353
vt 0.373591 0.935591
vt 0.343750 0.843750
vt 0.373591 0.751909
vt 0.451716 0.695147
vt 0.548284 0.695147
vt 0.626409 0.751909
vt 0.656250 0.843750
vt 0.548284 0.992353
vt 0.451716 0.992353
vt 0.451716 0.992353
vt 0.548284 0.992353
vt 0.451716 0.695147
vt 0.548284 0.695147
vt 0.548284 0.695147
vt 0.451716 0.695147
vt 0.548284 0.992353
vt 0.451716 0.992353
vt 0.451716 0.992353
vt 0.548284 0.992353
vt 0.451716 0.695147
vt 0.548284 0.695147
vt 0.548284 0.695147
vt 0.451716 0.695147
vn 0.587539 -0.028972 -0.808677
vn 0.587539 -0.028972 -0.808677
vn 0.587539 -0.028972 -0.808677
vn 0.587539 -0.028972 -0.808677
vn 0.000000 -0.028972 -0.999580
vn 0.000000 -0.028972 -0.999580
vn 0.000000 -0.028972 -0.999580
vn 0.000000 -0.028972 -0.999580
vn -0.587539 -0.028972 -0.808677
vn -0.587539 -0.028972 -0.808677
vn -0.587539 -0.028972 -0.808677
vn -0.587539 -0.028972 -0.808677
vn -0.950657 -0.028972 -0.308887
vn -0.950657 -0.028972 -0.308887
vn -0.950657 -0.028972 -0.308887
vn -0.950657 -0.028972 -0.308887
vn -0.950657 -0.028972 0.308887
vn -0.950657 -0.028972 0.308887
vn -0.950657 -0.028972 0.308887
vn -0.950657 -0.028972 0.308887
vn -0.587539 -0.028972 0.808677
vn -0.587539 -0.028972 0.808677
vn -0.587539 -0.028972 0.808677
vn -0.587539 -0.028972 0.808677
vn 0.000000 -0.028972 0.999580
vn 0.000000 -0.028972 0.999580
vn 0.000000 -0.028972 0.999580
vn 0.000000 -0.028972 0.999580
vn 0.587539 -0.028972 0.808677
vn 0.587539 -0.028972 0.808677
vn 0.587539 -0.028972 0.808677
vn 0.587539 -0.028972 0.808677
vn 0.950657 -0.028972 0.308887
vn 0.950657 -0.028972 0.308887
vn 0.950657 -0.028972 0.308887
vn 0.950657 -0.028972 0.308887
vn 0.950657 -0.028972 -0.308887
vn 0.950657 -0.028972 -0.308887
vn 0.950657 -0.028972 -0.308887
vn 0.950657 -0.028972 -0.308887
vn 0.000000 -1.000000 0.000000
vn 0.000000 -1.000000 0.000000
vn 0.000000 -1.000000 -0.000000
vn 0.000000 -1.000000 0.000000
vn 0.000000 -1.000000 0.000000
vn 0.000000 -1.000000 0.000000
vn 0.000000 -1.000000 -0.000000
vn 0.000000 -1.000000 -0.000000
vn 0.000000 -1.000000 -0.000000
vn 0.000000 -1.000000 -0.000000
vn 0.000000 -1.000000 0.000000
vn 0.057192 0.998326 0.008645
vn 0.030425 0.999390 -0.017144
vn 0.000000 0.998821 0.048537
vn -0.030423 0.999390 -0.017143
vn -0.057192 0.998326 0.008646
vn -0.067773 0.996518 0.048565
vn -0.056982 0.994463 0.088298
vn -0.030224 0.993042 0.113814
vn 0.030223 0.993043 0.113812
vn 0.056982 0.994463 0.088296
vn 0.067773 0.996518 0.048564
vn 0.000000 -1.000000 0.000000
vn 0.000000 -1.000000 0.000000
vn 0.000000 -1.000000 0.000000
vn 0.000000 -1.000000 0.000000
vn 0.000000 -1.000000 -0.000000
vn 0.000000 -1.000000 -0.000000
vn 0.000000 -1.000000 -0.000000
vn 0.000000 -1.000000 -0.000000
vn 0.000000 -1.000000 0.000000
vn 0.000000 -1.000000 0.000000
vn 0.000000 -1.000000 -0.000000
vn 0.000000 -1.000000 -0.000000
vn 0.000000 -1.000000 -0.000000
vn 0.000000 -1.000000 -0.000000
vn 0.000000 -1.000000 0.000000
vn 0.000000 -1.000000 0.000000
vn 0.000000 -1.000000 0.000000
vn 0.000000 -1.000000 0.000000
vn 0.000000 -1.000000 -0.000000
vn 0.000000 -1.000000 -0.000000
vn 0.583423 0.139061 -0.800174
vn 0.583423 0.139061 -0.800174
vn 0.583423 0.139061 -0.800174
vn 0.583423 0.139061 -0.800174
vn 0.000000 0.136697 -0.990613
vn 0.000000 0.136697 -0.990613
vn 0.000000 0.136697 -0.990613
vn 0.000000 0.136697 -0.990613
vn -0.583424 0.139061 -0.800174
vn -0.583423 0.139061 -0.800174
vn -0.583424 0.139061 -0.800174
vn -0.583424 0.139061 -0.800174
vn -0.941687 0.147055 -0.302655
vn -0.941687 0.147055 -0.302655
vn -0.941687 0.147055 -0.302655
vn -0.941687 0.147055 -0.302655
vn -0.937425 0.161254 0.308596
vn -0.937425 0.161254 0.308596
vn -0.937425 0.161254 0.308596
vn -0.937425 0.161254 0.308596
vn -0.576268 0.177136 0.797833
vn -0.576268 0.177136 0.797833
vn -0.576268 0.177136 0.797833
vn -0.576268 0.177136 0.797833
vn 0.000000 0.184460 0.982840
vn 0.000000 0.184460 0.982840
vn 0.000000 0.184460 0.982840
vn 0.000000 0.184460 0.982840
vn 0.576268 0.177136 0.797833
vn 0.576268 0.177136 0.797833
vn 0.576268 0.177136 0.797833
vn 0.576268 0.177136 0.797833
vn 0.937425 0.161253 0.308596
vn 0.937425 0.161253 0.308596
vn 0.937425 0.161253 0.308596
vn 0.937425 0.161253 0.308596
vn 0.941687 0.147055 -0.302655
vn 0.941687 0.147055 -0.302655
vn 0.941687 0.147055 -0.302655
vn 0.941687 0.147055 -0.302655
vn 0.043992 0.998903 0.016060
vn 0.017742 0.999837 -0.003414
vn 0.017651 0.999836 -0.004015
vn 0.044702 0.998882 0.015402
vn -0.017742 0.999837 -0.003415
vn -0.017651 0.999836 -0.004015
vn -0.043993 0.998903 0.016059
vn -0.044702 0.998882 0.015402
vn -0.055140 0.997294 0.048620
vn -0.055829 0.997257 0.048594
vn -0.043847 0.995743 0.081071
vn -0.044577 0.995661 0.081685
vn -0.017639 0.994793 0.100376
vn -0.017574 0.994736 0.100958
vn 0.017639 0.994793 0.100376
vn 0.017574 0.994736 0.100958
vn 0.043848 0.995743 0.081071
vn 0.044578 0.995661 0.081685
vn 0.055140 0.997294 0.048620
vn 0.055829 0.997257 0.048593
vn 0.000001 0.999859 -0.016799
vn 0.000001 0.999859 -0.016799
vn 0.000001 0.999235 0.039107
vn 0.000001 0.999235 0.039107
vn -0.000001 0.993533 0.113544
vn -0.000001 0.993533 0.113544
vn 0.000001 0.998309 0.058125
vn 0.000001 0.998309 0.058125
vn -0.000001 -0.016801 -0.999859
vn -0.000001 -0.016801 -0.999859
vn -0.000002 -0.016800 -0.999859
vn -0.000002 -0.016800 -0.999859
vn -1.000000 0.000000 0.000003
vn -1.000000 0.000000 0.000003
vn -1.000000 0.000000 0.000001
vn -1.000000 0.000000 0.000003
vn 0.000001 0.016801 0.999859
vn 0.000001 0.016801 0.999859
vn 0.000001 0.016801 0.999859
vn 0.000001 0.016801 0.999859
vn 1.000000 0.000000 0.000003
vn 1.000000 0.000000 0.000003
vn 1.000000 0.000000 0.000003
vn 1.000000 -0.000000 0.000001
vn 0.000002 -0.113545 0.993533
vn 0.000002 -0.113545 0.993533
vn 0.000002 -0.113545 0.993533
vn 0.000002 -0.113545 0.993533
vn 1.000000 0.000000 -0.000003
vn 1.000000 0.000000 -0.000003
vn 1.000000 0.000000 -0.000001
vn 1.000000 0.000000 -0.000003
vn -0.000002 0.113545 -0.993533
vn -0.000002 0.113545 -0.993533
vn -0.000002 0.113545 -0.993533
vn -0.000002 0.113545 -0.993533
vn -1.000000 0.000000 -0.000003
vn -1.000000 0.000000 -0.000003
vn -1.000000 0.000000 -0.000003
vn -1.000000 0.000000 -0.000001
vn -0.000002 -0.016800 -0.999859
vn -0.000002 -0.016800 -0.999859
vn -1.000000 0.000000 0.000000
vn -1.000000 0.000000 0.000003
vn 1.000000 0.000000 0.000003
vn 1.000000 -0.000000 0.000000
vn 0.000002 -0.113546 0.993533
vn 0.000002 -0.113546 0.993533
vn 1.000000 -0.000000 -0.000001
vn 1.000000 0.000000 -0.000003
vn -1.000000 0.000000 -0.000003
vn -1.000000 0.000000 -0.000001
vn -0.000001 -0.998818 -0.048616
vn -0.000001 -0.998818 -0.048616
vn -0.000001 -0.998818 -0.048616
vn -0.000001 -0.998818 -0.048616
s off
g pCylinder3
usemtl initialShadingGroup
f 1/11/1 2/12/2 12/23/3 11/22/4
f 2/12/5 3/13/6 13/24/7 12/23/8
f 3/13/9 4/14/10 14/25/11 13/24/12
f 4/14/13 5/15/14 15/26/15 14/25/16
f 5/15/17 6/16/18 16/27/19 15/26/20
f 6/16/21 7/17/22 17/28/23 16/27/24
f 7/17/25 8/18/26 18/29/27 17/28/28
f 8/18/29 9/19/30 19/30/31 18/29/32
f 9/19/33 10/20/34 20/31/35 19/30/36
f 10/20/37 1/21/38 11/32/39 20/31/40
s 1
f 2/2/41 1/1/42 21/43/43
f 3/3/44 2/2/41 21/43/43
f 4/4/45 3/3/44 21/43/43
f 5/5/46 4/4/45 21/43/43
f 6/6/47 5/5/46 21/43/43
f 7/7/48 6/6/47 21/43/43
f 8/8/49 7/7/48 21/43/43
f 9/9/50 8/8/49 21/43/43
f 10/10/51 9/9/50 21/43/43
f 1/1/42 10/10/51 21/43/43
s 2
f 52/75/52 53/76/53 54/44/54
f 53/76/53 55/77/55 54/44/54
f 55/77/55 56/78/56 54/44/54
f 56/78/56 57/79/57 54/44/54
f 57/79/57 58/80/58 54/44/54
f 58/80/58 59/81/59 54/44/54
f 59/81/59 60/82/60 54/44/54
f 60/82/60 61/83/61 54/44/54
f 61/83/61 62/84/62 54/44/54
f 62/84/62 52/75/52 54/44/54
s 3
f 11/41/63 12/40/64 23/46/65 22/45/66
f 12/40/64 13/39/67 24/47/68 23/46/65
f 13/39/67 14/38/69 25/48/70 24/47/68
f 14/38/69 15/37/71 26/49/72 25/48/70
f 15/37/71 16/36/73 27/50/74 26/49/72
f 16/36/73 17/35/75 28/51/76 27/50/74
f 17/35/75 18/34/77 29/52/78 28/51/76
f 18/34/77 19/33/79 30/53/80 29/52/78
f 19/33/79 20/42/81 31/54/82 30/53/80
f 20/42/81 11/41/63 22/45/66 31/54/82
s off
f 22/45/83 23/46/84 33/56/85 32/55/86
f 23/46/87 24/47/88 34/57/89 33/56/90
f 24/47/91 25/48/92 35/58/93 34/57/94
f 25/48/95 26/49/96 36/59/97 35/58/98
f 26/49/99 27/50/100 37/60/101 36/59/102
f 27/50/103 28/51/104 38/61/105 37/60/106
f 28/51/107 29/52/108 39/62/109 38/61/110
f 29/52/111 30/53/112 40/63/113 39/62/114
f 30/53/115 31/54/116 41/64/117 40/63/118
f 31/54/119 22/45/120 32/55/121 41/64/122
s 2
f 32/55/123 33/56/124 43/66/125 42/65/126
f 33/56/124 34/57/127 44/67/128 43/66/125
f 34/57/127 35/58/129 45/68/130 44/67/128
f 35/58/129 36/59/131 46/69/132 45/68/130
f 36/59/131 37/60/133 47/70/134 46/69/132
f 37/60/133 38/61/135 48/71/136 47/70/134
f 38/61/135 39/62/137 49/72/138 48/71/136
f 39/62/137 40/63/139 50/73/140 49/72/138
f 40/63/139 41/64/141 51/74/142 50/73/140
f 41/64/141 32/55/123 42/65/126 51/74/142
f 42/65/126 43/66/125 53/76/53 52/75/52
s 5
f 71/93/143 72/94/144 73/95/145 74/96/146
s 2
f 44/67/128 45/68/130 56/78/56 55/77/55
f 45/68/130 46/69/132 57/79/57 56/78/56
f 46/69/132 47/70/134 58/80/58 57/79/57
f 47/70/134 48/71/136 59/81/59 58/80/58
s 5
f 75/97/147 76/98/148 77/99/149 78/100/150
s 2
f 49/72/138 50/73/140 61/83/61 60/82/60
f 50/73/140 51/74/142 62/84/62 61/83/61
f 51/74/142 42/65/126 52/75/52 62/84/62
s 6
f 43/66/151 44/67/152 64/86/153 63/85/154
s 7
f 44/67/155 55/77/156 65/87/157 64/86/158
s off
f 55/77/159 53/76/160 66/88/161 65/87/162
s 8
f 53/76/163 43/66/164 63/85/165 66/88/166
s 9
f 48/71/167 49/72/168 68/90/169 67/89/170
s 8
f 49/72/171 60/82/172 69/91/173 68/90/174
s off
f 60/82/175 59/81/176 70/92/177 69/91/178
s 7
f 59/81/179 48/71/180 67/89/181 70/92/182
s 6
f 63/85/154 64/86/153 72/94/183 71/93/184
s 7
f 64/86/158 65/87/157 73/95/185 72/94/186
s 8
f 66/88/166 63/85/165 71/93/187 74/96/188
s 9
f 67/89/170 68/90/169 76/98/189 75/97/190
s 8
f 68/90/174 69/91/173 77/99/191 76/98/192
s 7
f 70/92/182 67/89/181 75/97/193 78/100/194
s off
f 69/91/195 70/92/196 65/87/197 66/88/198
s 8
f 77/99/191 69/91/173 66/88/166 74/96/188
s 5
f 78/100/150 77/99/149 74/96/146 73/95/145
s 7
f 65/87/157 70/92/182 78/100/194 73/95/185
