# This file uses centimeters as units for non-parametric coordinates.

mtllib deco_dumpster.mtl
g default
v -4.655680 0.003205 3.130515
v 4.655680 0.003205 3.130515
v -4.655680 4.716276 3.130515
v 4.655680 4.716276 3.130515
v -4.655680 3.429347 -3.130515
v 4.655680 3.429347 -3.130515
v -4.655680 0.003205 -3.130515
v 4.655680 0.003205 -3.130515
v 4.655680 1.265821 -2.824429
v 4.655680 1.265821 2.824429
v 4.655680 2.166731 -2.824429
v 4.655680 2.166731 2.824429
v -4.655680 1.265821 -2.824429
v -4.655680 1.265821 2.824429
v -4.655680 2.166731 2.824429
v -4.655680 2.166731 -2.824429
v 5.000000 1.265821 -2.824429
v 5.000000 1.265821 2.824429
v 5.000000 2.166731 -2.824429
v 5.000000 2.166731 2.824429
v -5.000000 1.265821 -2.824429
v -5.000000 1.265821 2.824429
v -5.000000 2.166731 2.824429
v -5.000000 2.166731 -2.824429
v -4.506362 4.795794 2.876915
v 4.506362 4.795794 2.876915
v 4.506362 4.616682 2.645982
v -4.506362 4.616682 2.645982
v -4.506362 3.834231 -2.947251
v 4.506362 3.834231 -2.947251
v 4.506362 3.697327 -2.924650
v -4.506362 3.697327 -2.924650
vt 0.375000 0.000000
vt 0.625000 0.000000
vt 0.375000 0.250000
vt 0.625000 0.250000
vt 0.375000 0.500000
vt 0.625000 0.500000
vt 0.375000 0.750000
vt 0.625000 0.750000
vt 0.375000 1.000000
vt 0.625000 1.000000
vt 0.875000 0.000000
vt 0.875000 0.250000
vt 0.125000 0.000000
vt 0.125000 0.250000
vt 0.625000 0.000000
vt 0.875000 0.000000
vt 0.875000 0.250000
vt 0.625000 0.250000
vt 0.125000 0.000000
vt 0.375000 0.000000
vt 0.375000 0.250000
vt 0.125000 0.250000
vt 0.625000 0.000000
vt 0.875000 0.000000
vt 0.875000 0.250000
vt 0.625000 0.250000
vt 0.125000 0.000000
vt 0.375000 0.000000
vt 0.375000 0.250000
vt 0.125000 0.250000
vt 0.375000 0.250000
vt 0.625000 0.250000
vt 0.625000 0.500000
vt 0.375000 0.500000
vt 0.375000 0.250000
vt 0.625000 0.250000
vt 0.625000 0.500000
vt 0.375000 0.500000
vn 0.000000 0.000000 1.000000
vn 0.000000 0.000000 1.000000
vn 0.000000 0.000000 1.000000
vn 0.000000 0.000000 1.000000
vn 0.000000 -0.162879 -0.986646
vn 0.000000 -0.162879 -0.986646
vn 0.000000 -0.162879 -0.986646
vn 0.000000 -0.162879 -0.986646
vn 0.000000 0.000000 -1.000000
vn 0.000000 0.000000 -1.000000
vn 0.000000 0.000000 -1.000000
vn 0.000000 0.000000 -1.000000
vn 0.000000 -1.000000 0.000000
vn 0.000000 -1.000000 0.000000
vn 0.000000 -1.000000 0.000000
vn 0.000000 -1.000000 0.000000
vn 1.000000 0.000000 0.000000
vn 1.000000 0.000000 0.000000
vn 1.000000 0.000000 0.000000
vn 1.000000 0.000000 0.000000
vn -1.000000 0.000000 0.000000
vn -1.000000 0.000000 0.000000
vn -1.000000 0.000000 0.000000
vn -1.000000 0.000000 0.000000
vn 1.000000 0.000000 0.000000
vn 1.000000 0.000000 0.000000
vn 1.000000 0.000000 0.000000
vn 1.000000 0.000000 0.000000
vn 1.000000 0.000000 0.000000
vn 1.000000 0.000000 0.000000
vn 1.000000 0.000000 0.000000
vn 1.000000 0.000000 0.000000
vn -1.000000 0.000000 0.000000
vn -1.000000 0.000000 0.000000
vn -1.000000 0.000000 0.000000
vn -1.000000 0.000000 0.000000
vn -1.000000 0.000000 0.000000
vn -1.000000 0.000000 0.000000
vn -1.000000 0.000000 0.000000
vn -1.000000 0.000000 0.000000
vn 0.000000 -1.000000 0.000000
vn 0.000000 -1.000000 0.000000
vn 0.000000 -1.000000 0.000000
vn 0.000000 -1.000000 0.000000
vn 0.000000 0.000000 -1.000000
vn 0.000000 0.000000 -1.000000
vn 0.000000 0.000000 -1.000000
vn 0.000000 0.000000 -1.000000
vn 0.000000 1.000000 0.000000
vn 0.000000 1.000000 0.000000
vn 0.000000 1.000000 0.000000
vn 0.000000 1.000000 0.000000
vn 0.000000 0.000000 1.000000
vn 0.000000 0.000000 1.000000
vn 0.000000 0.000000 1.000000
vn 0.000000 0.000000 1.000000
vn 0.000000 -1.000000 0.000000
vn 0.000000 -1.000000 0.000000
vn 0.000000 -1.000000 0.000000
vn 0.000000 -1.000000 0.000000
vn 0.000000 0.000000 1.000000
vn 0.000000 0.000000 1.000000
vn 0.000000 0.000000 1.000000
vn 0.000000 0.000000 1.000000
vn 0.000000 1.000000 0.000000
vn 0.000000 1.000000 0.000000
vn 0.000000 1.000000 0.000000
vn 0.000000 1.000000 0.000000
vn 0.000000 0.000000 -1.000000
vn 0.000000 0.000000 -1.000000
vn 0.000000 0.000000 -1.000000
vn 0.000000 0.000000 -1.000000
vn -0.008801 0.959726 0.280799
vn 0.008801 0.959726 0.280799
vn 0.011380 0.956024 0.293066
vn -0.011380 0.956024 0.293066
vn 0.000000 0.979522 -0.201337
vn 0.000228 0.979508 -0.201404
vn -0.000000 0.979522 -0.201337
vn -0.000228 0.979508 -0.201404
vn 0.000000 0.986644 -0.162894
vn 0.000000 0.986644 -0.162894
vn 0.000000 0.986644 -0.162894
vn 0.000000 0.986644 -0.162894
vn 1.000000 0.000000 0.000000
vn 1.000000 0.000000 0.000000
vn 1.000000 0.000000 0.000000
vn 1.000000 0.000000 0.000000
vn 0.000000 -0.986654 0.162833
vn 0.000000 -0.986654 0.162833
vn 0.000000 -0.986654 0.162833
vn 0.000000 -0.986654 0.162833
vn -1.000000 0.000000 0.000000
vn -1.000000 0.000000 0.000000
vn -1.000000 0.000000 0.000000
vn -1.000000 0.000000 0.000000
s off
g pCube19
usemtl initialShadingGroup
f 1/1/1 2/2/2 4/4/3 3/3/4
f 29/35/5 30/36/6 31/37/7 32/38/8
f 5/5/9 6/6/10 8/8/11 7/7/12
f 7/7/13 8/8/14 2/10/15 1/9/16
f 18/23/17 17/24/18 19/25/19 20/26/20
f 21/27/21 22/28/22 23/29/23 24/30/24
s 1
f 2/2/25 8/11/26 9/16/27 10/15/28
f 8/11/26 6/12/29 11/17/30 9/16/27
f 6/12/29 4/4/31 12/18/32 11/17/30
f 4/4/31 2/2/25 10/15/28 12/18/32
s 2
f 7/13/33 1/1/34 14/20/35 13/19/36
f 1/1/34 3/3/37 15/21/38 14/20/35
f 3/3/37 5/14/39 16/22/40 15/21/38
f 5/14/39 7/13/33 13/19/36 16/22/40
s off
f 10/15/41 9/16/42 17/24/43 18/23/44
f 9/16/45 11/17/46 19/25/47 17/24/48
f 11/17/49 12/18/50 20/26/51 19/25/52
f 12/18/53 10/15/54 18/23/55 20/26/56
f 13/19/57 14/20/58 22/28/59 21/27/60
f 14/20/61 15/21/62 23/29/63 22/28/64
f 15/21/65 16/22/66 24/30/67 23/29/68
f 16/22/69 13/19/70 21/27/71 24/30/72
s 3
f 3/3/73 4/4/74 26/32/75 25/31/76
f 4/4/74 6/6/77 27/33/78
f 6/6/77 5/5/79 28/34/80 27/33/78
f 28/34/80 3/3/73 25/31/76
s off
f 25/31/81 26/32/82 30/36/83 29/35/84
f 26/32/85 27/33/86 31/37/87 30/36/88
f 27/33/89 28/34/90 32/38/91 31/37/92
f 28/34/93 25/31/94 29/35/95 32/38/96
s 3
f 5/5/79 3/3/73 28/34/80
f 4/4/74 27/33/78 26/32/75
