# This file uses centimeters as units for non-parametric coordinates.

mtllib lampost.mtl
g lampost:default1
v -0.500000 0.004962 0.500000
v 0.500000 0.004962 0.500000
v -0.453173 2.553411 0.453173
v 0.453173 2.553411 0.453173
v -0.453173 2.553411 -0.453173
v 0.453173 2.553411 -0.453173
v -0.500000 0.004962 -0.500000
v 0.500000 0.004962 -0.500000
v -0.302787 2.553411 0.302787
v 0.302787 2.553411 0.302787
v 0.302787 2.553411 -0.302787
v -0.302787 2.553411 -0.302787
v -0.302787 18.865044 0.302787
v 0.302787 18.865044 0.302787
v 0.302787 18.865044 -0.302787
v -0.302787 18.865044 -0.302787
v -0.393624 18.865044 0.393624
v 0.393624 18.865044 0.393624
v 0.393624 18.865044 -0.393624
v -0.393624 18.865044 -0.393624
v -0.393624 20.212662 0.393624
v 0.393624 20.212662 0.393624
v 0.393624 20.212662 -0.393624
v -0.393624 20.212662 -0.393624
v -0.393624 19.281158 0.251919
v -0.393624 19.281158 -0.251919
v -0.393624 19.796543 0.251919
v -0.393624 19.796543 -0.251919
v -6.861730 19.969069 0.251919
v -6.861730 19.969069 -0.251919
v -6.861730 20.484453 0.251919
v -6.861730 20.484453 -0.251919
v -7.531794 19.930326 0.365283
v -7.531794 19.930326 -0.365283
v -7.531794 20.677633 0.365283
v -7.531794 20.677633 -0.365283
v -10.617746 19.930326 0.365283
v -10.617746 19.930326 -0.365283
v -10.617746 20.677633 0.365283
v -10.617746 20.677633 -0.365283
v -10.848101 19.930326 0.212122
v -10.848101 19.930326 -0.212122
v -10.848101 20.497684 0.212122
v -10.848101 20.497684 -0.212122
v -4.371238 19.969069 0.251919
v -4.371238 19.969069 -0.251919
v -4.371238 20.484453 0.251919
v -4.371238 20.484453 -0.251919
vt 0.375000 0.000000
vt 0.625000 0.000000
vt 0.625000 0.250000
vt 0.375000 0.250000
vt 0.375000 0.250000
vt 0.625000 0.250000
vt 0.625000 0.500000
vt 0.375000 0.500000
vt 0.375000 0.500000
vt 0.625000 0.500000
vt 0.625000 0.750000
vt 0.375000 0.750000
vt 0.625000 1.000000
vt 0.375000 1.000000
vt 0.875000 0.000000
vt 0.875000 0.250000
vt 0.125000 0.000000
vt 0.125000 0.250000
vt 0.625000 0.250000
vt 0.375000 0.250000
vt 0.625000 0.500000
vt 0.375000 0.500000
vt 0.625000 0.250000
vt 0.375000 0.250000
vt 0.625000 0.500000
vt 0.375000 0.500000
vt 0.625000 0.250000
vt 0.375000 0.250000
vt 0.625000 0.500000
vt 0.375000 0.500000
vt 0.375000 0.500000
vt 0.375000 0.250000
vt 0.375000 0.250000
vt 0.375000 0.500000
vt 0.375000 0.250000
vt 0.375000 0.500000
vt 0.375000 0.250000
vt 0.375000 0.500000
vt 0.375000 0.250000
vt 0.375000 0.500000
vt 0.375000 0.250000
vt 0.375000 0.500000
vt 0.375000 0.500000
vt 0.375000 0.250000
vt 0.375000 0.250000
vt 0.375000 0.500000
vt 0.375000 0.250000
vt 0.375000 0.250000
vt 0.375000 0.500000
vt 0.375000 0.500000
vt 0.375000 0.250000
vt 0.375000 0.500000
vt 0.375000 0.250000
vt 0.375000 0.500000
vn 0.000000 0.018371 0.999831
vn 0.000000 0.018371 0.999831
vn 0.000000 0.018371 0.999831
vn 0.000000 0.018371 0.999831
vn 0.000000 1.000000 0.000000
vn 0.000000 1.000000 0.000000
vn 0.000000 1.000000 0.000000
vn 0.000000 1.000000 0.000000
vn 0.000000 0.018371 -0.999831
vn 0.000000 0.018371 -0.999831
vn 0.000000 0.018371 -0.999831
vn 0.000000 0.018371 -0.999831
vn 0.000000 -1.000000 0.000000
vn 0.000000 -1.000000 0.000000
vn 0.000000 -1.000000 0.000000
vn 0.000000 -1.000000 0.000000
vn 0.999831 0.018371 0.000000
vn 0.999831 0.018371 0.000000
vn 0.999831 0.018371 0.000000
vn 0.999831 0.018371 0.000000
vn -0.999831 0.018371 0.000000
vn -0.999831 0.018371 0.000000
vn -0.999831 0.018371 0.000000
vn -0.999831 0.018371 0.000000
vn 0.000000 1.000000 0.000000
vn 0.000000 1.000000 0.000000
vn 0.000000 1.000000 0.000000
vn 0.000000 1.000000 0.000000
vn 0.000000 1.000000 0.000000
vn 0.000000 1.000000 0.000000
vn 0.000000 1.000000 0.000000
vn 0.000000 1.000000 0.000000
vn 0.000000 1.000000 0.000000
vn 0.000000 1.000000 0.000000
vn 0.000000 1.000000 0.000000
vn 0.000000 1.000000 0.000000
vn 0.000000 1.000000 0.000000
vn 0.000000 1.000000 0.000000
vn 0.000000 1.000000 0.000000
vn 0.000000 1.000000 0.000000
vn 0.000000 0.000000 1.000000
vn 0.000000 0.000000 1.000000
vn 0.000000 0.000000 1.000000
vn 0.000000 0.000000 1.000000
vn 1.000000 0.000000 0.000000
vn 1.000000 0.000000 0.000000
vn 1.000000 0.000000 0.000000
vn 1.000000 0.000000 0.000000
vn 0.000000 0.000000 -1.000000
vn 0.000000 0.000000 -1.000000
vn 0.000000 0.000000 -1.000000
vn 0.000000 0.000000 -1.000000
vn -1.000000 0.000000 0.000000
vn -1.000000 0.000000 0.000000
vn -1.000000 0.000000 0.000000
vn -1.000000 0.000000 0.000000
vn 0.000000 -1.000000 0.000003
vn 0.000000 -1.000000 0.000003
vn 0.000000 -1.000000 0.000003
vn 0.000000 -1.000000 0.000003
vn 0.000000 -1.000000 0.000003
vn 0.000000 -1.000000 -0.000003
vn 0.000000 -1.000000 -0.000003
vn 0.000000 -1.000000 0.000003
vn 0.000000 -1.000000 -0.000003
vn 0.000000 -1.000000 -0.000003
vn 0.000000 -1.000000 -0.000003
vn 0.000000 -1.000000 -0.000003
vn 0.000000 -1.000000 -0.000003
vn 0.000000 -1.000000 0.000003
vn 0.000000 -1.000000 0.000003
vn 0.000000 -1.000000 -0.000003
vn 0.000000 0.000000 1.000000
vn 0.000000 0.000000 1.000000
vn 0.000000 0.000000 1.000000
vn 0.000000 0.000000 1.000000
vn 1.000000 0.000000 0.000000
vn 1.000000 0.000000 0.000000
vn 1.000000 0.000000 0.000000
vn 1.000000 0.000000 0.000000
vn 0.000000 0.000000 -1.000000
vn 0.000000 0.000000 -1.000000
vn 0.000000 0.000000 -1.000000
vn 0.000000 0.000000 -1.000000
vn -1.000000 0.000000 0.000000
vn -1.000000 0.000000 0.000000
vn -1.000000 0.000000 0.000000
vn -1.000000 0.000000 0.000000
vn -1.000000 0.000000 0.000000
vn -1.000000 0.000000 0.000000
vn -1.000000 0.000000 0.000000
vn -1.000000 0.000000 0.000000
vn -1.000000 0.000000 0.000000
vn -1.000000 0.000000 0.000000
vn -1.000000 0.000000 0.000000
vn -1.000000 0.000000 0.000000
vn -1.000000 0.000000 0.000000
vn -1.000000 0.000000 0.000000
vn -1.000000 0.000000 0.000000
vn -1.000000 0.000000 0.000000
vn -1.000000 0.000000 0.000000
vn -1.000000 0.000000 0.000000
vn -1.000000 0.000000 0.000000
vn -1.000000 0.000000 0.000000
vn -0.170416 -0.985372 0.000000
vn -0.170416 -0.985372 0.000000
vn -0.105758 -0.994392 0.000000
vn -0.105758 -0.994392 0.000000
vn 0.000000 0.000000 1.000000
vn 0.000000 0.000000 1.000000
vn 0.000000 0.000000 1.000000
vn 0.000000 0.000000 1.000000
vn 0.170416 0.985372 0.000000
vn 0.170416 0.985372 0.000000
vn 0.105758 0.994392 0.000000
vn 0.105758 0.994392 0.000000
vn 0.000000 0.000000 -1.000000
vn 0.000000 0.000000 -1.000000
vn 0.000000 0.000000 -1.000000
vn 0.000000 0.000000 -1.000000
vn 0.057722 -0.998333 0.000000
vn 0.057722 -0.998333 0.000000
vn 0.057722 -0.998333 0.000000
vn 0.057722 -0.998333 0.000000
vn 0.166813 0.000000 0.985989
vn 0.166813 0.000000 0.985989
vn 0.166813 0.000000 0.985989
vn 0.166813 0.000000 0.985989
vn 0.277018 0.960865 0.000000
vn 0.277018 0.960865 0.000000
vn 0.277018 0.960865 0.000000
vn 0.277018 0.960865 0.000000
vn 0.166813 0.000000 -0.985989
vn 0.166813 0.000000 -0.985989
vn 0.166813 0.000000 -0.985989
vn 0.166813 0.000000 -0.985989
vn 0.000000 -1.000000 0.000000
vn 0.000000 -1.000000 0.000000
vn 0.000000 -1.000000 0.000000
vn 0.000000 -1.000000 0.000000
vn 0.000000 0.000000 1.000000
vn 0.000000 0.000000 1.000000
vn 0.000000 0.000000 1.000000
vn 0.000000 0.000000 1.000000
vn 0.000000 1.000000 0.000000
vn 0.000000 1.000000 0.000000
vn -0.030659 0.999530 0.000000
vn -0.030659 0.999530 0.000000
vn 0.000000 0.000000 -1.000000
vn 0.000000 0.000000 -1.000000
vn 0.000000 0.000000 -1.000000
vn 0.000000 0.000000 -1.000000
vn 0.000000 -1.000000 0.000000
vn 0.000000 -1.000000 0.000000
vn 0.000000 -1.000000 0.000000
vn 0.000000 -1.000000 0.000000
vn -0.553678 0.000000 0.832731
vn -0.553678 0.000000 0.832731
vn -0.553678 0.000000 0.832731
vn -0.553678 0.000000 0.832731
vn -0.030659 0.999530 0.000000
vn -0.030659 0.999530 0.000000
vn -0.615612 0.788050 0.000000
vn -0.615612 0.788050 0.000000
vn -0.553678 0.000000 -0.832731
vn -0.553678 0.000000 -0.832731
vn -0.553678 0.000000 -0.832731
vn -0.553678 0.000000 -0.832731
vn -0.105758 -0.994392 0.000000
vn -0.105758 -0.994392 0.000000
vn 0.000000 -1.000000 0.000000
vn 0.000000 -1.000000 0.000000
vn 0.000000 0.000000 1.000000
vn 0.000000 0.000000 1.000000
vn 0.000000 0.000000 1.000000
vn 0.000000 0.000000 1.000000
vn 0.105758 0.994392 0.000000
vn 0.105758 0.994392 0.000000
vn 0.000000 1.000000 0.000000
vn 0.000000 1.000000 0.000000
vn 0.000000 0.000000 -1.000000
vn 0.000000 0.000000 -1.000000
vn 0.000000 0.000000 -1.000000
vn 0.000000 0.000000 -1.000000
s off
g lampost:pCube8 lampost:polySurface2 lampost:polySurface1
usemtl lampost:initialShadingGroup
f 1/1/1 2/2/2 4/3/3 3/4/4
f 21/5/5 22/6/6 23/7/7 24/8/8
f 5/9/9 6/10/10 8/11/11 7/12/12
f 7/12/13 8/11/14 2/13/15 1/14/16
f 2/2/17 8/15/18 6/16/19 4/3/20
f 7/17/21 1/1/22 3/4/23 5/18/24
f 3/4/25 4/3/26 10/19/27 9/20/28
f 4/3/29 6/10/30 11/21/31 10/19/32
f 6/10/33 5/9/34 12/22/35 11/21/36
f 5/9/37 3/4/38 9/20/39 12/22/40
f 9/20/41 10/19/42 14/23/43 13/24/44
f 10/19/45 11/21/46 15/25/47 14/23/48
f 11/21/49 12/22/50 16/26/51 15/25/52
f 12/22/53 9/20/54 13/24/55 16/26/56
f 13/24/57 14/23/58 18/27/59 17/28/60
f 14/23/61 15/25/62 19/29/63 18/27/64
f 15/25/65 16/26/66 20/30/67 19/29/68
f 16/26/69 13/24/70 17/28/71 20/30/72
f 17/28/73 18/27/74 22/6/75 21/5/76
f 18/27/77 19/29/78 23/7/79 22/6/80
f 19/29/81 20/30/82 24/8/83 23/7/84
f 42/31/85 41/32/86 43/33/87 44/34/88
f 20/30/89 17/28/90 25/35/91 26/36/92
f 17/28/93 21/5/94 27/37/95 25/35/96
f 21/5/97 24/8/98 28/38/99 27/37/100
f 24/8/101 20/30/102 26/36/103 28/38/104
f 26/36/105 25/35/106 45/39/107 46/40/108
f 25/35/109 27/37/110 47/41/111 45/39/112
f 27/37/113 28/38/114 48/42/115 47/41/116
f 28/38/117 26/36/118 46/40/119 48/42/120
f 30/43/121 29/44/122 33/45/123 34/46/124
f 29/44/125 31/47/126 35/48/127 33/45/128
f 31/47/129 32/49/130 36/50/131 35/48/132
f 32/49/133 30/43/134 34/46/135 36/50/136
f 34/46/137 33/45/138 37/51/139 38/52/140
f 33/45/141 35/48/142 39/53/143 37/51/144
f 35/48/145 36/50/146 40/54/147 39/53/148
f 36/50/149 34/46/150 38/52/151 40/54/152
f 38/52/153 37/51/154 41/32/155 42/31/156
f 37/51/157 39/53/158 43/33/159 41/32/160
f 39/53/161 40/54/162 44/34/163 43/33/164
f 40/54/165 38/52/166 42/31/167 44/34/168
f 46/40/169 45/39/170 29/44/171 30/43/172
f 45/39/173 47/41/174 31/47/175 29/44/176
f 47/41/177 48/42/178 32/49/179 31/47/180
f 48/42/181 46/40/182 30/43/183 32/49/184
