# This file uses centimeters as units for non-parametric coordinates.

mtllib deco_sewrGrate.mtl
g default
v 2.660557 2.198847 -0.978989
v 2.660557 1.610555 -1.788703
v 2.660557 0.743784 -2.289134
v 2.660557 -0.251593 -2.393752
v 2.660557 -1.203470 -2.084470
v 2.660557 -1.947253 -1.414763
v 2.660557 -2.354341 -0.500431
v 2.660557 -2.354341 0.500430
v 2.660557 -1.947254 1.414763
v 2.660557 -1.203470 2.084469
v 2.660557 -0.251593 2.393752
v 2.660557 0.743784 2.289134
v 2.660557 1.610555 1.788704
v 2.660557 2.198847 0.978990
v 2.660557 2.406938 0.000000
v -2.660557 2.198847 -0.978989
v -2.660557 1.610555 -1.788703
v -2.660557 0.743784 -2.289134
v -2.660557 -0.251593 -2.393752
v -2.660557 -1.203470 -2.084470
v -2.660557 -1.947253 -1.414763
v -2.660557 -2.354341 -0.500431
v -2.660557 -2.354341 0.500430
v -2.660557 -1.947254 1.414763
v -2.660557 -1.203470 2.084469
v -2.660557 -0.251593 2.393752
v -2.660557 0.743784 2.289134
v -2.660557 1.610555 1.788704
v -2.660557 2.198847 0.978990
v -2.660557 2.406938 0.000000
v -2.660557 1.812490 -0.806973
v -2.660557 1.327568 -1.474412
v -2.660557 0.613096 -1.886914
v -2.660557 -0.207387 -1.973150
v -2.660557 -0.992010 -1.718211
v -2.660557 -1.605105 -1.166177
v -2.660557 -1.940663 -0.412501
v -2.660557 -1.940663 0.412500
v -2.660557 -1.605107 1.166176
v -2.660557 -0.992010 1.718210
v -2.660557 -0.207387 1.973150
v -2.660557 0.613096 1.886914
v -2.660557 1.327568 1.474413
v -2.660557 1.812490 0.806973
v -2.660557 1.984018 0.000000
v -0.402937 1.812490 -0.806973
v -0.402937 1.327568 -1.474412
v -0.402938 -0.000000 0.000000
v -0.402937 0.613095 -1.886914
v -0.402937 -0.207387 -1.973150
v -0.402937 -0.992010 -1.718211
v -0.402937 -1.605105 -1.166177
v -0.402937 -1.940663 -0.412501
v -0.402937 -1.940663 0.412500
v -0.402937 -1.605107 1.166176
v -0.402937 -0.992010 1.718210
v -0.402937 -0.207387 1.973150
v -0.402937 0.613097 1.886914
v -0.402937 1.327568 1.474413
v -0.402937 1.812490 0.806973
v -0.402937 1.984018 0.000000
v -2.148700 -1.911098 1.000000
v -1.851300 -1.911098 1.148700
v -2.148700 1.911098 1.000000
v -1.851300 1.911098 1.148700
v -1.851300 1.911098 0.851300
v -1.851300 -1.911098 0.851300
v -2.148700 -2.210718 0.000000
v -1.851300 -2.210718 0.148700
v -2.148700 2.210718 0.000000
v -1.851300 2.210718 0.148700
v -1.851300 2.210718 -0.148700
v -1.851300 -2.210718 -0.148700
v -2.148700 -1.911098 -1.000000
v -1.851300 -1.911098 -0.851300
v -2.148700 1.911098 -1.000000
v -1.851300 1.911098 -0.851300
v -1.851300 1.911098 -1.148700
v -1.851300 -1.911098 -1.148700
v -2.218848 0.000000 -2.210718
v -1.921447 -0.148700 -2.210718
v -2.218848 -0.000000 2.210718
v -1.921447 -0.148700 2.210718
v -1.921447 0.148700 2.210718
v -1.921447 0.148700 -2.210718
vt 0.375000 0.312500
vt 0.391667 0.312500
vt 0.408333 0.312500
vt 0.425000 0.312500
vt 0.441667 0.312500
vt 0.458333 0.312500
vt 0.475000 0.312500
vt 0.491667 0.312500
vt 0.508333 0.312500
vt 0.525000 0.312500
vt 0.541667 0.312500
vt 0.558333 0.312500
vt 0.575000 0.312500
vt 0.591667 0.312500
vt 0.608333 0.312500
vt 0.625000 0.312500
vt 0.375000 0.688440
vt 0.391667 0.688440
vt 0.408333 0.688440
vt 0.425000 0.688440
vt 0.441667 0.688440
vt 0.458333 0.688440
vt 0.475000 0.688440
vt 0.491667 0.688440
vt 0.508333 0.688440
vt 0.525000 0.688440
vt 0.541667 0.688440
vt 0.558333 0.688440
vt 0.575000 0.688440
vt 0.591667 0.688440
vt 0.608333 0.688440
vt 0.625000 0.688440
vt 0.642741 0.780197
vt 0.604552 0.727634
vt 0.548284 0.695147
vt 0.483667 0.688356
vt 0.421875 0.708434
vt 0.373591 0.751909
vt 0.347164 0.811264
vt 0.347164 0.876236
vt 0.373591 0.935591
vt 0.421875 0.979066
vt 0.483667 0.999144
vt 0.548284 0.992353
vt 0.604552 0.959866
vt 0.642741 0.907303
vt 0.656250 0.843750
vt 0.500000 0.837500
vt 0.642741 0.907303
vt 0.604552 0.959866
vt 0.548284 0.992353
vt 0.483667 0.999144
vt 0.421875 0.979066
vt 0.373591 0.935591
vt 0.347164 0.876236
vt 0.347164 0.811264
vt 0.373591 0.751909
vt 0.421875 0.708434
vt 0.483667 0.688356
vt 0.548284 0.695147
vt 0.604552 0.727634
vt 0.642741 0.780197
vt 0.656250 0.843750
vt 0.642741 0.907303
vt 0.604552 0.959866
vt 0.548284 0.992353
vt 0.483667 0.999144
vt 0.421875 0.979066
vt 0.373591 0.935591
vt 0.347164 0.876236
vt 0.347164 0.811264
vt 0.373591 0.751909
vt 0.421875 0.708434
vt 0.483667 0.688356
vt 0.548284 0.695147
vt 0.604552 0.727634
vt 0.642741 0.780197
vt 0.656250 0.843750
vt 0.250000 0.000000
vt 0.625000 0.000000
vt 0.625000 0.250000
vt 0.291667 0.333333
vt 0.625000 0.500000
vt 0.625000 0.750000
vt 0.375000 0.875000
vt 0.625000 1.000000
vt 0.875000 0.000000
vt 0.875000 0.250000
vt 0.250000 0.000000
vt 0.625000 0.000000
vt 0.625000 0.250000
vt 0.291667 0.333333
vt 0.625000 0.500000
vt 0.625000 0.750000
vt 0.375000 0.875000
vt 0.625000 1.000000
vt 0.875000 0.000000
vt 0.875000 0.250000
vt 0.250000 0.000000
vt 0.625000 0.000000
vt 0.625000 0.250000
vt 0.291667 0.333333
vt 0.625000 0.500000
vt 0.625000 0.750000
vt 0.375000 0.875000
vt 0.625000 1.000000
vt 0.875000 0.000000
vt 0.875000 0.250000
vt 0.250000 0.000000
vt 0.625000 0.000000
vt 0.625000 0.250000
vt 0.291667 0.333333
vt 0.625000 0.500000
vt 0.625000 0.750000
vt 0.375000 0.875000
vt 0.625000 1.000000
vt 0.875000 0.000000
vt 0.875000 0.250000
vn 0.000000 0.913545 -0.406737
vn 0.000000 0.669131 -0.743145
vn 0.000000 0.669131 -0.743145
vn 0.000000 0.913545 -0.406737
vn 0.000000 0.309017 -0.951057
vn 0.000000 0.309017 -0.951057
vn 0.000000 -0.104528 -0.994522
vn 0.000000 -0.104528 -0.994522
vn 0.000000 -0.500000 -0.866025
vn 0.000000 -0.500000 -0.866025
vn 0.000000 -0.809017 -0.587785
vn 0.000000 -0.809017 -0.587785
vn 0.000000 -0.978148 -0.207912
vn 0.000000 -0.978148 -0.207912
vn 0.000000 -0.978148 0.207911
vn 0.000000 -0.978148 0.207911
vn 0.000000 -0.809017 0.587785
vn 0.000000 -0.809017 0.587785
vn 0.000000 -0.500000 0.866026
vn 0.000000 -0.500000 0.866026
vn 0.000000 -0.104529 0.994522
vn 0.000000 -0.104529 0.994522
vn 0.000000 0.309017 0.951057
vn 0.000000 0.309017 0.951057
vn 0.000000 0.669131 0.743145
vn 0.000000 0.669131 0.743145
vn 0.000000 0.913545 0.406737
vn 0.000000 0.913545 0.406737
vn 0.000000 1.000000 0.000000
vn 0.000000 1.000000 0.000000
vn -1.000000 0.000000 -0.000000
vn -1.000000 0.000000 -0.000000
vn -1.000000 -0.000000 0.000000
vn -1.000000 0.000000 -0.000000
vn -1.000000 -0.000000 -0.000000
vn -1.000000 -0.000000 -0.000000
vn -1.000000 -0.000000 -0.000000
vn -1.000000 -0.000000 -0.000000
vn -1.000000 -0.000000 0.000000
vn -1.000000 -0.000000 0.000000
vn -1.000000 -0.000000 0.000000
vn -1.000000 -0.000000 0.000000
vn -1.000000 0.000000 0.000000
vn -1.000000 0.000000 0.000000
vn -1.000000 0.000000 0.000000
vn -1.000000 0.000000 0.000000
vn -1.000000 0.000000 0.000000
vn -1.000000 -0.000000 0.000000
vn -1.000000 -0.000000 0.000000
vn -1.000000 0.000000 0.000000
vn -1.000000 -0.000000 0.000000
vn -1.000000 -0.000000 0.000000
vn -1.000000 -0.000000 0.000000
vn -1.000000 -0.000000 0.000000
vn -1.000000 -0.000000 0.000000
vn -1.000000 -0.000000 0.000000
vn -1.000000 0.000000 0.000000
vn -1.000000 0.000000 0.000000
vn -1.000000 0.000000 0.000000
vn -1.000000 0.000000 0.000000
vn -1.000000 0.000000 0.000000
vn -1.000000 0.000000 0.000000
vn -1.000000 -0.000000 0.000000
vn -1.000000 0.000000 0.000000
vn -1.000000 -0.000000 0.000000
vn -1.000000 -0.000000 0.000000
vn -1.000000 -0.000000 0.000000
vn -1.000000 -0.000000 0.000000
vn -1.000000 0.000000 0.000000
vn -1.000000 0.000000 0.000000
vn -1.000000 0.000000 0.000000
vn -1.000000 -0.000000 0.000000
vn -1.000000 -0.000000 0.000000
vn -1.000000 -0.000000 0.000000
vn -1.000000 0.000000 0.000000
vn -1.000000 0.000000 0.000000
vn 0.000000 -0.913546 0.406736
vn -0.000000 -0.669131 0.743145
vn -0.000000 -0.669131 0.743145
vn 0.000000 -0.913546 0.406736
vn -0.000000 -0.309017 0.951057
vn -0.000000 -0.309017 0.951057
vn -0.000000 0.104528 0.994522
vn -0.000000 0.104528 0.994522
vn 0.000000 0.500000 0.866025
vn 0.000000 0.500000 0.866025
vn 0.000000 0.809017 0.587785
vn 0.000000 0.809017 0.587785
vn 0.000000 0.978148 0.207912
vn 0.000000 0.978148 0.207912
vn 0.000000 0.978148 -0.207910
vn 0.000000 0.978148 -0.207910
vn 0.000000 0.809017 -0.587785
vn 0.000000 0.809017 -0.587785
vn 0.000000 0.500000 -0.866025
vn 0.000000 0.500000 -0.866025
vn 0.000000 0.104529 -0.994522
vn 0.000000 0.104529 -0.994522
vn 0.000000 -0.309017 -0.951057
vn 0.000000 -0.309017 -0.951057
vn 0.000000 -0.669131 -0.743144
vn 0.000000 -0.669131 -0.743144
vn 0.000000 -0.913546 -0.406736
vn 0.000000 -0.913546 -0.406736
vn 0.000000 -1.000000 -0.000000
vn 0.000000 -1.000000 -0.000000
vn -0.447214 0.000000 0.894427
vn -0.447214 0.000000 0.894427
vn -0.447214 0.000000 0.894427
vn -0.447214 0.000000 0.894427
vn 0.000000 1.000000 0.000000
vn 0.000000 1.000000 0.000000
vn 0.000000 1.000000 0.000000
vn -0.447214 0.000000 -0.894427
vn -0.447214 0.000000 -0.894427
vn -0.447214 0.000000 -0.894427
vn -0.447214 0.000000 -0.894427
vn 0.000000 -1.000000 0.000000
vn 0.000000 -1.000000 0.000000
vn 0.000000 -1.000000 0.000000
vn 1.000000 0.000000 0.000000
vn 1.000000 0.000000 0.000000
vn 1.000000 0.000000 0.000000
vn 1.000000 0.000000 0.000000
vn -0.447214 0.000000 0.894427
vn -0.447214 0.000000 0.894427
vn -0.447214 0.000000 0.894427
vn -0.447214 0.000000 0.894427
vn 0.000000 1.000000 0.000000
vn 0.000000 1.000000 0.000000
vn 0.000000 1.000000 0.000000
vn -0.447214 0.000000 -0.894427
vn -0.447214 0.000000 -0.894427
vn -0.447214 0.000000 -0.894427
vn -0.447214 0.000000 -0.894427
vn 0.000000 -1.000000 0.000000
vn 0.000000 -1.000000 0.000000
vn 0.000000 -1.000000 0.000000
vn 1.000000 0.000000 0.000000
vn 1.000000 0.000000 0.000000
vn 1.000000 0.000000 0.000000
vn 1.000000 0.000000 0.000000
vn -0.447214 0.000000 0.894427
vn -0.447214 0.000000 0.894427
vn -0.447214 0.000000 0.894427
vn -0.447214 0.000000 0.894427
vn 0.000000 1.000000 0.000000
vn 0.000000 1.000000 0.000000
vn 0.000000 1.000000 0.000000
vn -0.447214 0.000000 -0.894427
vn -0.447214 0.000000 -0.894427
vn -0.447214 0.000000 -0.894427
vn -0.447214 0.000000 -0.894427
vn 0.000000 -1.000000 0.000000
vn 0.000000 -1.000000 0.000000
vn 0.000000 -1.000000 0.000000
vn 1.000000 0.000000 0.000000
vn 1.000000 0.000000 0.000000
vn 1.000000 0.000000 0.000000
vn 1.000000 0.000000 0.000000
vn -0.447213 -0.894427 0.000000
vn -0.447213 -0.894427 0.000000
vn -0.447213 -0.894427 0.000000
vn -0.447213 -0.894427 0.000000
vn 0.000000 0.000000 1.000000
vn 0.000000 0.000000 1.000000
vn 0.000000 0.000000 1.000000
vn -0.447213 0.894427 0.000000
vn -0.447213 0.894427 0.000000
vn -0.447213 0.894427 0.000000
vn -0.447213 0.894427 0.000000
vn 0.000000 0.000000 -1.000000
vn 0.000000 0.000000 -1.000000
vn 0.000000 0.000000 -1.000000
vn 1.000000 0.000000 0.000000
vn 1.000000 0.000000 0.000000
vn 1.000000 0.000000 0.000000
vn 1.000000 0.000000 0.000000
s 1
g pCylinder2
usemtl initialShadingGroup
f 1/1/1 2/2/2 17/18/3 16/17/4
f 2/2/2 3/3/5 18/19/6 17/18/3
f 3/3/5 4/4/7 19/20/8 18/19/6
f 4/4/7 5/5/9 20/21/10 19/20/8
f 5/5/9 6/6/11 21/22/12 20/21/10
f 6/6/11 7/7/13 22/23/14 21/22/12
f 7/7/13 8/8/15 23/24/16 22/23/14
f 8/8/15 9/9/17 24/25/18 23/24/16
f 9/9/17 10/10/19 25/26/20 24/25/18
f 10/10/19 11/11/21 26/27/22 25/26/20
f 11/11/21 12/12/23 27/28/24 26/27/22
f 12/12/23 13/13/25 28/29/26 27/28/24
f 13/13/25 14/14/27 29/30/28 28/29/26
f 14/14/27 15/15/29 30/31/30 29/30/28
f 15/15/29 1/16/1 16/32/4 30/31/30
s 2
f 46/64/31 47/65/32 48/48/33
f 47/65/32 49/66/34 48/48/33
f 49/66/34 50/67/35 48/48/33
f 50/67/35 51/68/36 48/48/33
f 51/68/36 52/69/37 48/48/33
f 52/69/37 53/70/38 48/48/33
f 53/70/38 54/71/39 48/48/33
f 54/71/39 55/72/40 48/48/33
f 55/72/40 56/73/41 48/48/33
f 56/73/41 57/74/42 48/48/33
f 57/74/42 58/75/43 48/48/33
f 58/75/43 59/76/44 48/48/33
f 59/76/44 60/77/45 48/48/33
f 60/77/45 61/78/46 48/48/33
f 61/78/46 46/64/31 48/48/33
s 3
f 16/46/47 17/45/48 32/50/49 31/49/50
f 17/45/48 18/44/51 33/51/52 32/50/49
f 18/44/51 19/43/53 34/52/54 33/51/52
f 19/43/53 20/42/55 35/53/56 34/52/54
f 20/42/55 21/41/57 36/54/58 35/53/56
f 21/41/57 22/40/59 37/55/60 36/54/58
f 22/40/59 23/39/61 38/56/62 37/55/60
f 23/39/61 24/38/63 39/57/64 38/56/62
f 24/38/63 25/37/65 40/58/66 39/57/64
f 25/37/65 26/36/67 41/59/68 40/58/66
f 26/36/67 27/35/69 42/60/70 41/59/68
f 27/35/69 28/34/71 43/61/72 42/60/70
f 28/34/71 29/33/73 44/62/74 43/61/72
f 29/33/73 30/47/75 45/63/76 44/62/74
f 30/47/75 16/46/47 31/49/50 45/63/76
s 4
f 31/49/77 32/50/78 47/65/79 46/64/80
f 32/50/78 33/51/81 49/66/82 47/65/79
f 33/51/81 34/52/83 50/67/84 49/66/82
f 34/52/83 35/53/85 51/68/86 50/67/84
f 35/53/85 36/54/87 52/69/88 51/68/86
f 36/54/87 37/55/89 53/70/90 52/69/88
f 37/55/89 38/56/91 54/71/92 53/70/90
f 38/56/91 39/57/93 55/72/94 54/71/92
f 39/57/93 40/58/95 56/73/96 55/72/94
f 40/58/95 41/59/97 57/74/98 56/73/96
f 41/59/97 42/60/99 58/75/100 57/74/98
f 42/60/99 43/61/101 59/76/102 58/75/100
f 43/61/101 44/62/103 60/77/104 59/76/102
f 44/62/103 45/63/105 61/78/106 60/77/104
f 45/63/105 31/49/77 46/64/80 61/78/106
s off
f 62/79/107 63/80/108 65/81/109 64/82/110
f 64/82/111 65/81/112 66/83/113
f 64/82/114 66/83/115 67/84/116 62/85/117
f 62/85/118 67/84/119 63/86/120
f 63/80/121 67/87/122 66/88/123 65/81/124
f 68/89/125 69/90/126 71/91/127 70/92/128
f 70/92/129 71/91/130 72/93/131
f 70/92/132 72/93/133 73/94/134 68/95/135
f 68/95/136 73/94/137 69/96/138
f 69/90/139 73/97/140 72/98/141 71/91/142
f 74/99/143 75/100/144 77/101/145 76/102/146
f 76/102/147 77/101/148 78/103/149
f 76/102/150 78/103/151 79/104/152 74/105/153
f 74/105/154 79/104/155 75/106/156
f 75/100/157 79/107/158 78/108/159 77/101/160
f 80/109/161 81/110/162 83/111/163 82/112/164
f 82/112/165 83/111/166 84/113/167
f 82/112/168 84/113/169 85/114/170 80/115/171
f 80/115/172 85/114/173 81/116/174
f 81/110/175 85/117/176 84/118/177 83/111/178
