# This file uses centimeters as units for non-parametric coordinates.

mtllib plane.mtl
g default
v 11.598985 0.000000 -11.664687
v -11.598985 0.000002 -11.664687
v 11.598985 0.000000 11.664686
v -11.598985 -0.000002 11.664687
vt 0.000000 0.000000
vt 1.000000 0.000000
vt 0.000000 1.000000
vt 1.000000 1.000000
vn -0.000000 1.000000 0.000000
vn -0.000000 1.000000 0.000000
vn -0.000000 1.000000 0.000000
vn -0.000000 1.000000 0.000000
s off
g pPlane1
usemtl initialShadingGroup
f 1/1/1 2/2/2 4/4/3 3/3/4
