# This file uses centimeters as units for non-parametric coordinates.

mtllib road_Cnr.mtl
g default
v -10.999998 0.307161 -10.999998
v -10.999998 0.307161 -16.999998
v -16.999998 0.307161 -16.999998
v -16.999998 0.307161 -10.999998
v -10.999998 0.307161 16.999998
v -10.999998 0.307161 10.999998
v -16.999998 0.307161 10.999998
v -16.999998 0.307161 16.999998
v 10.999998 0.307161 10.999998
v 10.999998 0.307161 16.999998
v 16.999998 0.307161 16.999998
v 16.999998 0.307161 10.999998
v 10.999998 0.307161 -16.999998
v 10.999998 0.307161 -10.999998
v 16.999998 0.307161 -10.999998
v 16.999998 0.307161 -16.999998
v 10.999998 -0.084446 10.999998
v 10.999998 -0.084446 -10.999998
v -10.999998 -0.084446 -10.999998
v -10.999998 -0.084446 10.999998
v 10.999998 -0.084446 -16.999998
v -10.999998 -0.084446 -16.999998
v 16.999998 -0.084446 10.999998
v 16.999998 -0.084446 -10.999998
v -16.999998 -6.000000 -16.999998
v -16.999998 -6.000000 -10.999998
v -16.999998 -6.000000 10.999998
v -16.999998 -6.000000 16.999998
v -10.999998 -6.000000 16.999998
v 10.999998 -6.000000 16.999998
v 16.999998 -6.000000 16.999998
vt 0.187279 0.250000
vt 0.153068 0.250000
vt 0.153068 0.250000
vt 0.187279 0.250000
vt 0.346932 0.250000
vt 0.312721 0.250000
vt 0.312721 0.250000
vt 0.346932 0.250000
vt 0.687279 0.250000
vt 0.653068 0.250000
vt 0.653068 0.250000
vt 0.687279 0.250000
vt 0.846932 0.250000
vt 0.812721 0.250000
vt 0.812721 0.250000
vt 0.846932 0.250000
vt 0.625000 0.312279
vt 0.625000 0.437721
vt 0.375000 0.437721
vt 0.375000 0.312279
vt 0.846932 0.250000
vt 0.153068 0.250000
vt 0.812721 0.250000
vt 0.187279 0.250000
vt 0.000000 0.272727
vt 1.000000 0.272727
vt 1.000000 0.000000
vt 0.000000 0.000000
vt 0.000000 0.000000
vt 1.000000 0.000000
vt 1.000000 0.272727
vt 0.000000 0.272727
vt 0.000000 0.000000
vt 1.000000 0.000000
vt 1.000000 0.065268
vt 0.000000 0.065268
vt 0.000000 0.065268
vt 1.000000 0.065268
vt 1.000000 0.000000
vt 0.000000 0.000000
vt 0.000000 0.000000
vt 0.272727 0.000000
vt 0.272727 1.000000
vt 0.000000 1.000000
vt 0.000000 0.000000
vt 0.272727 0.000000
vt 0.272727 1.000000
vt 0.000000 1.000000
vt 0.000000 0.017800
vt 1.000000 0.017800
vt 1.000000 0.000000
vt 0.000000 0.000000
vt 0.000000 0.000000
vt 1.000000 0.000000
vt 1.000000 0.017800
vt 0.000000 0.017800
vt 0.000000 0.000000
vt 1.000000 0.000000
vt 1.000000 1.000000
vt 0.000000 1.000000
vt 0.000000 0.000000
vt 1.000000 0.000000
vt 1.000000 1.000000
vt 0.000000 1.000000
vt 0.000000 0.000000
vt 1.000000 0.000000
vt 1.000000 1.000000
vt 0.000000 1.000000
vt 0.000000 0.000000
vt 1.000000 0.000000
vt 1.000000 1.000000
vt 0.000000 1.000000
vt 0.000000 0.000000
vt 1.000000 0.000000
vt 1.000000 1.000000
vt 0.000000 1.000000
vt 0.000000 0.000000
vt 1.000000 0.000000
vt 1.000000 1.000000
vt 0.000000 1.000000
vn 0.000000 1.000000 0.000000
vn 0.000000 1.000000 0.000000
vn 0.000000 1.000000 0.000000
vn 0.000000 1.000000 0.000000
vn 0.000000 1.000000 0.000000
vn 0.000000 1.000000 0.000000
vn 0.000000 1.000000 0.000000
vn 0.000000 1.000000 0.000000
vn 0.000000 1.000000 0.000000
vn 0.000000 1.000000 0.000000
vn 0.000000 1.000000 0.000000
vn 0.000000 1.000000 0.000000
vn 0.000000 1.000000 0.000000
vn 0.000000 1.000000 0.000000
vn 0.000000 1.000000 0.000000
vn 0.000000 1.000000 0.000000
vn 0.000000 1.000000 0.000000
vn 0.000000 1.000000 0.000000
vn 0.000000 1.000000 0.000000
vn 0.000000 1.000000 0.000000
vn -1.000000 0.000000 0.000000
vn -1.000000 0.000000 0.000000
vn -1.000000 0.000000 0.000000
vn -1.000000 0.000000 0.000000
vn 1.000000 0.000000 0.000000
vn 1.000000 0.000000 0.000000
vn 1.000000 0.000000 0.000000
vn 1.000000 0.000000 0.000000
vn 0.000000 1.000000 0.000000
vn 0.000000 1.000000 0.000000
vn 0.000000 1.000000 0.000000
vn 0.000000 1.000000 0.000000
vn 0.000000 1.000000 0.000000
vn 0.000000 1.000000 0.000000
vn 0.000000 1.000000 0.000000
vn 0.000000 1.000000 0.000000
vn 0.000000 0.000000 -1.000000
vn 0.000000 0.000000 -1.000000
vn 0.000000 0.000000 -1.000000
vn 0.000000 0.000000 -1.000000
vn 0.000000 0.000000 1.000000
vn 0.000000 0.000000 1.000000
vn 0.000000 0.000000 1.000000
vn 0.000000 0.000000 1.000000
vn 0.000000 1.000000 0.000000
vn 0.000000 1.000000 0.000000
vn 0.000000 1.000000 0.000000
vn 0.000000 1.000000 0.000000
vn 0.000000 1.000000 0.000000
vn 0.000000 1.000000 0.000000
vn 0.000000 1.000000 0.000000
vn 0.000000 1.000000 0.000000
vn 1.000000 0.000000 0.000000
vn 1.000000 0.000000 0.000000
vn 1.000000 0.000000 0.000000
vn 1.000000 0.000000 0.000000
vn 0.000000 0.000000 -1.000000
vn 0.000000 0.000000 -1.000000
vn 0.000000 0.000000 -1.000000
vn 0.000000 0.000000 -1.000000
vn -1.000000 0.000000 0.000000
vn -1.000000 0.000000 0.000000
vn -1.000000 0.000000 0.000000
vn -1.000000 0.000000 0.000000
vn -1.000000 0.000000 0.000000
vn -1.000000 0.000000 0.000000
vn -1.000000 0.000000 0.000000
vn -1.000000 0.000000 0.000000
vn 0.000000 0.000000 1.000000
vn 0.000000 0.000000 1.000000
vn 0.000000 0.000000 1.000000
vn 0.000000 0.000000 1.000000
vn 0.000000 0.000000 1.000000
vn 0.000000 0.000000 1.000000
vn 0.000000 0.000000 1.000000
vn 0.000000 0.000000 1.000000
s off
g pCube6
usemtl initialShadingGroup
f 1/1/1 2/2/2 3/3/3 4/4/4
f 5/5/5 6/6/6 7/7/7 8/8/8
f 9/9/9 10/10/10 11/11/11 12/12/12
f 13/13/13 14/14/14 15/15/15 16/16/16
f 17/17/17 18/18/18 19/19/19 20/20/20
f 21/21/21 18/23/22 14/14/23 13/13/24
f 19/24/25 22/22/26 2/2/27 1/1/28
f 21/25/29 22/26/30 19/27/31 18/28/32
f 18/29/33 17/30/34 23/31/35 24/32/36
f 9/33/37 12/34/38 23/35/39 17/36/40
f 15/37/41 14/38/42 18/39/43 24/40/44
f 10/41/45 9/42/46 6/43/47 5/44/48
f 7/45/49 6/46/50 1/47/51 4/48/52
f 1/49/53 6/50/54 20/51/55 19/52/56
f 6/53/57 9/54/58 17/55/59 20/56/60
s 1
f 4/57/61 3/58/62 25/59/63 26/60/64
f 8/61/65 7/62/66 27/63/67 28/64/68
s 2
f 5/65/69 8/66/70 28/67/71 29/68/72
f 11/69/73 10/70/74 30/71/75 31/72/76
f 10/73/74 5/74/69 29/75/72 30/76/75
s 1
f 7/77/66 4/78/61 26/79/64 27/80/67
