# This file uses centimeters as units for non-parametric coordinates.

mtllib road_Mid.mtl
g default
v -10.999998 -0.084446 21.922644
v 10.999998 -0.084446 21.922644
v -10.999998 -0.084446 -21.922644
v 10.999998 -0.084446 -21.922644
v 16.999998 -0.084446 -21.922644
v 16.999998 -0.084446 21.922644
v -16.999998 -0.084446 21.922644
v -16.999998 -0.084446 -21.922644
v 10.999998 0.307161 21.922644
v 10.999998 0.307161 -21.922644
v 16.999998 0.307161 21.922644
v 16.999998 0.307161 -21.922644
v -10.999998 0.307161 21.922644
v -10.999998 0.307161 -21.922644
v -16.999998 0.307161 -21.922644
v -16.999998 0.307161 21.922644
v 16.999998 -6.000000 21.922644
v 16.999998 -6.000000 -21.922644
v -16.999998 -6.000000 -21.922644
v -16.999998 -6.000000 21.922644
vt 0.375000 0.250000
vt 0.625000 0.250000
vt 0.625000 0.500000
vt 0.375000 0.500000
vt 0.875000 0.250000
vt 0.625000 0.250000
vt 0.625000 0.250000
vt 0.875000 0.250000
vt 0.375000 0.250000
vt 0.125000 0.250000
vt 0.125000 0.250000
vt 0.375000 0.250000
vt 0.875000 0.250000
vt 0.625000 0.250000
vt 0.875000 0.250000
vt 0.125000 0.250000
vt 0.125000 0.250000
vt 0.375000 0.250000
vt 0.000000 0.000000
vt 1.000000 0.000000
vt 1.000000 1.000000
vt 0.000000 1.000000
vt 0.000000 0.000000
vt 1.000000 0.000000
vt 1.000000 1.000000
vt 0.000000 1.000000
vn 0.000000 1.000000 0.000000
vn 0.000000 1.000000 0.000000
vn 0.000000 1.000000 0.000000
vn 0.000000 1.000000 0.000000
vn 0.000000 1.000000 0.000000
vn 0.000000 1.000000 0.000000
vn 0.000000 1.000000 0.000000
vn 0.000000 1.000000 0.000000
vn 0.000000 1.000000 0.000000
vn 0.000000 1.000000 0.000000
vn 0.000000 1.000000 0.000000
vn 0.000000 1.000000 0.000000
vn -1.000000 0.000000 0.000000
vn -1.000000 0.000000 0.000000
vn -1.000000 0.000000 0.000000
vn -1.000000 0.000000 0.000000
vn 1.000000 0.000000 0.000000
vn 1.000000 0.000000 0.000000
vn 1.000000 0.000000 0.000000
vn 1.000000 0.000000 0.000000
vn 1.000000 0.000000 0.000000
vn 1.000000 0.000000 0.000000
vn 1.000000 0.000000 0.000000
vn 1.000000 0.000000 0.000000
vn -1.000000 0.000000 0.000000
vn -1.000000 0.000000 0.000000
vn -1.000000 0.000000 0.000000
vn -1.000000 0.000000 0.000000
vn 1.000000 0.000000 0.000000
vn 1.000000 0.000000 0.000000
vn 1.000000 0.000000 0.000000
vn 1.000000 0.000000 0.000000
vn -1.000000 0.000000 0.000000
vn -1.000000 0.000000 0.000000
vn -1.000000 0.000000 0.000000
vn -1.000000 0.000000 0.000000
s off
g road_Mid:pCube2
usemtl road_Mid:initialShadingGroup
f 1/1/1 2/2/2 4/3/3 3/4/4
f 10/5/5 9/6/6 11/7/7 12/8/8
f 13/9/9 14/10/10 15/11/11 16/12/12
f 4/13/13 2/2/14 9/6/15 10/5/16
f 6/14/17 5/15/18 12/8/19 11/7/20
f 1/1/21 3/16/22 14/10/23 13/9/24
f 8/17/25 7/18/26 16/12/27 15/11/28
f 5/19/29 6/20/30 17/21/31 18/22/32
f 7/23/33 8/24/34 19/25/35 20/26/36
