# This file uses centimeters as units for non-parametric coordinates.

mtllib road_Intrsc.mtl
g default
v -10.999998 0.307161 -10.999998
v -10.999998 0.307161 -16.999998
v -16.999998 0.307161 -16.999998
v -16.999998 0.307161 -10.999998
v -10.999998 0.307161 16.999998
v -10.999998 0.307161 10.999998
v -16.999998 0.307161 10.999998
v -16.999998 0.307161 16.999998
v 10.999998 0.307161 10.999998
v 10.999998 0.307161 16.999998
v 16.999998 0.307161 16.999998
v 16.999998 0.307161 10.999998
v 10.999998 0.307161 -16.999998
v 10.999998 0.307161 -10.999998
v 16.999998 0.307161 -10.999998
v 16.999998 0.307161 -16.999998
v 10.999998 -0.084446 10.999998
v 10.999998 -0.084446 -10.999998
v -10.999998 -0.084446 -10.999998
v -10.999998 -0.084446 10.999998
v -10.999998 -0.084446 21.922644
v 10.999998 -0.084446 21.922644
v 10.999998 -0.084446 16.999998
v -10.999998 -0.084446 16.999998
v -10.999998 0.307161 21.922644
v 10.999998 0.307161 21.922644
v -16.999998 0.307161 21.922644
v 16.999998 0.307161 21.922644
v -16.999998 -0.084446 16.999998
v -16.999998 -0.084446 21.922644
v 16.999998 -0.084446 21.922644
v 16.999998 -0.084446 16.999998
v 10.999998 -0.084446 -16.999998
v 10.999998 -0.084446 -21.922644
v -10.999998 -0.084446 -21.922644
v -10.999998 -0.084446 -16.999998
v 10.999998 0.307161 -21.922644
v -10.999998 0.307161 -21.922644
v 16.999998 0.307161 -21.922644
v -16.999998 0.307161 -21.922644
v 16.999998 -0.084446 -16.999998
v 16.999998 -0.084446 -21.922644
v -16.999998 -0.084446 -21.922644
v -16.999998 -0.084446 -16.999998
v -21.922644 -0.084446 -10.999998
v -21.922644 -0.084446 10.999998
v -16.999998 -0.084446 10.999998
v -16.999998 -0.084446 -10.999998
v -21.922644 0.307161 -10.999998
v -21.922644 0.307161 10.999998
v -21.922644 0.307161 -16.999998
v -21.922644 0.307161 16.999998
v -21.922644 -0.084446 -16.999998
v -21.922644 -0.084446 16.999998
v 16.999998 -0.084446 10.999998
v 21.922644 -0.084446 10.999998
v 21.922644 -0.084446 -10.999998
v 16.999998 -0.084446 -10.999998
v 21.922644 0.307161 10.999998
v 21.922644 0.307161 -10.999998
v 21.922644 0.307161 16.999998
v 21.922644 0.307161 -16.999998
v 21.922644 -0.084446 16.999998
v 21.922644 -0.084446 -16.999998
v -16.999998 -6.000000 16.999998
v -16.999998 -6.000000 21.922644
v 16.999998 -6.000000 21.922644
v 16.999998 -6.000000 16.999998
v 16.999998 -6.000000 -16.999998
v 16.999998 -6.000000 -21.922644
v -16.999998 -6.000000 -21.922644
v -16.999998 -6.000000 -16.999998
v -21.922644 -6.000000 -16.999998
v -21.922644 -6.000000 16.999998
v 21.922644 -6.000000 16.999998
v 21.922644 -6.000000 -16.999998
vt 0.187279 0.250000
vt 0.153068 0.250000
vt 0.153068 0.250000
vt 0.187279 0.250000
vt 0.346932 0.250000
vt 0.312721 0.250000
vt 0.312721 0.250000
vt 0.346932 0.250000
vt 0.687279 0.250000
vt 0.653068 0.250000
vt 0.653068 0.250000
vt 0.687279 0.250000
vt 0.846932 0.250000
vt 0.812721 0.250000
vt 0.812721 0.250000
vt 0.846932 0.250000
vt 0.625000 0.312279
vt 0.625000 0.437721
vt 0.375000 0.437721
vt 0.375000 0.312279
vt 0.375000 0.250000
vt 0.625000 0.250000
vt 0.625000 0.278068
vt 0.375000 0.278068
vt 0.346932 0.250000
vt 0.375000 0.250000
vt 0.653068 0.250000
vt 0.625000 0.250000
vt 0.375000 0.250000
vt 0.625000 0.250000
vt 0.346932 0.250000
vt 0.375000 0.250000
vt 0.625000 0.250000
vt 0.653068 0.250000
vt 0.687279 0.250000
vt 0.312721 0.250000
vt 0.625000 0.471932
vt 0.625000 0.500000
vt 0.375000 0.500000
vt 0.375000 0.471932
vt 0.875000 0.250000
vt 0.846932 0.250000
vt 0.875000 0.250000
vt 0.153068 0.250000
vt 0.125000 0.250000
vt 0.125000 0.250000
vt 0.875000 0.250000
vt 0.125000 0.250000
vt 0.846932 0.250000
vt 0.875000 0.250000
vt 0.125000 0.250000
vt 0.153068 0.250000
vt 0.375000 0.250000
vt 0.625000 0.250000
vt 0.625000 0.278068
vt 0.375000 0.278068
vt 0.346932 0.250000
vt 0.346932 0.250000
vt 0.375000 0.250000
vt 0.653068 0.250000
vt 0.625000 0.250000
vt 0.653068 0.250000
vt 0.346932 0.250000
vt 0.375000 0.250000
vt 0.625000 0.250000
vt 0.653068 0.250000
vt 0.346932 0.250000
vt 0.375000 0.250000
vt 0.625000 0.250000
vt 0.653068 0.250000
vt 0.687279 0.250000
vt 0.687279 0.250000
vt 0.312721 0.250000
vt 0.312721 0.250000
vt 0.625000 0.471932
vt 0.625000 0.500000
vt 0.375000 0.500000
vt 0.375000 0.471932
vt 0.875000 0.250000
vt 0.846932 0.250000
vt 0.846932 0.250000
vt 0.875000 0.250000
vt 0.153068 0.250000
vt 0.125000 0.250000
vt 0.125000 0.250000
vt 0.153068 0.250000
vt 0.846932 0.250000
vt 0.875000 0.250000
vt 0.125000 0.250000
vt 0.153068 0.250000
vt 0.846932 0.250000
vt 0.875000 0.250000
vt 0.125000 0.250000
vt 0.153068 0.250000
vt 0.812721 0.250000
vt 0.187279 0.250000
vt 0.000000 0.000000
vt 1.000000 0.000000
vt 1.000000 0.272727
vt 0.000000 0.272727
vt 0.000000 0.000000
vt 1.000000 0.000000
vt 1.000000 0.272727
vt 0.000000 0.272727
vt 0.000000 0.272727
vt 1.000000 0.272727
vt 1.000000 0.000000
vt 0.000000 0.000000
vt 0.000000 0.000000
vt 1.000000 0.000000
vt 1.000000 0.272727
vt 0.000000 0.272727
vt 0.000000 0.000000
vt 1.000000 0.000000
vt 1.000000 0.065268
vt 0.000000 0.065268
vt 0.000000 0.065268
vt 1.000000 0.065268
vt 1.000000 0.000000
vt 0.000000 0.000000
vt 0.000000 0.000000
vt 1.000000 0.000000
vt 1.000000 1.000000
vt 0.000000 1.000000
vt 0.000000 0.000000
vt 1.000000 0.000000
vt 1.000000 1.000000
vt 0.000000 1.000000
vt 0.000000 0.000000
vt 1.000000 0.000000
vt 1.000000 1.000000
vt 0.000000 1.000000
vt 0.000000 0.000000
vt 1.000000 0.000000
vt 1.000000 1.000000
vt 0.000000 1.000000
vt 0.000000 0.000000
vt 1.000000 0.000000
vt 1.000000 1.000000
vt 0.000000 1.000000
vt 0.000000 0.000000
vt 1.000000 0.000000
vt 1.000000 1.000000
vt 0.000000 1.000000
vt 0.000000 0.000000
vt 1.000000 0.000000
vt 1.000000 1.000000
vt 0.000000 1.000000
vt 0.000000 0.000000
vt 1.000000 0.000000
vt 1.000000 1.000000
vt 0.000000 1.000000
vn 0.000000 1.000000 0.000000
vn 0.000000 1.000000 0.000000
vn 0.000000 1.000000 0.000000
vn 0.000000 1.000000 0.000000
vn 0.000000 1.000000 0.000000
vn 0.000000 1.000000 0.000000
vn 0.000000 1.000000 0.000000
vn 0.000000 1.000000 0.000000
vn 0.000000 1.000000 0.000000
vn 0.000000 1.000000 0.000000
vn 0.000000 1.000000 0.000000
vn 0.000000 1.000000 0.000000
vn 0.000000 1.000000 0.000000
vn 0.000000 1.000000 0.000000
vn 0.000000 1.000000 0.000000
vn 0.000000 1.000000 0.000000
vn 0.000000 1.000000 0.000000
vn 0.000000 1.000000 0.000000
vn 0.000000 1.000000 0.000000
vn 0.000000 1.000000 0.000000
vn 0.000000 1.000000 0.000000
vn 0.000000 1.000000 0.000000
vn 0.000000 1.000000 0.000000
vn 0.000000 1.000000 0.000000
vn 1.000000 0.000000 0.000000
vn 1.000000 0.000000 0.000000
vn 1.000000 0.000000 0.000000
vn 1.000000 0.000000 0.000000
vn -1.000000 0.000000 0.000000
vn -1.000000 0.000000 0.000000
vn -1.000000 0.000000 0.000000
vn -1.000000 0.000000 0.000000
vn 0.000000 1.000000 0.000000
vn 0.000000 1.000000 0.000000
vn 0.000000 1.000000 0.000000
vn 0.000000 1.000000 0.000000
vn 0.000000 1.000000 0.000000
vn 0.000000 1.000000 0.000000
vn 0.000000 1.000000 0.000000
vn 0.000000 1.000000 0.000000
vn -1.000000 0.000000 0.000000
vn -1.000000 0.000000 0.000000
vn -1.000000 0.000000 0.000000
vn -1.000000 0.000000 0.000000
vn 1.000000 0.000000 0.000000
vn 1.000000 0.000000 0.000000
vn 1.000000 0.000000 0.000000
vn 1.000000 0.000000 0.000000
vn -1.000000 0.000000 0.000000
vn -1.000000 0.000000 0.000000
vn -1.000000 0.000000 0.000000
vn -1.000000 0.000000 0.000000
vn 1.000000 0.000000 0.000000
vn 1.000000 0.000000 0.000000
vn 1.000000 0.000000 0.000000
vn 1.000000 0.000000 0.000000
vn 0.000000 1.000000 0.000000
vn 0.000000 1.000000 0.000000
vn 0.000000 1.000000 0.000000
vn 0.000000 1.000000 0.000000
vn -1.000000 0.000000 0.000000
vn -1.000000 0.000000 0.000000
vn -1.000000 0.000000 0.000000
vn -1.000000 0.000000 0.000000
vn 1.000000 0.000000 0.000000
vn 1.000000 0.000000 0.000000
vn 1.000000 0.000000 0.000000
vn 1.000000 0.000000 0.000000
vn 0.000000 1.000000 0.000000
vn 0.000000 1.000000 0.000000
vn 0.000000 1.000000 0.000000
vn 0.000000 1.000000 0.000000
vn 0.000000 1.000000 0.000000
vn 0.000000 1.000000 0.000000
vn 0.000000 1.000000 0.000000
vn 0.000000 1.000000 0.000000
vn 1.000000 0.000000 0.000000
vn 1.000000 0.000000 0.000000
vn 1.000000 0.000000 0.000000
vn 1.000000 0.000000 0.000000
vn -1.000000 0.000000 0.000000
vn -1.000000 0.000000 0.000000
vn -1.000000 0.000000 0.000000
vn -1.000000 0.000000 0.000000
vn 0.000000 1.000000 0.000000
vn 0.000000 1.000000 0.000000
vn 0.000000 1.000000 0.000000
vn 0.000000 1.000000 0.000000
vn 0.000000 0.000000 1.000000
vn 0.000000 0.000000 1.000000
vn 0.000000 0.000000 1.000000
vn 0.000000 0.000000 1.000000
vn 0.000000 0.000000 -1.000000
vn 0.000000 0.000000 -1.000000
vn 0.000000 0.000000 -1.000000
vn 0.000000 0.000000 -1.000000
vn 0.000000 1.000000 0.000000
vn 0.000000 1.000000 0.000000
vn 0.000000 1.000000 0.000000
vn 0.000000 1.000000 0.000000
vn 0.000000 1.000000 0.000000
vn 0.000000 1.000000 0.000000
vn 0.000000 1.000000 0.000000
vn 0.000000 1.000000 0.000000
vn 0.000000 0.000000 -1.000000
vn 0.000000 0.000000 -1.000000
vn 0.000000 0.000000 -1.000000
vn 0.000000 0.000000 -1.000000
vn 0.000000 0.000000 1.000000
vn 0.000000 0.000000 1.000000
vn 0.000000 0.000000 1.000000
vn 0.000000 0.000000 1.000000
vn 0.000000 0.000000 -1.000000
vn 0.000000 0.000000 -1.000000
vn 0.000000 0.000000 -1.000000
vn 0.000000 0.000000 -1.000000
vn 0.000000 0.000000 1.000000
vn 0.000000 0.000000 1.000000
vn 0.000000 0.000000 1.000000
vn 0.000000 0.000000 1.000000
vn 0.000000 1.000000 0.000000
vn 0.000000 1.000000 0.000000
vn 0.000000 1.000000 0.000000
vn 0.000000 1.000000 0.000000
vn 0.000000 0.000000 -1.000000
vn 0.000000 0.000000 -1.000000
vn 0.000000 0.000000 -1.000000
vn 0.000000 0.000000 -1.000000
vn 0.000000 0.000000 1.000000
vn 0.000000 0.000000 1.000000
vn 0.000000 0.000000 1.000000
vn 0.000000 0.000000 1.000000
vn 0.000000 1.000000 0.000000
vn 0.000000 1.000000 0.000000
vn 0.000000 1.000000 0.000000
vn 0.000000 1.000000 0.000000
vn 0.000000 1.000000 0.000000
vn 0.000000 1.000000 0.000000
vn 0.000000 1.000000 0.000000
vn 0.000000 1.000000 0.000000
vn 0.000000 0.000000 1.000000
vn 0.000000 0.000000 1.000000
vn 0.000000 0.000000 1.000000
vn 0.000000 0.000000 1.000000
vn 0.000000 0.000000 -1.000000
vn 0.000000 0.000000 -1.000000
vn 0.000000 0.000000 -1.000000
vn 0.000000 0.000000 -1.000000
vn -1.000000 0.000000 0.000000
vn -1.000000 0.000000 0.000000
vn -1.000000 0.000000 0.000000
vn -1.000000 0.000000 0.000000
vn 1.000000 0.000000 0.000000
vn 1.000000 0.000000 0.000000
vn 1.000000 0.000000 0.000000
vn 1.000000 0.000000 0.000000
vn 0.000000 1.000000 0.000000
vn 0.000000 1.000000 0.000000
vn 0.000000 1.000000 0.000000
vn 0.000000 1.000000 0.000000
vn 0.000000 1.000000 0.000000
vn 0.000000 1.000000 0.000000
vn 0.000000 1.000000 0.000000
vn 0.000000 1.000000 0.000000
vn 0.000000 1.000000 0.000000
vn 0.000000 1.000000 0.000000
vn 0.000000 1.000000 0.000000
vn 0.000000 1.000000 0.000000
vn 0.000000 1.000000 0.000000
vn 0.000000 1.000000 0.000000
vn 0.000000 1.000000 0.000000
vn 0.000000 1.000000 0.000000
vn 0.000000 0.000000 -1.000000
vn 0.000000 0.000000 -1.000000
vn 0.000000 0.000000 -1.000000
vn 0.000000 0.000000 -1.000000
vn 0.000000 0.000000 1.000000
vn 0.000000 0.000000 1.000000
vn 0.000000 0.000000 1.000000
vn 0.000000 0.000000 1.000000
vn -1.000000 0.000000 0.000000
vn -1.000000 0.000000 0.000000
vn -1.000000 0.000000 0.000000
vn -1.000000 0.000000 0.000000
vn 1.000000 0.000000 0.000000
vn 1.000000 0.000000 0.000000
vn 1.000000 0.000000 0.000000
vn 1.000000 0.000000 0.000000
vn 1.000000 0.000000 0.000000
vn 1.000000 0.000000 0.000000
vn 1.000000 0.000000 0.000000
vn 1.000000 0.000000 0.000000
vn -1.000000 0.000000 0.000000
vn -1.000000 0.000000 0.000000
vn -1.000000 0.000000 0.000000
vn -1.000000 0.000000 0.000000
vn 0.000000 0.000000 -1.000000
vn 0.000000 0.000000 -1.000000
vn 0.000000 0.000000 -1.000000
vn 0.000000 0.000000 -1.000000
vn 0.000000 0.000000 1.000000
vn 0.000000 0.000000 1.000000
vn 0.000000 0.000000 1.000000
vn 0.000000 0.000000 1.000000
vn 0.000000 0.000000 1.000000
vn 0.000000 0.000000 1.000000
vn 0.000000 0.000000 1.000000
vn 0.000000 0.000000 1.000000
vn 0.000000 0.000000 -1.000000
vn 0.000000 0.000000 -1.000000
vn 0.000000 0.000000 -1.000000
vn 0.000000 0.000000 -1.000000
s off
g road_Intrsc1:pCube6
usemtl road_Intrsc1:initialShadingGroup
f 1/1/1 2/2/2 3/3/3 4/4/4
f 5/5/5 6/6/6 7/7/7 8/8/8
f 9/9/9 10/10/10 11/11/11 12/12/12
f 13/13/13 14/14/14 15/15/15 16/16/16
f 17/17/17 18/18/18 19/19/19 20/20/20
f 21/21/21 22/22/22 23/23/23 24/24/24
f 21/21/25 24/25/26 5/5/27 25/26/28
f 23/27/29 22/22/30 26/28/31 10/10/32
f 25/26/33 5/5/34 8/8/35 27/29/36
f 10/10/37 26/28/38 28/30/39 11/11/40
f 29/31/41 30/32/42 27/29/43 8/8/44
f 31/33/45 32/34/46 11/11/47 28/30/48
f 17/35/49 23/27/50 10/10/51 9/9/52
f 24/25/53 20/36/54 6/6/55 5/5/56
f 33/37/57 34/38/58 35/39/59 36/40/60
f 34/41/61 33/42/62 13/13/63 37/43/64
f 36/44/65 35/45/66 38/46/67 2/2/68
f 37/43/69 13/13/70 16/16/71 39/47/72
f 2/2/73 38/46/74 40/48/75 3/3/76
f 41/49/77 42/50/78 39/47/79 16/16/80
f 43/51/81 44/52/82 3/3/83 40/48/84
f 45/53/85 46/54/86 47/55/87 48/56/88
f 45/53/89 48/57/90 4/58/91 49/59/92
f 47/60/93 46/54/94 50/61/95 7/62/96
f 49/59/97 4/58/98 3/63/99 51/64/100
f 7/62/101 50/61/102 52/65/103 8/66/104
f 44/67/105 53/68/106 51/64/107 3/63/108
f 54/69/109 29/70/110 8/66/111 52/65/112
f 20/71/113 47/60/114 7/62/115 6/72/116
f 48/57/117 19/73/118 1/74/119 4/58/120
f 55/75/121 56/76/122 57/77/123 58/78/124
f 56/79/125 55/80/126 12/81/127 59/82/128
f 58/83/129 57/84/130 60/85/131 15/86/132
f 59/82/133 12/81/134 11/87/135 61/88/136
f 15/86/137 60/85/138 62/89/139 16/90/140
f 32/91/141 63/92/142 61/88/143 11/87/144
f 64/93/145 41/94/146 16/90/147 62/89/148
f 33/42/149 18/95/150 14/14/151 13/13/152
f 19/96/153 36/44/154 2/2/155 1/1/156
f 20/97/157 19/98/158 48/99/159 47/100/160
f 24/101/161 23/102/162 17/103/163 20/104/164
f 33/105/165 36/106/166 19/107/167 18/108/168
f 18/109/169 17/110/170 55/111/171 58/112/172
f 9/113/173 12/114/174 55/115/175 17/116/176
f 15/117/177 14/118/178 18/119/179 58/120/180
f 30/121/181 29/122/182 65/123/183 66/124/184
f 32/125/185 31/126/186 67/127/187 68/128/188
f 42/129/189 41/130/190 69/131/191 70/132/192
f 44/133/193 43/134/194 71/135/195 72/136/196
f 53/137/197 44/138/198 72/139/199 73/140/200
f 29/141/201 54/142/202 74/143/203 65/144/204
f 63/145/205 32/146/206 68/147/207 75/148/208
f 41/149/209 64/150/210 76/151/211 69/152/212
