# This file uses centimeters as units for non-parametric coordinates.

mtllib sewer_R_End.mtl
g default
v 4.732416 -8.173771 2.364728
v 4.752046 -7.799211 2.364728
v 5.114340 -7.702134 2.364728
v 5.318620 -8.016698 2.364728
v 5.082578 -8.308186 2.364728
v 4.732416 -8.173771 -8.392554
v 4.752046 -7.799211 -8.392554
v 5.114340 -7.702134 -8.392554
v 5.318620 -8.016698 -8.392554
v 5.082578 -8.308186 -8.392554
v 5.000000 -8.000000 2.364728
v 5.000000 -8.000000 -8.392554
v 6.571086 -9.629132 2.364728
v 6.529192 -10.428532 2.364728
v 5.755971 -10.635715 2.364728
v 5.319990 -9.964363 2.364728
v 5.823759 -9.342259 2.364728
v 6.571086 -9.629132 -8.392554
v 6.529192 -10.428532 -8.392554
v 5.755971 -10.635715 -8.392554
v 5.319990 -9.964363 -8.392554
v 5.823759 -9.342259 -8.392554
v 6.000000 -10.000000 2.364728
v 6.000000 -10.000000 -8.392554
v 6.070635 -14.999995 -0.860361
v 6.070635 -5.934204 -0.860361
v 6.070635 -5.934204 -8.392532
v 6.070635 -14.999995 -8.392532
v 7.929365 -13.000000 1.139642
v 7.929365 -13.000000 -8.392532
v 7.929365 -7.999999 -8.392532
v 7.929365 -7.999999 1.139642
v -17.000002 -14.999995 -8.392532
v -17.000002 -14.999995 -0.860361
v -17.000002 -21.000000 -8.392532
v -17.000002 -21.000000 -0.860361
v -17.000000 -5.934204 -0.860361
v -17.000000 -5.934204 -8.392532
v -17.000000 -13.000000 1.139642
v -17.000000 -8.000000 1.139642
v -17.000002 -14.999995 11.139644
v -17.000002 -21.000000 11.139644
v -17.000000 -13.000000 11.139644
v -17.000000 -8.000000 11.139644
v -17.000000 -5.934204 11.139644
vt 0.548284 0.007647
vt 0.373591 0.064409
vt 0.373591 0.248091
vt 0.548284 0.304853
vt 0.656250 0.156250
vt 0.375000 0.312500
vt 0.425000 0.312500
vt 0.475000 0.312500
vt 0.525000 0.312500
vt 0.575000 0.312500
vt 0.625000 0.312500
vt 0.375000 0.688440
vt 0.425000 0.688440
vt 0.475000 0.688440
vt 0.525000 0.688440
vt 0.575000 0.688440
vt 0.625000 0.688440
vt 0.548284 0.695147
vt 0.373591 0.751909
vt 0.373591 0.935591
vt 0.548284 0.992353
vt 0.656250 0.843750
vt 0.500000 0.150000
vt 0.500000 0.837500
vt 0.375000 0.312500
vt 0.425000 0.312500
vt 0.425000 0.688440
vt 0.375000 0.688440
vt 0.475000 0.312500
vt 0.475000 0.688440
vt 0.525000 0.312500
vt 0.525000 0.688440
vt 0.575000 0.312500
vt 0.575000 0.688440
vt 0.625000 0.312500
vt 0.625000 0.688440
vt 0.373591 0.064409
vt 0.548284 0.007647
vt 0.500000 0.150000
vt 0.373591 0.248091
vt 0.548284 0.304853
vt 0.656250 0.156250
vt 0.548284 0.992353
vt 0.373591 0.935591
vt 0.500000 0.837500
vt 0.373591 0.751909
vt 0.548284 0.695147
vt 0.656250 0.843750
vt 0.125000 0.000000
vt 0.375000 0.000000
vt 0.374997 0.065711
vt 0.125000 0.065455
vt 0.374997 0.155458
vt 0.125000 0.155237
vt 0.375000 0.250000
vt 0.125000 0.250000
vt 0.375000 1.000000
vt 0.375000 0.750000
vt 0.375000 0.750000
vt 0.375000 1.000000
vt 0.375000 1.000000
vt 0.375000 0.750000
vt 0.375000 0.500000
vt 0.375000 0.250000
vt 0.375000 0.500000
vt 0.000000 0.392958
vt 1.000000 0.392958
vt 1.000000 0.229605
vt -0.080567 0.281671
vt 1.000000 0.131037
vt -0.080567 0.113748
vt 1.000000 0.000000
vt 0.000000 0.000000
vt 0.000000 0.000000
vt 1.000000 0.000000
vt 1.000000 1.000000
vt 0.000000 1.000000
vt 0.000000 0.000000
vt 1.000000 0.000000
vt 1.000000 1.000000
vt 0.000000 1.000000
vt 0.000000 0.000000
vt 1.000000 0.000000
vt 1.000000 1.000000
vt 0.000000 1.000000
vt 0.000000 0.000000
vt 1.000000 0.000000
vt 1.000000 1.000000
vt 0.000000 1.000000
vn -0.998630 0.052337 0.000000
vn -0.998630 0.052337 0.000000
vn -0.998630 0.052337 0.000000
vn -0.998630 0.052337 0.000000
vn -0.258819 0.965926 0.000000
vn -0.258819 0.965926 0.000000
vn -0.258819 0.965926 0.000000
vn -0.258819 0.965926 0.000000
vn 0.838671 0.544639 0.000000
vn 0.838671 0.544639 0.000000
vn 0.838671 0.544639 0.000000
vn 0.838671 0.544639 0.000000
vn 0.777147 -0.629320 0.000000
vn 0.777147 -0.629320 0.000000
vn 0.777147 -0.629320 0.000000
vn 0.777147 -0.629320 0.000000
vn -0.358368 -0.933580 0.000000
vn -0.358368 -0.933580 0.000000
vn -0.358368 -0.933580 0.000000
vn -0.358368 -0.933580 0.000000
vn -0.000000 0.000000 1.000000
vn 0.000001 0.000000 1.000000
vn -0.000000 0.000000 1.000000
vn -0.000000 0.000000 1.000000
vn -0.000000 0.000000 1.000000
vn -0.000000 0.000000 1.000000
vn 0.000004 0.000000 -1.000000
vn -0.000000 0.000000 -1.000000
vn 0.000001 0.000000 -1.000000
vn -0.000001 0.000000 -1.000000
vn 0.000000 0.000000 -1.000000
vn 0.000003 0.000000 -1.000000
vn 0.998630 -0.052335 0.000000
vn 0.998630 -0.052335 0.000000
vn 0.998630 -0.052335 0.000000
vn 0.998630 -0.052335 0.000000
vn 0.258819 -0.965926 0.000000
vn 0.258819 -0.965926 0.000000
vn 0.258819 -0.965926 0.000000
vn 0.258819 -0.965926 0.000000
vn -0.838671 -0.544639 0.000000
vn -0.838671 -0.544639 0.000000
vn -0.838671 -0.544639 0.000000
vn -0.838671 -0.544639 0.000000
vn -0.777147 0.629320 0.000000
vn -0.777147 0.629320 0.000000
vn -0.777147 0.629320 0.000000
vn -0.777147 0.629320 0.000000
vn 0.358369 0.933580 0.000000
vn 0.358369 0.933580 0.000000
vn 0.358369 0.933580 0.000000
vn 0.358369 0.933580 0.000000
vn 0.000000 0.000000 1.000000
vn -0.000000 0.000000 1.000000
vn -0.000000 0.000000 1.000000
vn -0.000000 0.000000 1.000000
vn -0.000000 0.000000 1.000000
vn -0.000000 0.000000 1.000000
vn 0.000001 0.000000 -1.000000
vn 0.000001 0.000000 -1.000000
vn 0.000000 0.000000 -1.000000
vn 0.000001 0.000000 -1.000000
vn -0.000001 0.000000 -1.000000
vn -0.000001 0.000000 -1.000000
vn -0.732503 0.680764 0.000000
vn -0.732503 0.680764 0.000000
vn -0.986851 0.161631 0.000000
vn -0.971270 0.237981 0.000000
vn -0.986813 -0.161866 0.000000
vn -0.971741 -0.236049 0.000000
vn -0.743381 -0.668868 0.000000
vn -0.743381 -0.668868 0.000000
vn -1.000000 0.000000 0.000000
vn -1.000000 0.000000 0.000000
vn -1.000000 0.000000 0.000000
vn -1.000000 0.000000 0.000000
vn 0.000000 1.000000 0.000000
vn 0.000000 1.000000 0.000000
vn 0.000000 1.000000 0.000000
vn 0.000000 1.000000 0.000000
vn 0.000000 -1.000000 0.000000
vn 0.000000 -1.000000 0.000000
vn 0.000000 -1.000000 0.000000
vn 0.000000 -1.000000 0.000000
vn 0.000000 0.707108 -0.707105
vn 0.000000 0.707108 -0.707105
vn 0.000000 0.267865 -0.963457
vn 0.000000 0.191592 -0.981475
vn 0.000000 -0.265609 -0.964081
vn 0.000000 -0.191528 -0.981487
vn 0.000000 -0.695573 -0.718455
vn 0.000000 -0.695573 -0.718455
vn -1.000000 0.000000 0.000000
vn -1.000000 0.000000 0.000000
vn -1.000000 0.000000 0.000000
vn -1.000000 0.000000 0.000000
vn -1.000000 0.000001 0.000000
vn -1.000000 0.000001 0.000000
vn -1.000000 0.000001 0.000000
vn -1.000000 0.000001 0.000000
vn -1.000000 0.000000 0.000000
vn -1.000000 0.000000 0.000000
vn -1.000000 0.000000 0.000000
vn -1.000000 0.000000 0.000000
vn -1.000000 0.000000 0.000000
vn -1.000000 0.000000 0.000000
vn -1.000000 0.000000 0.000000
vn -1.000000 0.000000 0.000000
s off
g road_Intrsc:road_Intrsc:pCylinder2
usemtl initialShadingGroup
f 1/6/1 2/7/2 7/13/3 6/12/4
f 2/7/5 3/8/6 8/14/7 7/13/8
f 3/8/9 4/9/10 9/15/11 8/14/12
f 4/9/13 5/10/14 10/16/15 9/15/16
f 5/10/17 1/11/18 6/17/19 10/16/20
s 1
f 2/2/21 1/1/22 11/23/23
f 3/3/24 2/2/21 11/23/23
f 4/4/25 3/3/24 11/23/23
f 5/5/26 4/4/25 11/23/23
f 1/1/22 5/5/26 11/23/23
s 2
f 6/21/27 7/20/28 12/24/29
f 7/20/28 8/19/30 12/24/29
f 8/19/30 9/18/31 12/24/29
f 9/18/31 10/22/32 12/24/29
f 10/22/32 6/21/27 12/24/29
s off
f 13/25/33 14/26/34 19/27/35 18/28/36
f 14/26/37 15/29/38 20/30/39 19/27/40
f 15/29/41 16/31/42 21/32/43 20/30/44
f 16/31/45 17/33/46 22/34/47 21/32/48
f 17/33/49 13/35/50 18/36/51 22/34/52
s 3
f 14/37/53 13/38/54 23/39/55
f 15/40/56 14/37/53 23/39/55
f 16/41/57 15/40/56 23/39/55
f 17/42/58 16/41/57 23/39/55
f 13/38/54 17/42/58 23/39/55
s 4
f 18/43/59 19/44/60 24/45/61
f 19/44/60 20/46/62 24/45/61
f 20/46/62 21/47/63 24/45/61
f 21/47/63 22/48/64 24/45/61
f 22/48/64 18/43/59 24/45/61
s 5
f 28/49/65 25/50/66 29/51/67 30/52/68
f 30/52/68 29/51/67 32/53/69 31/54/70
f 31/54/70 32/53/69 26/55/71 27/56/72
s off
f 34/57/73 33/58/74 35/59/75 36/60/76
f 25/61/77 28/62/78 33/58/79 34/57/80
f 27/63/81 26/55/82 37/64/83 38/65/84
s 6
f 25/66/85 34/67/86 39/68/87 29/69/88
f 29/69/88 39/68/87 40/70/89 32/71/90
f 32/71/90 40/70/89 37/72/91 26/73/92
s off
f 34/74/93 36/75/94 42/76/95 41/77/96
f 39/78/97 34/79/98 41/80/99 43/81/100
f 40/82/101 39/83/102 43/84/103 44/85/104
f 37/86/105 40/87/106 44/88/107 45/89/108
