# This file uses centimeters as units for non-parametric coordinates.

mtllib sewer_Mid.mtl
g sewer_Mid:default1
v 6.070635 -14.999995 21.999998
v 6.070635 -5.934204 21.999998
v 6.070635 -5.934204 -22.000002
v 6.070635 -14.999995 -22.000002
v 7.929365 -13.000000 21.999998
v 7.929365 -13.000000 -22.000002
v 7.929365 -7.999999 -22.000002
v 7.929365 -7.999999 21.999998
v -17.000002 -14.999995 -22.000002
v -17.000002 -14.999995 21.999998
v -17.000002 -21.000000 -22.000002
v -17.000002 -21.000000 21.999998
v -17.000000 -5.934204 21.999998
v -17.000000 -5.934204 -22.000002
g default
v 4.732416 -8.173771 22.000008
v 4.752046 -7.799211 22.000008
v 5.114340 -7.702134 22.000008
v 5.318620 -8.016698 22.000008
v 5.082578 -8.308186 22.000008
v 4.732416 -8.173771 -22.000008
v 4.752046 -7.799211 -22.000008
v 5.114340 -7.702134 -22.000008
v 5.318620 -8.016698 -22.000008
v 5.082578 -8.308186 -22.000008
v 5.000000 -8.000000 22.000008
v 5.000000 -8.000000 -22.000008
v 6.571086 -9.629132 22.000008
v 6.529192 -10.428532 22.000008
v 5.755971 -10.635715 22.000008
v 5.319990 -9.964363 22.000008
v 5.823759 -9.342259 22.000008
v 6.571086 -9.629132 -22.000008
v 6.529192 -10.428532 -22.000008
v 5.755971 -10.635715 -22.000008
v 5.319990 -9.964363 -22.000008
v 5.823759 -9.342259 -22.000008
v 6.000000 -10.000000 22.000008
v 6.000000 -10.000000 -22.000008
v 6.484314 -12.464013 0.302077
v 6.449146 -12.464013 -0.368974
v 5.800072 -12.464013 -0.542894
v 5.434090 -12.464013 0.020670
v 5.856974 -12.464013 0.542890
v 6.484314 -9.994312 0.302077
v 6.449146 -9.994312 -0.368974
v 5.800072 -9.994312 -0.542894
v 5.434090 -9.994312 0.020670
v 5.856974 -9.994312 0.542890
v 6.004920 -9.994312 -0.009246
v 6.578378 -12.628693 0.302077
v 6.553511 -12.653560 -0.368974
v 6.094546 -13.112525 -0.542892
v 5.835757 -13.371314 0.020670
v 6.134782 -13.072289 0.542890
v 6.750207 -12.714065 0.302077
v 6.750206 -12.749231 -0.368974
v 6.750206 -13.398308 -0.542892
v 6.750206 -13.764292 0.020670
v 6.750206 -13.341406 0.542890
v 8.494576 -12.714066 0.302075
v 8.494576 -12.749233 -0.368974
v 8.494576 -13.193460 -0.009246
v 8.494576 -13.398310 -0.542892
v 8.494575 -13.764292 0.020670
v 8.494576 -13.341406 0.542890
v 4.787782 -11.695807 -8.333359
v 4.803704 -11.695807 -8.029552
v 5.097562 -11.695807 -7.950813
v 5.263253 -11.695807 -8.205957
v 5.071799 -11.695807 -8.442383
v 4.787782 -7.969017 -8.333359
v 4.803704 -7.969017 -8.029552
v 5.097562 -7.969017 -7.950813
v 5.263253 -7.969017 -8.205957
v 5.071799 -7.969017 -8.442383
v 5.004820 -7.969017 -8.192413
v 4.985739 -12.119883 -8.333361
v 4.996997 -12.108624 -8.029552
v 5.204786 -11.900837 -7.950813
v 5.321948 -11.783675 -8.205957
v 5.186569 -11.919054 -8.442384
v 5.415018 -12.295397 -8.333361
v 5.415018 -12.279474 -8.029552
v 5.415018 -11.985617 -7.950813
v 5.415018 -11.819923 -8.205957
v 5.415018 -12.011379 -8.442384
v 8.203707 -12.295388 -8.333352
v 8.203707 -12.279467 -8.029559
v 8.203706 -12.078362 -8.192411
v 8.203707 -11.985626 -7.950823
v 8.203708 -11.819947 -8.205953
v 8.203707 -12.011391 -8.442369
vt 0.375000 0.000000
vt 0.375000 0.065760
vt 0.375000 0.250000
vt 0.375000 0.500000
vt 0.125000 0.000000
vt 0.125000 0.065455
vt 0.375000 0.155480
vt 0.375000 0.750000
vt 0.125000 0.155237
vt 0.125000 0.250000
vt 0.375000 1.000000
vt 0.375000 1.000000
vt 0.375000 0.750000
vt 0.375000 0.750000
vt 0.375000 1.000000
vt 0.375000 0.500000
vt 0.375000 0.250000
vt 0.375000 0.312500
vt 0.425000 0.312500
vt 0.425000 0.688440
vt 0.375000 0.688440
vt 0.475000 0.312500
vt 0.475000 0.688440
vt 0.525000 0.312500
vt 0.525000 0.688440
vt 0.575000 0.312500
vt 0.575000 0.688440
vt 0.625000 0.312500
vt 0.625000 0.688440
vt 0.373591 0.064409
vt 0.548284 0.007647
vt 0.500000 0.150000
vt 0.373591 0.248091
vt 0.548284 0.304853
vt 0.656250 0.156250
vt 0.548284 0.992353
vt 0.373591 0.935591
vt 0.500000 0.837500
vt 0.373591 0.751909
vt 0.548284 0.695147
vt 0.656250 0.843750
vt 0.375000 0.312500
vt 0.425000 0.312500
vt 0.425000 0.688440
vt 0.375000 0.688440
vt 0.475000 0.312500
vt 0.475000 0.688440
vt 0.525000 0.312500
vt 0.525000 0.688440
vt 0.575000 0.312500
vt 0.575000 0.688440
vt 0.625000 0.312500
vt 0.625000 0.688440
vt 0.373591 0.064409
vt 0.548284 0.007647
vt 0.500000 0.150000
vt 0.373591 0.248091
vt 0.548284 0.304853
vt 0.656250 0.156250
vt 0.548284 0.992353
vt 0.373591 0.935591
vt 0.500000 0.837500
vt 0.373591 0.751909
vt 0.548284 0.695147
vt 0.656250 0.843750
vt 0.375000 0.312500
vt 0.425000 0.312500
vt 0.425000 0.688440
vt 0.375000 0.688440
vt 0.475000 0.312500
vt 0.475000 0.688440
vt 0.525000 0.312500
vt 0.525000 0.688440
vt 0.575000 0.312500
vt 0.575000 0.688440
vt 0.625000 0.312500
vt 0.625000 0.688440
vt 0.373591 0.064409
vt 0.548284 0.007647
vt 0.500000 0.150000
vt 0.373591 0.248091
vt 0.548284 0.304853
vt 0.656250 0.156250
vt 0.548284 0.992353
vt 0.373591 0.935591
vt 0.500000 0.837500
vt 0.373591 0.751909
vt 0.548284 0.695147
vt 0.656250 0.843750
vt 0.373591 0.064409
vt 0.548284 0.007647
vt 0.548284 0.007647
vt 0.373591 0.064409
vt 0.373591 0.248091
vt 0.373591 0.248091
vt 0.548284 0.304853
vt 0.548284 0.304853
vt 0.656250 0.156250
vt 0.656250 0.156250
vt 0.548284 0.007647
vt 0.373591 0.064409
vt 0.373591 0.248091
vt 0.548284 0.304853
vt 0.656250 0.156250
vt 0.375000 0.312500
vt 0.425000 0.312500
vt 0.425000 0.688440
vt 0.375000 0.688440
vt 0.475000 0.312500
vt 0.475000 0.688440
vt 0.525000 0.312500
vt 0.525000 0.688440
vt 0.575000 0.312500
vt 0.575000 0.688440
vt 0.625000 0.312500
vt 0.625000 0.688440
vt 0.373591 0.064409
vt 0.548284 0.007647
vt 0.500000 0.150000
vt 0.373591 0.248091
vt 0.548284 0.304853
vt 0.656250 0.156250
vt 0.548284 0.992353
vt 0.373591 0.935591
vt 0.500000 0.837500
vt 0.373591 0.751909
vt 0.548284 0.695147
vt 0.656250 0.843750
vt 0.373591 0.064409
vt 0.548284 0.007647
vt 0.548284 0.007647
vt 0.373591 0.064409
vt 0.373591 0.248091
vt 0.373591 0.248091
vt 0.548284 0.304853
vt 0.548284 0.304853
vt 0.656250 0.156250
vt 0.656250 0.156250
vt 0.548284 0.007647
vt 0.373591 0.064409
vt 0.373591 0.248091
vt 0.548284 0.304853
vt 0.656250 0.156250
vn -0.732503 0.680764 0.000000
vn -0.732503 0.680764 0.000000
vn -0.966507 0.256640 0.000000
vn -0.966507 0.256640 0.000000
vn -0.966507 0.256640 0.000000
vn -0.966507 0.256640 0.000000
vn -0.967098 -0.254405 0.000000
vn -0.967098 -0.254405 0.000000
vn -0.967098 -0.254405 0.000000
vn -0.967098 -0.254405 0.000000
vn -0.743381 -0.668868 0.000000
vn -0.743381 -0.668868 0.000000
vn -1.000000 0.000000 0.000000
vn -1.000000 0.000000 0.000000
vn -1.000000 0.000000 0.000000
vn -1.000000 0.000000 0.000000
vn 0.000000 1.000000 0.000000
vn 0.000000 1.000000 0.000000
vn 0.000000 1.000000 0.000000
vn 0.000000 1.000000 0.000000
vn 0.000000 -1.000000 0.000000
vn 0.000000 -1.000000 0.000000
vn 0.000000 -1.000000 0.000000
vn 0.000000 -1.000000 0.000000
vn -0.998630 0.052336 0.000000
vn -0.998630 0.052336 0.000000
vn -0.998630 0.052336 0.000000
vn -0.998630 0.052336 0.000000
vn -0.258819 0.965926 0.000000
vn -0.258819 0.965926 0.000000
vn -0.258819 0.965926 0.000000
vn -0.258819 0.965926 0.000000
vn 0.838671 0.544638 0.000000
vn 0.838671 0.544638 0.000000
vn 0.838671 0.544638 0.000000
vn 0.838671 0.544638 0.000000
vn 0.777147 -0.629320 0.000000
vn 0.777147 -0.629320 0.000000
vn 0.777147 -0.629320 0.000000
vn 0.777147 -0.629320 0.000000
vn -0.358368 -0.933580 0.000000
vn -0.358368 -0.933580 0.000000
vn -0.358368 -0.933580 0.000000
vn -0.358368 -0.933580 0.000000
vn -0.000005 0.000000 1.000000
vn 0.000000 0.000000 1.000000
vn -0.000001 0.000000 1.000000
vn -0.000004 0.000000 1.000000
vn 0.000001 0.000000 1.000000
vn 0.000000 0.000000 1.000000
vn 0.000000 0.000000 -1.000000
vn -0.000005 0.000000 -1.000000
vn -0.000002 0.000000 -1.000000
vn -0.000005 0.000000 -1.000000
vn -0.000001 0.000000 -1.000000
vn -0.000001 0.000000 -1.000000
vn 0.998630 -0.052335 0.000000
vn 0.998630 -0.052335 0.000000
vn 0.998630 -0.052335 0.000000
vn 0.998630 -0.052335 0.000000
vn 0.258819 -0.965926 0.000000
vn 0.258819 -0.965926 0.000000
vn 0.258819 -0.965926 0.000000
vn 0.258819 -0.965926 0.000000
vn -0.838671 -0.544639 0.000000
vn -0.838671 -0.544639 0.000000
vn -0.838671 -0.544639 0.000000
vn -0.838671 -0.544639 0.000000
vn -0.777147 0.629319 0.000000
vn -0.777147 0.629319 0.000000
vn -0.777147 0.629319 0.000000
vn -0.777147 0.629319 0.000000
vn 0.358369 0.933580 0.000000
vn 0.358369 0.933580 0.000000
vn 0.358369 0.933580 0.000000
vn 0.358369 0.933580 0.000000
vn 0.000002 0.000000 1.000000
vn -0.000002 0.000000 1.000000
vn -0.000000 0.000000 1.000000
vn 0.000001 0.000000 1.000000
vn -0.000001 0.000000 1.000000
vn -0.000002 0.000000 1.000000
vn -0.000002 0.000000 -1.000000
vn 0.000002 0.000000 -1.000000
vn 0.000000 0.000000 -1.000000
vn 0.000002 0.000000 -1.000000
vn 0.000001 0.000000 -1.000000
vn -0.000001 0.000000 -1.000000
vn 0.997899 0.037982 -0.052480
vn 0.997942 0.036846 -0.052477
vn 0.998630 0.000000 -0.052335
vn 0.998630 0.000000 -0.052335
vn 0.257803 0.022290 -0.965940
vn 0.258211 0.013682 -0.965992
vn 0.258821 0.000000 -0.965925
vn 0.258821 0.000000 -0.965925
vn -0.833791 -0.098861 -0.543156
vn -0.835392 -0.079561 -0.543866
vn -0.838671 0.000000 -0.544638
vn -0.838671 0.000000 -0.544638
vn -0.774437 -0.070881 0.628668
vn -0.772916 -0.091445 0.627885
vn -0.777147 0.000000 0.629319
vn -0.777147 0.000000 0.629319
vn 0.357538 0.017991 0.933725
vn 0.356966 0.029152 0.933663
vn 0.358367 0.000000 0.933581
vn 0.358367 0.000000 0.933581
vn 1.000000 -0.000001 -0.000001
vn 1.000000 -0.000001 0.000001
vn 1.000000 -0.000000 0.000000
vn 1.000000 -0.000001 -0.000001
vn 1.000000 0.000002 0.000000
vn 1.000000 0.000000 0.000001
vn 0.000000 1.000000 -0.000000
vn 0.000000 1.000000 -0.000002
vn 0.000000 1.000000 -0.000001
vn 0.000000 1.000000 -0.000002
vn 0.000000 1.000000 0.000000
vn 0.000000 1.000000 -0.000000
vn 0.871433 0.488159 -0.048027
vn 0.871433 0.488159 -0.048027
vn 0.251826 0.119845 -0.960323
vn 0.251826 0.119845 -0.960323
vn -0.782802 -0.350262 -0.514332
vn -0.782802 -0.350262 -0.514332
vn -0.730753 -0.327617 0.598888
vn -0.730753 -0.327617 0.598888
vn 0.346215 0.166565 0.923250
vn 0.346215 0.166565 0.923250
vn 0.440418 0.896495 -0.048259
vn 0.440418 0.896495 -0.048259
vn 0.047446 0.997498 -0.052412
vn 0.046204 0.997556 -0.052412
vn 0.113824 0.254339 -0.960393
vn 0.113824 0.254339 -0.960393
vn 0.027473 0.258045 -0.965742
vn 0.017859 0.258337 -0.965890
vn -0.340276 -0.787127 -0.514435
vn -0.340276 -0.787127 -0.514435
vn -0.121919 -0.831878 -0.541401
vn -0.100771 -0.833958 -0.542549
vn -0.318040 -0.734882 0.598999
vn -0.318040 -0.734882 0.598999
vn -0.090118 -0.773442 0.627429
vn -0.112725 -0.771515 0.626146
vn 0.157597 0.349995 0.923400
vn 0.157597 0.349995 0.923400
vn 0.023471 0.357690 0.933545
vn 0.035892 0.357251 0.933319
vn 0.000001 0.998630 -0.052334
vn 0.000001 0.998630 -0.052334
vn 0.000000 0.258817 -0.965926
vn 0.000000 0.258817 -0.965926
vn -0.000000 -0.838669 -0.544641
vn -0.000000 -0.838669 -0.544641
vn 0.000000 -0.777145 0.629322
vn 0.000000 -0.777145 0.629322
vn 0.000001 0.358368 0.933580
vn 0.000001 0.358368 0.933580
vn -0.997545 -0.046480 0.052377
vn -0.997489 -0.047672 0.052376
vn -0.998630 0.000000 0.052335
vn -0.998630 0.000000 0.052335
vn -0.258461 -0.007186 0.965995
vn -0.258204 -0.012179 0.966014
vn -0.258819 0.000000 0.965926
vn -0.258819 0.000000 0.965926
vn 0.838149 0.015129 0.545231
vn 0.837881 0.021300 0.545438
vn 0.838672 0.000000 0.544637
vn 0.838672 0.000000 0.544637
vn 0.776213 0.021091 -0.630118
vn 0.776555 0.014231 -0.629889
vn 0.777146 0.000000 -0.629321
vn 0.777146 0.000000 -0.629321
vn -0.357556 -0.017290 -0.933732
vn -0.357890 -0.010461 -0.933705
vn -0.358369 0.000000 -0.933580
vn -0.358369 0.000000 -0.933580
vn 1.000000 0.000000 -0.000002
vn 1.000000 0.000000 0.000002
vn 1.000000 0.000000 0.000000
vn 1.000000 0.000001 -0.000003
vn 1.000000 -0.000001 0.000000
vn 1.000000 0.000002 0.000003
vn 0.000000 1.000000 0.000002
vn 0.000000 1.000000 0.000002
vn 0.000000 1.000000 0.000001
vn 0.000000 1.000000 0.000002
vn 0.000000 1.000000 0.000000
vn 0.000000 1.000000 0.000002
vn -0.904835 -0.423013 0.048312
vn -0.904835 -0.423013 0.048312
vn -0.250907 -0.122039 0.960288
vn -0.250907 -0.122039 0.960288
vn 0.747592 0.423491 0.511627
vn 0.747592 0.423491 0.511627
vn 0.701036 0.390872 -0.596463
vn 0.701036 0.390872 -0.596463
vn -0.345971 -0.167138 -0.923238
vn -0.345971 -0.167138 -0.923238
vn -0.377949 -0.924563 0.048359
vn -0.377949 -0.924563 0.048359
vn -0.053171 -0.997218 0.052251
vn -0.054344 -0.997154 0.052248
vn -0.104983 -0.258013 0.960421
vn -0.104983 -0.258013 0.960421
vn -0.008322 -0.258863 0.965878
vn -0.012864 -0.258877 0.965825
vn 0.317815 0.796454 0.514446
vn 0.317815 0.796454 0.514446
vn 0.015113 0.838635 0.544484
vn 0.019324 0.838591 0.544418
vn 0.297319 0.743491 -0.599019
vn 0.297319 0.743491 -0.599019
vn 0.019276 0.777097 -0.629086
vn 0.014499 0.777135 -0.629166
vn -0.144711 -0.355360 -0.923460
vn -0.144711 -0.355360 -0.923460
vn -0.018453 -0.358404 -0.933384
vn -0.012148 -0.358405 -0.933487
vn 0.000003 -0.998629 0.052339
vn 0.000003 -0.998629 0.052339
vn 0.000003 -0.258822 0.965925
vn 0.000003 -0.258822 0.965925
vn 0.000006 0.838671 0.544639
vn 0.000006 0.838671 0.544639
vn 0.000007 0.777144 -0.629322
vn 0.000007 0.777144 -0.629322
vn 0.000004 -0.358367 -0.933581
vn 0.000004 -0.358367 -0.933581
s off
g sewer_Mid:polySurface3 sewer_Mid:polySurface5 road_Intrsc:sewer_Mid:polySurface1
usemtl sewer_Mid:initialShadingGroup
f 4/5/1 1/1/2 5/2/3 6/6/4
f 6/6/5 5/2/6 8/7/7 7/9/8
f 7/9/9 8/7/10 2/3/11 3/10/12
f 10/12/13 9/13/14 11/14/15 12/15/16
f 1/11/17 4/8/18 9/13/19 10/12/20
f 3/4/21 2/3/22 13/17/23 14/16/24
g road_Intrsc:sewer_Mid:polySurface1
usemtl initialShadingGroup
f 15/18/25 16/19/26 21/20/27 20/21/28
f 16/19/29 17/22/30 22/23/31 21/20/32
f 17/22/33 18/24/34 23/25/35 22/23/36
f 18/24/37 19/26/38 24/27/39 23/25/40
f 19/26/41 15/28/42 20/29/43 24/27/44
s 1
f 16/30/45 15/31/46 25/32/47
f 17/33/48 16/30/45 25/32/47
f 18/34/49 17/33/48 25/32/47
f 19/35/50 18/34/49 25/32/47
f 15/31/46 19/35/50 25/32/47
s 2
f 20/36/51 21/37/52 26/38/53
f 21/37/52 22/39/54 26/38/53
f 22/39/54 23/40/55 26/38/53
f 23/40/55 24/41/56 26/38/53
f 24/41/56 20/36/51 26/38/53
s off
f 27/42/57 28/43/58 33/44/59 32/45/60
f 28/43/61 29/46/62 34/47/63 33/44/64
f 29/46/65 30/48/66 35/49/67 34/47/68
f 30/48/69 31/50/70 36/51/71 35/49/72
f 31/50/73 27/52/74 32/53/75 36/51/76
s 3
f 28/54/77 27/55/78 37/56/79
f 29/57/80 28/54/77 37/56/79
f 30/58/81 29/57/80 37/56/79
f 31/59/82 30/58/81 37/56/79
f 27/55/78 31/59/82 37/56/79
s 4
f 32/60/83 33/61/84 38/62/85
f 33/61/84 34/63/86 38/62/85
f 34/63/86 35/64/87 38/62/85
f 35/64/87 36/65/88 38/62/85
f 36/65/88 32/60/83 38/62/85
s 5
f 39/66/89 40/67/90 45/68/91 44/69/92
s 6
f 40/67/93 41/70/94 46/71/95 45/68/96
s 7
f 41/70/97 42/72/98 47/73/99 46/71/100
s 8
f 42/72/101 43/74/102 48/75/103 47/73/104
s 9
f 43/74/105 39/76/106 44/77/107 48/75/108
s 10
f 61/78/109 60/79/110 62/80/111
f 63/81/112 61/78/109 62/80/111
f 64/82/113 63/81/112 62/80/111
f 65/83/114 64/82/113 62/80/111
f 60/79/110 65/83/114 62/80/111
s 11
f 44/84/115 45/85/116 49/86/117
f 45/85/116 46/87/118 49/86/117
f 46/87/118 47/88/119 49/86/117
f 47/88/119 48/89/120 49/86/117
f 48/89/120 44/84/115 49/86/117
s 5
f 40/90/90 39/91/89 50/92/121 51/93/122
s 6
f 41/94/94 40/90/93 51/93/123 52/95/124
s 7
f 42/96/98 41/94/97 52/95/125 53/97/126
s 8
f 43/98/102 42/96/101 53/97/127 54/99/128
s 9
f 39/91/106 43/98/105 54/99/129 50/92/130
s 12
f 51/93/131 50/92/132 55/100/133 56/101/134
s 13
f 52/95/135 51/93/136 56/101/137 57/102/138
s 14
f 53/97/139 52/95/140 57/102/141 58/103/142
s 15
f 54/99/143 53/97/144 58/103/145 59/104/146
s 16
f 50/92/147 54/99/148 59/104/149 55/100/150
s 12
f 56/101/134 55/100/133 60/79/151 61/78/152
s 13
f 57/102/138 56/101/137 61/78/153 63/81/154
s 14
f 58/103/142 57/102/141 63/81/155 64/82/156
s 15
f 59/104/146 58/103/145 64/82/157 65/83/158
s 16
f 55/100/150 59/104/149 65/83/159 60/79/160
s 17
f 66/105/161 67/106/162 72/107/163 71/108/164
s 18
f 67/106/165 68/109/166 73/110/167 72/107/168
s 19
f 68/109/169 69/111/170 74/112/171 73/110/172
s 20
f 69/111/173 70/113/174 75/114/175 74/112/176
s 21
f 70/113/177 66/115/178 71/116/179 75/114/180
s 22
f 88/117/181 87/118/182 89/119/183
f 90/120/184 88/117/181 89/119/183
f 91/121/185 90/120/184 89/119/183
f 92/122/186 91/121/185 89/119/183
f 87/118/182 92/122/186 89/119/183
s 23
f 71/123/187 72/124/188 76/125/189
f 72/124/188 73/126/190 76/125/189
f 73/126/190 74/127/191 76/125/189
f 74/127/191 75/128/192 76/125/189
f 75/128/192 71/123/187 76/125/189
s 17
f 67/129/162 66/130/161 77/131/193 78/132/194
s 18
f 68/133/166 67/129/165 78/132/195 79/134/196
s 19
f 69/135/170 68/133/169 79/134/197 80/136/198
s 20
f 70/137/174 69/135/173 80/136/199 81/138/200
s 21
f 66/130/178 70/137/177 81/138/201 77/131/202
s 24
f 78/132/203 77/131/204 82/139/205 83/140/206
s 25
f 79/134/207 78/132/208 83/140/209 84/141/210
s 26
f 80/136/211 79/134/212 84/141/213 85/142/214
s 27
f 81/138/215 80/136/216 85/142/217 86/143/218
s 28
f 77/131/219 81/138/220 86/143/221 82/139/222
s 24
f 83/140/206 82/139/205 87/118/223 88/117/224
s 25
f 84/141/210 83/140/209 88/117/225 90/120/226
s 26
f 85/142/214 84/141/213 90/120/227 91/121/228
s 27
f 86/143/218 85/142/217 91/121/229 92/122/230
s 28
f 82/139/222 86/143/221 92/122/231 87/118/232
