# 3ds Max Wavefront OBJ Exporter v0.97b - (c)2007 guruware
# File Created: 04.11.2015 11:14:21

mtllib Bath_Sink_Asset.mtl

#
# object Box002
#

v  1004.2923 -74.8545 -572.1317
v  999.7521 -70.8510 -572.1317
v  1064.7521 -70.8510 -572.1317
v  1060.2118 -74.8545 -572.1317
v  1004.2923 -74.8545 -553.7594
v  1060.2118 -74.8545 -553.7594
v  1064.7521 -70.8510 -550.7323
v  999.7521 -70.8510 -550.7323
v  999.7521 -59.4704 -572.1317
v  1064.7521 -59.4704 -572.1317
v  1064.7521 -59.4704 -550.7323
v  999.7521 -59.4704 -550.7323
v  1004.2923 -55.6223 -572.1317
v  1060.2118 -55.6223 -572.1317
v  1060.2118 -55.6223 -554.8107
v  1004.2923 -55.6223 -554.8107
v  1055.7581 -78.2765 -572.1317
v  1008.7461 -78.2765 -572.1317
v  1008.7461 -78.2765 -558.2635
v  1055.7581 -78.2765 -558.2635
v  1004.2923 -65.6223 -554.8108
v  1060.2118 -65.6223 -554.8108
v  1060.2118 -65.6223 -572.1317
v  1004.2923 -65.6223 -572.1317
# 24 vertices

vn 0.0000 0.0000 -1.0000
vn 0.0000 -0.6031 0.7977
vn 0.6614 -0.7500 -0.0000
vn -0.6614 -0.7500 -0.0000
vn 0.0000 -0.0000 1.0000
vn 1.0000 0.0000 -0.0000
vn -1.0000 0.0000 -0.0000
vn 0.0000 0.7274 0.6863
vn 0.6466 0.7629 0.0000
vn -0.6466 0.7629 0.0000
vn 0.0000 -0.7963 0.6050
vn 0.6093 -0.7930 0.0000
vn -0.6093 -0.7930 0.0000
vn 0.0000 -1.0000 0.0000
vn 0.0000 1.0000 0.0000
# 15 vertex normals

vt 1.0000 0.0000 0.0000
vt 1.0000 1.0000 0.0000
vt 0.0000 1.0000 0.0000
vt 0.0000 0.0000 0.0000
# 4 texture coords

g Box002
usemtl wire_135059008
s 2
f 1/1/1 2/2/1 3/3/1 4/4/1 
s 4
f 5/4/2 6/1/2 7/2/2 8/3/2 
s 16
f 4/4/3 3/1/3 7/2/3 6/3/3 
s 64
f 2/4/4 1/1/4 5/2/4 8/3/4 
s off
f 3/3/1 2/2/1 9/2/1 10/3/1 
f 8/3/5 7/2/5 11/2/5 12/3/5 
f 7/2/6 3/1/6 10/1/6 11/2/6 
f 2/4/7 8/3/7 12/3/7 9/4/7 
f 10/3/1 9/2/1 13/2/1 14/3/1 
f 12/3/8 11/2/8 15/2/8 16/3/8 
f 11/2/9 10/1/9 14/1/9 15/2/9 
f 9/4/10 12/3/10 16/3/10 13/4/10 
f 1/1/1 4/4/1 17/4/1 18/1/1 
f 6/1/11 5/4/11 19/4/11 20/1/11 
f 4/4/12 6/3/12 20/3/12 17/4/12 
f 5/2/13 1/1/13 18/1/13 19/2/13 
f 20/3/14 19/4/14 18/1/14 17/4/14 
f 21/3/15 22/2/15 23/1/15 24/2/15 
f 14/3/5 13/2/5 24/2/5 23/1/5 
f 13/4/6 16/3/6 21/3/6 24/2/6 
f 16/3/1 15/2/1 22/2/1 21/3/1 
f 15/2/7 14/1/7 23/1/7 22/2/7 
# 22 polygons

