# Blender v2.75 (sub 0) OBJ File: ''
# www.blender.org
mtllib Bethpost_king.mtl
o polySurface2_Untitled.005
v -0.109815 0.015960 -0.079453
v 0.120902 0.015960 -0.079453
v -0.109815 0.036264 -0.079453
v 0.120902 0.036264 -0.079453
v -0.109815 0.036265 -0.244389
v 0.120902 0.036265 -0.244389
v -0.109815 0.015960 -0.244389
v 0.120902 0.015960 -0.244389
v -0.103708 0.036265 -0.244389
v -0.103708 0.015960 -0.244389
v -0.103708 0.015960 -0.079453
v -0.103708 0.036264 -0.079453
v -0.109815 0.110642 -0.079453
v -0.103708 0.110642 -0.079453
v -0.103708 0.110642 -0.244389
v -0.109815 0.110642 -0.244389
v -0.103708 0.042463 -0.085627
v -0.103708 0.042463 -0.238215
v -0.103708 0.104444 -0.238215
v -0.103708 0.104444 -0.085627
v -0.108107 0.042463 -0.085627
v -0.108107 0.042463 -0.238215
v -0.108107 0.104444 -0.238215
v -0.108107 0.104444 -0.085627
v -0.092758 -0.000975 -0.217302
v -0.086525 -0.000975 -0.217302
v -0.093410 0.007497 -0.216646
v -0.085874 0.007497 -0.216646
v -0.094937 0.015969 -0.215106
v -0.084346 0.015969 -0.215106
v -0.094937 0.015969 -0.225778
v -0.084346 0.015969 -0.225778
v -0.093410 0.007497 -0.224239
v -0.085874 0.007497 -0.224239
v -0.092758 -0.000975 -0.223583
v -0.086525 -0.000975 -0.223583
v -0.092758 -0.000975 -0.097664
v -0.086525 -0.000975 -0.097664
v -0.093410 0.007497 -0.097007
v -0.085874 0.007497 -0.097007
v -0.094937 0.015969 -0.095468
v -0.084346 0.015969 -0.095468
v -0.094937 0.015969 -0.106140
v -0.084346 0.015969 -0.106140
v -0.093410 0.007497 -0.104601
v -0.085874 0.007497 -0.104601
v -0.092758 -0.000975 -0.103944
v -0.086525 -0.000975 -0.103944
v 0.098791 -0.000975 -0.217302
v 0.105023 -0.000975 -0.217302
v 0.098139 0.007497 -0.216646
v 0.105675 0.007497 -0.216646
v 0.096612 0.015969 -0.215106
v 0.107202 0.015969 -0.215106
v 0.096612 0.015969 -0.225778
v 0.107202 0.015969 -0.225778
v 0.098139 0.007497 -0.224239
v 0.105675 0.007497 -0.224239
v 0.098791 -0.000975 -0.223583
v 0.105023 -0.000975 -0.223583
v 0.098791 -0.000975 -0.097664
v 0.105023 -0.000975 -0.097664
v 0.098139 0.007497 -0.097007
v 0.105675 0.007497 -0.097007
v 0.096612 0.015969 -0.095468
v 0.107202 0.015969 -0.095468
v 0.096612 0.015969 -0.106140
v 0.107202 0.015969 -0.106140
v 0.098139 0.007497 -0.104601
v 0.105675 0.007497 -0.104601
v 0.098791 -0.000975 -0.103944
v 0.105023 -0.000975 -0.103944
vt 0.375000 0.000000
vt 0.394113 0.000000
vt 0.394113 0.250000
vt 0.375000 0.250000
vt 0.394113 0.500000
vt 0.375000 0.500000
vt 0.394113 0.750000
vt 0.375000 0.750000
vt 0.394113 1.000000
vt 0.375000 1.000000
vt 0.625000 0.000000
vt 0.875000 0.000000
vt 0.875000 0.250000
vt 0.625000 0.250000
vt 0.125000 0.000000
vt 0.125000 0.250000
vt 0.625000 0.500000
vt 0.625000 0.750000
vt 0.625000 1.000000
vt 0.625000 0.125000
vt 0.375000 0.125000
vt 0.625000 0.625000
vt 0.375000 0.625000
vt 0.875000 0.125000
vt 0.125000 0.125000
vn 0.000000 0.000000 1.000000
vn 0.000000 1.000000 0.000000
vn 0.000000 0.000000 -1.000000
vn 0.000000 -1.000000 -0.000000
vn 1.000000 0.000000 0.000000
vn -1.000000 0.000000 0.000000
vn 0.000000 -0.077300 0.997000
vn 0.000000 -0.139200 0.990300
vn 0.000000 -0.178800 0.983900
vn 0.000000 -0.178800 -0.983900
vn 0.000000 -0.139200 -0.990300
vn 0.000000 -0.077300 -0.997000
vn 0.997100 -0.076700 -0.000000
vn 0.990400 -0.138200 0.000000
vn 0.984100 -0.177400 -0.000000
vn -0.997100 -0.076700 -0.000000
vn -0.990400 -0.138200 -0.000000
vn -0.984100 -0.177400 -0.000000
vn -0.990400 -0.138300 -0.000000
vn 0.990400 -0.138300 0.000000
usemtl lambert1.001
s 1
f 1/1/1 11/2/1 12/3/1 3/4/1
f 13/4/2 14/3/2 15/5/2 16/6/2
f 5/6/3 9/5/3 10/7/3 7/8/3
f 7/8/4 10/7/4 11/9/4 1/10/4
f 2/11/5 8/12/5 6/13/5 4/14/5
f 7/15/6 1/1/6 3/4/6 5/16/6
f 9/5/3 6/17/3 8/18/3 10/7/3
f 11/9/4 10/7/4 8/18/4 2/19/4
f 12/3/1 11/2/1 2/11/1 4/14/1
f 9/5/2 12/3/2 4/14/2 6/17/2
f 3/4/1 12/3/1 14/3/1 13/4/1
f 21/3/5 22/5/5 23/5/5 24/3/5
f 9/5/3 5/6/3 16/6/3 15/5/3
f 5/6/6 3/4/6 13/4/6 16/6/6
f 12/3/5 9/5/5 18/5/5 17/3/5
f 9/5/5 15/5/5 19/5/5 18/5/5
f 15/5/5 14/3/5 20/3/5 19/5/5
f 14/3/5 12/3/5 17/3/5 20/3/5
f 17/3/2 18/5/2 22/5/2 21/3/2
f 18/5/1 19/5/1 23/5/1 22/5/1
f 19/5/4 20/3/4 24/3/4 23/5/4
f 20/3/3 17/3/3 21/3/3 24/3/3
f 25/1/7 26/11/7 28/20/8 27/21/8
f 27/21/8 28/20/8 30/14/9 29/4/9
f 29/4/2 30/14/2 32/17/2 31/6/2
f 31/6/10 32/17/10 34/22/11 33/23/11
f 33/23/11 34/22/11 36/18/12 35/8/12
f 35/8/4 36/18/4 26/19/4 25/10/4
f 26/11/13 36/12/13 34/24/14 28/20/14
f 28/20/14 34/24/14 32/13/15 30/14/15
f 35/15/16 25/1/16 27/21/17 33/25/17
f 33/25/17 27/21/17 29/4/18 31/16/18
f 37/1/7 38/11/7 40/20/8 39/21/8
f 39/21/8 40/20/8 42/14/9 41/4/9
f 41/4/2 42/14/2 44/17/2 43/6/2
f 43/6/10 44/17/10 46/22/11 45/23/11
f 45/23/11 46/22/11 48/18/12 47/8/12
f 47/8/4 48/18/4 38/19/4 37/10/4
f 38/11/13 48/12/13 46/24/14 40/20/14
f 40/20/14 46/24/14 44/13/15 42/14/15
f 47/15/16 37/1/16 39/21/19 45/25/19
f 45/25/19 39/21/19 41/4/18 43/16/18
f 49/1/7 50/11/7 52/20/8 51/21/8
f 51/21/8 52/20/8 54/14/9 53/4/9
f 53/4/2 54/14/2 56/17/2 55/6/2
f 55/6/10 56/17/10 58/22/11 57/23/11
f 57/23/11 58/22/11 60/18/12 59/8/12
f 59/8/4 60/18/4 50/19/4 49/10/4
f 50/11/13 60/12/13 58/24/20 52/20/20
f 52/20/20 58/24/20 56/13/15 54/14/15
f 59/15/16 49/1/16 51/21/17 57/25/17
f 57/25/17 51/21/17 53/4/18 55/16/18
f 61/1/7 62/11/7 64/20/8 63/21/8
f 63/21/8 64/20/8 66/14/9 65/4/9
f 65/4/2 66/14/2 68/17/2 67/6/2
f 67/6/10 68/17/10 70/22/11 69/23/11
f 69/23/11 70/22/11 72/18/12 71/8/12
f 71/8/4 72/18/4 62/19/4 61/10/4
f 62/11/13 72/12/13 70/24/14 64/20/14
f 64/20/14 70/24/14 68/13/15 66/14/15
f 71/15/16 61/1/16 63/21/19 69/25/19
f 69/25/19 63/21/19 65/4/18 67/16/18
