# Blender v2.75 (sub 0) OBJ File: ''
# www.blender.org
mtllib bethpost queen.mtl
o polySurface1_Untitled.015
v 0.098789 -0.000175 -0.031619
v 0.105203 -0.000175 -0.031619
v 0.097939 0.004805 -0.030769
v 0.106052 0.004805 -0.030769
v 0.096956 0.011411 -0.029784
v 0.107035 0.011411 -0.029784
v 0.095375 0.017121 -0.028200
v 0.108616 0.017121 -0.028200
v 0.095375 0.017121 -0.041463
v 0.108616 0.017121 -0.041463
v 0.096956 0.011411 -0.039880
v 0.107035 0.011411 -0.039880
v 0.097939 0.004805 -0.038895
v 0.106052 0.004805 -0.038895
v 0.098789 -0.000175 -0.038044
v 0.105203 -0.000175 -0.038044
v -0.098183 -0.000175 -0.031619
v -0.091769 -0.000175 -0.031619
v -0.099032 0.004805 -0.030769
v -0.090920 0.004805 -0.030769
v -0.100016 0.011411 -0.029784
v -0.089937 0.011411 -0.029784
v -0.101597 0.017121 -0.028200
v -0.088356 0.017121 -0.028200
v -0.101597 0.017121 -0.041463
v -0.088356 0.017121 -0.041463
v -0.100016 0.011411 -0.039880
v -0.089937 0.011411 -0.039880
v -0.099032 0.004805 -0.038895
v -0.090920 0.004805 -0.038895
v -0.098183 -0.000175 -0.038044
v -0.091769 -0.000175 -0.038044
v -0.098183 -0.001446 0.052946
v -0.091769 -0.001446 0.052946
v -0.099032 0.003533 0.053797
v -0.090920 0.003533 0.053797
v -0.100016 0.010139 0.054782
v -0.089937 0.010139 0.054782
v -0.101597 0.015850 0.056365
v -0.088356 0.015850 0.056365
v -0.101597 0.015850 0.043102
v -0.088356 0.015850 0.043102
v -0.100016 0.010139 0.044686
v -0.089937 0.010139 0.044686
v -0.099032 0.003533 0.045671
v -0.090920 0.003533 0.045671
v -0.098183 -0.001446 0.046521
v -0.091769 -0.001446 0.046521
v 0.098789 -0.000175 0.052946
v 0.105203 -0.000175 0.052946
v 0.097939 0.004805 0.053797
v 0.106052 0.004805 0.053797
v 0.096956 0.011411 0.054782
v 0.107035 0.011411 0.054782
v 0.095375 0.017121 0.056365
v 0.108616 0.017121 0.056365
v 0.095375 0.017121 0.043102
v 0.108616 0.017121 0.043102
v 0.096956 0.011411 0.044686
v 0.107035 0.011411 0.044686
v 0.097939 0.004805 0.045671
v 0.106052 0.004805 0.045671
v 0.098789 -0.000175 0.046521
v 0.105203 -0.000175 0.046521
v -0.102051 0.016973 0.064196
v -0.102051 0.017852 0.065075
v -0.103810 0.016973 0.065075
v 0.115551 0.016973 0.064196
v 0.116430 0.017852 0.065075
v -0.102931 0.027114 0.064196
v -0.103810 0.026235 0.065075
v -0.102051 0.025356 0.065075
v -0.102051 0.026235 0.064196
v 0.115551 0.026235 0.064196
v 0.116430 0.025356 0.065075
v -0.102931 0.027114 -0.051630
v -0.102051 0.026235 -0.051630
v -0.102051 0.025356 -0.052509
v -0.103810 0.026235 -0.052509
v 0.116430 0.025356 -0.052509
v 0.115551 0.026235 -0.051630
v -0.102051 0.016973 -0.051630
v -0.103810 0.016973 -0.052509
v -0.102051 0.017852 -0.052509
v 0.115551 0.016973 -0.051630
v 0.116430 0.017852 -0.052509
v -0.112580 0.017852 0.064196
v -0.111701 0.016973 0.065075
v -0.112580 0.026235 0.064196
v -0.111701 0.026235 0.065075
v -0.111701 0.026235 -0.052509
v -0.112580 0.026235 -0.051630
v -0.112580 0.017852 -0.051630
v -0.111701 0.016973 -0.052509
v -0.112580 0.035130 0.064196
v -0.111696 0.035130 0.065075
v -0.103815 0.035130 0.065075
v -0.102931 0.035130 0.064196
v -0.102931 0.035130 -0.051630
v -0.103815 0.035130 -0.052509
v -0.111696 0.035130 -0.052509
v -0.112580 0.035130 -0.051630
v -0.114533 0.044367 0.064196
v -0.113620 0.044367 0.065075
v -0.105796 0.044367 0.065075
v -0.104884 0.044367 0.064196
v -0.104884 0.044367 -0.051630
v -0.105796 0.044367 -0.052509
v -0.113620 0.044367 -0.052509
v -0.114533 0.044367 -0.051630
v -0.117808 0.053833 0.064196
v -0.116868 0.053833 0.065075
v -0.109099 0.053833 0.065075
v -0.108159 0.053833 0.064196
v -0.108159 0.053833 -0.051630
v -0.109099 0.053833 -0.052509
v -0.116868 0.053833 -0.052509
v -0.117808 0.053833 -0.051630
v -0.121610 0.062967 0.064190
v -0.120645 0.062967 0.065075
v -0.112925 0.062967 0.065075
v -0.111960 0.062967 0.064190
v -0.111960 0.062967 -0.051623
v -0.112925 0.062967 -0.052509
v -0.120645 0.062967 -0.052509
v -0.121610 0.062967 -0.051623
v -0.125794 0.071387 0.061872
v -0.125305 0.072174 0.062562
v -0.116144 0.071387 0.061872
v -0.117415 0.072174 0.062562
v -0.117415 0.072174 -0.049996
v -0.116144 0.071387 -0.049306
v -0.125794 0.071387 -0.049306
v -0.125305 0.072174 -0.049996
vt 0.375000 0.000000
vt 0.625000 0.000000
vt 0.625000 0.083333
vt 0.375000 0.083333
vt 0.625000 0.166667
vt 0.375000 0.166667
vt 0.625000 0.250000
vt 0.375000 0.250000
vt 0.625000 0.500000
vt 0.375000 0.500000
vt 0.625000 0.583333
vt 0.375000 0.583333
vt 0.625000 0.666667
vt 0.375000 0.666667
vt 0.625000 0.750000
vt 0.375000 0.750000
vt 0.625000 1.000000
vt 0.375000 1.000000
vt 0.875000 0.000000
vt 0.875000 0.083333
vt 0.875000 0.166667
vt 0.875000 0.250000
vt 0.125000 0.000000
vt 0.125000 0.083333
vt 0.125000 0.166667
vt 0.125000 0.250000
vt 0.386387 0.250000
vt 0.386387 0.000000
vt 0.488613 0.000000
vt 0.488613 0.250000
vt 0.386396 0.500000
vt 0.488604 0.500000
vt 0.386387 0.750000
vt 0.488613 0.750000
vt 0.386387 1.000000
vt 0.488613 1.000000
vt 0.625000 0.023728
vt 0.875000 0.023728
vt 0.875000 0.226272
vt 0.625000 0.226272
vt 0.386453 0.250000
vt 0.488547 0.250000
vt 0.488547 0.500000
vt 0.386453 0.500000
vt 0.375000 0.498131
vt 0.375000 0.251869
vt 0.386824 0.250000
vt 0.488176 0.250000
vt 0.500000 0.251869
vt 0.500000 0.498131
vt 0.488176 0.500000
vt 0.386824 0.500000
vt 0.387184 0.250000
vt 0.487816 0.250000
vt 0.487816 0.500000
vt 0.387184 0.500000
vt 0.387499 0.250000
vt 0.487501 0.250000
vt 0.487501 0.500000
vt 0.387499 0.500000
vt 0.500501 0.751869
vt 0.624499 0.751869
vt 0.624499 0.998131
vt 0.500501 0.998131
vt 0.500501 0.226272
vt 0.500501 0.023728
vt 0.624499 0.251869
vt 0.624499 0.498131
vt 0.500501 0.498131
vt 0.500501 0.251869
vt 0.625000 0.726272
vt 0.500501 0.726272
vt 0.500501 0.523728
vt 0.625000 0.523728
vt 0.126869 0.250000
vt 0.126869 0.023728
vt 0.373131 0.023728
vt 0.373131 0.250000
vt 0.375000 0.252010
vt 0.500000 0.497990
vt 0.500000 0.998287
vt 0.499149 0.751702
vt 0.500501 -0.000000
vt 0.624499 0.000000
vt 0.500000 0.042620
vt 0.500000 0.228253
vt 0.500000 0.250000
vt 0.500501 0.250000
vt 0.624499 0.250000
vt 0.500000 0.500000
vt 0.500501 0.500000
vt 0.500000 0.542620
vt 0.500000 0.728253
vt 0.500501 0.750000
vt 0.624499 0.750000
vt 0.375000 0.998131
vt 0.375000 0.751870
vt 0.375000 0.023728
vt 0.375000 0.726272
vt 0.376448 0.250000
vt 0.376479 0.250000
vt 0.376448 0.500000
vt 0.376479 0.500000
vt 0.380067 0.251534
vt 0.380067 0.498467
vt 0.499267 0.251465
vt 0.500000 0.498527
vt 0.500000 0.000000
vt 0.500000 0.750000
vn 0.000000 -0.168400 0.985700
vn -0.000000 -0.154400 0.988000
vn -0.000000 -0.219000 0.975700
vn 0.000000 -0.267200 0.963600
vn 0.000000 1.000000 0.000000
vn 0.000000 -0.267200 -0.963600
vn -0.000000 -0.219000 -0.975700
vn -0.000000 -0.154500 -0.988000
vn 0.000000 -0.168400 -0.985700
vn 0.000000 -1.000000 -0.000000
vn 0.985800 -0.168100 -0.000000
vn 0.988000 -0.154200 -0.000000
vn 0.975800 -0.218600 -0.000000
vn 0.963800 -0.266800 -0.000000
vn -0.985800 -0.168100 -0.000000
vn -0.988000 -0.154200 0.000000
vn -0.975800 -0.218600 -0.000000
vn -0.963800 -0.266800 -0.000000
vn -0.988100 -0.154100 0.000000
vn -0.000000 -0.154400 -0.988000
vn -0.975800 -0.218700 -0.000000
vn 0.000000 -0.000000 1.000000
vn 0.000000 0.000000 -1.000000
vn 1.000000 0.000000 0.000000
vn -0.994200 -0.107100 -0.000000
vn -1.000000 0.000000 0.000000
vn 0.963100 0.269100 0.000000
vn 0.993700 0.112400 0.000000
vn -0.963100 -0.269100 -0.000000
vn 0.934700 0.355300 0.000000
vn -0.934600 -0.355800 -0.000000
vn -0.000000 0.171000 0.985300
vn 0.000000 0.100100 0.995000
vn 0.911500 0.411200 0.000000
vn 0.000000 0.100100 -0.995000
vn -0.000000 0.170900 -0.985300
vn -0.911500 -0.411300 -0.000000
vn 0.000000 0.263300 0.964700
vn 0.000000 0.263300 -0.964700
vn -0.895600 -0.444900 -0.000000
vn 0.895600 0.444900 0.000000
vn 0.001100 -0.707100 0.707100
vn 0.000000 -0.707100 0.707100
vn 0.707100 -0.707100 -0.000000
vn 0.706000 0.000200 0.708200
vn 0.700800 0.074400 0.709500
vn 0.700100 0.081300 0.709400
vn 0.003800 0.706200 0.708000
vn 0.002300 0.706500 0.707700
vn 0.000000 0.707100 0.707100
vn 0.707100 0.707100 0.000000
vn 0.706000 0.000200 -0.708200
vn 0.700100 0.081300 -0.709400
vn 0.700800 0.074400 -0.709500
vn 0.002200 0.706500 -0.707700
vn 0.003800 0.706200 -0.708000
vn 0.000000 0.707100 -0.707100
vn 0.001100 -0.707100 -0.707100
vn 0.000000 -0.707100 -0.707100
vn -0.707100 -0.707100 -0.000000
vn -0.707100 -0.000000 0.707100
vn -0.706600 0.000100 0.707600
vn -0.701000 -0.071300 0.709600
vn -0.700400 -0.078000 0.709500
vn -0.706600 0.000100 -0.707600
vn -0.700400 -0.078000 -0.709500
vn -0.701000 -0.071300 -0.709600
vn -0.707100 0.000000 -0.707100
vn -0.682600 -0.183900 0.707300
vn -0.679800 -0.194400 0.707100
vn 0.682300 0.185800 0.707000
vn 0.679500 0.196400 0.706900
vn 0.679500 0.196400 -0.706900
vn 0.682300 0.185900 -0.707000
vn -0.679800 -0.194400 -0.707100
vn -0.682600 -0.183900 -0.707300
vn -0.663300 -0.247600 0.706200
vn -0.660700 -0.254300 0.706200
vn 0.663000 0.249500 0.705800
vn 0.660400 0.256300 0.705800
vn 0.660400 0.256300 -0.705800
vn 0.663000 0.249500 -0.705800
vn -0.660700 -0.254300 -0.706200
vn -0.663300 -0.247600 -0.706200
vn -0.667100 -0.229500 0.708700
vn -0.675800 -0.199200 0.709700
vn 0.639300 0.364600 0.677100
vn 0.633400 0.393100 0.666500
vn 0.633400 0.393100 -0.666500
vn 0.639300 0.364600 -0.677100
vn -0.675800 -0.199200 -0.709700
vn -0.667100 -0.229500 -0.708700
vn -0.688100 -0.150700 0.709800
vn 0.612600 0.474600 0.632000
vn 0.612600 0.474600 -0.632000
vn -0.688100 -0.150700 -0.709800
vn -0.849700 0.527300 0.000000
vn 0.526600 0.850100 0.000000
vn 0.333300 -0.666700 0.666700
vn 0.371400 0.557100 0.742800
vn 0.371400 0.557100 -0.742800
vn 0.333300 -0.666700 -0.666700
usemtl lambert1.002
s 1
f 1/1/1 2/2/1 4/3/2 3/4/2
f 3/4/2 4/3/2 6/5/3 5/6/3
f 5/6/3 6/5/3 8/7/4 7/8/4
f 7/8/5 8/7/5 10/9/5 9/10/5
f 9/10/6 10/9/6 12/11/7 11/12/7
f 11/12/7 12/11/7 14/13/8 13/14/8
f 13/14/8 14/13/8 16/15/9 15/16/9
f 15/16/10 16/15/10 2/17/10 1/18/10
f 2/2/11 16/19/11 14/20/12 4/3/12
f 4/3/12 14/20/12 12/21/13 6/5/13
f 6/5/13 12/21/13 10/22/14 8/7/14
f 15/23/15 1/1/15 3/4/16 13/24/16
f 13/24/16 3/4/16 5/6/17 11/25/17
f 11/25/17 5/6/17 7/8/18 9/26/18
f 17/1/1 18/2/1 20/3/2 19/4/2
f 19/4/2 20/3/2 22/5/3 21/6/3
f 21/6/3 22/5/3 24/7/4 23/8/4
f 23/8/5 24/7/5 26/9/5 25/10/5
f 25/10/6 26/9/6 28/11/7 27/12/7
f 27/12/7 28/11/7 30/13/8 29/14/8
f 29/14/8 30/13/8 32/15/9 31/16/9
f 31/16/10 32/15/10 18/17/10 17/18/10
f 18/2/11 32/19/11 30/20/12 20/3/12
f 20/3/12 30/20/12 28/21/13 22/5/13
f 22/5/13 28/21/13 26/22/14 24/7/14
f 31/23/15 17/1/15 19/4/19 29/24/19
f 29/24/19 19/4/19 21/6/17 27/25/17
f 27/25/17 21/6/17 23/8/18 25/26/18
f 33/1/1 34/2/1 36/3/2 35/4/2
f 35/4/2 36/3/2 38/5/3 37/6/3
f 37/6/3 38/5/3 40/7/4 39/8/4
f 39/8/5 40/7/5 42/9/5 41/10/5
f 41/10/6 42/9/6 44/11/7 43/12/7
f 43/12/7 44/11/7 46/13/20 45/14/20
f 45/14/20 46/13/20 48/15/9 47/16/9
f 47/16/10 48/15/10 34/17/10 33/18/10
f 34/2/11 48/19/11 46/20/12 36/3/12
f 36/3/12 46/20/12 44/21/13 38/5/13
f 38/5/13 44/21/13 42/22/14 40/7/14
f 47/23/15 33/1/15 35/4/16 45/24/16
f 45/24/16 35/4/16 37/6/17 43/25/21
f 43/25/21 37/6/17 39/8/18 41/26/18
f 49/1/1 50/2/1 52/3/2 51/4/2
f 51/4/2 52/3/2 54/5/3 53/6/3
f 53/6/3 54/5/3 56/7/4 55/8/4
f 55/8/5 56/7/5 58/9/5 57/10/5
f 57/10/6 58/9/6 60/11/7 59/12/7
f 59/12/7 60/11/7 62/13/20 61/14/20
f 61/14/20 62/13/20 64/15/9 63/16/9
f 63/16/10 64/15/10 50/17/10 49/18/10
f 50/2/11 64/19/11 62/20/12 52/3/12
f 52/3/12 62/20/12 60/21/13 54/5/13
f 54/5/13 60/21/13 58/22/14 56/7/14
f 63/23/15 49/1/15 51/4/16 61/24/16
f 61/24/16 51/4/16 53/6/17 59/25/17
f 59/25/17 53/6/17 55/8/18 57/26/18
f 90/27/22 88/28/22 67/29/22 71/30/22
f 134/31/5 128/27/5 130/30/5 131/32/5
f 94/33/23 91/31/23 79/32/23 83/34/23
f 88/35/10 94/33/10 83/34/10 67/36/10
f 69/37/24 86/38/24 80/39/24 75/40/24
f 96/41/22 90/27/22 71/30/22 97/42/22
f 100/43/23 79/32/23 91/31/23 101/44/23
f 102/45/25 92/45/26 89/46/26 95/46/25
f 104/47/22 96/41/22 97/42/22 105/48/22
f 106/49/27 98/49/28 99/50/28 107/50/27
f 108/51/23 100/43/23 101/44/23 109/52/23
f 110/45/29 102/45/25 95/46/25 103/46/29
f 112/53/22 104/47/22 105/48/22 113/54/22
f 114/49/30 106/49/27 107/50/27 115/50/30
f 116/55/23 108/51/23 109/52/23 117/56/23
f 118/45/31 110/45/29 103/46/29 111/46/31
f 120/57/32 112/53/22 113/54/22 121/58/33
f 122/49/34 114/49/30 115/50/30 123/50/34
f 124/59/35 116/55/23 117/56/23 125/60/36
f 126/45/37 118/45/31 111/46/31 119/46/37
f 128/27/38 120/57/32 121/58/33 130/30/38
f 131/32/39 124/59/35 125/60/36 134/31/39
f 82/61/10 85/62/10 68/63/10 65/64/10
f 75/40/22 72/65/22 66/66/22 69/37/22
f 74/67/5 81/68/5 77/69/5 73/70/5
f 98/49/28 70/49/24 76/50/24 99/50/28
f 86/71/23 84/72/23 78/73/23 80/74/23
f 92/75/26 93/76/26 87/77/26 89/78/26
f 119/46/37 127/79/40 133/45/40 126/45/37
f 123/50/34 132/80/41 129/49/41 122/49/34
f 65/81/10 67/36/10 83/34/10 82/82/10
f 66/66/42 65/83/42 68/84/43 69/37/43
f 67/29/22 66/85/22 72/86/22 71/30/22
f 69/17/44 68/63/44 85/62/44 86/15/44
f 71/30/45 70/87/45 98/87/46 97/42/47
f 73/88/48 72/65/49 75/40/50 74/89/50
f 70/49/51 73/70/51 77/69/51 76/50/51
f 74/67/51 75/7/51 80/9/51 81/68/51
f 76/50/52 79/90/52 100/90/53 99/50/54
f 78/91/55 77/69/56 81/68/57 80/9/57
f 79/32/23 78/92/23 84/93/23 83/34/23
f 82/94/58 84/72/58 86/71/59 85/95/59
f 88/35/60 87/96/60 93/97/60 94/33/60
f 87/98/61 88/28/61 90/27/62 89/8/62
f 89/8/62 90/27/62 96/41/63 95/8/64
f 91/31/65 92/10/65 102/10/66 101/44/67
f 92/10/65 91/31/65 94/33/68 93/99/68
f 95/8/64 96/41/63 104/47/69 103/8/70
f 97/42/47 98/87/46 106/87/71 105/48/72
f 99/50/54 100/90/53 108/90/73 107/50/74
f 101/44/67 102/10/66 110/10/75 109/52/76
f 103/8/70 104/47/69 112/53/77 111/8/78
f 105/48/72 106/87/71 114/87/79 113/54/80
f 107/50/74 108/90/73 116/90/81 115/50/82
f 109/52/76 110/10/75 118/10/83 117/56/84
f 111/8/78 112/53/77 120/57/85 119/8/86
f 113/54/80 114/87/79 122/87/87 121/58/88
f 115/50/82 116/90/81 124/90/89 123/50/90
f 117/56/84 118/10/83 126/10/91 125/60/92
f 119/100/86 120/57/85 128/27/93 127/101/93
f 121/58/88 122/87/87 129/87/94 130/30/94
f 123/50/90 124/90/89 131/90/95 132/80/95
f 125/60/92 126/102/91 133/103/96 134/31/96
f 127/104/97 128/27/97 134/31/97 133/105/97
f 130/30/98 129/106/98 132/107/98 131/32/98
f 65/108/42 66/85/42 67/29/99
f 70/87/100 71/30/100 72/86/49 73/87/48
f 76/50/101 77/69/56 78/91/55 79/90/101
f 82/109/58 83/34/102 84/93/58
