# 3ds Max Wavefront OBJ Exporter v0.97b - (c)2007 guruware
# File Created: 04.11.2015 11:16:02

mtllib Bookshelf_Asset.mtl

#
# object Plane021
#

v  2468.1035 51.2075 -530.0179
v  2718.0479 51.2075 -530.0179
v  2718.0479 71.1748 -530.0179
v  2468.1035 71.1748 -530.0179
v  2718.0479 71.1748 -465.2619
v  2468.1035 71.1748 -465.2619
v  2468.1035 51.2075 -465.2619
v  2718.0479 51.2075 -465.2619
v  2468.1030 71.1748 -530.0179
v  2468.1030 51.2075 -530.0179
v  2718.0483 51.2075 -530.0179
v  2718.0483 71.1748 -530.0179
v  2468.1030 51.2075 -465.2619
v  2718.0483 51.2075 -465.2619
v  2468.1030 71.1748 -465.2619
v  2718.0483 71.1748 -465.2619
v  2452.1030 71.1748 -465.2619
v  2452.1030 51.2075 -465.2619
v  2452.1030 51.2075 -530.0179
v  2452.1030 71.1748 -530.0179
v  2734.0483 51.2075 -465.2619
v  2734.0483 71.1748 -465.2619
v  2734.0483 71.1748 -530.0179
v  2734.0483 51.2075 -530.0179
v  2468.1030 164.7084 -465.2619
v  2468.1030 164.7084 -530.0179
v  2718.0483 164.7084 -530.0179
v  2718.0483 164.7084 -465.2619
v  2452.1030 164.7084 -530.0179
v  2452.1030 164.7084 -465.2619
v  2734.0483 164.7084 -465.2619
v  2734.0483 164.7084 -530.0179
v  2452.1030 193.7222 -530.0179
v  2452.1030 193.7222 -465.2619
v  2468.1030 193.7222 -530.0179
v  2468.1030 193.7222 -465.2619
v  2734.0483 193.7222 -465.2619
v  2734.0483 193.7222 -530.0179
v  2718.0483 193.7222 -530.0179
v  2718.0483 193.7222 -465.2619
v  2468.1030 -58.2105 -530.0179
v  2468.1030 -58.2105 -465.2619
v  2718.0483 -58.2105 -465.2619
v  2718.0483 -58.2105 -530.0179
v  2452.1030 -58.2105 -465.2619
v  2452.1030 -58.2105 -530.0179
v  2734.0483 -58.2105 -530.0179
v  2734.0483 -58.2105 -465.2619
v  2452.1030 -81.6656 -465.2619
v  2452.1030 -81.6656 -530.0179
v  2468.1030 -81.6656 -530.0179
v  2468.1030 -81.6656 -465.2619
v  2734.0483 -81.6656 -530.0179
v  2734.0483 -81.6656 -465.2619
v  2718.0483 -81.6656 -530.0179
v  2718.0483 -81.6656 -465.2619
v  2468.1030 -166.4404 -530.0179
v  2468.1030 -166.4404 -465.2619
v  2718.0483 -166.4404 -465.2619
v  2718.0483 -166.4404 -530.0179
v  2452.1030 -166.4404 -465.2619
v  2452.1030 -166.4404 -530.0179
v  2734.0483 -166.4404 -530.0179
v  2734.0483 -166.4404 -465.2619
v  2452.1030 -196.6215 -465.2619
v  2452.1030 -196.6215 -530.0179
v  2468.1030 -196.6215 -530.0179
v  2468.1030 -196.6215 -465.2619
v  2734.0483 -196.6215 -530.0179
v  2734.0483 -196.6215 -465.2619
v  2718.0483 -196.6215 -530.0179
v  2718.0483 -196.6215 -465.2619
# 72 vertices

vn 0.0000 -0.0000 1.0000
vn 0.0000 -1.0000 -0.0000
vn 0.0000 1.0000 -0.0000
vn 0.0000 0.0000 -1.0000
vn 0.0010 -1.0000 -0.0000
vn -0.0010 -1.0000 -0.0000
vn -0.0020 0.0000 -1.0000
vn 0.0020 0.0000 -1.0000
vn 1.0000 0.0000 -0.0000
vn -1.0000 0.0000 -0.0000
vn 0.0000 -1.0000 0.0000
# 11 vertex normals

vt 0.0000 0.0000 0.0000
vt 1.0000 0.0000 0.0000
vt 1.0000 1.0000 0.0000
vt 0.0000 1.0000 0.0000
# 4 texture coords

g Plane021
usemtl wire_088088225
s 1
f 1/1/1 2/2/1 3/3/1 4/4/1 
s off
f 4/4/2 3/3/2 5/3/2 6/4/2 
f 2/2/3 1/1/3 7/1/3 8/2/3 
f 5/3/4 8/2/4 7/1/4 6/4/4 
f 1/1/1 4/4/1 9/4/1 10/1/1 
f 3/3/1 2/2/1 11/2/1 12/3/1 
f 7/1/3 1/1/3 10/1/3 13/1/3 
f 2/2/3 8/2/3 14/2/3 11/2/3 
f 4/4/5 6/4/5 15/4/5 9/4/5 
f 5/3/6 3/3/6 12/3/6 16/3/6 
f 6/4/7 7/1/7 13/1/7 15/4/7 
f 8/2/8 5/3/8 16/3/8 14/2/8 
f 17/4/9 18/1/9 19/1/9 20/4/9 
f 21/2/10 22/3/10 23/3/10 24/2/10 
f 10/1/1 9/4/1 20/4/1 19/1/1 
f 15/4/4 13/1/4 18/1/4 17/4/4 
f 12/3/1 11/2/1 24/2/1 23/3/1 
f 14/2/4 16/3/4 22/3/4 21/2/4 
f 9/4/10 15/4/10 25/4/10 26/4/10 
f 16/3/9 12/3/9 27/3/9 28/3/9 
f 17/4/9 20/4/9 29/4/9 30/4/9 
f 20/4/1 9/4/1 26/4/1 29/4/1 
f 15/4/4 17/4/4 30/4/4 25/4/4 
f 23/3/10 22/3/10 31/3/10 32/3/10 
f 12/3/1 23/3/1 32/3/1 27/3/1 
f 22/3/4 16/3/4 28/3/4 31/3/4 
f 30/4/9 29/4/9 33/4/9 34/4/9 
f 29/4/1 26/4/1 35/4/1 33/4/1 
f 25/4/4 30/4/4 34/4/4 36/4/4 
f 32/3/10 31/3/10 37/3/10 38/3/10 
f 27/3/1 32/3/1 38/3/1 39/3/1 
f 31/3/4 28/3/4 40/3/4 37/3/4 
f 34/4/11 33/4/11 35/4/11 36/4/11 
f 38/3/11 37/3/11 40/3/11 39/3/11 
s 1
f 26/4/3 25/4/3 28/3/3 27/3/3 
s 2
f 25/4/4 36/4/4 40/3/4 28/3/4 
s 1
f 36/4/11 35/4/11 39/3/11 40/3/11 
s 2
f 35/4/1 26/4/1 27/3/1 39/3/1 
s off
f 13/1/10 10/1/10 41/1/10 42/1/10 
f 11/2/9 14/2/9 43/2/9 44/2/9 
f 19/1/9 18/1/9 45/1/9 46/1/9 
f 10/1/1 19/1/1 46/1/1 41/1/1 
f 18/1/4 13/1/4 42/1/4 45/1/4 
f 21/2/10 24/2/10 47/2/10 48/2/10 
f 24/2/1 11/2/1 44/2/1 47/2/1 
f 14/2/4 21/2/4 48/2/4 43/2/4 
f 46/1/9 45/1/9 49/1/9 50/1/9 
f 41/1/1 46/1/1 50/1/1 51/1/1 
f 45/1/4 42/1/4 52/1/4 49/1/4 
f 48/2/10 47/2/10 53/2/10 54/2/10 
f 47/2/1 44/2/1 55/2/1 53/2/1 
f 43/2/4 48/2/4 54/2/4 56/2/4 
f 52/1/10 51/1/10 57/1/10 58/1/10 
f 55/2/9 56/2/9 59/2/9 60/2/9 
f 50/1/9 49/1/9 61/1/9 62/1/9 
f 51/1/1 50/1/1 62/1/1 57/1/1 
f 49/1/4 52/1/4 58/1/4 61/1/4 
f 54/2/10 53/2/10 63/2/10 64/2/10 
f 53/2/1 55/2/1 60/2/1 63/2/1 
f 56/2/4 54/2/4 64/2/4 59/2/4 
f 62/1/9 61/1/9 65/1/9 66/1/9 
f 57/1/1 62/1/1 66/1/1 67/1/1 
f 61/1/4 58/1/4 68/1/4 65/1/4 
f 64/2/10 63/2/10 69/2/10 70/2/10 
f 63/2/1 60/2/1 71/2/1 69/2/1 
f 59/2/4 64/2/4 70/2/4 72/2/4 
f 66/1/3 65/1/3 68/1/3 67/1/3 
f 70/2/3 69/2/3 71/2/3 72/2/3 
s 1
f 42/1/2 41/1/2 44/2/2 43/2/2 
s 2
f 41/1/1 51/1/1 55/2/1 44/2/1 
s 1
f 51/1/3 52/1/3 56/2/3 55/2/3 
s 2
f 52/1/4 42/1/4 43/2/4 56/2/4 
s 1
f 58/1/11 57/1/11 60/2/11 59/2/11 
s 2
f 57/1/1 67/1/1 71/2/1 60/2/1 
s 1
f 67/1/3 68/1/3 72/2/3 71/2/3 
s 2
f 68/1/4 58/1/4 59/2/4 72/2/4 
# 76 polygons

