# Blender v2.75 (sub 0) OBJ File: ''
# www.blender.org
mtllib buckedbeds_stairs.mtl
o polySurface3_Untitled.017
v 0.082726 -0.000297 0.292204
v 0.090563 -0.000297 0.292204
v 0.082726 0.176116 0.292204
v 0.090563 0.176116 0.292204
v 0.082726 0.176116 0.285364
v 0.090563 0.176116 0.285364
v 0.082726 -0.000297 0.285364
v 0.090563 -0.000297 0.285364
v 0.043121 -0.000297 0.292204
v 0.050958 -0.000297 0.292204
v 0.043121 0.176116 0.292204
v 0.050958 0.176116 0.292204
v 0.043121 0.176116 0.285364
v 0.050958 0.176116 0.285364
v 0.043121 -0.000297 0.285364
v 0.050958 -0.000297 0.285364
v 0.048617 0.106437 0.290969
v 0.083282 0.106437 0.290969
v 0.048617 0.111622 0.290969
v 0.083282 0.111622 0.290969
v 0.048617 0.111622 0.286893
v 0.083282 0.111622 0.286893
v 0.048617 0.106437 0.286893
v 0.083282 0.106437 0.286893
v 0.048617 0.090975 0.290969
v 0.083282 0.090975 0.290969
v 0.048617 0.096159 0.290969
v 0.083282 0.096159 0.290969
v 0.048617 0.096159 0.286893
v 0.083282 0.096159 0.286893
v 0.048617 0.090975 0.286893
v 0.083282 0.090975 0.286893
v 0.048617 0.075513 0.290969
v 0.083282 0.075513 0.290969
v 0.048617 0.080697 0.290969
v 0.083282 0.080697 0.290969
v 0.048617 0.080697 0.286893
v 0.083282 0.080697 0.286893
v 0.048617 0.075513 0.286893
v 0.083282 0.075513 0.286893
v 0.048617 0.060050 0.290969
v 0.083282 0.060050 0.290969
v 0.048617 0.065235 0.290969
v 0.083282 0.065235 0.290969
v 0.048617 0.065235 0.286893
v 0.083282 0.065235 0.286893
v 0.048617 0.060050 0.286893
v 0.083282 0.060050 0.286893
v 0.048617 0.044588 0.290969
v 0.083282 0.044588 0.290969
v 0.048617 0.049773 0.290969
v 0.083282 0.049773 0.290969
v 0.048617 0.049773 0.286893
v 0.083282 0.049773 0.286893
v 0.048617 0.044588 0.286893
v 0.083282 0.044588 0.286893
v 0.048617 0.029126 0.290969
v 0.083282 0.029126 0.290969
v 0.048617 0.034310 0.290969
v 0.083282 0.034310 0.290969
v 0.048617 0.034310 0.286893
v 0.083282 0.034310 0.286893
v 0.048617 0.029126 0.286893
v 0.083282 0.029126 0.286893
v 0.048617 0.152339 0.290969
v 0.083282 0.152339 0.290969
v 0.048617 0.157523 0.290969
v 0.083282 0.157523 0.290969
v 0.048617 0.157523 0.286893
v 0.083282 0.157523 0.286893
v 0.048617 0.152339 0.286893
v 0.083282 0.152339 0.286893
v 0.048617 0.137362 0.290969
v 0.083282 0.137362 0.290969
v 0.048617 0.142546 0.290969
v 0.083282 0.142546 0.290969
v 0.048617 0.142546 0.286893
v 0.083282 0.142546 0.286893
v 0.048617 0.137362 0.286893
v 0.083282 0.137362 0.286893
v 0.048617 0.121900 0.290969
v 0.083282 0.121900 0.290969
v 0.048617 0.127084 0.290969
v 0.083282 0.127084 0.290969
v 0.048617 0.127084 0.286893
v 0.083282 0.127084 0.286893
v 0.048617 0.121900 0.286893
v 0.083282 0.121900 0.286893
vt 0.375000 0.000000
vt 0.625000 0.000000
vt 0.625000 0.250000
vt 0.375000 0.250000
vt 0.625000 0.500000
vt 0.375000 0.500000
vt 0.625000 0.750000
vt 0.375000 0.750000
vt 0.625000 1.000000
vt 0.375000 1.000000
vt 0.875000 0.000000
vt 0.875000 0.250000
vt 0.125000 0.000000
vt 0.125000 0.250000
vn 0.000000 -0.000000 1.000000
vn 0.000000 1.000000 0.000000
vn 0.000000 0.000000 -1.000000
vn 0.000000 -1.000000 -0.000000
vn 1.000000 0.000000 0.000000
vn -1.000000 0.000000 0.000000
usemtl lambert1.003
s 1
f 1/1/1 2/2/1 4/3/1 3/4/1
f 3/4/2 4/3/2 6/5/2 5/6/2
f 5/6/3 6/5/3 8/7/3 7/8/3
f 7/8/4 8/7/4 2/9/4 1/10/4
f 2/2/5 8/11/5 6/12/5 4/3/5
f 7/13/6 1/1/6 3/4/6 5/14/6
f 9/1/1 10/2/1 12/3/1 11/4/1
f 11/4/2 12/3/2 14/5/2 13/6/2
f 13/6/3 14/5/3 16/7/3 15/8/3
f 15/8/4 16/7/4 10/9/4 9/10/4
f 10/2/5 16/11/5 14/12/5 12/3/5
f 15/13/6 9/1/6 11/4/6 13/14/6
f 17/1/1 18/2/1 20/3/1 19/4/1
f 19/4/2 20/3/2 22/5/2 21/6/2
f 21/6/3 22/5/3 24/7/3 23/8/3
f 23/8/4 24/7/4 18/9/4 17/10/4
f 18/2/5 24/11/5 22/12/5 20/3/5
f 23/13/6 17/1/6 19/4/6 21/14/6
f 25/1/1 26/2/1 28/3/1 27/4/1
f 27/4/2 28/3/2 30/5/2 29/6/2
f 29/6/3 30/5/3 32/7/3 31/8/3
f 31/8/4 32/7/4 26/9/4 25/10/4
f 26/2/5 32/11/5 30/12/5 28/3/5
f 31/13/6 25/1/6 27/4/6 29/14/6
f 33/1/1 34/2/1 36/3/1 35/4/1
f 35/4/2 36/3/2 38/5/2 37/6/2
f 37/6/3 38/5/3 40/7/3 39/8/3
f 39/8/4 40/7/4 34/9/4 33/10/4
f 34/2/5 40/11/5 38/12/5 36/3/5
f 39/13/6 33/1/6 35/4/6 37/14/6
f 41/1/1 42/2/1 44/3/1 43/4/1
f 43/4/2 44/3/2 46/5/2 45/6/2
f 45/6/3 46/5/3 48/7/3 47/8/3
f 47/8/4 48/7/4 42/9/4 41/10/4
f 42/2/5 48/11/5 46/12/5 44/3/5
f 47/13/6 41/1/6 43/4/6 45/14/6
f 49/1/1 50/2/1 52/3/1 51/4/1
f 51/4/2 52/3/2 54/5/2 53/6/2
f 53/6/3 54/5/3 56/7/3 55/8/3
f 55/8/4 56/7/4 50/9/4 49/10/4
f 50/2/5 56/11/5 54/12/5 52/3/5
f 55/13/6 49/1/6 51/4/6 53/14/6
f 57/1/1 58/2/1 60/3/1 59/4/1
f 59/4/2 60/3/2 62/5/2 61/6/2
f 61/6/3 62/5/3 64/7/3 63/8/3
f 63/8/4 64/7/4 58/9/4 57/10/4
f 58/2/5 64/11/5 62/12/5 60/3/5
f 63/13/6 57/1/6 59/4/6 61/14/6
f 65/1/1 66/2/1 68/3/1 67/4/1
f 67/4/2 68/3/2 70/5/2 69/6/2
f 69/6/3 70/5/3 72/7/3 71/8/3
f 71/8/4 72/7/4 66/9/4 65/10/4
f 66/2/5 72/11/5 70/12/5 68/3/5
f 71/13/6 65/1/6 67/4/6 69/14/6
f 73/1/1 74/2/1 76/3/1 75/4/1
f 75/4/2 76/3/2 78/5/2 77/6/2
f 77/6/3 78/5/3 80/7/3 79/8/3
f 79/8/4 80/7/4 74/9/4 73/10/4
f 74/2/5 80/11/5 78/12/5 76/3/5
f 79/13/6 73/1/6 75/4/6 77/14/6
f 81/1/1 82/2/1 84/3/1 83/4/1
f 83/4/2 84/3/2 86/5/2 85/6/2
f 85/6/3 86/5/3 88/7/3 87/8/3
f 87/8/4 88/7/4 82/9/4 81/10/4
f 82/2/5 88/11/5 86/12/5 84/3/5
f 87/13/6 81/1/6 83/4/6 85/14/6
