# Blender v2.75 (sub 0) OBJ File: ''
# www.blender.org
mtllib buckedbeds_bedpost_no_stair.mtl
o polySurface4_Untitled.021
v -0.115648 0.000183 0.284554
v -0.104438 0.000183 0.284554
v -0.115648 0.206296 0.284554
v -0.104438 0.206296 0.284554
v -0.115648 0.206296 0.273376
v -0.104438 0.206296 0.273376
v -0.115648 0.000183 0.273376
v -0.104438 0.000183 0.273376
v -0.114632 0.000183 0.160190
v -0.103422 0.000183 0.160190
v -0.114632 0.206296 0.160190
v -0.103422 0.206296 0.160190
v -0.114632 0.206296 0.149012
v -0.103422 0.206296 0.149012
v -0.114632 0.000183 0.149012
v -0.103422 0.000183 0.149012
v -0.113663 0.013455 0.282911
v 0.127994 0.013455 0.282911
v -0.113663 0.024324 0.282911
v 0.127994 0.024324 0.282911
v -0.113663 0.024324 0.150701
v 0.127994 0.024324 0.150701
v -0.113663 0.013455 0.150701
v 0.127994 0.013455 0.150701
v -0.102364 0.024324 0.282911
v -0.102364 0.024324 0.150701
v -0.102364 0.013455 0.150701
v -0.102364 0.013455 0.282911
v -0.113663 0.073987 0.282911
v -0.102364 0.073987 0.282911
v -0.102364 0.073987 0.150701
v -0.113663 0.073987 0.150701
v 0.119652 0.000183 0.160111
v 0.130861 0.000183 0.160111
v 0.119652 0.206296 0.160111
v 0.130861 0.206296 0.160111
v 0.119652 0.206296 0.148933
v 0.130861 0.206296 0.148933
v 0.119652 0.000183 0.148933
v 0.130861 0.000183 0.148933
v 0.119652 0.000183 0.286414
v 0.130861 0.000183 0.286414
v 0.119652 0.206296 0.286414
v 0.130861 0.206296 0.286414
v 0.119652 0.206296 0.275236
v 0.130861 0.206296 0.275236
v 0.119652 0.000183 0.275235
v 0.130861 0.000183 0.275235
v -0.113663 0.131550 0.281702
v 0.127994 0.131550 0.281702
v -0.113663 0.142418 0.281702
v 0.127994 0.142418 0.281702
v -0.113663 0.142418 0.151910
v 0.127994 0.142418 0.151910
v -0.113663 0.131550 0.151910
v 0.127994 0.131550 0.151910
v -0.101010 0.142418 0.281702
v -0.101010 0.142418 0.151910
v -0.101010 0.131550 0.151910
v -0.101010 0.131550 0.281702
v -0.113663 0.194236 0.281702
v -0.101010 0.194236 0.281702
v -0.101010 0.194236 0.151910
v -0.113663 0.194236 0.151910
vt 0.375000 0.000000
vt 0.625000 0.000000
vt 0.625000 0.250000
vt 0.375000 0.250000
vt 0.625000 0.500000
vt 0.375000 0.500000
vt 0.625000 0.750000
vt 0.375000 0.750000
vt 0.625000 1.000000
vt 0.375000 1.000000
vt 0.875000 0.000000
vt 0.875000 0.250000
vt 0.125000 0.000000
vt 0.125000 0.250000
vt 0.386689 0.000000
vt 0.386689 0.250000
vt 0.386689 0.500000
vt 0.386689 0.750000
vt 0.386689 1.000000
vt 0.388089 0.000000
vt 0.388089 0.250000
vt 0.388089 0.500000
vt 0.388089 0.750000
vt 0.388089 1.000000
vn 0.000000 -0.000000 1.000000
vn 0.000000 1.000000 0.000000
vn 0.000000 0.000000 -1.000000
vn 0.000000 -1.000000 -0.000000
vn 1.000000 0.000000 0.000000
vn -1.000000 0.000000 0.000000
usemtl lambert1.003
s 1
f 1/1/1 2/2/1 4/3/1 3/4/1
f 3/4/2 4/3/2 6/5/2 5/6/2
f 5/6/3 6/5/3 8/7/3 7/8/3
f 7/8/4 8/7/4 2/9/4 1/10/4
f 2/2/5 8/11/5 6/12/5 4/3/5
f 7/13/6 1/1/6 3/4/6 5/14/6
f 9/1/1 10/2/1 12/3/1 11/4/1
f 11/4/2 12/3/2 14/5/2 13/6/2
f 13/6/3 14/5/3 16/7/3 15/8/3
f 15/8/4 16/7/4 10/9/4 9/10/4
f 10/2/5 16/11/5 14/12/5 12/3/5
f 15/13/6 9/1/6 11/4/6 13/14/6
f 17/1/1 28/15/1 25/16/1 19/4/1
f 29/4/2 30/16/2 31/17/2 32/6/2
f 21/6/3 26/17/3 27/18/3 23/8/3
f 23/8/4 27/18/4 28/19/4 17/10/4
f 18/2/5 24/11/5 22/12/5 20/3/5
f 23/13/6 17/1/6 19/4/6 21/14/6
f 25/16/2 20/3/2 22/5/2 26/17/2
f 27/18/3 26/17/3 22/5/3 24/7/3
f 28/19/4 27/18/4 24/7/4 18/9/4
f 25/16/1 28/15/1 18/2/1 20/3/1
f 19/4/1 25/16/1 30/16/1 29/4/1
f 25/16/5 26/17/5 31/17/5 30/16/5
f 26/17/3 21/6/3 32/6/3 31/17/3
f 21/6/6 19/4/6 29/4/6 32/6/6
f 33/1/1 34/2/1 36/3/1 35/4/1
f 35/4/2 36/3/2 38/5/2 37/6/2
f 37/6/3 38/5/3 40/7/3 39/8/3
f 39/8/4 40/7/4 34/9/4 33/10/4
f 34/2/5 40/11/5 38/12/5 36/3/5
f 39/13/6 33/1/6 35/4/6 37/14/6
f 41/1/1 42/2/1 44/3/1 43/4/1
f 43/4/2 44/3/2 46/5/2 45/6/2
f 45/6/3 46/5/3 48/7/3 47/8/3
f 47/8/4 48/7/4 42/9/4 41/10/4
f 42/2/5 48/11/5 46/12/5 44/3/5
f 47/13/6 41/1/6 43/4/6 45/14/6
f 49/1/1 60/20/1 57/21/1 51/4/1
f 61/4/2 62/21/2 63/22/2 64/6/2
f 53/6/3 58/22/3 59/23/3 55/8/3
f 55/8/4 59/23/4 60/24/4 49/10/4
f 50/2/5 56/11/5 54/12/5 52/3/5
f 55/13/6 49/1/6 51/4/6 53/14/6
f 57/21/2 52/3/2 54/5/2 58/22/2
f 59/23/3 58/22/3 54/5/3 56/7/3
f 60/24/4 59/23/4 56/7/4 50/9/4
f 57/21/1 60/20/1 50/2/1 52/3/1
f 51/4/1 57/21/1 62/21/1 61/4/1
f 57/21/5 58/22/5 63/22/5 62/21/5
f 58/22/3 53/6/3 64/6/3 63/22/3
f 53/6/6 51/4/6 61/4/6 64/6/6
