# 3ds Max Wavefront OBJ Exporter v0.97b - (c)2007 guruware
# File Created: 04.11.2015 11:04:18

mtllib Chair_Assets.mtl

#
# object Box001
#

v  60.4952 -10.4185 -506.2146
v  40.7365 -10.4185 -506.2146
v  40.7365 -10.4185 -509.3630
v  60.4952 -10.4185 -509.3630
v  66.9902 35.4633 -506.0524
v  66.9902 1.2240 -506.0524
v  66.9902 1.2240 -509.5252
v  66.9902 35.4633 -509.5252
v  40.7365 47.9247 -506.2146
v  60.4952 47.9247 -506.2146
v  60.4952 47.9247 -509.3630
v  40.7365 47.9247 -509.3630
v  33.8943 1.2240 -506.0524
v  33.8943 35.4633 -506.0524
v  33.8943 35.4633 -509.5252
v  33.8943 1.2240 -509.5252
v  45.3573 23.6043 -512.1694
v  45.3573 13.0830 -512.1694
v  55.5272 23.6043 -512.1694
v  55.5272 13.0830 -512.1694
v  45.3573 23.6043 -518.7358
v  45.3573 13.0830 -518.7358
v  55.5272 23.6043 -518.7358
v  55.5272 13.0830 -518.7358
v  45.3573 -27.9924 -512.1694
v  55.5272 -27.9924 -512.1694
v  45.3573 -27.9924 -518.7358
v  55.5272 -27.9924 -518.7358
v  45.3573 -34.2137 -515.1986
v  55.5272 -34.2137 -515.1986
v  45.3573 -27.9924 -503.2562
v  55.5272 -27.9924 -503.2562
v  55.5272 -39.3424 -503.2562
v  45.3573 -39.3424 -503.2562
v  45.3573 -34.2137 -503.2562
v  55.5272 -34.2137 -503.2562
v  45.3573 -27.9924 -484.8845
v  55.5272 -27.9924 -484.8845
v  45.3573 -39.3424 -484.8845
v  45.3573 -34.2137 -484.8845
v  55.5272 -34.2137 -484.8845
v  55.5272 -39.3424 -484.8845
v  45.3573 -27.9924 -475.8748
v  55.5272 -27.9924 -475.8748
v  55.5272 -34.2137 -475.8748
v  45.3573 -34.2137 -475.8748
v  55.5272 -48.0944 -496.9898
v  45.3573 -48.0944 -496.9898
v  45.3573 -48.0944 -487.9257
v  55.5272 -48.0944 -487.9257
v  55.5272 -63.6295 -496.9898
v  45.3573 -63.6295 -496.9898
v  45.3573 -63.6295 -487.9257
v  55.5272 -63.6295 -487.9257
v  33.7406 -34.2137 -515.1986
v  31.0157 -27.9924 -512.1694
v  31.0157 -27.9924 -503.2562
v  33.7406 -34.2137 -503.2562
v  31.0157 -27.9924 -484.8845
v  33.7406 -34.2137 -484.8845
v  31.0157 -27.9924 -475.8748
v  33.7406 -34.2137 -475.8748
v  69.8762 -27.9924 -512.1694
v  67.1513 -34.2137 -515.1986
v  69.8762 -27.9924 -503.2562
v  67.1513 -34.2137 -503.2562
v  69.8762 -27.9924 -484.8845
v  67.1513 -34.2137 -484.8845
v  69.8762 -27.9924 -475.8748
v  67.1513 -34.2137 -475.8748
v  55.5272 -63.6295 -505.9506
v  45.3573 -63.6295 -505.9506
v  45.3573 -63.6295 -478.9649
v  55.5272 -63.6295 -478.9649
v  36.7354 -63.6295 -496.9898
v  36.7354 -63.6295 -487.9257
v  64.0409 -63.6295 -487.9257
v  64.0409 -63.6295 -496.9898
v  44.2788 -68.9295 -508.8225
v  44.2788 -68.9295 -497.9545
v  56.6134 -68.9295 -497.9545
v  56.6134 -68.9295 -508.8225
v  44.2788 -68.9295 -486.9610
v  44.2788 -68.9296 -476.0930
v  56.6134 -68.9296 -476.0930
v  56.6134 -68.9295 -486.9610
v  33.8217 -68.9295 -497.9545
v  33.8217 -68.9295 -486.9610
v  66.9392 -68.9295 -497.9545
v  66.9392 -68.9295 -486.9610
v  44.2788 -74.7297 -508.8225
v  44.2788 -74.7297 -497.9545
v  56.6134 -74.7297 -497.9545
v  56.6134 -74.7297 -508.8225
v  44.2788 -74.7297 -486.9610
v  44.2788 -74.7297 -476.0930
v  56.6134 -74.7297 -476.0930
v  56.6134 -74.7297 -486.9610
v  33.8217 -74.7297 -497.9545
v  33.8217 -74.7297 -486.9610
v  66.9392 -74.7297 -497.9545
v  66.9392 -74.7297 -486.9610
v  49.2044 -79.5184 -505.9292
v  49.2044 -79.5184 -503.7411
v  51.6878 -79.5184 -503.7411
v  51.6878 -79.5184 -505.9292
v  49.2044 -79.5184 -481.1744
v  49.2044 -79.5184 -478.9863
v  51.6878 -79.5184 -478.9863
v  51.6878 -79.5184 -481.1744
v  38.7056 -79.4524 -493.5602
v  36.6083 -79.4524 -493.5602
v  36.6083 -79.4524 -491.3553
v  38.7056 -79.4524 -491.3553
v  64.1876 -79.4524 -493.5602
v  62.1166 -79.4524 -493.5602
v  62.1166 -79.4524 -491.3553
v  64.1876 -79.4524 -491.3553
v  49.2044 -81.0669 -505.9292
v  49.2044 -81.0669 -503.7411
v  51.6878 -81.0669 -503.7411
v  51.6878 -81.0669 -505.9292
v  49.2044 -81.0670 -481.1744
v  49.2044 -81.0670 -478.9863
v  51.6878 -81.0670 -478.9863
v  51.6878 -81.0670 -481.1744
v  38.7056 -81.0009 -493.5602
v  36.6083 -81.0009 -493.5602
v  36.6083 -81.0009 -491.3553
v  38.7056 -81.0009 -491.3553
v  64.1876 -81.0009 -493.5602
v  62.1166 -81.0009 -493.5602
v  62.1166 -81.0009 -491.3553
v  64.1876 -81.0009 -491.3553
v  48.7118 -81.4245 -507.1336
v  48.7118 -81.4245 -502.5367
v  52.1804 -81.4245 -502.5367
v  52.1804 -81.4245 -507.1337
v  48.7118 -81.4245 -482.3670
v  48.7118 -81.4245 -477.7937
v  52.1804 -81.4245 -477.7937
v  52.1804 -81.4245 -482.3670
v  39.1215 -81.3585 -494.7703
v  36.1924 -81.3585 -494.7703
v  36.1924 -81.3585 -490.1452
v  39.1215 -81.3585 -490.1452
v  64.5983 -81.3585 -494.7703
v  61.7059 -81.3585 -494.7703
v  61.7059 -81.3585 -490.1452
v  64.5983 -81.3585 -490.1452
v  48.7118 -84.9743 -507.1336
v  48.7118 -84.9743 -502.5367
v  52.1804 -84.9743 -502.5367
v  52.1804 -84.9743 -507.1337
v  48.7118 -84.9744 -482.3670
v  48.7118 -84.9744 -477.7937
v  52.1804 -84.9744 -477.7937
v  52.1804 -84.9744 -482.3670
v  39.1215 -84.9053 -494.7703
v  36.1924 -84.9053 -494.7703
v  36.1924 -84.9053 -490.1452
v  39.1215 -84.9053 -490.1452
v  64.5983 -84.9053 -494.7703
v  61.7059 -84.9053 -494.7703
v  61.7059 -84.9053 -490.1452
v  64.5983 -84.9053 -490.1452
v  49.2044 -85.3956 -506.4808
v  49.2044 -85.3956 -503.1895
v  51.6878 -85.3956 -503.1895
v  51.6878 -85.3956 -506.4808
v  49.2044 -85.3956 -481.7176
v  49.2044 -85.3956 -478.4431
v  51.6878 -85.3956 -478.4431
v  51.6878 -85.3956 -481.7176
v  38.7112 -85.3363 -493.5682
v  36.6027 -85.3363 -493.5682
v  36.6027 -85.3363 -491.3473
v  38.7112 -85.3363 -491.3473
v  64.1931 -85.3363 -493.5682
v  62.1111 -85.3363 -493.5682
v  62.1111 -85.3363 -491.3473
v  64.1931 -85.3363 -491.3473
# 182 vertices

vn 0.0000 -1.0000 -0.0000
vn 1.0000 0.0000 -0.0000
vn 0.0000 1.0000 0.0000
vn -1.0000 0.0000 -0.0000
vn 0.0000 0.0130 -0.9999
vn -0.8766 0.4813 0.0000
vn 0.0000 0.0130 0.9999
vn 0.8868 0.4622 0.0000
vn -0.0000 -0.0139 -0.9999
vn 0.8733 -0.4872 -0.0000
vn 0.0000 -0.0139 0.9999
vn -0.8621 -0.5067 -0.0000
vn -0.2248 0.0000 -0.9744
vn 0.0000 0.2176 -0.9760
vn 0.2248 0.0000 -0.9744
vn -0.0000 -0.2176 -0.9760
vn 0.0000 1.0000 -0.0000
vn 1.0000 -0.0000 0.0000
vn -0.0000 0.0000 -1.0000
vn 0.0000 -0.0000 1.0000
vn -1.0000 0.0000 0.0000
vn 1.0000 -0.0000 -0.0000
vn 0.0000 0.0000 -1.0000
vn -1.0000 -0.0000 0.0000
vn 0.0000 -0.4943 -0.8693
vn -0.0000 -0.9189 -0.3946
vn -1.0000 -0.0000 -0.0000
vn 1.0000 0.0000 0.0000
vn -0.0000 1.0000 -0.0000
vn -0.0000 -0.5822 -0.8131
vn 0.0000 -0.3282 0.9446
vn -0.3978 0.4016 -0.8249
vn 0.9545 0.2983 -0.0000
vn -0.9981 0.0624 -0.0000
vn -0.9545 -0.2983 -0.0000
vn 0.9981 -0.0624 0.0000
vn 0.9701 0.2425 0.0000
vn -0.9923 0.1240 -0.0000
vn -0.9701 -0.2425 -0.0000
vn 0.9923 -0.1240 0.0000
vn 0.9829 0.1843 0.0000
vn -0.9829 0.1843 -0.0000
vn -0.9829 -0.1843 -0.0000
vn 0.9829 -0.1843 0.0000
vn 0.0000 0.4378 -0.8991
vn -0.0000 -1.0000 0.0000
vn -0.0000 -1.0000 -0.0000
vn 0.0000 -1.0000 0.0000
vn -0.0000 1.0000 0.0000
vn 0.9160 -0.4012 0.0000
vn -0.9160 -0.4012 0.0000
vn -0.9160 -0.4012 -0.0000
vn 0.9160 -0.4012 -0.0000
vn -0.9799 0.1994 0.0000
vn 0.9796 0.2008 0.0000
vn -0.0000 0.4764 -0.8792
vn 0.0000 0.4764 0.8792
vn 0.0000 0.1791 -0.9838
vn 0.0000 0.1791 0.9838
vn -0.8763 0.4817 0.0000
vn 0.8774 0.4798 0.0000
vn 0.0000 -0.0000 -1.0000
vn 0.0000 0.0000 1.0000
vn -0.6971 -0.7170 -0.0000
vn 0.6971 -0.7170 -0.0000
vn -0.0000 -0.5171 -0.8559
vn 0.0000 -0.5171 0.8559
vn -0.0000 -0.7704 -0.6376
vn 0.0000 -0.7704 0.6375
vn 0.0000 -0.6812 -0.7321
vn 0.0000 -0.6812 0.7321
vn -0.8613 -0.5082 -0.0000
vn 0.8640 -0.5034 -0.0000
vn -0.6512 -0.7589 -0.0000
vn 0.6465 -0.7629 -0.0000
vn -0.5875 0.8093 0.0000
vn 0.5875 0.8093 0.0000
vn -0.0000 0.9586 -0.2846
vn 0.0000 0.9579 0.2872
vn 0.0000 0.9579 -0.2872
vn 0.0000 0.9586 0.2846
vn 0.0000 0.9590 -0.2834
vn 0.0000 0.9590 0.2834
vn -0.6519 0.7583 0.0000
vn 0.6566 0.7542 0.0000
vn -0.6566 0.7542 0.0000
vn 0.6519 0.7583 0.0000
vn -0.0000 0.0000 1.0000
vn -0.6499 -0.7600 -0.0000
vn 0.6499 -0.7600 -0.0000
vn -0.0000 -0.8403 -0.5422
vn 0.0000 -0.8390 0.5442
vn 0.0000 -0.8390 -0.5442
vn 0.0000 -0.8403 0.5422
vn 0.0000 -0.9413 -0.3375
vn -0.0000 -0.9413 0.3375
vn -0.7243 -0.6895 -0.0000
vn 0.7286 -0.6849 -0.0000
vn -0.7286 -0.6849 -0.0000
vn 0.7243 -0.6895 -0.0000
# 100 vertex normals

vt 1.0000 1.0000 0.0000
vt 0.0000 1.0000 0.0000
vt 0.0000 0.0000 0.0000
vt 1.0000 0.0000 0.0000
# 4 texture coords

g Box001
usemtl wire_008008136
s 8
f 1/1/1 2/2/1 3/3/1 4/4/1 
s 16
f 5/1/2 6/2/2 7/3/2 8/4/2 
s 32
f 9/1/3 10/2/3 11/3/3 12/4/3 
s 64
f 13/1/4 14/2/4 15/3/4 16/4/4 
s off
f 8/2/5 15/1/5 12/4/5 11/3/5 
f 15/3/6 14/2/6 9/1/6 12/4/6 
f 14/2/7 5/1/7 10/2/7 9/1/7 
f 5/1/8 8/4/8 11/3/8 10/2/8 
f 16/3/9 7/4/9 4/4/9 3/3/9 
f 7/4/10 6/1/10 1/1/10 4/4/10 
f 6/1/11 13/2/11 2/2/11 1/1/11 
f 13/2/12 16/3/12 3/3/12 2/2/12 
f 16/4/13 15/3/13 17/3/13 18/4/13 
f 15/1/14 8/2/14 19/2/14 17/1/14 
f 8/4/15 7/3/15 20/3/15 19/4/15 
f 7/4/16 16/3/16 18/3/16 20/4/16 
f 18/4/4 17/3/4 21/3/4 22/4/4 
f 17/1/17 19/2/17 23/2/17 21/1/17 
f 19/4/18 20/3/18 24/3/18 23/4/18 
f 23/2/19 24/3/19 22/3/19 21/3/19 
f 20/4/20 18/3/20 25/3/20 26/4/20 
f 18/4/21 22/4/21 27/4/21 25/4/21 
f 24/3/22 20/3/22 26/3/22 28/3/22 
f 22/3/23 24/3/23 28/3/23 27/3/23 
f 25/4/24 27/4/24 29/4/24 
f 28/3/2 26/3/2 30/3/2 
f 27/3/25 28/3/25 30/3/25 29/3/25 
f 26/4/3 25/3/3 31/3/3 32/4/3 
f 29/4/26 30/3/26 33/3/26 34/3/26 
f 35/4/27 29/4/27 34/4/27 
f 30/3/28 36/3/28 33/3/28 
f 32/4/29 31/3/29 37/3/29 38/4/29 
f 35/4/27 34/4/27 39/4/27 40/4/27 
f 33/3/28 36/3/28 41/3/28 42/3/28 
f 39/4/20 42/3/20 41/3/20 40/4/20 
f 38/4/3 37/3/3 43/3/3 44/4/3 
f 40/4/1 41/3/1 45/3/1 46/4/1 
f 46/4/20 45/3/20 44/3/20 43/3/20 
f 34/3/30 33/3/30 47/3/30 48/3/30 
f 39/4/4 34/4/4 48/4/4 49/4/4 
f 33/3/18 42/3/18 50/3/18 47/3/18 
f 42/3/31 39/4/31 49/4/31 50/3/31 
f 48/3/19 47/3/19 51/3/19 52/3/19 
f 49/4/21 48/4/21 52/4/21 53/4/21 
f 47/3/22 50/3/22 54/3/22 51/3/22 
f 50/3/20 49/4/20 53/4/20 54/3/20 
f 25/4/32 29/4/32 29/4/32 25/4/32 
f 30/3/4 26/3/4 26/3/4 30/3/4 
f 31/3/33 25/3/33 25/3/33 31/3/33 
f 26/4/34 32/4/34 32/4/34 26/4/34 
f 29/4/35 35/4/35 35/4/35 29/4/35 
f 36/3/36 30/3/36 30/3/36 36/3/36 
f 37/3/37 31/3/37 31/3/37 37/3/37 
f 32/4/38 38/4/38 38/4/38 32/4/38 
f 35/4/39 40/4/39 40/4/39 35/4/39 
f 41/3/40 36/3/40 36/3/40 41/3/40 
f 43/3/41 37/3/41 37/3/41 43/3/41 
f 38/4/42 44/4/42 44/4/42 38/4/42 
f 40/4/43 46/4/43 46/4/43 40/4/43 
f 45/3/44 41/3/44 41/3/44 45/3/44 
f 46/4/20 43/3/20 43/3/20 46/4/20 
f 44/3/20 45/3/20 45/3/20 44/3/20 
f 25/4/45 29/4/45 55/4/45 56/4/45 
f 31/3/17 25/3/17 56/3/17 57/3/17 
f 29/4/46 35/4/46 58/4/46 55/4/46 
f 37/3/3 31/3/3 57/3/3 59/3/3 
f 35/4/47 40/4/47 60/4/47 58/4/47 
f 43/3/17 37/3/17 59/3/17 61/3/17 
f 40/4/46 46/4/46 62/4/46 60/4/46 
f 46/4/20 43/3/20 61/3/20 62/4/20 
f 30/3/45 26/3/45 63/3/45 64/3/45 
f 26/4/29 32/4/29 65/4/29 63/4/29 
f 36/3/48 30/3/48 64/3/48 66/3/48 
f 32/4/49 38/4/49 67/4/49 65/4/49 
f 41/3/1 36/3/1 66/3/1 68/3/1 
f 38/4/29 44/4/29 69/4/29 67/4/29 
f 45/3/48 41/3/48 68/3/48 70/3/48 
f 44/3/20 45/3/20 70/3/20 69/3/20 
f 63/3/50 65/4/50 66/3/50 64/3/50 
f 58/4/51 57/3/51 56/3/51 55/4/51 
f 62/4/51 61/3/51 59/3/51 60/4/51 
f 60/4/52 59/3/52 57/3/52 58/4/52 
f 69/4/50 70/3/50 68/3/50 67/4/50 
f 67/4/53 68/3/53 66/3/53 65/4/53 
f 52/3/3 51/3/3 71/3/3 72/3/3 
f 54/3/3 53/4/3 73/4/3 74/3/3 
f 53/4/3 52/4/3 75/4/3 76/4/3 
f 51/3/3 54/3/3 77/3/3 78/3/3 
f 52/3/54 72/3/54 79/3/54 80/3/54 
f 71/3/55 51/3/55 81/3/55 82/3/55 
f 73/4/54 53/4/54 83/4/54 84/4/54 
f 54/3/55 74/3/55 85/3/55 86/3/55 
f 72/3/56 71/3/56 82/3/56 79/3/56 
f 74/3/57 73/4/57 84/4/57 85/3/57 
f 75/4/58 52/4/58 80/4/58 87/4/58 
f 53/4/59 76/4/59 88/4/59 83/4/59 
f 76/4/60 75/4/60 87/4/60 88/4/60 
f 51/3/58 78/3/58 89/3/58 81/3/58 
f 77/3/59 54/3/59 86/3/59 90/3/59 
f 78/3/61 77/3/61 90/3/61 89/3/61 
f 5/1/20 14/2/20 13/1/20 6/1/20 
f 80/3/4 79/3/4 91/3/4 92/3/4 
f 82/3/2 81/3/2 93/3/2 94/3/2 
f 84/4/27 83/4/27 95/4/27 96/4/27 
f 86/3/28 85/3/28 97/3/28 98/3/28 
f 79/3/19 82/3/19 94/3/19 91/3/19 
f 85/3/20 84/4/20 96/4/20 97/3/20 
f 87/4/62 80/4/62 92/4/62 99/4/62 
f 83/4/63 88/4/63 100/4/63 95/4/63 
f 88/4/4 87/4/4 99/4/4 100/4/4 
f 81/3/62 89/3/62 101/3/62 93/3/62 
f 90/3/63 86/3/63 98/3/63 102/3/63 
f 89/3/2 90/3/2 102/3/2 101/3/2 
f 98/3/47 95/4/47 92/4/47 93/3/47 
f 92/3/64 91/3/64 103/3/64 104/3/64 
f 94/3/65 93/3/65 105/3/65 106/3/65 
f 96/4/64 95/4/64 107/4/64 108/4/64 
f 98/3/65 97/3/65 109/3/65 110/3/65 
f 91/3/66 94/3/66 106/3/66 103/3/66 
f 97/3/67 96/4/67 108/4/67 109/3/67 
f 95/4/68 98/3/68 110/3/68 107/4/68 
f 93/3/69 92/4/69 104/4/69 105/3/69 
f 99/4/70 92/4/70 111/4/70 112/4/70 
f 95/4/71 100/4/71 113/4/71 114/4/71 
f 100/4/72 99/4/72 112/4/72 113/4/72 
f 93/3/70 101/3/70 115/3/70 116/3/70 
f 102/3/71 98/3/71 117/3/71 118/3/71 
f 101/3/73 102/3/73 118/3/73 115/3/73 
f 98/3/74 93/3/74 116/3/74 117/3/74 
f 92/4/75 95/4/75 114/4/75 111/4/75 
f 104/3/4 103/3/4 119/3/4 120/3/4 
f 106/3/2 105/3/2 121/3/2 122/3/2 
f 108/4/24 107/4/24 123/4/24 124/4/24 
f 110/3/18 109/3/18 125/3/18 126/3/18 
f 103/3/19 106/3/19 122/3/19 119/3/19 
f 109/3/20 108/4/20 124/4/20 125/3/20 
f 107/4/23 110/3/23 126/3/23 123/4/23 
f 105/3/20 104/4/20 120/4/20 121/3/20 
f 112/4/23 111/4/23 127/4/23 128/4/23 
f 114/4/20 113/4/20 129/4/20 130/4/20 
f 113/4/4 112/4/4 128/4/4 129/4/4 
f 116/3/23 115/3/23 131/3/23 132/3/23 
f 118/3/20 117/3/20 133/3/20 134/3/20 
f 115/3/2 118/3/2 134/3/2 131/3/2 
f 117/3/4 116/3/4 132/3/4 133/3/4 
f 111/4/2 114/4/2 130/4/2 127/4/2 
f 120/3/76 119/3/76 135/3/76 136/3/76 
f 122/3/77 121/3/77 137/3/77 138/3/77 
f 124/4/76 123/4/76 139/4/76 140/4/76 
f 126/3/77 125/3/77 141/3/77 142/3/77 
f 119/3/78 122/3/78 138/3/78 135/3/78 
f 125/3/79 124/4/79 140/4/79 141/3/79 
f 123/4/80 126/3/80 142/3/80 139/4/80 
f 121/3/81 120/4/81 136/4/81 137/3/81 
f 128/4/82 127/4/82 143/4/82 144/4/82 
f 130/4/83 129/4/83 145/4/83 146/4/83 
f 129/4/84 128/4/84 144/4/84 145/4/84 
f 132/3/82 131/3/82 147/3/82 148/3/82 
f 134/3/83 133/3/83 149/3/83 150/3/83 
f 131/3/85 134/3/85 150/3/85 147/3/85 
f 133/3/86 132/3/86 148/3/86 149/3/86 
f 127/4/87 130/4/87 146/4/87 143/4/87 
f 136/3/27 135/3/27 151/3/27 152/3/27 
f 138/3/2 137/3/2 153/3/2 154/3/2 
f 140/4/24 139/4/24 155/4/24 156/4/24 
f 142/3/28 141/3/28 157/3/28 158/3/28 
f 135/3/19 138/3/19 154/3/19 151/3/19 
f 141/3/20 140/4/20 156/4/20 157/3/20 
f 139/4/23 142/3/23 158/3/23 155/4/23 
f 137/3/63 136/4/63 152/4/63 153/3/63 
f 144/4/62 143/4/62 159/4/62 160/4/62 
f 146/4/88 145/4/88 161/4/88 162/4/88 
f 145/4/4 144/4/4 160/4/4 161/4/4 
f 148/3/62 147/3/62 163/3/62 164/3/62 
f 150/3/88 149/3/88 165/3/88 166/3/88 
f 147/3/2 150/3/2 166/3/2 163/3/2 
f 149/3/4 148/3/4 164/3/4 165/3/4 
f 143/4/2 146/4/2 162/4/2 159/4/2 
f 152/3/89 151/3/89 167/3/89 168/3/89 
f 154/3/90 153/3/90 169/3/90 170/3/90 
f 156/4/89 155/4/89 171/4/89 172/4/89 
f 158/3/90 157/3/90 173/3/90 174/3/90 
f 151/3/91 154/3/91 170/3/91 167/3/91 
f 157/3/92 156/4/92 172/4/92 173/3/92 
f 155/4/93 158/3/93 174/3/93 171/4/93 
f 153/3/94 152/4/94 168/4/94 169/3/94 
f 170/3/1 169/3/1 168/4/1 167/3/1 
f 174/3/1 173/3/1 172/4/1 171/4/1 
f 160/4/95 159/4/95 175/4/95 176/4/95 
f 162/4/96 161/4/96 177/4/96 178/4/96 
f 161/4/97 160/4/97 176/4/97 177/4/97 
f 164/3/95 163/3/95 179/3/95 180/3/95 
f 166/3/96 165/3/96 181/3/96 182/3/96 
f 163/3/98 166/3/98 182/3/98 179/3/98 
f 165/3/99 164/3/99 180/3/99 181/3/99 
f 159/4/100 162/4/100 178/4/100 175/4/100 
# 192 polygons - 4 triangles

