# 3ds Max Wavefront OBJ Exporter v0.97b - (c)2007 guruware
# File Created: 30.11.2015 11:24:53

#
# object Cylinder006
#

v  122.0143 126.7663 -85.1098
v  122.0143 121.7663 -93.7700
v  -121.9857 121.7663 -93.7700
v  -121.9857 126.7663 -85.1098
v  122.0143 111.7663 -93.7700
v  -121.9857 111.7663 -93.7700
v  122.0143 106.7663 -85.1098
v  -121.9857 106.7663 -85.1098
v  122.0143 111.7663 -76.4495
v  -121.9857 111.7663 -76.4495
v  122.0143 73.4518 93.7700
v  122.0143 83.4518 93.7700
v  -121.9857 83.4518 93.7700
v  -121.9857 73.4518 93.7700
v  122.0143 121.7663 -76.4495
v  -121.9857 121.7663 -76.4495
v  122.0143 111.7663 -61.4495
v  -121.9857 111.7663 -61.4495
v  122.0143 121.7663 -61.4495
v  -121.9857 121.7663 -61.4495
v  122.0143 73.4518 78.9700
v  -121.9857 73.4518 78.9700
v  122.0143 83.4518 78.9700
v  -121.9857 83.4518 78.9700
v  100.6032 -111.7663 78.8389
v  -100.6317 -111.7663 78.8389
v  -100.6317 -111.7663 -61.3657
v  100.6032 -111.7663 -61.3657
v  100.6032 -71.7663 -61.3657
v  -100.6317 -71.7663 -61.3657
v  -100.6317 -71.7663 78.8389
v  100.6032 -71.7663 78.8389
v  100.6032 -111.7663 93.7366
v  100.6032 -71.7663 93.7366
v  -100.6317 -71.7663 93.7366
v  -100.6317 -111.7663 93.7366
v  121.9857 -111.7663 -61.3657
v  121.9857 -71.7663 -61.3657
v  121.9857 -71.7663 78.8389
v  121.9857 -111.7663 78.8389
v  -100.6317 -111.7663 -76.2634
v  -100.6317 -71.7663 -76.2634
v  100.6032 -71.7663 -76.2634
v  100.6032 -111.7663 -76.2634
v  -122.0143 -111.7663 78.8389
v  -122.0143 -71.7663 78.8389
v  -122.0143 -71.7663 -61.3657
v  -122.0143 -111.7663 -61.3657
v  121.9857 111.6901 -61.3657
v  100.6032 111.6901 -61.3657
v  100.6032 73.2337 78.8389
v  121.9857 73.2337 78.8389
v  -122.0143 73.2337 78.8389
v  -100.6317 73.2337 78.8389
v  -100.6317 111.6901 -61.3657
v  -122.0143 111.6901 -61.3657
v  121.9857 -111.7663 93.7366
v  121.9857 -71.7663 93.7366
v  -122.0143 -71.7663 93.7366
v  -122.0143 -111.7663 93.7366
v  -122.0143 -111.7663 -76.2634
v  -122.0143 -71.7663 -76.2634
v  121.9857 -71.7663 -76.2634
v  121.9857 -111.7663 -76.2634
v  100.6032 111.6901 -76.2634
v  -100.6317 111.6901 -76.2634
v  -100.6317 73.2337 93.7366
v  100.6032 73.2337 93.7366
v  121.9857 -126.7663 93.7366
v  100.6032 -126.7663 93.7366
v  100.6032 -126.7663 78.8389
v  121.9857 -126.7663 78.8389
v  100.6032 -126.7663 -76.2634
v  121.9857 -126.7663 -76.2634
v  121.9857 -126.7663 -61.3657
v  100.6032 -126.7663 -61.3657
v  -122.0143 -126.7663 -76.2634
v  -100.6317 -126.7663 -76.2634
v  -100.6317 -126.7663 -61.3657
v  -122.0143 -126.7663 -61.3657
v  -100.6317 -126.7663 93.7366
v  -122.0143 -126.7663 93.7366
v  -122.0143 -126.7663 78.8389
v  -100.6317 -126.7663 78.8389
v  121.9857 111.6901 -76.2634
v  121.9857 73.2337 93.7366
v  -122.0143 73.2337 93.7366
v  -122.0143 111.6901 -76.2634
# 88 vertices

vn -0.0000 1.0000 0.0000
vn -0.0000 0.5000 -0.8660
vn 0.0000 -0.5000 -0.8660
vn 0.0000 -1.0000 0.0000
vn 0.0000 -0.8660 0.5000
vn 0.0000 0.0000 1.0000
vn -0.0000 0.8660 0.5000
vn 1.0000 0.0000 -0.0000
vn -1.0000 -0.0000 -0.0000
vn 0.0000 -1.0000 -0.0000
vn -0.0000 1.0000 -0.0000
vn 0.0000 -0.9647 -0.2632
vn 1.0000 0.0000 0.0000
vn -0.0000 0.9647 0.2632
vn 0.0000 0.0000 -1.0000
vn -0.0000 0.9911 0.1335
vn -0.0000 0.9960 0.0889
vn 1.0000 -0.0000 -0.0000
vn -0.0000 0.0000 -1.0000
vn -1.0000 0.0000 -0.0000
vn -0.0000 -0.0000 1.0000
# 21 vertex normals

g Cylinder006
f 1//1 2//2 3//2 4//1 
f 2//2 5//3 6//3 3//2 
f 5//3 7//4 8//4 6//3 
f 7//4 9//5 10//5 8//4 
f 11//6 12//6 13//6 14//6 
f 15//7 1//1 4//1 16//7 
f 9//8 7//8 1//8 15//8 
f 8//9 10//9 16//9 4//9 
f 10//10 9//10 17//10 18//10 
f 9//8 15//8 19//8 17//8 
f 15//11 16//11 20//11 19//11 
f 16//9 10//9 18//9 20//9 
f 18//12 17//12 21//12 22//12 
f 17//13 19//13 23//13 21//13 
f 19//14 20//14 24//14 23//14 
f 20//9 18//9 22//9 24//9 
f 22//10 21//10 11//10 14//10 
f 21//8 23//8 12//8 11//8 
f 23//11 24//11 13//11 12//11 
f 24//9 22//9 14//9 13//9 
f 25//10 26//10 27//10 28//10 
f 29//11 30//11 31//11 32//11 
f 33//6 34//6 35//6 36//6 
f 37//8 38//8 39//8 40//8 
f 41//15 42//15 43//15 44//15 
f 45//9 46//9 47//9 48//9 
f 40//10 25//10 28//10 37//10 
f 48//10 27//10 26//10 45//10 
f 49//16 50//17 51//17 52//16 
f 53//16 54//17 55//17 56//16 
f 57//6 58//6 34//6 33//6 
f 59//6 60//6 36//6 35//6 
f 61//15 62//15 42//15 41//15 
f 63//15 64//15 44//15 43//15 
f 33//10 36//10 26//10 25//10 
f 41//10 44//10 28//10 27//10 
f 65//11 66//11 55//17 50//17 
f 67//11 68//11 51//17 54//17 
f 64//8 63//8 38//8 37//8 
f 58//8 57//8 40//8 39//8 
f 60//9 59//9 46//9 45//9 
f 62//9 61//9 48//9 47//9 
f 69//10 70//10 71//10 72//10 
f 73//10 74//10 75//10 76//10 
f 77//10 78//10 79//10 80//10 
f 81//10 82//10 83//10 84//10 
f 85//11 65//11 50//17 49//16 
f 68//11 86//11 52//16 51//17 
f 87//11 67//11 54//17 53//16 
f 66//11 88//11 56//16 55//17 
f 59//6 35//6 67//6 87//6 
f 35//6 34//6 68//6 67//6 
f 34//6 58//6 86//6 68//6 
f 58//18 39//18 52//18 86//18 
f 39//18 38//18 49//18 52//18 
f 38//8 63//8 85//8 49//8 
f 63//15 43//15 65//15 85//15 
f 43//19 42//19 66//19 65//19 
f 42//19 62//19 88//19 66//19 
f 62//9 47//9 56//9 88//9 
f 47//9 46//9 53//9 56//9 
f 46//9 59//9 87//9 53//9 
f 29//20 32//20 51//20 50//20 
f 32//15 31//15 54//15 51//15 
f 31//8 30//8 55//8 54//8 
f 30//21 29//21 50//21 55//21 
f 57//6 33//6 70//6 69//6 
f 33//9 25//9 71//9 70//9 
f 25//15 40//15 72//15 71//15 
f 40//8 57//8 69//8 72//8 
f 64//8 37//8 75//8 74//8 
f 37//6 28//6 76//6 75//6 
f 28//9 44//9 73//9 76//9 
f 44//15 64//15 74//15 73//15 
f 61//15 41//15 78//15 77//15 
f 41//8 27//8 79//8 78//8 
f 27//6 48//6 80//6 79//6 
f 48//9 61//9 77//9 80//9 
f 60//9 45//9 83//9 82//9 
f 45//15 26//15 84//15 83//15 
f 26//8 36//8 81//8 84//8 
f 36//6 60//6 82//6 81//6 
f 3//9 6//9 8//9 4//9 
f 5//8 2//8 1//8 7//8 
# 84 polygons

