# 3ds Max Wavefront OBJ Exporter v0.97b - (c)2007 guruware
# File Created: 25.11.2015 15:02:30

#
# object Box016
#

v  -144.0000 74.0000 -92.5000
v  -1.6301 74.0000 -92.5000
v  -1.6301 48.0000 -92.5000
v  -144.0000 48.0000 -92.5000
v  -1.6301 48.0000 92.5000
v  -1.6301 74.0000 92.5000
v  -144.0000 74.0000 92.5000
v  -144.0000 48.0000 92.5000
v  -135.9265 -57.0000 -4.3040
v  -116.5286 -57.0000 -4.3040
v  -116.5286 -57.0000 41.8973
v  -135.9265 -57.0000 41.8960
v  144.0000 74.0000 -92.5000
v  144.0000 74.0000 -4.3039
v  144.0000 48.0000 -4.3039
v  144.0000 48.0000 -70.7625
v  144.0000 48.0000 -92.5000
v  -1.6301 74.0000 -4.3039
v  -144.0000 48.0000 -70.7625
v  -144.0000 48.0000 -4.3039
v  -144.0000 74.0000 -4.3039
v  144.0000 48.0000 92.5000
v  -1.6301 48.0000 70.7625
v  135.9265 48.0000 70.7625
v  144.0000 48.0000 70.7625
v  -1.6301 48.0000 -70.7625
v  -135.9265 48.0000 -70.7625
v  -144.0000 48.0000 70.7625
v  -135.9265 48.0000 -4.3039
v  -135.9265 48.0000 70.7625
v  135.9265 48.0000 -4.3039
v  135.9265 48.0000 -70.7625
v  -1.6355 40.1250 70.7625
v  9.6445 40.1250 70.7625
v  113.9971 40.1250 70.7625
v  135.9265 40.1250 70.7625
v  -135.9265 40.1250 -4.3039
v  -135.9265 40.1250 70.7625
v  -1.6746 40.1250 -70.7625
v  -135.9265 40.1250 -70.7625
v  135.9265 40.1250 -4.3039
v  135.9265 40.1250 -70.7625
v  113.9971 12.0939 70.7625
v  9.6445 12.0939 70.7625
v  9.6445 2.8196 70.7625
v  113.9971 2.8196 70.7625
v  -135.9265 -40.5183 -70.7625
v  -135.9265 -40.5183 -4.3039
v  135.9265 -40.5183 -70.7625
v  -1.6746 -40.5183 -70.7625
v  135.9265 -40.5183 70.7625
v  135.9265 -40.5183 -4.3039
v  -135.9265 -57.0000 70.7625
v  -116.5450 -57.0000 70.7625
v  -116.5535 -40.5183 70.7624
v  -135.9265 -40.5183 70.7625
v  -135.9265 -57.0000 -41.8978
v  -135.9265 -57.0000 -70.7625
v  135.9265 -57.0000 -70.7625
v  135.8874 -57.0000 -70.7625
v  113.9352 -57.0000 -70.7625
v  -1.6495 -57.0000 -70.7625
v  135.9265 -57.0000 70.7625
v  135.9265 -57.0000 -4.3040
v  113.9971 -40.5183 70.7625
v  -116.5535 40.1250 -4.2375
v  -116.5535 -40.5183 -4.2376
v  -1.6355 -40.5183 -4.2376
v  -1.6355 40.1250 -4.2375
v  -116.5535 40.1250 70.7625
v  9.6445 -40.5183 70.7625
v  -1.6355 -40.5183 70.7624
v  113.9971 40.1250 75.7625
v  9.6445 40.1250 75.7625
v  9.6445 12.0939 75.7625
v  113.9971 12.0939 75.7625
v  9.6445 -40.5183 75.7625
v  113.9971 -40.5183 75.7625
v  113.9971 2.8196 75.7625
v  9.6445 2.8196 75.7625
v  135.8874 -57.0000 -4.3040
v  113.9353 -57.0000 -4.3040
v  113.9352 -57.0000 -41.8973
v  135.8874 -57.0000 -41.8973
v  -1.6336 -57.0000 70.7625
v  -1.6415 -57.0000 -4.3039
v  113.9353 -57.0000 41.8973
v  113.9756 -57.0000 70.7625
v  135.8874 -74.0000 70.7625
v  113.9353 -74.0000 70.7625
v  113.9353 -74.0000 41.8973
v  135.8874 -74.0000 41.8973
v  113.9352 -74.0000 -70.7625
v  135.8874 -74.0000 -70.7625
v  135.8874 -74.0000 -41.8973
v  113.9352 -74.0000 -41.8973
v  -135.9368 -74.0000 -70.7625
v  -116.5116 -74.0000 -70.7625
v  -116.5116 -74.0000 -41.8973
v  -135.9368 -74.0000 -41.8973
v  -116.5116 -74.0000 70.7625
v  -135.9368 -74.0000 70.7625
v  -135.9368 -74.0000 41.8973
v  -116.5116 -74.0000 41.8973
v  135.8874 -57.0000 41.8973
v  -116.5286 -57.0000 -70.7625
v  -116.5286 -57.0000 -41.8973
v  144.0000 74.0000 92.5000
# 108 vertices

vn 0.0000 0.0000 -1.0000
vn 0.0000 -0.0000 1.0000
vn -0.0000 -1.0000 -0.0000
vn 1.0000 0.0000 -0.0000
vn 0.0000 1.0000 0.0000
vn -1.0000 0.0000 -0.0000
vn 0.0000 -1.0000 -0.0000
vn -0.0000 -0.0000 1.0000
vn 0.0000 0.0000 1.0000
vn -0.0000 -0.0000 -1.0000
vn 0.0001 -1.0000 -0.0000
vn -0.0001 -1.0000 -0.0000
vn 0.0002 -1.0000 -0.0000
vn 0.0000 -1.0000 0.0000
vn -1.0000 0.0012 0.0007
vn 1.0000 -0.0012 -0.0007
vn 1.0000 0.0010 -0.0000
vn -0.0000 0.0000 1.0000
vn -1.0000 0.0006 -0.0000
vn 0.0000 -0.0000 -1.0000
vn 1.0000 0.0015 0.0003
vn -0.0000 0.0000 -1.0000
vn 0.0003 -1.0000 -0.0000
vn 0.0004 -1.0000 -0.0000
vn -0.0000 -0.0040 1.0000
vn 0.0000 -0.0040 1.0000
vn -1.0000 0.0001 0.0001
vn 1.0000 0.0010 0.0001
vn -0.0005 1.0000 0.0000
# 29 vertex normals

g Box016
f 1//1 2//1 3//1 4//1 
f 5//2 6//2 7//2 8//2 
f 9//3 10//3 11//3 12//3 
f 13//4 14//4 15//4 16//4 
f 17//4 13//4 16//4 
f 2//5 18//5 14//5 13//5 
f 1//6 4//6 19//6 20//6 
f 1//6 20//6 21//6 
f 22//3 5//7 23//7 24//3 
f 25//3 22//3 24//3 
f 4//7 3//7 26//7 27//7 
f 19//7 4//7 27//7 
f 28//7 20//7 29//7 30//7 
f 16//7 15//7 31//3 32//7 
f 24//2 23//2 33//2 34//2 
f 24//2 34//2 35//2 36//2 
f 29//6 37//6 38//6 30//6 
f 26//1 39//1 40//1 27//1 
f 31//4 41//4 42//4 32//4 
f 43//8 44//8 45//8 46//8 
f 47//6 48//6 37//6 40//6 
f 49//1 50//1 39//1 42//1 
f 51//4 52//4 41//4 36//4 
f 53//9 54//9 55//9 56//9 
f 57//6 9//6 48//6 58//6 
f 47//6 58//6 48//6 
f 49//1 59//1 60//1 61//1 
f 49//10 61//10 62//10 50//10 
f 63//4 64//4 52//4 51//4 
f 51//2 36//2 35//2 43//2 
f 51//8 43//8 46//8 65//8 
f 66//2 67//2 68//2 69//2 
f 38//2 56//2 55//2 70//2 
f 44//8 34//8 33//8 45//8 
f 71//8 45//8 33//8 72//8 
f 73//2 74//2 75//2 76//2 
f 77//8 78//8 79//8 80//8 
f 81//11 82//7 83//7 84//12 
f 59//3 64//13 81//11 84//12 
f 60//7 59//3 84//12 
f 85//3 86//3 82//7 87//7 
f 88//7 85//3 87//7 
f 89//14 90//14 91//14 92//14 
f 93//14 94//14 95//14 96//14 
f 97//14 98//14 99//14 100//14 
f 101//14 102//14 103//14 104//14 
f 63//2 88//2 90//2 89//2 
f 88//15 87//15 91//15 90//15 
f 87//1 105//1 92//1 91//1 
f 105//16 63//16 89//16 92//16 
f 61//1 60//1 94//1 93//1 
f 60//4 84//4 95//4 94//4 
f 84//2 83//2 96//2 95//2 
f 83//6 61//6 93//6 96//6 
f 58//1 106//1 98//1 97//1 
f 106//17 107//17 99//17 98//17 
f 107//18 57//18 100//18 99//18 
f 57//19 58//19 97//19 100//19 
f 54//2 53//2 102//2 101//2 
f 53//19 12//19 103//19 102//19 
f 12//20 11//20 104//20 103//20 
f 11//21 54//21 101//21 104//21 
f 35//5 34//5 74//5 73//5 
f 34//6 44//6 75//6 74//6 
f 44//3 43//3 76//3 75//3 
f 43//4 35//4 73//4 76//4 
f 71//7 65//7 78//7 77//7 
f 65//4 46//4 79//4 78//4 
f 46//5 45//5 80//5 79//5 
f 45//6 71//6 77//6 80//6 
f 33//7 70//7 66//7 69//7 
f 70//4 55//4 67//4 66//4 
f 72//6 33//6 69//6 68//6 
f 85//9 88//9 65//9 71//9 
f 85//18 71//18 72//18 
f 63//18 51//18 65//18 88//18 
f 13//1 17//1 3//1 2//1 
f 22//2 108//2 6//2 5//2 
f 1//5 21//5 18//5 2//5 
f 5//7 8//7 28//7 30//7 
f 5//7 30//7 23//7 
f 3//7 17//7 16//7 32//7 
f 3//7 32//7 26//7 
f 23//2 30//2 38//2 70//2 
f 23//2 70//2 33//2 
f 32//1 42//1 39//1 26//1 
f 47//22 40//22 39//22 50//22 
f 106//1 58//1 47//1 62//1 
f 62//10 47//10 50//10 
f 57//3 107//3 10//3 9//3 
f 14//4 108//4 22//4 25//4 
f 14//4 25//4 15//4 
f 6//5 108//5 14//5 18//5 
f 28//6 8//6 7//6 20//6 
f 20//6 7//6 21//6 
f 19//7 27//7 29//7 20//7 
f 25//3 24//3 31//3 15//7 
f 27//6 40//6 37//6 29//6 
f 24//4 36//4 41//4 31//4 
f 56//6 38//6 37//6 48//6 
f 49//4 42//4 41//4 52//4 
f 53//6 56//6 48//6 12//6 
f 9//6 12//6 48//6 
f 59//4 49//4 52//4 64//4 
f 105//23 87//7 82//7 81//11 
f 64//13 63//24 105//23 81//11 
f 86//3 62//7 61//3 83//7 
f 86//3 83//7 82//7 
f 7//5 6//5 18//5 21//5 
f 107//3 106//7 62//7 86//3 
f 10//3 107//3 86//3 
f 86//25 68//26 67//25 10//25 
f 86//27 85//27 72//27 68//27 
f 67//28 55//28 54//28 10//28 
f 11//29 10//29 54//29 
# 97 polygons - 18 triangles

