# 3ds Max Wavefront OBJ Exporter v0.97b - (c)2007 guruware
# File Created: 30.11.2015 15:33:19

#
# object Box018
#

v  75.7680 -103.0000 -0.0000
v  -75.7680 -103.0000 -0.0000
v  -75.7680 103.0000 0.0000
v  75.7680 103.0000 0.0000
v  75.7680 -103.0000 119.8928
v  -75.7680 -103.0000 119.8928
v  -75.7680 -103.0000 59.9464
v  75.7680 -103.0000 59.9464
v  105.0000 103.0000 119.8928
v  105.0000 -103.0000 119.8928
v  105.0000 -103.0000 59.9464
v  105.0000 103.0000 59.9464
v  -75.7680 153.0000 119.8928
v  75.7680 153.0000 119.8928
v  75.7680 153.0000 59.9464
v  -75.7680 153.0000 59.9464
v  -105.0000 -103.0000 119.8928
v  -105.0000 103.0000 119.8928
v  -105.0000 103.0000 59.9464
v  -105.0000 -103.0000 59.9464
v  105.0000 -103.0000 -0.0000
v  105.0000 103.0000 0.0000
v  -105.0000 103.0000 0.0000
v  -105.0000 -103.0000 -0.0000
v  105.0000 103.0000 179.8392
v  75.7680 103.0000 179.8392
v  75.7680 -103.0000 179.8392
v  105.0000 -103.0000 179.8392
v  -105.0000 -103.0000 179.8392
v  -75.7680 -103.0000 179.8392
v  -75.7680 103.0000 179.8392
v  -105.0000 103.0000 179.8392
v  -105.0000 153.0000 119.8928
v  -105.0000 153.0000 59.9464
v  105.0000 153.0000 59.9464
v  105.0000 153.0000 119.8928
v  -75.7680 103.0000 -24.8777
v  -119.6725 103.0000 -24.8793
v  -119.6725 153.0000 -24.8793
v  -75.7680 153.0000 -24.8777
v  -119.6725 103.0000 128.1534
v  -119.6725 153.0000 128.1534
v  -119.6725 153.0000 51.6371
v  -119.6725 103.0000 51.6371
v  -119.6725 103.0000 204.6697
v  -75.7680 103.0000 204.7170
v  -75.7680 153.0000 204.7170
v  -119.6725 153.0000 204.6697
v  75.7680 103.0000 204.7170
v  75.7680 153.0000 204.7170
v  119.6725 103.0000 204.7546
v  119.6725 153.0000 204.7546
v  119.6725 103.0000 51.7419
v  119.6725 153.0000 51.7419
v  119.6725 153.0000 128.2482
v  119.6725 103.0000 128.2482
v  119.6725 103.0000 -24.7645
v  75.7680 103.0000 -24.8777
v  75.7680 153.0000 -24.8777
v  119.6725 153.0000 -24.7645
v  -105.0000 153.0000 0.0000
v  -75.7680 153.0000 0.0000
v  75.7680 153.0000 0.0000
v  105.0000 153.0000 0.0000
v  105.0000 153.0000 179.8392
v  75.7680 153.0000 179.8392
v  -75.7680 153.0000 179.8392
v  -105.0000 153.0000 179.8392
v  105.0000 -141.0000 179.8392
v  75.7680 -141.0000 179.8392
v  75.7680 -141.0000 119.8928
v  105.0000 -141.0000 119.8928
v  75.7680 -141.0000 -0.0000
v  105.0000 -141.0000 -0.0000
v  105.0000 -141.0000 59.9464
v  75.7680 -141.0000 59.9464
v  -105.0000 -141.0000 -0.0000
v  -75.7680 -141.0000 -0.0000
v  -75.7680 -141.0000 59.9464
v  -105.0000 -141.0000 59.9464
v  -75.7680 -141.0000 179.8392
v  -105.0000 -141.0000 179.8392
v  -105.0000 -141.0000 119.8928
v  -75.7680 -141.0000 119.8928
# 84 vertices

vn 0.0000 0.0000 -1.0000
vn 0.0000 -1.0000 -0.0000
vn 1.0000 0.0000 -0.0000
vn 0.0000 1.0000 0.0000
vn -1.0000 0.0000 -0.0000
vn 0.0000 -0.0000 1.0000
vn -0.0009 -0.0000 1.0000
vn -0.0007 -0.0000 1.0000
vn 0.0022 0.0000 -1.0000
# 9 vertex normals

g Box018
f 1//1 2//1 3//1 4//1 
f 5//2 6//2 7//2 8//2 
f 9//3 10//3 11//3 12//3 
f 13//4 14//4 15//4 16//4 
f 17//5 18//5 19//5 20//5 
f 21//1 1//1 4//1 22//1 
f 23//1 3//1 2//1 24//1 
f 25//6 26//6 27//6 28//6 
f 29//6 30//6 31//6 32//6 
f 10//2 5//2 8//2 11//2 
f 20//2 7//2 6//2 17//2 
f 33//4 13//4 16//4 34//4 
f 35//4 15//4 14//4 36//4 
f 26//6 31//6 30//6 27//6 
f 37//1 38//1 39//1 40//1 
f 41//5 42//5 43//5 44//5 
f 45//7 46//7 47//7 48//7 
f 46//6 49//6 50//6 47//6 
f 49//8 51//8 52//8 50//8 
f 53//3 54//3 55//3 56//3 
f 57//9 58//9 59//9 60//9 
f 58//1 37//1 40//1 59//1 
f 3//2 23//2 38//2 37//2 
f 18//2 41//2 44//2 19//2 
f 32//2 31//2 46//2 45//2 
f 31//2 26//2 49//2 46//2 
f 26//2 25//2 51//2 49//2 
f 12//2 53//2 56//2 9//2 
f 22//2 4//2 58//2 57//2 
f 4//2 3//2 37//2 58//2 
f 61//4 62//4 40//4 39//4 
f 62//4 63//4 59//4 40//4 
f 63//4 64//4 60//4 59//4 
f 36//4 55//4 54//4 35//4 
f 65//4 66//4 50//4 52//4 
f 66//4 67//4 47//4 50//4 
f 67//4 68//4 48//4 47//4 
f 34//4 43//4 42//4 33//4 
f 27//2 30//2 6//2 5//2 
f 2//2 1//2 8//2 7//2 
f 25//3 28//3 10//3 9//3 
f 21//3 22//3 12//3 11//3 
f 67//4 66//4 14//4 13//4 
f 63//4 62//4 16//4 15//4 
f 29//5 32//5 18//5 17//5 
f 19//5 23//5 24//5 20//5 
f 69//2 70//2 71//2 72//2 
f 73//2 74//2 75//2 76//2 
f 77//2 78//2 79//2 80//2 
f 81//2 82//2 83//2 84//2 
f 68//4 67//4 13//4 33//4 
f 62//4 61//4 34//4 16//4 
f 64//4 63//4 15//4 35//4 
f 66//4 65//4 36//4 14//4 
f 45//5 48//5 42//5 41//5 
f 39//5 38//5 44//5 43//5 
f 57//3 60//3 54//3 53//3 
f 52//3 51//3 56//3 55//3 
f 32//2 45//2 41//2 18//2 
f 44//2 38//2 23//2 19//2 
f 22//2 57//2 53//2 12//2 
f 56//2 51//2 25//2 9//2 
f 65//4 52//4 55//4 36//4 
f 54//4 60//4 64//4 35//4 
f 61//4 39//4 43//4 34//4 
f 42//4 48//4 68//4 33//4 
f 28//6 27//6 70//6 69//6 
f 27//5 5//5 71//5 70//5 
f 5//1 10//1 72//1 71//1 
f 10//3 28//3 69//3 72//3 
f 1//1 21//1 74//1 73//1 
f 21//3 11//3 75//3 74//3 
f 11//6 8//6 76//6 75//6 
f 8//5 1//5 73//5 76//5 
f 24//1 2//1 78//1 77//1 
f 2//3 7//3 79//3 78//3 
f 7//6 20//6 80//6 79//6 
f 20//5 24//5 77//5 80//5 
f 30//6 29//6 82//6 81//6 
f 29//5 17//5 83//5 82//5 
f 17//1 6//1 84//1 83//1 
f 6//3 30//3 81//3 84//3 
# 82 polygons

