# 3ds Max Wavefront OBJ Exporter v0.97b - (c)2007 guruware
# File Created: 30.11.2015 11:32:25

#
# object Cylinder008
#

v  122.1066 41.5509 -49.4805
v  122.1066 36.5509 -40.8203
v  0.1819 36.5509 -40.8203
v  0.1819 41.5509 -49.4806
v  122.1066 41.5509 -32.1600
v  0.1819 41.5509 -32.1600
v  122.1066 51.5509 -32.1600
v  0.1819 51.5509 -32.1601
v  122.1066 56.5509 -40.8203
v  0.1819 56.5509 -40.8203
v  122.1066 223.1226 -92.7487
v  122.1066 218.1226 -101.4090
v  0.1819 218.1226 -101.4090
v  0.1819 223.1226 -92.7487
v  122.1066 51.5509 -49.4806
v  0.1819 51.5509 -49.4806
v  122.1066 69.5413 -48.3203
v  0.1819 69.5413 -48.3203
v  122.1066 64.5413 -56.9806
v  0.1819 64.5413 -56.9806
v  122.1065 210.3054 -85.3487
v  0.1819 210.3054 -85.3487
v  122.1066 205.3054 -94.0090
v  0.1819 205.3054 -94.0090
v  -0.1819 56.5509 -40.8203
v  -0.1819 51.5509 -49.4806
v  -122.1066 51.5509 -49.4806
v  -122.1066 56.5509 -40.8203
v  -0.1819 41.5509 -49.4806
v  -122.1066 41.5509 -49.4806
v  -0.1819 36.5509 -40.8203
v  -122.1066 36.5509 -40.8203
v  -0.1819 41.5509 -32.1600
v  -122.1066 41.5509 -32.1601
v  -0.1819 3.2363 138.0595
v  -0.1819 13.2363 138.0595
v  -122.1066 13.2363 138.0595
v  -122.1066 3.2363 138.0595
v  -0.1819 51.5509 -32.1600
v  -122.1066 51.5509 -32.1601
v  -0.1819 41.5509 -17.1600
v  -122.1066 41.5509 -17.1601
v  -0.1819 51.5509 -17.1600
v  -122.1066 51.5509 -17.1601
v  -0.1819 3.2363 123.2595
v  -122.1066 3.2363 123.2595
v  -0.1819 13.2363 123.2595
v  -122.1066 13.2363 123.2595
v  100.6955 -181.9818 123.1284
v  -100.5395 -181.9818 123.1284
v  -100.5395 -181.9818 -17.0763
v  100.6955 -181.9818 -17.0763
v  100.6955 -141.9818 -17.0763
v  -100.5395 -141.9818 -17.0763
v  -100.5395 -141.9818 123.1284
v  100.6955 -141.9818 123.1284
v  100.6955 -181.9818 138.0260
v  100.6955 -141.9818 138.0260
v  -100.5395 -141.9818 138.0260
v  -100.5395 -181.9818 138.0260
v  122.0780 -181.9818 -17.0763
v  122.0780 -141.9818 -17.0763
v  122.0780 -141.9818 123.1284
v  122.0780 -181.9818 123.1284
v  -100.5395 -181.9818 -31.9739
v  -100.5395 -141.9818 -31.9739
v  100.6955 -141.9818 -31.9739
v  100.6955 -181.9818 -31.9739
v  -121.9220 -181.9818 123.1284
v  -121.9220 -141.9818 123.1284
v  -121.9220 -141.9818 -17.0763
v  -121.9220 -181.9818 -17.0763
v  122.0780 41.4746 -17.0763
v  100.6955 41.4746 -17.0763
v  100.6955 3.0182 123.1284
v  122.0780 3.0182 123.1284
v  -121.9220 3.0182 123.1284
v  -100.5395 3.0182 123.1284
v  -100.5395 41.4746 -17.0763
v  -121.9220 41.4746 -17.0763
v  122.0780 -181.9818 138.0260
v  122.0780 -141.9818 138.0260
v  -121.9220 -141.9818 138.0260
v  -121.9220 -181.9818 138.0260
v  -121.9220 -181.9818 -31.9739
v  -121.9220 -141.9818 -31.9739
v  122.0780 -141.9818 -31.9739
v  122.0780 -181.9818 -31.9739
v  100.6955 41.4746 -31.9739
v  -100.5395 41.4746 -31.9739
v  -100.5395 3.0182 138.0260
v  100.6955 3.0182 138.0260
v  122.0780 -196.9818 138.0261
v  100.6955 -196.9818 138.0261
v  100.6955 -196.9818 123.1284
v  122.0780 -196.9818 123.1284
v  100.6955 -196.9818 -31.9739
v  122.0780 -196.9818 -31.9739
v  122.0780 -196.9818 -17.0763
v  100.6955 -196.9818 -17.0763
v  -121.9220 -196.9818 -31.9739
v  -100.5395 -196.9818 -31.9739
v  -100.5395 -196.9818 -17.0763
v  -121.9220 -196.9818 -17.0763
v  -100.5395 -196.9818 138.0260
v  -121.9220 -196.9818 138.0260
v  -121.9220 -196.9818 123.1284
v  -100.5395 -196.9818 123.1284
v  122.0780 41.4746 -31.9739
v  122.0780 3.0182 138.0260
v  -121.9220 3.0182 138.0260
v  -121.9220 41.4746 -31.9739
# 112 vertices

vn 0.0000 -0.5000 -0.8660
vn 0.0000 -1.0000 0.0000
vn -0.0000 -0.5000 0.8660
vn -0.0000 0.5000 0.8660
vn -0.0000 0.8660 0.5000
vn 0.0000 0.8660 -0.5000
vn 0.0000 -0.0000 -1.0000
vn 1.0000 0.0000 0.0000
vn -1.0000 -0.0000 -0.0000
vn -0.0000 0.2544 0.9671
vn 0.0000 -0.2544 -0.9671
vn 1.0000 -0.0000 0.0000
vn -0.0000 1.0000 0.0000
vn 0.0000 0.5000 -0.8660
vn 0.0000 -1.0000 -0.0000
vn -0.0000 -0.8660 0.5000
vn -0.0000 -0.0000 1.0000
vn 0.0000 -0.9647 -0.2632
vn -0.0000 0.9647 0.2632
vn -0.0000 -1.0000 0.0000
vn -0.0000 -1.0000 -0.0000
vn 0.0000 1.0000 -0.0000
vn 0.0000 1.0000 0.0000
vn 0.0000 0.0000 -1.0000
vn 0.0000 0.9911 0.1335
vn 0.0000 0.9960 0.0889
vn -0.0000 0.9960 0.0889
vn -0.0000 0.9911 0.1335
vn -0.0000 1.0000 -0.0000
vn -0.0000 0.0000 1.0000
vn 0.0000 0.0000 1.0000
vn -0.0000 -0.0000 -1.0000
vn -1.0000 0.0000 -0.0000
# 33 vertex normals

g Cylinder008
f 1//1 2//2 3//2 4//1 
f 2//2 5//3 6//3 3//2 
f 5//3 7//4 8//4 6//3 
f 7//4 9//5 10//5 8//4 
f 11//6 12//6 13//6 14//6 
f 15//7 1//1 4//1 16//7 
f 9//8 7//8 1//8 15//8 
f 8//9 10//9 16//9 4//9 
f 10//4 9//4 17//4 18//4 
f 9//8 15//8 19//8 17//8 
f 15//1 16//1 20//1 19//1 
f 16//9 10//9 18//9 20//9 
f 18//10 17//10 21//10 22//10 
f 17//8 19//8 23//8 21//8 
f 19//11 20//11 24//11 23//11 
f 20//9 18//9 22//9 24//9 
f 22//4 21//4 11//4 14//4 
f 21//12 23//12 12//12 11//12 
f 23//1 24//1 13//1 12//1 
f 24//9 22//9 14//9 13//9 
f 5//8 2//8 1//8 7//8 
f 3//9 6//9 8//9 4//9 
f 25//13 26//14 27//14 28//13 
f 26//14 29//1 30//1 27//14 
f 29//1 31//2 32//15 30//1 
f 31//2 33//16 34//16 32//15 
f 35//17 36//17 37//17 38//17 
f 39//5 25//13 28//13 40//5 
f 33//8 31//8 25//8 39//8 
f 32//9 34//9 40//9 28//9 
f 34//15 33//15 41//15 42//15 
f 33//8 39//8 43//8 41//8 
f 39//13 40//13 44//13 43//13 
f 40//9 34//9 42//9 44//9 
f 42//18 41//18 45//18 46//18 
f 41//8 43//8 47//8 45//8 
f 43//19 44//19 48//19 47//19 
f 44//9 42//9 46//9 48//9 
f 46//15 45//15 35//15 38//15 
f 45//8 47//8 36//8 35//8 
f 47//13 48//13 37//13 36//13 
f 48//9 46//9 38//9 37//9 
f 27//9 30//9 32//9 28//9 
f 29//8 26//8 25//8 31//8 
f 49//20 50//20 51//20 52//21 
f 53//22 54//22 55//23 56//23 
f 57//17 58//17 59//17 60//17 
f 61//8 62//8 63//8 64//8 
f 65//24 66//24 67//24 68//24 
f 69//9 70//9 71//9 72//9 
f 64//21 49//20 52//21 61//15 
f 72//15 51//20 50//20 69//21 
f 73//25 74//26 75//27 76//28 
f 77//28 78//27 79//26 80//28 
f 81//17 82//17 58//17 57//17 
f 83//17 84//17 60//17 59//17 
f 85//24 86//24 66//24 65//24 
f 87//24 88//24 68//24 67//24 
f 57//20 60//20 50//20 49//20 
f 65//20 68//21 52//21 51//20 
f 89//29 90//29 79//26 74//26 
f 91//13 92//13 75//27 78//27 
f 88//8 87//8 62//8 61//8 
f 82//8 81//8 64//8 63//8 
f 84//9 83//9 70//9 69//9 
f 86//9 85//9 72//9 71//9 
f 93//2 94//2 95//2 96//20 
f 97//15 98//15 99//15 100//15 
f 101//21 102//15 103//21 104//21 
f 105//2 106//2 107//2 108//20 
f 109//13 89//29 74//26 73//25 
f 92//13 110//13 76//28 75//27 
f 111//13 91//13 78//27 77//28 
f 90//29 112//29 80//28 79//26 
f 83//30 59//30 91//30 111//30 
f 59//31 58//31 92//31 91//31 
f 58//30 82//30 110//30 92//30 
f 82//12 63//12 76//12 110//12 
f 63//12 62//12 73//12 76//12 
f 62//12 87//12 109//12 73//12 
f 87//24 67//24 89//24 109//24 
f 67//32 66//32 90//32 89//32 
f 66//7 86//7 112//7 90//7 
f 86//9 71//9 80//9 112//9 
f 71//33 70//33 77//33 80//33 
f 70//33 83//33 111//33 77//33 
f 53//33 56//33 75//33 74//33 
f 56//7 55//7 78//7 75//7 
f 55//8 54//8 79//8 78//8 
f 54//31 53//31 74//31 79//31 
f 81//30 57//30 94//30 93//30 
f 57//9 49//9 95//9 94//9 
f 49//32 64//32 96//32 95//32 
f 64//8 81//8 93//8 96//8 
f 88//8 61//8 99//8 98//8 
f 61//30 52//30 100//30 99//30 
f 52//9 68//9 97//9 100//9 
f 68//24 88//24 98//24 97//24 
f 85//24 65//24 102//24 101//24 
f 65//8 51//8 103//8 102//8 
f 51//31 72//31 104//31 103//31 
f 72//9 85//9 101//9 104//9 
f 84//9 69//9 107//9 106//9 
f 69//32 50//32 108//32 107//32 
f 50//8 60//8 105//8 108//8 
f 60//30 84//30 106//30 105//30 
# 106 polygons

