# 3ds Max Wavefront OBJ Exporter v0.97b - (c)2007 guruware
# File Created: 30.11.2015 11:31:42

#
# object Object001
#

v  122.0142 42.8355 -47.2557
v  122.0142 37.8355 -38.5955
v  -121.9858 37.8355 -38.5954
v  -121.9858 42.8355 -47.2556
v  122.0142 42.8355 -29.9352
v  -121.9858 42.8355 -29.9351
v  122.0142 52.8355 -29.9352
v  -121.9858 52.8355 -29.9351
v  122.0142 57.8355 -38.5955
v  -121.9858 57.8355 -38.5954
v  122.0142 224.4072 -90.5240
v  122.0142 219.4072 -99.1843
v  -121.9858 219.4072 -99.1842
v  -121.9858 224.4072 -90.5239
v  122.0142 52.8355 -47.2557
v  -121.9858 52.8355 -47.2556
v  122.0142 70.8259 -46.0955
v  -121.9858 70.8259 -46.0954
v  122.0142 65.8259 -54.7557
v  -121.9858 65.8258 -54.7556
v  122.0142 211.5900 -83.1240
v  -121.9858 211.5900 -83.1239
v  122.0142 206.5900 -91.7842
v  -121.9858 206.5900 -91.7842
v  100.6031 -180.6972 125.3532
v  -100.6318 -180.6972 125.3533
v  -100.6318 -180.6972 -14.8514
v  100.6031 -180.6972 -14.8514
v  100.6031 -140.6972 -14.8514
v  -100.6318 -140.6972 -14.8514
v  -100.6318 -140.6972 125.3533
v  100.6031 -140.6972 125.3532
v  100.6031 -180.6972 140.2509
v  100.6031 -140.6972 140.2509
v  -100.6318 -140.6972 140.2509
v  -100.6318 -180.6972 140.2509
v  121.9857 -180.6972 -14.8514
v  121.9857 -140.6972 -14.8514
v  121.9857 -140.6972 125.3533
v  121.9857 -180.6972 125.3532
v  -100.6318 -180.6972 -29.7491
v  -100.6318 -140.6972 -29.7491
v  100.6031 -140.6972 -29.7491
v  100.6031 -180.6972 -29.7491
v  -122.0143 -180.6972 125.3532
v  -122.0143 -140.6972 125.3533
v  -122.0143 -140.6972 -14.8514
v  -122.0143 -180.6972 -14.8514
v  121.9857 42.7592 -14.8514
v  100.6031 42.7592 -14.8514
v  100.6031 4.3028 125.3532
v  121.9857 4.3028 125.3532
v  -122.0143 4.3028 125.3533
v  -100.6318 4.3028 125.3533
v  -100.6318 42.7592 -14.8514
v  -122.0143 42.7592 -14.8514
v  121.9857 -180.6972 140.2509
v  121.9857 -140.6972 140.2509
v  -122.0143 -140.6972 140.2509
v  -122.0143 -180.6972 140.2509
v  -122.0143 -180.6972 -29.7491
v  -122.0143 -140.6972 -29.7491
v  121.9857 -140.6972 -29.7491
v  121.9857 -180.6972 -29.7491
v  100.6031 42.7592 -29.7491
v  -100.6318 42.7592 -29.7491
v  -100.6318 4.3028 140.2509
v  100.6031 4.3028 140.2509
v  121.9857 -195.6972 140.2509
v  100.6031 -195.6972 140.2509
v  100.6031 -195.6972 125.3532
v  121.9857 -195.6972 125.3533
v  100.6031 -195.6972 -29.7491
v  121.9857 -195.6972 -29.7491
v  121.9857 -195.6972 -14.8514
v  100.6031 -195.6972 -14.8514
v  -122.0143 -195.6972 -29.7491
v  -100.6318 -195.6972 -29.7491
v  -100.6318 -195.6972 -14.8514
v  -122.0143 -195.6972 -14.8514
v  -100.6318 -195.6972 140.2509
v  -122.0143 -195.6972 140.2509
v  -122.0143 -195.6972 125.3533
v  -100.6318 -195.6972 125.3533
v  121.9857 42.7592 -29.7491
v  121.9857 4.3028 140.2509
v  -122.0143 4.3028 140.2509
v  -122.0143 42.7592 -29.7491
# 88 vertices

vn -0.0000 -0.5000 -0.8660
vn 0.0000 -1.0000 0.0000
vn 0.0000 -0.5000 0.8660
vn 0.0000 0.5000 0.8660
vn 0.0000 0.8660 0.5000
vn -0.0000 0.8660 -0.5000
vn -0.0000 -0.0000 -1.0000
vn 1.0000 0.0000 -0.0000
vn -1.0000 -0.0000 0.0000
vn 0.0000 0.2544 0.9671
vn -0.0000 -0.2544 -0.9671
vn 1.0000 -0.0000 -0.0000
vn 0.0000 -1.0000 -0.0000
vn -0.0000 -1.0000 0.0000
vn -0.0000 1.0000 0.0000
vn -0.0000 1.0000 -0.0000
vn 0.0000 -0.0000 1.0000
vn 0.0000 0.0000 1.0000
vn -0.0000 0.0000 1.0000
vn 1.0000 0.0000 0.0000
vn -0.0000 0.0000 -1.0000
vn -1.0000 -0.0000 -0.0000
vn -1.0000 0.0000 0.0000
vn -0.0000 -1.0000 -0.0000
vn -0.0000 0.9911 0.1335
vn -0.0000 0.9960 0.0889
vn 0.0000 0.9960 0.0889
vn 0.0000 0.9911 0.1335
vn -0.0000 -0.0000 1.0000
vn 0.0000 1.0000 -0.0000
vn -1.0000 0.0000 -0.0000
vn 1.0000 -0.0000 0.0000
vn 0.0000 0.0000 -1.0000
vn 0.0000 -0.0000 -1.0000
# 34 vertex normals

g Object001
f 1//1 2//2 3//2 4//1 
f 2//2 5//3 6//3 3//2 
f 5//3 7//4 8//4 6//3 
f 7//4 9//5 10//5 8//4 
f 11//6 12//6 13//6 14//6 
f 15//7 1//1 4//1 16//7 
f 9//8 7//8 1//8 15//8 
f 8//9 10//9 16//9 4//9 
f 10//4 9//4 17//4 18//4 
f 9//8 15//8 19//8 17//8 
f 15//1 16//1 20//1 19//1 
f 16//9 10//9 18//9 20//9 
f 18//10 17//10 21//10 22//10 
f 17//8 19//8 23//8 21//8 
f 19//11 20//11 24//11 23//11 
f 20//9 18//9 22//9 24//9 
f 22//4 21//4 11//4 14//4 
f 21//12 23//12 12//12 11//12 
f 23//1 24//1 13//1 12//1 
f 24//9 22//9 14//9 13//9 
f 25//13 26//14 27//13 28//13 
f 29//15 30//16 31//16 32//15 
f 33//17 34//17 35//18 36//19 
f 37//20 38//8 39//20 40//20 
f 41//21 42//21 43//21 44//21 
f 45//9 46//9 47//22 48//23 
f 40//13 25//13 28//13 37//2 
f 48//24 27//13 26//14 45//14 
f 49//25 50//26 51//27 52//28 
f 53//25 54//26 55//26 56//25 
f 57//17 58//17 34//17 33//17 
f 59//19 60//29 36//19 35//18 
f 61//21 62//21 42//21 41//21 
f 63//21 64//21 44//21 43//21 
f 33//13 36//2 26//14 25//13 
f 41//14 44//13 28//13 27//13 
f 65//16 66//16 55//26 50//26 
f 67//16 68//30 51//27 54//26 
f 64//20 63//8 38//8 37//20 
f 58//20 57//20 40//20 39//20 
f 60//9 59//9 46//9 45//9 
f 62//31 61//23 48//23 47//22 
f 69//2 70//13 71//13 72//2 
f 73//13 74//13 75//13 76//13 
f 77//2 78//2 79//2 80//2 
f 81//14 82//14 83//14 84//14 
f 85//16 65//16 50//26 49//25 
f 68//30 86//30 52//28 51//27 
f 87//15 67//16 54//26 53//25 
f 66//16 88//15 56//25 55//26 
f 59//29 35//29 67//29 87//29 
f 35//29 34//29 68//29 67//29 
f 34//17 58//17 86//17 68//17 
f 58//32 39//32 52//32 86//32 
f 39//12 38//12 49//12 52//12 
f 38//8 63//8 85//8 49//8 
f 63//21 43//21 65//21 85//21 
f 43//33 42//33 66//33 65//33 
f 42//21 62//21 88//21 66//21 
f 62//22 47//22 56//22 88//22 
f 47//9 46//9 53//9 56//9 
f 46//9 59//9 87//9 53//9 
f 29//31 32//31 51//31 50//31 
f 32//33 31//33 54//33 51//33 
f 31//8 30//8 55//8 54//8 
f 30//29 29//29 50//29 55//29 
f 57//18 33//18 70//18 69//18 
f 33//22 25//22 71//22 70//22 
f 25//7 40//7 72//7 71//7 
f 40//8 57//8 69//8 72//8 
f 64//8 37//8 75//8 74//8 
f 37//18 28//18 76//18 75//18 
f 28//22 44//22 73//22 76//22 
f 44//7 64//7 74//7 73//7 
f 61//7 41//7 78//7 77//7 
f 41//8 27//8 79//8 78//8 
f 27//18 48//18 80//18 79//18 
f 48//9 61//9 77//9 80//9 
f 60//9 45//9 83//9 82//9 
f 45//34 26//34 84//34 83//34 
f 26//8 36//8 81//8 84//8 
f 36//19 60//19 82//19 81//19 
f 3//9 6//9 8//9 4//9 
f 5//8 2//8 1//8 7//8 
# 84 polygons

