# 3ds Max Wavefront OBJ Exporter v0.97b - (c)2007 guruware
# File Created: 30.11.2015 11:45:59

#
# object Box004
#

v  23.7780 -34.3866 19.1250
v  -23.7778 -34.3866 19.1250
v  -30.2815 -34.3866 -19.1250
v  30.2817 -34.3866 -19.1250
v  30.2817 -24.3866 -19.1250
v  -30.2815 -24.3866 -19.1250
v  -23.7778 -24.3866 19.1250
v  23.7780 -24.3866 19.1250
v  23.7780 -34.3866 25.0000
v  23.7780 -24.3866 25.0000
v  -23.7778 -24.3866 25.0000
v  -23.7778 -34.3866 25.0000
v  37.3317 -34.3866 -19.1250
v  37.3317 -24.3866 -19.1250
v  28.8301 -24.3866 19.1250
v  28.8301 -34.3866 19.1250
v  -30.2815 -34.3866 -25.0000
v  -30.2815 -24.3866 -25.0000
v  30.2817 -24.3866 -25.0000
v  30.2817 -34.3866 -25.0000
v  -28.8300 -34.3866 19.1250
v  -28.8300 -24.3866 19.1250
v  -37.3315 -24.3866 -19.1250
v  -37.3315 -34.3866 -19.1250
v  37.3317 34.3866 -19.1250
v  30.2817 34.3866 -19.1250
v  23.7780 34.3866 19.1250
v  28.8301 34.3866 19.1250
v  -28.8300 34.3866 19.1250
v  -23.7778 34.3866 19.1250
v  -30.2815 34.3866 -19.1250
v  -37.3315 34.3866 -19.1250
v  28.8301 -34.3866 25.0000
v  28.8301 -24.3866 25.0000
v  -28.8300 -24.3866 25.0000
v  -28.8300 -34.3866 25.0000
v  -37.3315 -34.3866 -25.0000
v  -37.3315 -24.3866 -25.0000
v  37.3317 -24.3866 -25.0000
v  37.3317 -34.3866 -25.0000
v  30.2817 34.3866 -25.0000
v  -30.2815 34.3866 -25.0000
v  -23.7778 34.3866 25.0000
v  23.7780 34.3866 25.0000
v  37.3317 34.3866 -25.0000
v  28.8301 34.3866 25.0000
v  -28.8300 34.3866 25.0000
v  -37.3315 34.3866 -25.0000
# 48 vertices

vn 0.0000 -1.0000 -0.0000
vn -0.0000 1.0000 -0.0000
vn 0.0000 1.0000 -0.0000
vn -0.0000 -0.0000 1.0000
vn 0.0000 0.0000 1.0000
vn 0.9940 -0.0000 0.1091
vn 0.0000 0.0000 -1.0000
vn -0.9940 0.0000 0.1091
vn 0.0000 -0.0000 1.0000
vn 1.0000 0.0000 -0.0000
vn -1.0000 0.0000 -0.0000
vn -0.0000 0.0000 1.0000
vn 0.9762 0.0000 0.2170
vn 0.0000 -0.0000 -1.0000
vn -0.9762 0.0000 0.2170
vn -0.9859 0.0000 -0.1676
vn 0.9859 0.0000 -0.1676
# 17 vertex normals

g Box004
f 1//1 2//1 3//1 4//1 
f 5//2 6//3 7//3 8//2 
f 9//4 10//4 11//4 12//5 
f 13//6 14//6 15//6 16//6 
f 17//7 18//7 19//7 20//7 
f 21//8 22//8 23//8 24//8 
f 16//1 1//1 4//1 13//1 
f 24//1 3//1 2//1 21//1 
f 25//3 26//3 27//3 28//3 
f 29//3 30//3 31//3 32//3 
f 33//9 34//9 10//4 9//4 
f 35//5 36//5 12//5 11//4 
f 37//7 38//7 18//7 17//7 
f 39//7 40//7 20//7 19//7 
f 9//1 12//1 2//1 1//1 
f 17//1 20//1 4//1 3//1 
f 41//3 42//3 31//3 26//3 
f 43//3 44//3 27//3 30//3 
f 40//10 39//10 14//6 13//6 
f 34//10 33//10 16//6 15//6 
f 36//11 35//11 22//8 21//8 
f 38//11 37//11 24//8 23//8 
f 33//1 9//1 1//1 16//1 
f 20//1 40//1 13//1 4//1 
f 37//1 17//1 3//1 24//1 
f 12//1 36//1 21//1 2//1 
f 45//3 41//3 26//3 25//3 
f 44//3 46//3 28//3 27//3 
f 47//3 43//3 30//3 29//3 
f 42//3 48//3 32//3 31//3 
f 35//5 11//5 43//5 47//5 
f 11//12 10//12 44//12 43//12 
f 10//5 34//5 46//5 44//5 
f 34//10 15//10 28//10 46//10 
f 15//13 14//13 25//13 28//13 
f 14//10 39//10 45//10 25//10 
f 39//14 19//14 41//14 45//14 
f 19//14 18//14 42//14 41//14 
f 18//7 38//7 48//7 42//7 
f 38//11 23//11 32//11 48//11 
f 23//15 22//15 29//15 32//15 
f 22//11 35//11 47//11 29//11 
f 5//16 8//16 27//16 26//16 
f 8//14 7//14 30//14 27//14 
f 7//17 6//17 31//17 30//17 
f 6//12 5//12 26//12 31//12 
# 46 polygons

