# 3ds Max Wavefront OBJ Exporter v0.97b - (c)2007 guruware
# File Created: 25.11.2015 15:06:58

#
# object Box012
#

v  -59.1675 -48.4295 89.7613
v  59.1670 -48.4295 89.7613
v  59.1670 -12.5705 89.7613
v  -59.1675 -12.5705 89.7613
v  -59.1675 -133.8195 79.7613
v  -59.1675 -133.8195 -27.7614
v  59.1670 -133.8195 -27.7614
v  59.1670 -133.8195 79.7613
v  59.1670 -1.1805 79.7613
v  59.1670 -1.1805 -27.7613
v  -59.1675 -1.1805 -27.7613
v  -59.1675 -1.1805 79.7613
v  110.5407 -48.4295 -27.7613
v  110.5407 -12.5705 -27.7613
v  110.5407 -12.5705 79.7613
v  110.5407 -48.4295 79.7613
v  -110.5411 -12.5705 -27.7613
v  -110.5411 -48.4295 -27.7613
v  -110.5411 -48.4295 79.7613
v  -110.5411 -12.5705 79.7613
v  69.4840 -12.5705 79.7613
v  69.4840 -12.5705 -27.7613
v  -70.0685 -12.5705 -27.7613
v  -70.0685 -12.5705 79.7613
v  -59.1675 -59.8195 79.7613
v  59.1670 -59.8195 79.7613
v  69.4840 -48.4295 79.7613
v  69.4840 -133.3932 79.7613
v  69.4840 -133.3932 -27.7613
v  110.5407 -133.3932 -27.7613
v  110.5407 -133.3932 79.7613
v  69.4840 -48.4295 -89.7613
v  69.4840 -12.5705 -89.7613
v  110.5407 -12.5705 -89.7613
v  110.5407 -48.4295 -89.7613
v  69.4840 25.4295 -27.7613
v  69.4840 25.4295 79.7613
v  110.5407 25.4295 79.7613
v  110.5407 25.4295 -27.7613
v  -70.0685 -48.4295 79.7613
v  -70.0685 25.4295 79.7613
v  -70.0685 25.4295 -27.7613
v  -110.5411 25.4295 -27.7613
v  -110.5411 25.4295 79.7613
v  -70.0685 -12.5705 -89.7613
v  -70.0685 -48.4295 -89.7613
v  -110.5411 -48.4295 -89.7613
v  -110.5411 -12.5705 -89.7613
v  -70.0685 -133.3932 -27.7613
v  -70.0685 -133.3932 79.7613
v  -110.5411 -133.3932 79.7613
v  -110.5411 -133.3932 -27.7613
v  110.5407 -133.3932 -89.7613
v  69.4840 -133.3932 -89.7613
v  -70.0685 -133.3932 -89.7613
v  -110.5411 -133.3932 -89.7613
v  69.4840 25.4295 -89.7613
v  110.5407 25.4295 -89.7613
v  -110.5411 25.4295 -89.7613
v  -70.0685 25.4295 -89.7613
v  65.6071 -12.6265 85.5580
v  65.6071 -48.4533 85.5580
v  -65.5808 -48.4339 85.5636
v  -65.5808 -12.5661 85.5636
v  59.1670 -59.8195 -89.7613
v  -59.1675 -59.8195 -89.7613
v  -59.1675 -1.1805 -89.7613
v  59.1670 -1.1805 -89.7613
v  -59.1675 133.8195 -27.7613
v  59.1670 133.8195 -27.7613
v  59.1670 133.8195 -89.7613
v  -59.1675 133.8195 -89.7613
v  91.7610 122.3115 -27.7613
v  110.5407 98.1010 -27.7613
v  110.5407 98.1010 -89.7613
v  91.7610 122.3115 -89.7613
v  -59.1675 -133.8195 -89.7614
v  59.1670 -133.8195 -89.7614
v  -110.5411 98.1010 -27.7613
v  -92.3456 122.3116 -27.7613
v  -92.3456 122.3116 -89.7613
v  -110.5411 98.1010 -89.7613
v  59.1670 25.3639 -27.7613
v  -59.1675 25.3638 -27.7613
v  -59.1675 25.3639 -89.7613
v  59.1670 25.3639 -89.7613
# 86 vertices

vn 0.0000 -0.0000 1.0000
vn -0.0000 -1.0000 -0.0000
vn 0.0000 -1.0000 -0.0000
vn 0.0000 1.0000 0.0000
vn 1.0000 0.0000 -0.0000
vn -1.0000 0.0000 -0.0000
vn 0.7412 0.6713 0.0000
vn -0.7224 0.6914 0.0000
vn -0.0000 -0.6598 0.7515
vn 0.0000 0.6598 0.7515
vn 0.0000 0.0000 -1.0000
vn 0.0000 -0.0000 -1.0000
vn 0.0000 0.0000 1.0000
vn -0.0000 -0.0000 -1.0000
vn -0.0000 0.0000 1.0000
vn 0.8312 -0.0000 0.5559
vn 0.6623 0.5999 0.4488
vn 0.4445 0.5910 0.6732
vn 0.5466 -0.0000 0.8374
vn 0.4386 -0.5929 0.6753
vn 0.6648 -0.6022 0.4421
vn -0.7910 -0.0000 0.6118
vn -0.6308 -0.6037 0.4874
vn -0.4410 -0.5921 0.6744
vn -0.5476 -0.0000 0.8367
vn -0.4410 0.5921 0.6744
vn -0.6308 0.6037 0.4874
vn 0.0000 1.0000 -0.0000
vn 0.7902 0.6129 0.0000
vn -0.7994 0.6008 0.0000
vn -0.0000 -0.0000 1.0000
vn -0.0000 0.0000 -1.0000
vn -0.3277 0.9448 -0.0000
vn 0.3329 0.9430 -0.0000
vn -0.0391 -0.9992 -0.0000
vn 0.0413 -0.9991 -0.0000
# 36 vertex normals

g Box012
f 1//1 2//1 3//1 4//1 
f 5//2 6//2 7//2 8//3 
f 9//4 10//4 11//4 12//4 
f 13//5 14//5 15//5 16//5 
f 17//6 18//6 19//6 20//6 
f 10//7 9//7 21//7 22//7 
f 12//8 11//8 23//8 24//8 
f 25//9 26//9 2//9 1//9 
f 9//10 12//10 4//10 3//10 
f 21//1 27//1 16//1 15//1 
f 28//2 29//2 30//2 31//2 
f 32//11 33//11 34//11 35//11 
f 36//4 37//4 38//4 39//4 
f 40//1 24//1 20//1 19//1 
f 41//4 42//4 43//4 44//4 
f 45//11 46//11 47//11 48//11 
f 49//3 50//3 51//3 52//3 
f 32//12 35//12 53//12 54//12 
f 13//5 16//5 31//5 30//5 
f 16//1 27//1 28//1 31//1 
f 40//1 19//1 51//1 50//1 
f 19//6 18//6 52//6 51//6 
f 47//12 46//12 55//12 56//12 
f 22//6 21//6 37//6 36//6 
f 21//13 15//13 38//13 37//13 
f 15//5 14//5 39//5 38//5 
f 34//12 33//12 57//12 58//12 
f 24//5 23//5 42//5 41//5 
f 45//14 48//14 59//14 60//14 
f 17//6 20//6 44//6 43//6 
f 20//15 24//15 41//15 44//15 
f 27//16 21//16 61//16 62//16 
f 21//17 9//17 61//17 
f 9//18 3//18 61//18 
f 3//19 2//19 62//19 61//19 
f 2//20 26//20 62//20 
f 26//21 27//21 62//21 
f 24//22 40//22 63//22 64//22 
f 40//23 25//23 63//23 
f 25//24 1//24 63//24 
f 1//25 4//25 64//25 63//25 
f 4//26 12//26 64//26 
f 12//27 24//27 64//27 
f 65//12 66//12 67//12 68//12 
f 69//28 70//28 71//28 72//28 
f 73//29 74//29 75//29 76//29 
f 39//5 14//5 34//5 58//5 
f 14//5 13//5 35//5 34//5 
f 13//5 30//5 53//5 35//5 
f 30//3 29//3 54//3 53//3 
f 7//2 6//2 77//2 78//2 
f 49//3 52//3 56//3 55//3 
f 52//6 18//6 47//6 56//6 
f 18//6 17//6 48//6 47//6 
f 17//6 43//6 59//6 48//6 
f 79//30 80//30 81//30 82//30 
f 10//1 83//1 84//1 11//1 
f 67//12 85//12 86//12 68//12 
f 36//31 39//31 74//31 73//31 
f 39//5 58//5 75//5 74//5 
f 58//11 57//11 76//11 75//11 
f 43//1 42//1 80//1 79//1 
f 60//32 59//32 82//32 81//32 
f 59//6 43//6 79//6 82//6 
f 66//11 46//11 45//11 67//11 
f 67//12 45//12 60//12 85//12 
f 23//31 11//31 84//31 42//31 
f 70//13 69//13 84//13 83//13 
f 72//11 71//11 86//11 85//11 
f 80//33 69//33 72//33 81//33 
f 85//32 60//32 81//32 72//32 
f 84//1 69//1 80//1 42//1 
f 32//32 65//32 68//32 33//32 
f 76//34 71//34 70//34 73//34 
f 33//14 68//14 86//14 57//14 
f 10//1 22//1 36//1 83//1 
f 73//31 70//31 83//31 36//31 
f 86//11 71//11 76//11 57//11 
f 26//31 25//31 5//31 8//31 
f 66//11 65//11 78//11 77//11 
f 25//1 40//1 50//1 5//1 
f 46//11 66//11 77//11 55//11 
f 49//35 6//35 5//35 50//35 
f 27//1 26//1 8//1 28//1 
f 65//32 32//32 54//32 78//32 
f 8//36 7//36 29//36 28//36 
f 78//36 54//36 29//36 7//36 
f 49//35 55//35 77//35 6//35 
# 80 polygons - 8 triangles

