# 3ds Max Wavefront OBJ Exporter v0.97b - (c)2007 guruware
# File Created: 29.11.2015 12:55:49

#
# object Box011
#

v  -126.2144 -48.4295 89.7613
v  126.2139 -48.4295 89.7613
v  126.2139 -12.5705 89.7613
v  -126.2144 -12.5705 89.7613
v  -126.2144 -133.8195 79.7613
v  -126.2144 -133.8195 -27.7614
v  126.2139 -133.8195 -27.7614
v  126.2139 -133.8195 79.7613
v  126.2139 -1.1805 79.7613
v  126.2139 -1.1805 -27.7613
v  -126.2144 -1.1805 -27.7613
v  -126.2144 -1.1805 79.7613
v  177.5875 -48.4295 -27.7613
v  177.5875 -12.5705 -27.7613
v  177.5875 -12.5705 79.7613
v  177.5875 -48.4295 79.7613
v  -177.5880 -12.5705 -27.7613
v  -177.5880 -48.4295 -27.7613
v  -177.5880 -48.4295 79.7613
v  -177.5880 -12.5705 79.7613
v  136.5309 -12.5705 79.7613
v  136.5309 -12.5705 -27.7613
v  -137.1153 -12.5705 -27.7613
v  -137.1153 -12.5705 79.7613
v  -126.2144 -59.8195 79.7613
v  126.2139 -59.8195 79.7613
v  136.5309 -48.4295 79.7613
v  136.5309 -133.3932 79.7613
v  136.5309 -133.3932 -27.7613
v  177.5875 -133.3932 -27.7613
v  177.5875 -133.3932 79.7613
v  136.5309 -48.4295 -89.7613
v  136.5309 -12.5705 -89.7613
v  177.5875 -12.5705 -89.7613
v  177.5875 -48.4295 -89.7613
v  136.5309 25.4295 -27.7613
v  136.5309 25.4295 79.7613
v  177.5875 25.4295 79.7613
v  177.5875 25.4295 -27.7613
v  -137.1153 -48.4295 79.7613
v  -137.1153 25.4295 79.7613
v  -137.1153 25.4295 -27.7613
v  -177.5880 25.4295 -27.7613
v  -177.5880 25.4295 79.7613
v  -137.1153 -12.5705 -89.7613
v  -137.1153 -48.4295 -89.7613
v  -177.5880 -48.4295 -89.7613
v  -177.5880 -12.5705 -89.7613
v  -137.1153 -133.3932 -27.7613
v  -137.1153 -133.3932 79.7613
v  -177.5880 -133.3932 79.7613
v  -177.5880 -133.3932 -27.7613
v  177.5875 -133.3932 -89.7613
v  136.5309 -133.3932 -89.7613
v  -137.1153 -133.3932 -89.7613
v  -177.5880 -133.3932 -89.7613
v  136.5309 25.4295 -89.7613
v  177.5875 25.4295 -89.7613
v  -177.5880 25.4295 -89.7613
v  -137.1153 25.4295 -89.7613
v  132.6540 -12.6265 85.5580
v  132.6540 -48.4533 85.5580
v  -132.6277 -48.4339 85.5636
v  -132.6277 -12.5661 85.5636
v  126.2139 -59.8195 -89.7613
v  -126.2144 -59.8195 -89.7613
v  -126.2144 -1.1805 -89.7613
v  126.2139 -1.1805 -89.7613
v  -126.2144 133.8195 -27.7613
v  126.2139 133.8195 -27.7613
v  126.2139 133.8195 -89.7613
v  -126.2144 133.8195 -89.7613
v  158.8079 122.3115 -27.7613
v  177.5875 98.1010 -27.7613
v  177.5875 98.1010 -89.7613
v  158.8079 122.3116 -89.7613
v  -126.2144 -133.8195 -89.7614
v  126.2139 -133.8195 -89.7614
v  -177.5880 98.1010 -27.7613
v  -159.3924 122.3115 -27.7613
v  -159.3924 122.3116 -89.7613
v  -177.5880 98.1010 -89.7613
v  126.2139 25.3639 -27.7613
v  -126.2144 25.3639 -27.7613
v  -126.2144 25.3639 -89.7613
v  126.2139 25.3639 -89.7613
# 86 vertices

vn -0.0000 -0.0000 1.0000
vn 0.0000 -0.0000 1.0000
vn 0.0000 -1.0000 -0.0000
vn 0.0000 1.0000 0.0000
vn 1.0000 0.0000 -0.0000
vn -1.0000 0.0000 -0.0000
vn 0.7412 0.6713 0.0000
vn -0.7224 0.6914 0.0000
vn -0.0000 -0.6598 0.7515
vn 0.0000 0.6598 0.7515
vn -0.0000 -1.0000 -0.0000
vn 0.0000 0.0000 -1.0000
vn 0.0000 -0.0000 -1.0000
vn 0.8312 -0.0000 0.5559
vn 0.6623 0.5999 0.4488
vn 0.4445 0.5910 0.6732
vn 0.5466 -0.0000 0.8374
vn 0.4386 -0.5929 0.6753
vn 0.6648 -0.6022 0.4421
vn -0.7910 -0.0000 0.6118
vn -0.6308 -0.6037 0.4874
vn -0.4410 -0.5921 0.6744
vn -0.5476 -0.0000 0.8367
vn -0.4410 0.5921 0.6744
vn -0.6308 0.6037 0.4874
vn 0.7902 0.6129 0.0000
vn -0.7994 0.6008 0.0000
vn -0.0000 0.0000 -1.0000
vn 0.0000 0.0000 1.0000
vn -0.3277 0.9448 0.0000
vn 0.3329 0.9430 0.0000
vn -0.0391 -0.9992 -0.0000
vn 0.0413 -0.9991 -0.0000
# 33 vertex normals

g Box011
f 1//1 2//1 3//1 4//2 
f 5//3 6//3 7//3 8//3 
f 9//4 10//4 11//4 12//4 
f 13//5 14//5 15//5 16//5 
f 17//6 18//6 19//6 20//6 
f 10//7 9//7 21//7 22//7 
f 12//8 11//8 23//8 24//8 
f 25//9 26//9 2//9 1//9 
f 9//10 12//10 4//10 3//10 
f 21//2 27//2 16//2 15//2 
f 28//11 29//11 30//11 31//11 
f 32//12 33//12 34//12 35//12 
f 36//4 37//4 38//4 39//4 
f 40//1 24//1 20//1 19//1 
f 41//4 42//4 43//4 44//4 
f 45//12 46//12 47//12 48//12 
f 49//3 50//3 51//3 52//3 
f 32//13 35//13 53//13 54//13 
f 13//5 16//5 31//5 30//5 
f 16//2 27//2 28//2 31//2 
f 40//2 19//2 51//2 50//2 
f 19//6 18//6 52//6 51//6 
f 47//13 46//13 55//13 56//13 
f 22//6 21//6 37//6 36//6 
f 21//2 15//2 38//2 37//2 
f 15//5 14//5 39//5 38//5 
f 34//12 33//12 57//12 58//12 
f 24//5 23//5 42//5 41//5 
f 45//12 48//12 59//12 60//12 
f 17//6 20//6 44//6 43//6 
f 20//1 24//1 41//1 44//1 
f 27//14 21//14 61//14 62//14 
f 21//15 9//15 61//15 
f 9//16 3//16 61//16 
f 3//17 2//17 62//17 61//17 
f 2//18 26//18 62//18 
f 26//19 27//19 62//19 
f 24//20 40//20 63//20 64//20 
f 40//21 25//21 63//21 
f 25//22 1//22 63//22 
f 1//23 4//23 64//23 63//23 
f 4//24 12//24 64//24 
f 12//25 24//25 64//25 
f 65//12 66//12 67//12 68//12 
f 69//4 70//4 71//4 72//4 
f 73//26 74//26 75//26 76//26 
f 39//5 14//5 34//5 58//5 
f 14//5 13//5 35//5 34//5 
f 13//5 30//5 53//5 35//5 
f 30//3 29//3 54//3 53//3 
f 7//3 6//3 77//3 78//3 
f 49//3 52//3 56//3 55//3 
f 52//6 18//6 47//6 56//6 
f 18//6 17//6 48//6 47//6 
f 17//6 43//6 59//6 48//6 
f 79//27 80//27 81//27 82//27 
f 10//2 83//2 84//2 11//2 
f 67//12 85//12 86//12 68//12 
f 36//1 39//1 74//1 73//1 
f 39//5 58//5 75//5 74//5 
f 58//12 57//12 76//12 75//12 
f 43//2 42//2 80//2 79//2 
f 60//28 59//28 82//28 81//28 
f 59//6 43//6 79//6 82//6 
f 66//12 46//12 45//12 67//12 
f 67//12 45//12 60//12 85//12 
f 23//1 11//1 84//1 42//1 
f 70//29 69//29 84//29 83//29 
f 72//12 71//12 86//12 85//12 
f 80//30 69//30 72//30 81//30 
f 85//28 60//28 81//28 72//28 
f 84//1 69//1 80//1 42//1 
f 32//12 65//12 68//12 33//12 
f 76//31 71//31 70//31 73//31 
f 33//12 68//12 86//12 57//12 
f 10//2 22//2 36//2 83//2 
f 73//2 70//2 83//2 36//2 
f 86//12 71//12 76//12 57//12 
f 26//1 25//1 5//1 8//1 
f 66//12 65//12 78//12 77//12 
f 25//2 40//2 50//2 5//2 
f 46//28 66//28 77//28 55//28 
f 49//32 6//32 5//32 50//32 
f 27//1 26//1 8//1 28//1 
f 65//12 32//12 54//12 78//12 
f 8//33 7//33 29//33 28//33 
f 78//33 54//33 29//33 7//33 
f 49//32 55//32 77//32 6//32 
# 80 polygons - 8 triangles

