# Blender v2.75 (sub 0) OBJ File: '_001.blend'
# www.blender.org
mtllib Window with plank 2.mtl
o Plane013
v 46.688171 7.732252 3.989931
v 46.688263 -94.155052 3.989899
v 33.172577 -81.040848 3.989903
v 33.172577 -5.382050 3.989927
v -38.219147 -94.155052 3.989899
v -24.703522 -81.040848 3.989903
v -38.219147 7.732252 3.989931
v -24.703522 -5.382050 3.989927
v 33.166779 7.732252 3.989931
v -24.713135 7.732252 3.989931
v 46.688171 7.732255 -9.112181
v 46.688171 -94.155052 -9.112213
v -38.219147 -94.155052 -9.112213
v -38.219147 7.732255 -9.112181
v 29.380066 -74.588951 -1.085199
v 29.380066 -11.833848 -1.085178
v -20.912628 -74.588951 -1.085199
v -20.912628 -11.833848 -1.085178
v 33.234161 -81.040848 -9.112209
v 33.234161 -5.382046 -9.112185
v 29.443359 -11.833846 -4.037174
v 29.443359 -74.588951 -4.037194
v -24.642029 -81.040848 -9.112209
v -20.849335 -74.588951 -4.037194
v -24.642029 -5.382046 -9.112185
v -20.849335 -11.833846 -4.037174
v 46.688171 96.964447 3.989961
v 33.172577 83.850151 3.989957
v -38.219147 96.964447 3.989961
v -24.703522 83.850151 3.989957
v 46.688171 96.964447 -9.112150
v -38.219147 96.964447 -9.112150
v 29.380066 14.643251 -1.085170
v 29.379974 77.398346 -1.085149
v -20.912628 14.643251 -1.085170
v -20.912750 77.398346 -1.085149
v 33.215057 7.732255 -9.112181
v 33.234161 83.850151 -9.112156
v 29.443359 77.398346 -4.037146
v 29.443359 14.643253 -4.037166
v -24.635742 7.732255 -9.112181
v -20.849335 14.643253 -4.037166
v -24.642029 83.850151 -9.112156
v -20.849335 77.398346 -4.037146
v 49.263672 -23.720753 10.170311
v -46.563934 -40.617748 10.170305
v -41.070740 -71.771545 10.170387
v 54.756958 -54.874550 10.170393
v 49.263672 -23.720749 4.106712
v 54.756958 -54.874550 4.106702
v -41.070740 -71.771545 4.106696
v -46.563934 -40.617748 4.106706
v 52.735657 55.747253 10.170429
v -44.570343 55.747253 10.170429
v -44.570343 24.112848 10.170418
v 52.735657 24.112848 10.170418
v 52.735657 55.747253 4.106738
v 52.735657 24.112852 4.106728
v -44.570343 24.112852 4.106728
v -44.570343 55.747253 4.106738
vt 0.000000 0.000000
vt 0.000000 1.000000
vt 1.000000 1.000000
vt 1.000000 0.000000
vt 0.163900 0.000000
vt 0.835100 0.000000
vt 0.829900 0.000000
vt 0.087200 0.000000
vn 0.000000 0.000000 -1.000000
vn -1.000000 -0.000000 0.000000
vn 0.000000 1.000000 -0.000000
vn 1.000000 -0.000000 0.000000
vn 0.801000 0.000000 -0.598600
vn 0.000000 -0.618300 -0.786000
vn -0.801200 0.000000 -0.598400
vn 0.000000 0.618300 -0.786000
vn 0.801200 -0.000000 0.598400
vn 0.000000 -0.618200 0.786000
vn -0.801000 -0.000000 0.598600
vn 0.000000 0.618300 0.786000
vn 0.000000 -1.000000 0.000000
vn 0.801300 -0.000000 -0.598300
vn 0.000000 -0.591900 -0.806000
vn -0.800800 0.000100 -0.598900
vn 0.801900 -0.000100 0.597500
vn 0.000000 -0.591900 0.806000
vn -0.801300 -0.000000 0.598300
vn 0.000000 -0.000000 1.000000
vn -0.173600 0.984800 0.000000
vn -0.984800 -0.173600 0.000000
vn 0.173600 -0.984800 0.000000
vn 0.984800 0.173600 0.000000
usemtl wire_141007058
s off
f 1/1/1 2/2/1 3/2/1 4/1/1
f 2/2/1 5/3/1 6/3/1 3/2/1
f 5/3/1 7/4/1 8/4/1 6/3/1
f 9/5/1 1/1/1 4/1/1 10/6/1
f 7/4/1 10/6/1 4/1/1 8/4/1
f 2/2/2 1/1/2 11/1/2 12/2/2
f 5/3/3 2/2/3 12/2/3 13/3/3
f 7/4/4 5/3/4 13/3/4 14/4/4
f 4/1/5 3/2/5 15/2/5 16/1/5
f 3/2/6 6/3/6 17/3/6 15/2/6
f 6/3/7 8/4/7 18/4/7 17/3/7
f 8/4/8 4/1/8 16/1/8 18/4/8
f 19/2/9 20/1/9 21/1/9 22/2/9
f 23/3/10 19/2/10 22/2/10 24/3/10
f 25/4/11 23/3/11 24/3/11 26/4/11
f 20/1/12 25/4/12 26/4/12 21/1/12
f 27/1/1 1/2/1 9/2/1 28/1/1
f 7/3/1 29/4/1 30/4/1 10/3/1
f 29/4/1 27/1/1 28/1/1 30/4/1
f 1/2/2 27/1/2 31/1/2 11/2/2
f 29/4/4 7/3/4 14/3/4 32/4/4
f 27/1/13 29/4/13 32/4/13 31/1/13
f 28/1/14 9/2/14 33/2/14 34/1/14
f 9/2/15 10/3/15 35/3/15 33/2/15
f 10/3/16 30/4/16 36/4/16 35/3/16
f 30/4/8 28/1/8 34/1/8 36/4/8
f 37/2/17 38/1/17 39/1/17 40/2/17
f 41/3/18 37/2/18 40/2/18 42/3/18
f 43/4/19 41/3/19 42/3/19 44/4/19
f 38/1/12 43/4/12 44/4/12 39/1/12
s 1
f 12/2/20 11/1/20 20/1/20 19/2/20
f 41/7/20 14/4/20 25/4/20 37/8/20
f 11/1/20 37/8/20 25/4/20 20/1/20
f 14/4/20 13/3/20 23/3/20 25/4/20
f 13/3/20 12/2/20 19/2/20 23/3/20
f 15/2/13 17/3/13 24/3/13 22/2/13
f 18/4/3 16/1/3 21/1/3 26/4/3
f 16/1/1 15/2/1 17/3/1
f 17/3/1 18/4/1 16/1/1
f 15/2/3 22/2/3 24/3/3
f 24/3/3 17/3/3 15/2/3
f 22/2/20 21/1/20 26/4/20
f 26/4/20 24/3/20 22/2/20
f 21/1/13 16/1/13 18/4/13
f 18/4/13 26/4/13 21/1/13
f 11/2/20 31/1/20 38/1/20 37/2/20
f 31/1/20 32/4/20 43/4/20 38/1/20
f 32/4/20 14/3/20 41/3/20 43/4/20
f 33/2/13 35/3/13 42/3/13 40/2/13
f 36/4/3 34/1/3 39/1/3 44/4/3
f 34/1/1 33/2/1 35/3/1
f 35/3/1 36/4/1 34/1/1
f 33/2/3 40/2/3 42/3/3
f 42/3/3 35/3/3 33/2/3
f 40/2/20 39/1/20 44/4/20
f 44/4/20 42/3/20 40/2/20
f 39/1/13 34/1/13 36/4/13
f 36/4/13 44/4/13 39/1/13
f 45/4/20 46/1/20 47/2/20 48/3/20
f 49/1/1 50/2/1 51/3/1 52/4/1
f 45/1/21 49/2/21 52/3/21 46/4/21
f 46/1/22 52/2/22 51/3/22 47/4/22
f 47/1/23 51/2/23 50/3/23 48/4/23
f 48/1/24 50/2/24 49/3/24 45/4/24
f 53/4/20 54/1/20 55/2/20 56/3/20
f 57/1/1 58/2/1 59/3/1 60/4/1
f 53/1/3 57/2/3 60/3/3 54/4/3
f 54/1/2 60/2/2 59/3/2 55/4/2
f 55/1/13 59/2/13 58/3/13 56/4/13
f 56/1/4 58/2/4 57/3/4 53/4/4
