# 3ds Max Wavefront OBJ Exporter v0.97b - (c)2007 guruware
# File Created: 04.11.2015 11:05:52

mtllib Window_Assets.mtl

#
# object Plane006
#

v  465.2786 -86.1377 -443.7836
v  465.2786 144.0721 -443.7836
v  478.7942 130.9578 -443.7836
v  478.7942 -73.0234 -443.7836
v  761.5425 144.0721 -443.7836
v  748.0270 130.9578 -443.7836
v  761.5425 -86.1377 -443.7836
v  748.0270 -73.0234 -443.7836
v  465.2786 -86.1377 -468.8701
v  465.2786 144.0721 -468.8701
v  761.5425 144.0721 -468.8701
v  761.5425 -86.1377 -468.8701
v  478.7327 -73.0234 -468.8701
v  478.7327 130.9578 -468.8701
v  747.9655 -73.0234 -468.8701
v  747.9655 130.9578 -468.8701
v  482.5868 124.5060 -454.8508
v  482.5868 -66.5716 -454.8508
v  744.2361 124.5060 -454.8508
v  744.2361 -66.5716 -454.8508
v  482.5234 -66.5716 -457.8029
v  482.5234 124.5060 -457.8029
v  744.1727 124.5060 -457.8029
v  744.1727 -66.5716 -457.8029
# 24 vertices

vn 0.0000 0.0000 -1.0000
vn -0.0000 0.0000 -1.0000
vn 1.0000 0.0000 -0.0000
vn 0.0000 -1.0000 -0.0000
vn -1.0000 0.0000 -0.0000
vn 0.0000 1.0000 0.0000
vn 0.0000 -0.0000 1.0000
vn -0.0000 -0.0000 1.0000
vn -0.9460 0.0000 -0.3242
vn 0.0000 0.8639 -0.5036
vn 0.9460 0.0000 -0.3240
vn 0.0000 -0.8639 -0.5036
vn -0.9460 -0.0000 0.3240
vn 0.0000 0.8639 0.5036
vn 0.9460 -0.0000 0.3242
vn 0.0000 -0.8639 0.5036
vn 0.0000 -0.0000 -1.0000
# 17 vertex normals

vt 0.0000 0.0000 0.0000
vt 0.0000 1.0000 0.0000
vt 1.0000 1.0000 0.0000
vt 1.0000 0.0000 0.0000
# 4 texture coords

g Plane006
usemtl wire_177148027
s off
f 1/1/1 2/2/1 3/2/1 4/1/1 
f 2/2/1 5/3/1 6/3/1 3/2/1 
f 5/3/2 7/4/2 8/4/2 6/3/2 
f 7/4/1 1/1/1 4/1/1 8/4/1 
f 2/2/3 1/1/3 9/1/3 10/2/3 
f 5/3/4 2/2/4 10/2/4 11/3/4 
f 7/4/5 5/3/5 11/3/5 12/4/5 
f 1/1/6 7/4/6 12/4/6 9/1/6 
s 1
f 10/2/7 9/1/8 13/1/8 14/2/7 
s 2
f 9/1/7 12/4/7 15/4/7 13/1/7 
s 1
f 12/4/7 11/3/8 16/3/8 15/4/7 
s 2
f 11/3/7 10/2/7 14/2/7 16/3/7 
s off
f 4/1/9 3/2/9 17/2/9 18/1/9 
f 3/2/10 6/3/10 19/3/10 17/2/10 
f 6/3/11 8/4/11 20/4/11 19/3/11 
f 8/4/12 4/1/12 18/1/12 20/4/12 
f 14/2/13 13/1/13 21/1/13 22/2/13 
f 16/3/14 14/2/14 22/2/14 23/3/14 
f 15/4/15 16/3/15 23/3/15 24/4/15 
f 13/1/16 15/4/16 24/4/16 21/1/16 
s 2
f 17/2/6 19/3/6 23/3/6 22/2/6 
f 20/4/4 18/1/4 21/1/4 24/4/4 
s 1
f 18/1/17 17/2/17 19/3/17 
f 19/3/17 20/4/17 18/1/17 
s 4
f 17/2/4 22/2/4 23/3/4 
f 23/3/4 19/3/4 17/2/4 
s 1
f 22/2/7 21/1/7 24/4/7 
f 24/4/7 23/3/7 22/2/7 
s 4
f 21/1/6 18/1/6 20/4/6 
f 20/4/6 24/4/6 21/1/6 
# 22 polygons - 8 triangles

#
# object Plane008
#

v  373.1316 15.7175 -455.7068
v  373.1316 117.6048 -455.7068
v  386.6472 104.4905 -455.7068
v  386.6472 28.8318 -455.7068
v  458.0389 117.6048 -455.7068
v  444.5233 104.4905 -455.7068
v  458.0389 15.7175 -455.7068
v  444.5233 28.8318 -455.7068
v  386.6530 15.7175 -455.7068
v  444.5329 15.7175 -455.7068
v  373.1316 15.7175 -468.8089
v  373.1316 117.6048 -468.8089
v  458.0389 117.6048 -468.8089
v  458.0389 15.7175 -468.8089
v  386.5857 28.8318 -468.8089
v  386.5857 104.4905 -468.8089
v  444.4555 15.7175 -468.8089
v  444.4618 28.8318 -468.8089
v  386.6048 15.7175 -468.8089
v  444.4618 104.4905 -468.8089
v  390.4398 98.0387 -460.7819
v  390.4398 35.2836 -460.7819
v  440.7325 98.0387 -460.7819
v  440.7325 35.2836 -460.7819
v  390.3764 35.2836 -463.7339
v  390.3764 98.0387 -463.7339
v  440.6691 98.0387 -463.7339
v  440.6691 35.2836 -463.7339
v  373.1316 -73.5147 -455.7068
v  386.6472 -60.4005 -455.7068
v  458.0389 -73.5147 -455.7068
v  444.5233 -60.4005 -455.7068
v  373.1316 -73.5147 -468.8089
v  458.0389 -73.5147 -468.8089
v  386.5857 -60.4005 -468.8089
v  444.4618 -60.4005 -468.8089
v  390.4398 8.8065 -460.7819
v  390.4398 -53.9486 -460.7819
v  440.7325 8.8065 -460.7819
v  440.7325 -53.9486 -460.7819
v  390.3764 -53.9486 -463.7339
v  390.3764 8.8065 -463.7339
v  440.6691 8.8065 -463.7339
v  440.6691 -53.9486 -463.7339
# 44 vertices

vn -0.0000 0.0000 -1.0000
vn 0.0000 0.0000 -1.0000
vn 1.0000 -0.0000 0.0000
vn 0.0000 -1.0000 -0.0000
vn -1.0000 0.0000 -0.0000
vn -0.0000 -0.0000 1.0000
vn 0.0000 -0.0000 1.0000
vn -0.8010 0.0000 -0.5986
vn 0.0000 0.6183 -0.7860
vn 0.8012 0.0000 -0.5984
vn 0.0000 -0.6183 -0.7860
vn -0.8012 -0.0000 0.5984
vn -0.0000 0.6183 0.7860
vn 0.8010 -0.0000 0.5986
vn -0.0000 -0.6183 0.7860
vn 0.0000 1.0000 0.0000
vn -0.0000 0.0000 1.0000
vn -0.8013 0.0000 -0.5983
vn 0.0000 0.5919 -0.8060
vn 0.8008 -0.0001 -0.5989
vn -0.8019 0.0001 0.5975
vn -0.0000 0.5919 0.8060
vn 0.8013 0.0000 0.5983
vn 0.0000 -0.0000 -1.0000
vn 0.0000 0.0000 1.0000
# 25 vertex normals

vt 0.0000 0.0000 0.0000
vt 0.0000 1.0000 0.0000
vt 1.0000 1.0000 0.0000
vt 1.0000 0.0000 0.0000
vt 0.1639 0.0000 0.0000
vt 0.8351 0.0000 0.0000
vt 0.8299 0.0000 0.0000
vt 0.0872 0.0000 0.0000
# 8 texture coords

g Plane008
usemtl wire_088177027
s off
f 25/5/18 26/6/18 27/6/18 28/5/18 
f 26/6/19 29/7/19 30/7/19 27/6/19 
f 29/7/19 31/8/19 32/8/19 30/7/19 
f 33/9/19 25/5/19 28/5/19 34/10/19 
f 31/8/19 34/10/19 28/5/19 32/8/19 
f 26/6/20 25/5/20 35/5/20 36/6/20 
f 29/7/21 26/6/21 36/6/21 37/7/21 
f 31/8/22 29/7/22 37/7/22 38/8/22 
s 1
f 36/6/23 35/5/24 39/5/24 40/6/23 
s 2
f 41/11/23 38/8/23 42/8/23 43/12/23 
f 35/5/23 43/12/23 42/8/23 39/5/23 
s 1
f 38/8/23 37/7/24 44/7/24 42/8/23 
s 2
f 37/7/23 36/6/23 40/6/23 44/7/23 
s off
f 28/5/25 27/6/25 45/6/25 46/5/25 
f 27/6/26 30/7/26 47/7/26 45/6/26 
f 30/7/27 32/8/27 48/8/27 47/7/27 
f 32/8/28 28/5/28 46/5/28 48/8/28 
f 40/6/29 39/5/29 49/5/29 50/6/29 
f 44/7/30 40/6/30 50/6/30 51/7/30 
f 42/8/31 44/7/31 51/7/31 52/8/31 
f 39/5/32 42/8/32 52/8/32 49/5/32 
s 2
f 45/6/33 47/7/33 51/7/33 50/6/33 
f 48/8/21 46/5/21 49/5/21 52/8/21 
s 1
f 46/5/19 45/6/19 47/7/19 
f 47/7/19 48/8/19 46/5/19 
s 4
f 45/6/21 50/6/21 51/7/21 
f 51/7/21 47/7/21 45/6/21 
s 1
f 50/6/24 49/5/24 52/8/24 
f 52/8/24 51/7/24 50/6/24 
s 4
f 49/5/33 46/5/33 48/8/33 
f 48/8/33 52/8/33 49/5/33 
s off
f 53/5/18 25/6/18 33/6/18 54/5/18 
f 31/7/19 55/8/19 56/8/19 34/7/19 
f 55/8/19 53/5/19 54/5/19 56/8/19 
f 25/6/20 53/5/20 57/5/20 35/6/20 
f 55/8/22 31/7/22 38/7/22 58/8/22 
f 53/5/33 55/8/33 58/8/33 57/5/33 
s 1
f 35/6/24 57/5/24 59/5/24 43/6/24 
s 2
f 57/5/34 58/8/23 60/8/23 59/5/34 
s 1
f 58/8/23 38/7/23 41/7/23 60/8/23 
s off
f 54/5/35 33/6/35 61/6/35 62/5/35 
f 33/6/36 34/7/36 63/7/36 61/6/36 
f 34/7/37 56/8/37 64/8/37 63/7/37 
f 56/8/28 54/5/28 62/5/28 64/8/28 
f 43/6/38 59/5/38 65/5/38 66/6/38 
f 41/7/39 43/6/39 66/6/39 67/7/39 
f 60/8/40 41/7/40 67/7/40 68/8/40 
f 59/5/32 60/8/32 68/8/32 65/5/32 
s 2
f 61/6/33 63/7/33 67/7/33 66/6/33 
f 64/8/21 62/5/21 65/5/21 68/8/21 
s 1
f 62/5/41 61/6/41 63/7/41 
f 63/7/41 64/8/41 62/5/41 
s 4
f 61/6/21 66/6/21 67/7/21 
f 67/7/21 63/7/21 61/6/21 
s 1
f 66/6/42 65/5/42 68/8/42 
f 68/8/42 67/7/42 66/6/42 
s 4
f 65/5/33 62/5/33 64/8/33 
f 64/8/33 68/8/33 65/5/33 
# 42 polygons - 16 triangles

#
# object Plane010
#

v  780.0092 36.2726 -455.7068
v  780.0092 138.1599 -455.7068
v  793.5248 125.0456 -455.7068
v  793.5248 49.3869 -455.7068
v  864.9166 138.1599 -455.7068
v  851.4010 125.0456 -455.7068
v  864.9166 36.2726 -455.7068
v  851.4010 49.3869 -455.7068
v  780.0093 36.2726 -468.8089
v  780.0093 138.1599 -468.8089
v  864.9166 138.1599 -468.8089
v  864.9166 36.2726 -468.8089
v  793.4633 49.3869 -468.8089
v  793.4633 125.0456 -468.8089
v  851.3395 49.3869 -468.8089
v  851.3395 125.0456 -468.8089
v  797.3174 118.5938 -460.7819
v  797.3174 55.8387 -460.7819
v  847.6101 118.5938 -460.7819
v  847.6101 55.8387 -460.7819
v  797.2540 55.8387 -463.7339
v  797.2540 118.5938 -463.7339
v  847.5468 118.5938 -463.7339
v  847.5468 55.8387 -463.7339
# 24 vertices

vn -0.0000 0.0000 -1.0000
vn 0.0000 0.0000 -1.0000
vn 1.0000 -0.0000 0.0000
vn 0.0000 -1.0000 -0.0000
vn -1.0000 0.0000 -0.0000
vn 0.0000 1.0000 0.0000
vn -0.0000 -0.0000 1.0000
vn 0.0000 -0.0000 1.0000
vn -0.0000 0.0000 1.0000
vn -0.8010 0.0000 -0.5986
vn 0.0000 0.6183 -0.7860
vn 0.8012 0.0000 -0.5984
vn 0.0000 -0.6183 -0.7860
vn -0.8012 -0.0000 0.5984
vn -0.0000 0.6183 0.7860
vn 0.8010 -0.0000 0.5986
vn -0.0000 -0.6183 0.7860
vn 0.0000 -0.0000 -1.0000
# 18 vertex normals

vt 0.0000 0.0000 0.0000
vt 0.0000 1.0000 0.0000
vt 1.0000 1.0000 0.0000
vt 1.0000 0.0000 0.0000
# 4 texture coords

g Plane010
usemtl wire_088177027
s off
f 69/13/43 70/14/43 71/14/43 72/13/43 
f 70/14/44 73/15/44 74/15/44 71/14/44 
f 73/15/44 75/16/44 76/16/44 74/15/44 
f 75/16/44 69/13/44 72/13/44 76/16/44 
f 70/14/45 69/13/45 77/13/45 78/14/45 
f 73/15/46 70/14/46 78/14/46 79/15/46 
f 75/16/47 73/15/47 79/15/47 80/16/47 
f 69/13/48 75/16/48 80/16/48 77/13/48 
s 1
f 78/14/49 77/13/50 81/13/50 82/14/49 
s 2
f 77/13/51 80/16/49 83/16/49 81/13/51 
s 1
f 80/16/49 79/15/50 84/15/50 83/16/49 
s 2
f 79/15/51 78/14/49 82/14/49 84/15/51 
s off
f 72/13/52 71/14/52 85/14/52 86/13/52 
f 71/14/53 74/15/53 87/15/53 85/14/53 
f 74/15/54 76/16/54 88/16/54 87/15/54 
f 76/16/55 72/13/55 86/13/55 88/16/55 
f 82/14/56 81/13/56 89/13/56 90/14/56 
f 84/15/57 82/14/57 90/14/57 91/15/57 
f 83/16/58 84/15/58 91/15/58 92/16/58 
f 81/13/59 83/16/59 92/16/59 89/13/59 
s 2
f 85/14/48 87/15/48 91/15/48 90/14/48 
f 88/16/46 86/13/46 89/13/46 92/16/46 
s 1
f 86/13/60 85/14/60 87/15/60 
f 87/15/60 88/16/60 86/13/60 
s 4
f 85/14/46 90/14/46 91/15/46 
f 91/15/46 87/15/46 85/14/46 
s 1
f 90/14/50 89/13/50 92/16/50 
f 92/16/50 91/15/50 90/14/50 
s 4
f 89/13/48 86/13/48 88/16/48 
f 88/16/48 92/16/48 89/13/48 
# 22 polygons - 8 triangles

#
# object Plane011
#

v  780.0093 -65.3825 -442.6048
v  780.0093 36.5048 -442.6048
v  793.5249 23.3906 -442.6048
v  793.5249 -52.2682 -442.6048
v  864.9166 36.5048 -442.6048
v  851.4010 23.3906 -442.6048
v  864.9166 -65.3825 -442.6048
v  851.4010 -52.2682 -442.6048
v  780.0093 -65.3825 -455.7069
v  780.0093 36.5048 -455.7069
v  864.9166 36.5048 -455.7069
v  864.9166 -65.3825 -455.7069
v  793.4634 -52.2682 -455.7069
v  793.4634 23.3906 -455.7069
v  851.3395 -52.2682 -455.7069
v  851.3395 23.3906 -455.7069
v  797.3174 16.9387 -447.6798
v  797.3174 -45.8164 -447.6798
v  847.6102 16.9387 -447.6798
v  847.6102 -45.8164 -447.6798
v  797.2541 -45.8164 -450.6319
v  797.2541 16.9387 -450.6319
v  847.5468 16.9387 -450.6319
v  847.5468 -45.8164 -450.6319
# 24 vertices

vn -0.0000 0.0000 -1.0000
vn 0.0000 0.0000 -1.0000
vn 1.0000 -0.0000 0.0000
vn 0.0000 -1.0000 -0.0000
vn -1.0000 0.0000 -0.0000
vn 0.0000 1.0000 0.0000
vn -0.0000 -0.0000 1.0000
vn 0.0000 -0.0000 1.0000
vn -0.0000 0.0000 1.0000
vn -0.8010 0.0000 -0.5986
vn 0.0000 0.6183 -0.7860
vn 0.8012 0.0000 -0.5984
vn 0.0000 -0.6183 -0.7860
vn -0.8012 -0.0000 0.5984
vn -0.0000 0.6183 0.7860
vn 0.8010 -0.0000 0.5986
vn -0.0000 -0.6183 0.7860
vn 0.0000 -0.0000 -1.0000
# 18 vertex normals

vt 0.0000 0.0000 0.0000
vt 0.0000 1.0000 0.0000
vt 1.0000 1.0000 0.0000
vt 1.0000 0.0000 0.0000
# 4 texture coords

g Plane011
usemtl wire_088177027
s off
f 93/17/61 94/18/61 95/18/61 96/17/61 
f 94/18/62 97/19/62 98/19/62 95/18/62 
f 97/19/62 99/20/62 100/20/62 98/19/62 
f 99/20/62 93/17/62 96/17/62 100/20/62 
f 94/18/63 93/17/63 101/17/63 102/18/63 
f 97/19/64 94/18/64 102/18/64 103/19/64 
f 99/20/65 97/19/65 103/19/65 104/20/65 
f 93/17/66 99/20/66 104/20/66 101/17/66 
s 1
f 102/18/67 101/17/68 105/17/68 106/18/67 
s 2
f 101/17/69 104/20/67 107/20/67 105/17/69 
s 1
f 104/20/67 103/19/68 108/19/68 107/20/67 
s 2
f 103/19/69 102/18/67 106/18/67 108/19/69 
s off
f 96/17/70 95/18/70 109/18/70 110/17/70 
f 95/18/71 98/19/71 111/19/71 109/18/71 
f 98/19/72 100/20/72 112/20/72 111/19/72 
f 100/20/73 96/17/73 110/17/73 112/20/73 
f 106/18/74 105/17/74 113/17/74 114/18/74 
f 108/19/75 106/18/75 114/18/75 115/19/75 
f 107/20/76 108/19/76 115/19/76 116/20/76 
f 105/17/77 107/20/77 116/20/77 113/17/77 
s 2
f 109/18/66 111/19/66 115/19/66 114/18/66 
f 112/20/64 110/17/64 113/17/64 116/20/64 
s 1
f 110/17/78 109/18/78 111/19/78 
f 111/19/78 112/20/78 110/17/78 
s 4
f 109/18/64 114/18/64 115/19/64 
f 115/19/64 111/19/64 109/18/64 
s 1
f 114/18/68 113/17/68 116/20/68 
f 116/20/68 115/19/68 114/18/68 
s 4
f 113/17/66 110/17/66 112/20/66 
f 112/20/66 116/20/66 113/17/66 
# 22 polygons - 8 triangles

#
# object Plane012
#

v  175.3240 15.7175 -455.7068
v  175.3240 117.6048 -455.7068
v  188.8396 104.4905 -455.7068
v  188.8396 28.8318 -455.7068
v  260.2313 117.6048 -455.7068
v  246.7157 104.4905 -455.7068
v  260.2313 15.7175 -455.7068
v  246.7157 28.8318 -455.7068
v  188.8454 15.7175 -455.7068
v  246.7253 15.7175 -455.7068
v  175.3240 15.7175 -468.8089
v  175.3240 117.6048 -468.8089
v  260.2313 117.6048 -468.8089
v  260.2313 15.7175 -468.8089
v  188.7781 28.8318 -468.8089
v  188.7781 104.4905 -468.8089
v  246.6479 15.7175 -468.8089
v  246.6542 28.8318 -468.8089
v  188.7972 15.7175 -468.8089
v  246.6542 104.4905 -468.8089
v  192.6322 98.0387 -460.7819
v  192.6322 35.2836 -460.7819
v  242.9249 98.0387 -460.7819
v  242.9249 35.2836 -460.7819
v  192.5688 35.2836 -463.7339
v  192.5688 98.0387 -463.7339
v  242.8615 98.0387 -463.7339
v  242.8615 35.2836 -463.7339
v  175.3240 -73.5147 -455.7068
v  188.8396 -60.4005 -455.7068
v  260.2313 -73.5147 -455.7068
v  246.7157 -60.4005 -455.7068
v  175.3240 -73.5147 -468.8089
v  260.2313 -73.5147 -468.8089
v  188.7781 -60.4005 -468.8089
v  246.6542 -60.4005 -468.8089
v  192.6322 8.8065 -460.7819
v  192.6322 -53.9486 -460.7819
v  242.9249 8.8065 -460.7819
v  242.9249 -53.9486 -460.7819
v  192.5688 -53.9486 -463.7339
v  192.5688 8.8065 -463.7339
v  242.8615 8.8065 -463.7339
v  242.8615 -53.9486 -463.7339
v  172.7485 47.1705 -449.5264
v  268.5762 64.0675 -449.5264
v  263.0829 95.2213 -449.5263
v  167.2552 78.3243 -449.5263
v  172.7485 47.1705 -455.5900
v  167.2552 78.3243 -455.5900
v  263.0829 95.2213 -455.5900
v  268.5762 64.0675 -455.5900
v  169.2765 -32.2975 -449.5263
v  266.5825 -32.2975 -449.5263
v  266.5825 -0.6631 -449.5263
v  169.2765 -0.6631 -449.5263
v  169.2765 -32.2975 -455.5900
v  169.2765 -0.6631 -455.5900
v  266.5825 -0.6631 -455.5900
v  266.5825 -32.2975 -455.5900
# 60 vertices

vn -0.0000 0.0000 -1.0000
vn 0.0000 0.0000 -1.0000
vn 1.0000 -0.0000 0.0000
vn 0.0000 -1.0000 -0.0000
vn -1.0000 0.0000 -0.0000
vn -0.0000 -0.0000 1.0000
vn 0.0000 -0.0000 1.0000
vn -0.8010 0.0000 -0.5986
vn 0.0000 0.6183 -0.7860
vn 0.8012 0.0000 -0.5984
vn 0.0000 -0.6183 -0.7860
vn -0.8012 -0.0000 0.5984
vn -0.0000 0.6183 0.7860
vn 0.8010 -0.0000 0.5986
vn -0.0000 -0.6183 0.7860
vn 0.0000 1.0000 0.0000
vn -0.0000 0.0000 1.0000
vn -0.8013 0.0000 -0.5983
vn 0.0000 0.5919 -0.8060
vn 0.8008 -0.0001 -0.5989
vn -0.8019 0.0001 0.5975
vn -0.0000 0.5919 0.8060
vn 0.8013 0.0000 0.5983
vn 0.0000 -0.0000 -1.0000
vn 0.0000 0.0000 1.0000
vn 0.1736 -0.9848 -0.0000
vn 0.9848 0.1736 0.0000
vn -0.1736 0.9848 0.0000
vn -0.9848 -0.1736 -0.0000
vn 1.0000 0.0000 -0.0000
# 30 vertex normals

vt 0.0000 0.0000 0.0000
vt 0.0000 1.0000 0.0000
vt 1.0000 1.0000 0.0000
vt 1.0000 0.0000 0.0000
vt 0.1639 0.0000 0.0000
vt 0.8351 0.0000 0.0000
vt 0.8299 0.0000 0.0000
vt 0.0872 0.0000 0.0000
# 8 texture coords

g Plane012
usemtl wire_141007058
s off
f 117/21/79 118/22/79 119/22/79 120/21/79 
f 118/22/80 121/23/80 122/23/80 119/22/80 
f 121/23/80 123/24/80 124/24/80 122/23/80 
f 125/25/80 117/21/80 120/21/80 126/26/80 
f 123/24/80 126/26/80 120/21/80 124/24/80 
f 118/22/81 117/21/81 127/21/81 128/22/81 
f 121/23/82 118/22/82 128/22/82 129/23/82 
f 123/24/83 121/23/83 129/23/83 130/24/83 
s 1
f 128/22/84 127/21/85 131/21/85 132/22/84 
s 2
f 133/27/84 130/24/84 134/24/84 135/28/84 
f 127/21/84 135/28/84 134/24/84 131/21/84 
s 1
f 130/24/84 129/23/85 136/23/85 134/24/84 
s 2
f 129/23/84 128/22/84 132/22/84 136/23/84 
s off
f 120/21/86 119/22/86 137/22/86 138/21/86 
f 119/22/87 122/23/87 139/23/87 137/22/87 
f 122/23/88 124/24/88 140/24/88 139/23/88 
f 124/24/89 120/21/89 138/21/89 140/24/89 
f 132/22/90 131/21/90 141/21/90 142/22/90 
f 136/23/91 132/22/91 142/22/91 143/23/91 
f 134/24/92 136/23/92 143/23/92 144/24/92 
f 131/21/93 134/24/93 144/24/93 141/21/93 
s 2
f 137/22/94 139/23/94 143/23/94 142/22/94 
f 140/24/82 138/21/82 141/21/82 144/24/82 
s 1
f 138/21/80 137/22/80 139/23/80 
f 139/23/80 140/24/80 138/21/80 
s 4
f 137/22/82 142/22/82 143/23/82 
f 143/23/82 139/23/82 137/22/82 
s 1
f 142/22/85 141/21/85 144/24/85 
f 144/24/85 143/23/85 142/22/85 
s 4
f 141/21/94 138/21/94 140/24/94 
f 140/24/94 144/24/94 141/21/94 
s off
f 145/21/79 117/22/79 125/22/79 146/21/79 
f 123/23/80 147/24/80 148/24/80 126/23/80 
f 147/24/80 145/21/80 146/21/80 148/24/80 
f 117/22/81 145/21/81 149/21/81 127/22/81 
f 147/24/83 123/23/83 130/23/83 150/24/83 
f 145/21/94 147/24/94 150/24/94 149/21/94 
s 1
f 127/22/85 149/21/85 151/21/85 135/22/85 
s 2
f 149/21/95 150/24/84 152/24/84 151/21/95 
s 1
f 150/24/84 130/23/84 133/23/84 152/24/84 
s off
f 146/21/96 125/22/96 153/22/96 154/21/96 
f 125/22/97 126/23/97 155/23/97 153/22/97 
f 126/23/98 148/24/98 156/24/98 155/23/98 
f 148/24/89 146/21/89 154/21/89 156/24/89 
f 135/22/99 151/21/99 157/21/99 158/22/99 
f 133/23/100 135/22/100 158/22/100 159/23/100 
f 152/24/101 133/23/101 159/23/101 160/24/101 
f 151/21/93 152/24/93 160/24/93 157/21/93 
s 2
f 153/22/94 155/23/94 159/23/94 158/22/94 
f 156/24/82 154/21/82 157/21/82 160/24/82 
s 1
f 154/21/102 153/22/102 155/23/102 
f 155/23/102 156/24/102 154/21/102 
s 4
f 153/22/82 158/22/82 159/23/82 
f 159/23/82 155/23/82 153/22/82 
s 1
f 158/22/103 157/21/103 160/24/103 
f 160/24/103 159/23/103 158/22/103 
s 4
f 157/21/94 154/21/94 156/24/94 
f 156/24/94 160/24/94 157/21/94 
s 2
f 161/24/85 162/21/85 163/22/85 164/23/85 
s 4
f 165/21/79 166/22/79 167/23/79 168/24/79 
s 8
f 161/21/104 165/22/104 168/23/104 162/24/104 
s 16
f 162/21/105 168/22/105 167/23/105 163/24/105 
s 32
f 163/21/106 167/22/106 166/23/106 164/24/106 
s 64
f 164/21/107 166/22/107 165/23/107 161/24/107 
s 2
f 169/24/85 170/21/85 171/22/85 172/23/85 
s 4
f 173/21/80 174/22/80 175/23/80 176/24/80 
s 8
f 169/21/82 173/22/82 176/23/82 170/24/82 
s 16
f 170/21/108 176/22/108 175/23/108 171/24/108 
s 32
f 171/21/94 175/22/94 174/23/94 172/24/94 
s 64
f 172/21/83 174/22/83 173/23/83 169/24/83 
# 54 polygons - 16 triangles

#
# object Plane013
#

v  359.6950 28.3726 -455.7068
v  359.6951 -73.5147 -455.7068
v  346.1794 -60.4005 -455.7068
v  346.1794 15.2583 -455.7068
v  274.7877 -73.5147 -455.7068
v  288.3033 -60.4005 -455.7068
v  274.7877 28.3726 -455.7068
v  288.3033 15.2583 -455.7068
v  346.1736 28.3726 -455.7068
v  288.2937 28.3726 -455.7068
v  359.6950 28.3726 -468.8089
v  359.6950 -73.5147 -468.8089
v  274.7877 -73.5147 -468.8089
v  274.7877 28.3726 -468.8089
v  346.2410 15.2583 -468.8089
v  346.2410 -60.4005 -468.8089
v  288.3711 28.3726 -468.8089
v  288.3648 15.2583 -468.8089
v  346.2219 28.3726 -468.8089
v  288.3648 -60.4005 -468.8089
v  342.3869 -53.9486 -460.7819
v  342.3869 8.8065 -460.7819
v  292.0942 -53.9486 -460.7819
v  292.0942 8.8065 -460.7819
v  342.4502 8.8065 -463.7339
v  342.4502 -53.9486 -463.7339
v  292.1575 -53.9486 -463.7339
v  292.1575 8.8065 -463.7339
v  359.6950 117.6048 -455.7068
v  346.1794 104.4905 -455.7068
v  274.7877 117.6048 -455.7068
v  288.3033 104.4905 -455.7068
v  359.6950 117.6048 -468.8089
v  274.7877 117.6048 -468.8089
v  346.2410 104.4905 -468.8089
v  288.3648 104.4905 -468.8089
v  342.3869 35.2836 -460.7819
v  342.3868 98.0387 -460.7819
v  292.0942 35.2836 -460.7819
v  292.0941 98.0387 -460.7819
v  342.4502 98.0387 -463.7339
v  342.4502 35.2836 -463.7339
v  292.1575 35.2836 -463.7339
v  292.1575 98.0387 -463.7339
v  362.2705 -3.0804 -449.5264
v  266.4429 -19.9774 -449.5264
v  271.9361 -51.1312 -449.5263
v  367.7638 -34.2342 -449.5263
v  362.2705 -3.0804 -455.5900
v  367.7638 -34.2342 -455.5900
v  271.9361 -51.1312 -455.5900
v  266.4429 -19.9774 -455.5900
v  365.7425 76.3876 -449.5263
v  268.4365 76.3876 -449.5263
v  268.4365 44.7532 -449.5263
v  365.7425 44.7532 -449.5263
v  365.7425 76.3876 -455.5900
v  365.7425 44.7532 -455.5900
v  268.4365 44.7532 -455.5900
v  268.4365 76.3876 -455.5900
# 60 vertices

vn 0.0000 -0.0000 -1.0000
vn -0.0000 -0.0000 -1.0000
vn -1.0000 -0.0000 0.0000
vn -0.0000 1.0000 -0.0000
vn 1.0000 0.0000 -0.0000
vn 0.0000 0.0000 1.0000
vn -0.0000 0.0000 1.0000
vn 0.8010 0.0000 -0.5986
vn 0.0000 -0.6183 -0.7860
vn -0.8012 -0.0000 -0.5984
vn -0.0000 0.6183 -0.7860
vn 0.8012 0.0000 0.5984
vn 0.0000 -0.6183 0.7860
vn -0.8010 -0.0000 0.5986
vn -0.0000 0.6183 0.7860
vn 0.0000 -1.0000 0.0000
vn 0.0000 -0.0000 1.0000
vn 0.8013 -0.0000 -0.5983
vn 0.0000 -0.5919 -0.8060
vn -0.8008 0.0001 -0.5989
vn 0.8019 -0.0001 0.5975
vn 0.0000 -0.5919 0.8060
vn -0.8013 -0.0000 0.5983
vn -0.0000 0.0000 -1.0000
vn -0.1736 0.9848 -0.0000
vn -0.9848 -0.1736 0.0000
vn 0.1736 -0.9848 0.0000
vn 0.9848 0.1736 -0.0000
vn -1.0000 -0.0000 -0.0000
# 29 vertex normals

vt 0.0000 0.0000 0.0000
vt 0.0000 1.0000 0.0000
vt 1.0000 1.0000 0.0000
vt 1.0000 0.0000 0.0000
vt 0.1639 0.0000 0.0000
vt 0.8351 0.0000 0.0000
vt 0.8299 0.0000 0.0000
vt 0.0872 0.0000 0.0000
# 8 texture coords

g Plane013
usemtl wire_141007058
s off
f 177/29/109 178/30/109 179/30/109 180/29/109 
f 178/30/110 181/31/110 182/31/110 179/30/110 
f 181/31/109 183/32/109 184/32/109 182/31/109 
f 185/33/110 177/29/110 180/29/110 186/34/110 
f 183/32/110 186/34/110 180/29/110 184/32/110 
f 178/30/111 177/29/111 187/29/111 188/30/111 
f 181/31/112 178/30/112 188/30/112 189/31/112 
f 183/32/113 181/31/113 189/31/113 190/32/113 
s 1
f 188/30/114 187/29/115 191/29/115 192/30/114 
s 2
f 193/35/114 190/32/114 194/32/114 195/36/114 
f 187/29/114 195/36/114 194/32/114 191/29/114 
s 1
f 190/32/114 189/31/115 196/31/115 194/32/114 
s 2
f 189/31/114 188/30/114 192/30/114 196/31/114 
s off
f 180/29/116 179/30/116 197/30/116 198/29/116 
f 179/30/117 182/31/117 199/31/117 197/30/117 
f 182/31/118 184/32/118 200/32/118 199/31/118 
f 184/32/119 180/29/119 198/29/119 200/32/119 
f 192/30/120 191/29/120 201/29/120 202/30/120 
f 196/31/121 192/30/121 202/30/121 203/31/121 
f 194/32/122 196/31/122 203/31/122 204/32/122 
f 191/29/123 194/32/123 204/32/123 201/29/123 
s 2
f 197/30/124 199/31/124 203/31/124 202/30/124 
f 200/32/112 198/29/112 201/29/112 204/32/112 
s 1
f 198/29/109 197/30/109 199/31/109 
f 199/31/109 200/32/109 198/29/109 
s 4
f 197/30/112 202/30/112 203/31/112 
f 203/31/112 199/31/112 197/30/112 
s 1
f 202/30/115 201/29/115 204/32/115 
f 204/32/115 203/31/115 202/30/115 
s 4
f 201/29/124 198/29/124 200/32/124 
f 200/32/124 204/32/124 201/29/124 
s off
f 205/29/109 177/30/109 185/30/109 206/29/109 
f 183/31/110 207/32/110 208/32/110 186/31/110 
f 207/32/110 205/29/110 206/29/110 208/32/110 
f 177/30/111 205/29/111 209/29/111 187/30/111 
f 207/32/113 183/31/113 190/31/113 210/32/113 
f 205/29/124 207/32/124 210/32/124 209/29/124 
s 1
f 187/30/115 209/29/115 211/29/115 195/30/115 
s 2
f 209/29/125 210/32/114 212/32/114 211/29/125 
s 1
f 210/32/114 190/31/114 193/31/114 212/32/114 
s off
f 206/29/126 185/30/126 213/30/126 214/29/126 
f 185/30/127 186/31/127 215/31/127 213/30/127 
f 186/31/128 208/32/128 216/32/128 215/31/128 
f 208/32/119 206/29/119 214/29/119 216/32/119 
f 195/30/129 211/29/129 217/29/129 218/30/129 
f 193/31/130 195/30/130 218/30/130 219/31/130 
f 212/32/131 193/31/131 219/31/131 220/32/131 
f 211/29/123 212/32/123 220/32/123 217/29/123 
s 2
f 213/30/124 215/31/124 219/31/124 218/30/124 
f 216/32/112 214/29/112 217/29/112 220/32/112 
s 1
f 214/29/132 213/30/132 215/31/132 
f 215/31/132 216/32/132 214/29/132 
s 4
f 213/30/112 218/30/112 219/31/112 
f 219/31/112 215/31/112 213/30/112 
s 1
f 218/30/125 217/29/125 220/32/125 
f 220/32/125 219/31/125 218/30/125 
s 4
f 217/29/124 214/29/124 216/32/124 
f 216/32/124 220/32/124 217/29/124 
s 2
f 221/32/115 222/29/115 223/30/115 224/31/115 
s 4
f 225/29/109 226/30/109 227/31/109 228/32/109 
s 8
f 221/29/133 225/30/133 228/31/133 222/32/133 
s 16
f 222/29/134 228/30/134 227/31/134 223/32/134 
s 32
f 223/29/135 227/30/135 226/31/135 224/32/135 
s 64
f 224/29/136 226/30/136 225/31/136 221/32/136 
s 2
f 229/32/115 230/29/115 231/30/115 232/31/115 
s 4
f 233/29/109 234/30/109 235/31/109 236/32/109 
s 8
f 229/29/112 233/30/112 236/31/112 230/32/112 
s 16
f 230/29/137 236/30/137 235/31/137 231/32/137 
s 32
f 231/29/124 235/30/124 234/31/124 232/32/124 
s 64
f 232/29/113 234/30/113 233/31/113 229/32/113 
# 54 polygons - 16 triangles

