# Blender v2.75 (sub 0) OBJ File: '_001.blend'
# www.blender.org
mtllib Window with no plank .mtl
o Plane008.002
v -42.450989 -6.330176 6.551054
v -42.450989 95.557121 6.551088
v -28.935394 82.442825 6.551082
v -28.935394 6.784124 6.551058
v 42.456329 95.557121 6.551088
v 28.940704 82.442825 6.551082
v 42.456329 -6.330176 6.551054
v 28.940704 6.784124 6.551058
v -28.929565 -6.330176 6.551054
v 28.950317 -6.330176 6.551054
v -42.450989 -6.330172 -6.551058
v -42.450989 95.557121 -6.551024
v 42.456329 95.557121 -6.551024
v 42.456329 -6.330172 -6.551058
v -25.142792 75.991020 1.475977
v -25.142792 13.235926 1.475956
v 25.149933 75.991020 1.475977
v 25.149933 13.235926 1.475956
v -28.996887 82.442825 -6.551030
v -28.996887 6.784128 -6.551054
v -25.206177 13.235926 -1.476040
v -25.206177 75.991020 -1.476019
v 28.879211 82.442825 -6.551030
v 25.086517 75.991020 -1.476019
v 28.879211 6.784128 -6.551054
v 25.086517 13.235926 -1.476040
v -42.450989 -95.562378 6.551024
v -28.935394 -82.448174 6.551030
v 42.456329 -95.562378 6.551024
v 28.940704 -82.448174 6.551030
v -42.450989 -95.562378 -6.551088
v 42.456329 -95.562378 -6.551088
v -25.142792 -13.241174 1.475948
v -25.142792 -75.996277 1.475928
v 25.149933 -13.241174 1.475948
v 25.149933 -75.996277 1.475928
v -28.977783 -6.330172 -6.551058
v -28.996887 -82.448174 -6.551082
v -25.206177 -75.996277 -1.476068
v -25.206177 -13.241174 -1.476048
v 28.872925 -6.330172 -6.551058
v 25.086517 -13.241174 -1.476048
v 28.879211 -82.448174 -6.551082
v 25.086517 -75.996277 -1.476068
vt 0.000000 0.000000
vt 0.000000 1.000000
vt 1.000000 1.000000
vt 1.000000 0.000000
vt 0.163900 0.000000
vt 0.835100 0.000000
vt 0.829900 0.000000
vt 0.087200 0.000000
vn -0.000000 0.000000 -1.000000
vn 1.000000 -0.000000 0.000000
vn 0.000000 -1.000000 0.000000
vn -1.000000 -0.000000 0.000000
vn -0.801000 0.000000 -0.598600
vn 0.000000 0.618300 -0.786000
vn 0.801200 0.000000 -0.598400
vn 0.000000 -0.618300 -0.786000
vn -0.801200 -0.000000 0.598400
vn 0.000000 0.618300 0.786000
vn 0.801000 -0.000000 0.598600
vn 0.000000 -0.618300 0.786000
vn 0.000000 1.000000 0.000000
vn -0.801300 0.000000 -0.598300
vn 0.000000 0.591900 -0.806000
vn 0.800800 -0.000100 -0.598900
vn -0.801900 0.000100 0.597500
vn 0.000000 0.591900 0.806000
vn 0.801300 0.000000 0.598300
vn 0.000000 -0.618200 0.786000
vn 0.000000 -0.000000 1.000000
usemtl wire_088177027.002
s off
f 1/1/1 2/2/1 3/2/1 4/1/1
f 2/2/1 5/3/1 6/3/1 3/2/1
f 5/3/1 7/4/1 8/4/1 6/3/1
f 9/5/1 1/1/1 4/1/1 10/6/1
f 7/4/1 10/6/1 4/1/1 8/4/1
f 2/2/2 1/1/2 11/1/2 12/2/2
f 5/3/3 2/2/3 12/2/3 13/3/3
f 7/4/4 5/3/4 13/3/4 14/4/4
f 4/1/5 3/2/5 15/2/5 16/1/5
f 3/2/6 6/3/6 17/3/6 15/2/6
f 6/3/7 8/4/7 18/4/7 17/3/7
f 8/4/8 4/1/8 16/1/8 18/4/8
f 19/2/9 20/1/9 21/1/9 22/2/9
f 23/3/10 19/2/10 22/2/10 24/3/10
f 25/4/11 23/3/11 24/3/11 26/4/11
f 20/1/12 25/4/12 26/4/12 21/1/12
f 27/1/1 1/2/1 9/2/1 28/1/1
f 7/3/1 29/4/1 30/4/1 10/3/1
f 29/4/1 27/1/1 28/1/1 30/4/1
f 1/2/2 27/1/2 31/1/2 11/2/2
f 29/4/4 7/3/4 14/3/4 32/4/4
f 27/1/13 29/4/13 32/4/13 31/1/13
f 28/1/14 9/2/14 33/2/14 34/1/14
f 9/2/15 10/3/15 35/3/15 33/2/15
f 10/3/16 30/4/16 36/4/16 35/3/16
f 30/4/8 28/1/8 34/1/8 36/4/8
f 37/2/17 38/1/17 39/1/17 40/2/17
f 41/3/18 37/2/18 40/2/18 42/3/18
f 43/4/19 41/3/19 42/3/19 44/4/19
f 38/1/20 43/4/20 44/4/20 39/1/20
s 1
f 12/2/21 11/1/21 20/1/21 19/2/21
f 41/7/21 14/4/21 25/4/21 37/8/21
f 11/1/21 37/8/21 25/4/21 20/1/21
f 14/4/21 13/3/21 23/3/21 25/4/21
f 13/3/21 12/2/21 19/2/21 23/3/21
f 15/2/13 17/3/13 24/3/13 22/2/13
f 18/4/3 16/1/3 21/1/3 26/4/3
f 16/1/1 15/2/1 17/3/1
f 17/3/1 18/4/1 16/1/1
f 15/2/3 22/2/3 24/3/3
f 24/3/3 17/3/3 15/2/3
f 22/2/21 21/1/21 26/4/21
f 26/4/21 24/3/21 22/2/21
f 21/1/13 16/1/13 18/4/13
f 18/4/13 26/4/13 21/1/13
f 11/2/21 31/1/21 38/1/21 37/2/21
f 31/1/21 32/4/21 43/4/21 38/1/21
f 32/4/21 14/3/21 41/3/21 43/4/21
f 33/2/13 35/3/13 42/3/13 40/2/13
f 36/4/3 34/1/3 39/1/3 44/4/3
f 34/1/1 33/2/1 35/3/1
f 35/3/1 36/4/1 34/1/1
f 33/2/3 40/2/3 42/3/3
f 42/3/3 35/3/3 33/2/3
f 40/2/21 39/1/21 44/4/21
f 44/4/21 42/3/21 40/2/21
f 39/1/13 34/1/13 36/4/13
f 36/4/13 44/4/13 39/1/13
